<?xml version="1.0" encoding="utf-8"?>
<!-- Generator: Adobe Illustrator 19.0.0, SVG Export Plug-In . SVG Version: 6.00 Build 0)  -->
<svg version="1.1" id="Capa_1" xmlns="http://www.w3.org/2000/svg" xmlns:xlink="http://www.w3.org/1999/xlink" x="0px" y="0px"
	 width="132px" height="132px" viewBox="-516 341.6 132 132" style="enable-background:new -516 341.6 132 132;"
	 xml:space="preserve">
<style type="text/css">
	.st0{opacity:0.9;}
	.st1{fill:#D65D38;}
</style>
<g id="Layer_1">
</g>
<g id="Capa_2">
</g>
<g class="st0">
	<g>
		<g>
			<path class="st1" d="M-450,473.5c-36.4,0-66-29.6-66-66s29.6-66,66-66c36.4,0,66,29.6,66,66S-413.6,473.5-450,473.5z M-450,349.7
				c-31.9,0-57.8,25.9-57.8,57.8c0,31.9,25.9,57.8,57.8,57.8c31.9,0,57.8-25.9,57.8-57.8C-392.2,375.7-418.1,349.7-450,349.7z"/>
		</g>
		<g>
			<g>
				<path class="st1" d="M-429.5,391c1.3-1.9,2.7-3.7,4.2-5.5c1.6,1.4,3.1,2.7,4.8,4c2.5,1.9,6-1.5,3.5-3.5
					c-1.7-1.4-3.4-2.8-5.1-4.3c1.3-1.4,2.5-2.9,3.9-4.3c2.2-2.3-1.3-5.8-3.5-3.5c-1.4,1.5-2.7,2.9-4,4.5c-1.2-1.1-2.4-2.3-3.6-3.5
					c-2.2-2.2-5.7,1.2-3.5,3.5c1.3,1.3,2.6,2.5,3.9,3.8c-1.7,2-3.3,4.1-4.8,6.3C-435.6,391.1-431.4,393.6-429.5,391L-429.5,391z
					 M-429.5,391"/>
				<path class="st1" d="M-468,418.5c-1.7,1.5-3.4,3.2-5.1,4.8c-1-1-2-2-3-3.1c-2.2-2.3-5.6,1.2-3.5,3.5c1,1,2,2.1,3,3.1
					c-1.2,1.2-2.3,2.4-3.5,3.5c-2.2,2.2,1.2,5.7,3.5,3.5c1.2-1.2,2.4-2.4,3.5-3.6c1.2,1.1,2.4,2.2,3.5,3.3c2.3,2.2,5.8-1.3,3.5-3.5
					c-1.2-1.1-2.4-2.2-3.5-3.3c1.6-1.6,3.3-3.2,5-4.7C-462.2,419.8-465.7,416.4-468,418.5L-468,418.5z M-468,418.5"/>
				<path class="st1" d="M-413.3,427.2c-0.1-0.2-0.4-0.8-0.6-1.3c-1-2-2.3-3.8-4.4-4.9c-2.9-1.5-6.1-0.8-9,0.5
					c-0.2,0.1-0.5,0.3-0.6,0.4c-0.3,0.3-0.7,0.9-1.1,1.3c-2.6,3.3-3.6,7.3-2.6,11.6c0,0.2,0.1,0.4,0.2,0.5c0.1,0.3,0.5,0.9,0.7,1.3
					c1.6,3,4.3,4.7,7.9,5.1c0.1,0,0.2,0,0.3,0c0.2,0,0.5,0,0.8,0c0.2,0,0.3,0,0.5-0.1c3-0.7,5.6-2.1,7.4-4.7
					c1.8-2.7,1.5-6.4,0.7-9.4C-413.1,427.5-413.2,427.4-413.3,427.2L-413.3,427.2z M-417.8,434.1c-0.7,1.5-2.2,2.2-3.7,2.6
					c-0.5,0.2-1,0.2-1.2,0.2c-0.1,0-0.1,0-0.2,0c-1.7-0.2-3.2-1.3-3.8-2.9c0-0.1-0.1-0.2-0.1-0.3c-0.1-0.1-0.2-0.7-0.3-1.2
					c-0.3-2.3,0.4-4.3,1.8-6.2c0.3-0.4,1-0.9,1.6-1.1c2.8-0.8,4.8,0.9,5.8,3.9c0,0.1,0,0.1,0.1,0.2c0,0.1,0.2,0.6,0.3,1.1
					C-417.3,431.7-417.2,433-417.8,434.1L-417.8,434.1z M-417.8,434.1"/>
				<path class="st1" d="M-436.6,399.6c-0.1,2.6-0.3,5.2-0.4,7.8c-13.1-13-35.6-18.5-49.2-3.4c-2.1,2.3,1.4,5.8,3.5,3.5
					c11.6-12.9,30.1-7.9,41.5,2.6c-2.3-0.4-4.6-0.7-7-1.1c-3.1-0.5-4.4,4.2-1.3,4.7l14,2.2c1.8,0.3,3-1.2,3.1-2.6c0-0.1,0-0.1,0-0.2
					c0.3-4.5,0.5-9,0.7-13.5C-431.5,396.4-436.4,396.4-436.6,399.6L-436.6,399.6z M-436.6,399.6"/>
				<path class="st1" d="M-486.1,387.8c-1.7,2.7,2.5,5.1,4.2,2.5c0.9-1.4,1.9-2.8,2.8-4.2c0.9,0.8,1.9,1.7,2.9,2.5
					c2.4,2,5.9-1.5,3.5-3.5c-1.2-1-2.4-2-3.5-3.1c0.9-1.3,1.8-2.7,2.7-4c1.7-2.7-2.5-5.1-4.2-2.5c-0.7,1-1.3,2-2,3
					c-1.3-1.3-2.5-2.6-3.7-4c-2.1-2.4-5.6,1.1-3.5,3.5c1.4,1.6,2.8,3.1,4.3,4.6C-483.8,384.3-485,386-486.1,387.8L-486.1,387.8z
					 M-486.1,387.8"/>
			</g>
		</g>
	</g>
</g>
</svg>
