<?xml version="1.0" encoding="utf-8"?>
<!-- Generator: Adobe Illustrator 19.0.0, SVG Export Plug-In . SVG Version: 6.00 Build 0)  -->
<svg version="1.1" id="Capa_1" xmlns="http://www.w3.org/2000/svg" xmlns:xlink="http://www.w3.org/1999/xlink" x="0px" y="0px"
	 width="163px" height="163px" viewBox="-216 339.9 163 163" style="enable-background:new -216 339.9 163 163;"
	 xml:space="preserve">
<style type="text/css">
	.st0{opacity:0.9;}
	.st1{fill:#D65D38;}
</style>
<g id="Layer_1">
</g>
<g id="Capa_2">
</g>
<g class="st0">
	<g>
		<g>
			<path class="st1" d="M-134.5,502.9c-44.9,0-81.5-36.6-81.5-81.5s36.6-81.5,81.5-81.5S-53,376.5-53,421.4S-89.6,502.9-134.5,502.9
				z M-134.5,350c-39.4,0-71.4,32-71.4,71.4c0,39.4,32,71.4,71.4,71.4s71.4-32,71.4-71.4C-63.1,382-95.1,350-134.5,350z"/>
		</g>
		<g>
			<g>
				<path class="st1" d="M-142.6,485.7L-142.6,485.7c-1.4,0-2.4-1.1-2.4-2.4c0.2-15.2-1.1-26.2-3.6-31.7c-1-2.1-2.8-3.9-4.5-5.5
					c-2.1-2.1-4.1-4-4.8-6.6c-0.5-1.2-0.8-2.8-0.8-4.3c-0.1-3.6,1.1-7,3.4-9.8c0.4-0.5,1-0.8,1.6-0.9c0.6,0,1.3,0.2,1.8,0.6
					c0.8,0.7,1.6,1.2,2.4,1.6c1.7,0.9,3.6,1.3,5.5,1.3l0.5,0c2.9-0.1,5.6-1.2,7.8-3.2c0.9-0.8,2.2-0.8,3.1-0.1
					c2.1,1.7,4.9,2.7,7.6,2.7h0.5c2-0.1,4-0.7,5.8-1.7c0.6-0.4,1.2-0.8,1.7-1.3c0.5-0.4,1.1-0.6,1.8-0.6c0.7,0.1,1.2,0.4,1.7,0.9
					c2.1,2.5,3.2,5.6,3.3,8.8c0,1.5-0.1,3.1-0.6,4.6c-0.5,2.6-2.5,4.8-4.7,7.2c-1.7,1.9-3.5,3.8-4.4,6c-2.4,5.6-3.6,16.7-3.4,31.9
					c0,1.3-1.1,2.4-2.4,2.4h0c-1.3,0-2.4-1.1-2.4-2.4c-0.2-16.2,1.1-27.6,3.8-33.9c1.3-3,3.4-5.3,5.3-7.4c1.7-1.9,3.3-3.6,3.6-5.1
					c0.3-1.2,0.5-2.3,0.4-3.3c0-1.4-0.4-2.8-1-4l-0.2,0.1c-2.5,1.5-5.3,2.3-8.2,2.4l-0.5,0c-3.2,0-6.4-0.9-9.1-2.6
					c-2.7,2-6,3.1-9.4,3.2h-0.5c-2.7,0-5.4-0.6-7.8-1.9c-0.4-0.2-0.8-0.4-1.2-0.7c-0.7,1.5-1.1,3.1-1,4.7c0,1,0.2,2.1,0.6,3
					c0.4,1.5,1.9,3,3.6,4.6c2,1.9,4.2,4,5.6,7c2.9,6.2,4.2,17.6,4,33.7C-140.2,484.7-141.2,485.7-142.6,485.7L-142.6,485.7z
					 M-142.6,485.7"/>
				<path class="st1" d="M-144,423.5c-2.3,0-4.6-0.6-6.7-1.6c-4.8-2.4-7.9-7.3-8.1-12.6c0-1.5,0.1-3.1,0.6-4.6
					c0.5-2.6,2.5-4.9,4.7-7.2c1.7-1.9,3.5-3.8,4.4-6c2.4-5.6,3.6-16.7,3.4-31.9c0-1.3,1.1-2.4,2.4-2.4c1.4,0,2.4,1.1,2.4,2.4
					c0.2,16.2-1.1,27.6-3.8,33.9c-1.3,3-3.4,5.3-5.3,7.4c-1.7,1.9-3.3,3.6-3.5,5.1c-0.4,1.2-0.5,2.3-0.4,3.3
					c0.1,3.6,2.2,6.9,5.4,8.5c1.5,0.8,3.1,1.1,4.8,1.1c3-0.1,5.7-1.5,7.5-3.9c0.4-0.6,1.1-0.9,1.8-0.9c0.7,0,1.4,0.2,1.9,0.8
					c2,2.2,4.8,3.4,7.8,3.3c1.7-0.1,3.3-0.5,4.8-1.4c3.1-1.9,5-5.2,4.9-8.9c0-1-0.2-2.1-0.6-3c-0.4-1.5-1.9-3-3.6-4.6
					c-2-1.9-4.2-4-5.5-7c-2.9-6.2-4.3-17.6-4.1-33.7c0-1.3,0.9-2.4,2.4-2.4c1.3,0,2.4,1.1,2.4,2.4c-0.2,15.2,1.1,26.2,3.6,31.7
					c1,2.1,2.8,3.8,4.5,5.5c2.1,2,4.2,4,4.8,6.6c0.4,1.2,0.8,2.7,0.8,4.3c0.2,5.4-2.6,10.4-7.2,13.2c-2.1,1.3-4.6,2-7,2.1
					c-3.5,0.1-6.9-1-9.6-3.2c-2.6,2.3-5.9,3.7-9.4,3.8L-144,423.5z M-144,423.5"/>
			</g>
		</g>
	</g>
</g>
</svg>
