<?xml version="1.0" encoding="utf-8"?>
<!-- Generator: Adobe Illustrator 19.0.0, SVG Export Plug-In . SVG Version: 6.00 Build 0)  -->
<svg version="1.1" id="Capa_1" xmlns="http://www.w3.org/2000/svg" xmlns:xlink="http://www.w3.org/1999/xlink" x="0px" y="0px"
	 width="163px" height="163px" viewBox="-216 339.9 163 163" style="enable-background:new -216 339.9 163 163;"
	 xml:space="preserve">
<style type="text/css">
	.st0{opacity:0.9;}
	.st1{fill:#D65D38;}
</style>
<g id="Layer_1">
</g>
<g id="Capa_2">
</g>
<g class="st0">
	<g>
		<g>
			<g>
				<path class="st1" d="M-146.2,391.9h24.3c3.8,0,7-3.1,7-7c0-3.8-3.1-7-7-7h-1.2c-0.5-3.9-3.9-6.9-8-6.9h-5.8c-4.1,0-7.4,3-8,6.9
					h-1.2c-3.8,0-7,3.1-7,7C-153.2,388.8-150.1,391.9-146.2,391.9z"/>
				<path class="st1" d="M-112.7,375.8h-4.3c2.6,1.4,4.5,3.9,5.2,6.9c5.3,0.5,9.4,4.9,9.4,10.3v61.6c0,5.7-4.6,10.3-10.3,10.3h-42.8
					c-5.7,0-10.3-4.6-10.3-10.3V393c0-5.4,4.1-9.8,9.4-10.3c0.7-3,2.6-5.5,5.2-6.9h-4.3c-9.5,0-17.2,7.7-17.2,17.2v61.6
					c0,9.5,7.7,17.2,17.2,17.2h42.8c9.5,0,17.2-7.7,17.2-17.2V393C-95.5,383.5-103.2,375.8-112.7,375.8z"/>
				<path class="st1" d="M-112.8,403.9h-21.3c-1.9,0-3.4,1.5-3.4,3.4c0,1.9,1.5,3.4,3.4,3.4h21.3c1.9,0,3.4-1.5,3.4-3.4
					C-109.4,405.4-110.9,403.9-112.8,403.9z"/>
				<path class="st1" d="M-112.8,422.2h-21.3c-1.9,0-3.4,1.5-3.4,3.4c0,1.9,1.5,3.4,3.4,3.4h21.3c1.9,0,3.4-1.5,3.4-3.4
					C-109.4,423.7-110.9,422.2-112.8,422.2z"/>
				<path class="st1" d="M-112.8,440.5h-21.3c-1.9,0-3.4,1.5-3.4,3.4c0,1.9,1.5,3.4,3.4,3.4h21.3c1.9,0,3.4-1.5,3.4-3.4
					C-109.4,442-110.9,440.5-112.8,440.5z"/>
				<path class="st1" d="M-139.2,407.3c0-5.7-4.6-10.3-10.3-10.3c-5.7,0-10.3,4.6-10.3,10.3c0,4,2.3,7.4,5.6,9.2
					c-3.3,1.7-5.6,5.2-5.6,9.2c0,4,2.3,7.4,5.6,9.2c-3.3,1.7-5.6,5.2-5.6,9.2c0,5.7,4.6,10.3,10.3,10.3c5.7,0,10.3-4.6,10.3-10.3
					c0-4-2.3-7.4-5.6-9.2c3.3-1.7,5.6-5.2,5.6-9.2c0-4-2.3-7.4-5.6-9.2C-141.5,414.7-139.2,411.3-139.2,407.3z M-143.2,439.4
					c0.8,0.8,0.8,2,0,2.7l-6.3,6.3c-0.4,0.4-0.9,0.6-1.4,0.6c-0.5,0-1-0.2-1.4-0.6l-3.7-3.7c-0.8-0.8-0.8-2,0-2.7
					c0.8-0.8,2-0.8,2.7,0l2.3,2.3l4.9-4.9C-145.2,438.6-143.9,438.6-143.2,439.4z M-143.2,421.1c0.8,0.8,0.8,2,0,2.7l-6.3,6.3
					c-0.4,0.4-0.9,0.6-1.4,0.6c-0.5,0-1-0.2-1.4-0.6l-3.7-3.7c-0.8-0.8-0.8-2,0-2.7c0.8-0.8,2-0.8,2.7,0l2.3,2.3l4.9-4.9
					C-145.2,420.3-143.9,420.3-143.2,421.1z M-143.2,405.5l-6.3,6.3c-0.4,0.4-0.9,0.6-1.4,0.6c-0.5,0-1-0.2-1.4-0.6l-3.7-3.7
					c-0.8-0.8-0.8-2,0-2.7c0.8-0.8,2-0.8,2.7,0l2.3,2.3l4.9-4.9c0.8-0.8,2-0.8,2.7,0C-142.4,403.5-142.4,404.8-143.2,405.5z"/>
			</g>
		</g>
		<g>
			<path class="st1" d="M-134.5,502c-44.4,0-80.6-36.2-80.6-80.6c0-44.4,36.2-80.6,80.6-80.6s80.6,36.2,80.6,80.6
				C-53.9,465.8-90.1,502-134.5,502z M-134.5,350.8c-38.9,0-70.6,31.7-70.6,70.6c0,38.9,31.7,70.6,70.6,70.6
				c38.9,0,70.6-31.7,70.6-70.6C-63.9,382.4-95.6,350.8-134.5,350.8z"/>
		</g>
	</g>
</g>
</svg>
