<?xml version="1.0" encoding="utf-8"?>
<!-- Generator: Adobe Illustrator 19.0.0, SVG Export Plug-In . SVG Version: 6.00 Build 0)  -->
<svg version="1.1" id="Capa_1" xmlns="http://www.w3.org/2000/svg" xmlns:xlink="http://www.w3.org/1999/xlink" x="0px" y="0px"
	 width="163px" height="163px" viewBox="-216 339.9 163 163" style="enable-background:new -216 339.9 163 163;"
	 xml:space="preserve">
<style type="text/css">
	.st0{opacity:0.9;}
	.st1{fill:#D65D38;}
</style>
<g id="Layer_1">
</g>
<g id="Capa_2">
</g>
<g class="st0">
	<g>
		<g>
			<path class="st1" d="M-134.5,502.9c-44,0-79.8-35.8-79.8-79.8s35.8-79.8,79.8-79.8s79.8,35.8,79.8,79.8S-90.5,502.9-134.5,502.9z
				 M-134.5,353.1c-38.6,0-69.9,31.4-69.9,69.9c0,38.6,31.4,69.9,69.9,69.9c38.6,0,69.9-31.4,69.9-69.9
				C-64.6,384.5-95.9,353.1-134.5,353.1z"/>
		</g>
		<g>
			<g>
				<path class="st1" d="M-99.5,378.4h-70c-5.3,0-9.6,4.3-9.6,9.6v70c0,5.3,4.3,9.6,9.6,9.6h70c5.3,0,9.6-4.3,9.6-9.6v-70
					C-89.8,382.7-94.2,378.4-99.5,378.4L-99.5,378.4z M-115.1,388.5l-7.2,10.6c-4.3-2.9-8.4-3.8-12-3.8l-5.1-8.7l-1.3,0.7l4.1,8.2
					c-5.7,0.7-9.6,3.4-9.6,3.5l-7.6-10.3C-153.1,388.1-135,375.1-115.1,388.5L-115.1,388.5z M-100.7,447.9c0,5.3-4.3,9.6-9.6,9.6
					h-48.5c-5.3,0-9.6-4.3-9.6-9.6v-34c0-5.3,4.3-9.6,9.6-9.6h48.5c5.3,0,9.6,4.3,9.6,9.6V447.9z M-100.7,447.9"/>
			</g>
		</g>
	</g>
</g>
</svg>
