<?xml version="1.0" encoding="utf-8"?>
<!-- Generator: Adobe Illustrator 19.0.0, SVG Export Plug-In . SVG Version: 6.00 Build 0)  -->
<svg version="1.1" id="Capa_1" xmlns="http://www.w3.org/2000/svg" xmlns:xlink="http://www.w3.org/1999/xlink" x="0px" y="0px"
	 width="163px" height="163px" viewBox="-216 339.9 163 163" style="enable-background:new -216 339.9 163 163;"
	 xml:space="preserve">
<style type="text/css">
	.st0{opacity:0.9;}
	.st1{fill:#D65D38;}
</style>
<g id="Layer_1">
</g>
<g id="Capa_2">
</g>
<g class="st0">
	<g>
		<g>
			<path class="st1" d="M-134.5,500.4c-43.6,0-79-35.4-79-79c0-43.6,35.4-79,79-79s79,35.4,79,79C-55.5,465-90.9,500.4-134.5,500.4z
				 M-134.5,352.2c-38.2,0-69.2,31.1-69.2,69.2c0,38.2,31.1,69.2,69.2,69.2c38.2,0,69.2-31.1,69.2-69.2
				C-65.3,383.2-96.3,352.2-134.5,352.2z"/>
		</g>
		<g>
			<g>
				<path class="st1" d="M-166.5,372.1c0.6-3,3.3-5.1,6.3-5c0.4,0,0.7,0,1.1,0.1c17.5,3.5,35.3,12.4,54.1,26.9l7.2-8.4l11.6,33
					l-34.3-6.5l7.4-8.6c-16.9-12.9-33.2-21-48.4-24.1C-165,378.8-167.1,375.5-166.5,372.1L-166.5,372.1z M-164.3,404.6
					c0-3.5-2.8-6.3-6.3-6.3h-6.3c-3.5,0-6.3,2.8-6.3,6.3v56.3c0,3.5,2.8,6.3,6.3,6.3h6.3c3.5,0,6.3-2.8,6.3-6.3V404.6z M-89.3,442.1
					c0-3.5-2.8-6.3-6.3-6.3h-6.3c-3.5,0-6.3,2.8-6.3,6.3v18.8c0,3.5,2.8,6.3,6.3,6.3h6.3c3.5,0,6.3-2.8,6.3-6.3V442.1z
					 M-139.3,417.1c0-3.5-2.8-6.3-6.3-6.3h-6.3c-3.5,0-6.3,2.8-6.3,6.3v43.8c0,3.5,2.8,6.3,6.3,6.3h6.3c3.5,0,6.3-2.8,6.3-6.3V417.1
					z M-114.3,429.6c0-3.5-2.8-6.3-6.3-6.3h-6.3c-3.5,0-6.3,2.8-6.3,6.3v31.3c0,3.5,2.8,6.3,6.3,6.3h6.3c3.5,0,6.3-2.8,6.3-6.3
					V429.6z M-114.3,429.6"/>
			</g>
		</g>
	</g>
</g>
</svg>
