<?xml version="1.0" encoding="utf-8"?>
<!-- Generator: Adobe Illustrator 19.0.0, SVG Export Plug-In . SVG Version: 6.00 Build 0)  -->
<svg version="1.1" id="Capa_1" xmlns="http://www.w3.org/2000/svg" xmlns:xlink="http://www.w3.org/1999/xlink" x="0px" y="0px"
	 width="163px" height="163px" viewBox="-216 339.9 163 163" style="enable-background:new -216 339.9 163 163;"
	 xml:space="preserve">
<style type="text/css">
	.st0{opacity:0.9;}
	.st1{fill:#D65D38;}
</style>
<g id="Layer_1">
</g>
<g id="Capa_2">
</g>
<g class="st0">
	<g>
		<g>
			<path class="st1" d="M-134.5,500.8c-43.8,0-79.4-35.6-79.4-79.4s35.6-79.4,79.4-79.4s79.4,35.6,79.4,79.4
				S-90.7,500.8-134.5,500.8z M-134.5,351.8c-38.4,0-69.6,31.2-69.6,69.6s31.2,69.6,69.6,69.6c38.4,0,69.6-31.2,69.6-69.6
				S-96.1,351.8-134.5,351.8z"/>
		</g>
		<g>
			<g>
				<path class="st1" d="M-102.6,370c-16.5,1.5-28.7,9.7-35.8,21.6c-4.8,6-14.2,24.2-17.7,33.7c-6.3,11.8-11.7,25.9-16,38.6
					c-2.6,7.8,9.1,12.8,11.7,5c3.2-9.5,7.1-19.8,11.4-29.3c4.3,9.7,8.7,19.4,13.5,28.9c3.7,7.4,14.7,0.9,11-6.4
					c-4.9-9.8-9.4-19.7-13.8-29.7c0.1-0.2,0.1-0.4,0.2-0.6c0.7,0.2,1.6,0.3,2.5,0.1c6.8-1.3,13.6-2.6,20.4-3.8
					c2.9-0.6,4-3.7,3.6-6.3c-1.4-7.6-5.7-13-11.1-18c-0.8-2.7-3.5-5.2-6.5-7.6c6-9.8,15.9-15.1,28.7-16.2
					C-94,379.4-96.1,369.4-102.6,370L-102.6,370z M-127.4,413.4c1.7,1.8,3.1,3.6,4.2,5.7c-3.3,0.6-6.6,1.2-9.9,1.9
					C-131.5,418.3-129.6,415.8-127.4,413.4L-127.4,413.4z M-127.4,413.4"/>
			</g>
			<path class="st1" d="M-104.6,396c0,4.8-3.9,8.8-8.8,8.8c-4.8,0-8.8-3.9-8.8-8.8c0-4.8,3.9-8.8,8.8-8.8
				C-108.5,387.2-104.6,391.1-104.6,396L-104.6,396z M-104.6,396"/>
		</g>
	</g>
</g>
</svg>
