<?xml version="1.0" encoding="utf-8"?>
<!-- Generator: Adobe Illustrator 19.0.0, SVG Export Plug-In . SVG Version: 6.00 Build 0)  -->
<svg version="1.1" id="Capa_1" xmlns="http://www.w3.org/2000/svg" xmlns:xlink="http://www.w3.org/1999/xlink" x="0px" y="0px"
	 width="294.1px" height="201.9px" viewBox="-150 320 294.1 201.9" style="enable-background:new -150 320 294.1 201.9;"
	 xml:space="preserve">
<style type="text/css">
	.st0{display:none;}
	.st1{fill:#FFFFFF;}
</style>
<g id="Layer_1">
</g>
<g id="Capa_2" class="st0">
</g>
<g>
	<path class="st1" d="M-5.5,513.1c-7.1,0-12.9-2.8-12.9-6.3c0-3,4.2-5.5,9.9-6.1c-4.4,0.9-7.5,2.8-7.5,5c0,3.1,5.6,5.5,12.6,5.5
		c3.9,0,7.4-0.8,9.8-2C4.5,511.5-0.1,513.1-5.5,513.1z M54.7,413.5l4.5,0l38.3,81.4l-203.8,0l46.2-81.6l2.4-4.1l-4.4-1.9l0,0
		c-2.2,1.5-2.2,1.5-4.3,5.6l-57.9,100.6c0,4.1,3.3,7.4,7.4,7.4l226.8,0.3c4.1,0,7.4-3.3,7.4-7.4L66.2,413c-1.8-3.5-3.3-7.4-7.4-7.4
		h-1.4L54.7,413.5z"/>
	<g>
		<g>
			<path class="st1" d="M30,463l-81.9-25.5L-15.3,320l52.5,16.3l-8.9,31.5l28.6,8.9L30,463z M-47.9,435.4L27.9,459l24.9-80.2
				L24.4,370l8.9-31.5L-13.2,324L-47.9,435.4z"/>
		</g>
		<g>
			<path class="st1" d="M58,375.5l-27.8-8.6l8.7-31L58,375.5z M34.1,364.8l17.9,5.6l-12.3-25.5L34.1,364.8z"/>
		</g>
		<g>
			<path class="st1" d="M20.2,355.7l-32.2-10l4.7-15.3l32.2,10L20.2,355.7z M-8.1,343.6l26.2,8.1l2.9-9.2l-26.2-8.1L-8.1,343.6z"/>
		</g>
		<g>
			<polygon class="st1" points="8.4,471.1 -56.1,451.1 -52.4,439.3 19.4,461.6 18.5,464.6 -50.3,443.2 -52.1,449 9.3,468.1 			"/>
		</g>
		<g>
			<polygon class="st1" points="-6,479.2 -59.6,462.6 -56.7,453.2 1.1,470.9 0.2,473.9 -54.7,457.2 -55.7,460.5 -5,476.2 			"/>
		</g>
		<g>
			
				<rect x="4.8" y="421.7" transform="matrix(0.9549 0.297 -0.297 0.9549 126.6585 13.4835)" class="st1" width="28.4" height="3.7"/>
		</g>
		<g>
			
				<rect x="2.6" y="428.6" transform="matrix(0.9549 0.297 -0.297 0.9549 128.5966 14.4261)" class="st1" width="28.4" height="3.7"/>
		</g>
		<g>
			<rect x="0" y="437" transform="matrix(0.9549 0.297 -0.297 0.9549 130.9746 15.5808)" class="st1" width="28.4" height="3.7"/>
		</g>
		<g>
			
				<rect x="-37.7" y="439.7" transform="matrix(0.9549 0.297 -0.297 0.9549 130.9022 21.5567)" class="st1" width="64.4" height="3.7"/>
		</g>
		<g>
			<g>
				<path class="st1" d="M0.1,381c4.3,1.4,9-1.1,10.3-5.4c1.3-4.3-1.1-9-5.4-10.3c-4.3-1.4-9,1.1-10.3,5.4
					C-6.6,375-4.2,379.6,0.1,381L0.1,381z M0.1,381"/>
				<path class="st1" d="M27.8,380.9l-0.5-1.6c-0.2-0.7-0.8-1.3-1.5-1.5c-0.5-0.1-0.9-0.1-1.4,0l-19.9,6.6l-10-3.1l-12.6-16.7
					c-0.3-0.4-0.7-0.7-1.1-0.8c-0.7-0.2-1.5-0.1-2.1,0.4l-1.3,1.1c-1,0.8-1.2,2.2-0.4,3.2l12.7,16.8l-12.6,40.6
					c-0.6,2,0.5,4.1,2.5,4.8l0.3,0.1c2,0.6,4.1-0.5,4.8-2.5l5.9-19l1.5,0.5l-5.9,19c-0.6,2,0.5,4.1,2.5,4.8l0.3,0.1
					c2,0.6,4.1-0.5,4.8-2.5l12.6-40.6l20-6.6C27.5,383.4,28.2,382.1,27.8,380.9L27.8,380.9z M27.8,380.9"/>
			</g>
		</g>
	</g>
</g>
</svg>
