<?xml version="1.0" encoding="utf-8"?>
<!-- Generator: Adobe Illustrator 19.0.0, SVG Export Plug-In . SVG Version: 6.00 Build 0)  -->
<svg version="1.1" id="Capa_1" xmlns="http://www.w3.org/2000/svg" xmlns:xlink="http://www.w3.org/1999/xlink" x="0px" y="0px"
	 width="398.9px" height="36.5px" viewBox="-824 750.5 398.9 36.5" style="enable-background:new -824 750.5 398.9 36.5;"
	 xml:space="preserve">
<style type="text/css">
	.st0{display:none;}
	.st1{fill:#B2946F;}
	.st2{fill:none;}
	.st3{fill:#2D1E4A;}
	.st4{fill:#645386;}
	.st5{fill:#AF8F5D;}
	.st6{opacity:0.3;}
	.st7{fill:url(#SVGID_1_);}
	.st8{fill:#C8A981;}
	.st9{fill:url(#SVGID_2_);}
</style>
<g id="Layer_1" class="st0">
</g>
<g id="viajera">
</g>
<g id="graduanda" class="st0">
</g>
<g id="contratado" class="st0">
</g>
<g id="universidad" class="st0">
</g>
<g id="crecer_profesionalmente" class="st0">
</g>
<g id="mejorar_vida" class="st0">
</g>
<g id="estudiar_sin_dejarlos" class="st0">
</g>
<g id="conectarte" class="st0">
</g>
<g id="conectarte2" class="st0">
</g>
<g id="footer_1">
</g>
<g id="footer_2" class="st0">
</g>
<g id="cuerpo">
</g>
<g id="lightbox" class="st0">
</g>
<g id="guías" class="st0">
</g>
<g id="Capa_16">
</g>
<g id="XMLID_602_">
	<g id="XMLID_732_">
		<path class="st1" d="M-789.6,786.1c-1.2-0.1-1.3-0.3-1.5-6.1c-1.7,2.2-2.6,3-3.8,4c-2.4,1.7-6.2,2.9-9.4,2.9
			c-3.7,0-7.9-1.6-10.1-3.8c-2.5-2.4-3.8-6.3-3.8-11c0-0.5,0-1.1,0.1-1.9v-1.5v-10.8c0-5-5.6-4.6-5.7-5.2c-0.2-0.8,6.7-1.3,11.1-2.1
			c0.9-0.2,1.1,0.3,1.1,2.9l-0.2,16.1v2.1c0,7,4.2,11.8,10.4,11.8c5.9,0,10.8-4.3,10.3-9.2v-0.3v-15.9c0.1-6-5.8-4.8-5.8-5.5
			c0-1,8.5-1.9,11.3-2.3c0.5-0.1,1.2,0.1,1.2,2.2v5.1c3.4-4.2,7.7-6.2,12.5-6.2c5.3,0,8.4,2,11.4,6.9c3.6-4.7,7.8-6.9,13.2-6.9
			c8.2,0,13.2,5.7,13.2,15.1v10.4c0,2.1,0.4,4.2,1,4.9c0.8,1,3.3,2.2,5.1,2.4c0.9,0.1,1.1,0.4,1.1,0.9c0,0.6-0.4,0.9-1.1,0.9
			c-0.4,0-15.1,0-15.4,0c-0.7,0-1.3-0.3-1.3-0.9c0-0.4,0.3-0.7,0.8-0.9c3.3-1.2,3.4-1.5,3.4-6.5v-9.5c0-4.4-0.7-6.9-2.5-9.3
			c-1.9-2.6-4.5-3.9-7.5-3.9c-4.6,0-9.3,3.1-9.3,6.2c0,0.3,0,0.7,0.1,1.1c0.3,1.5,0.3,1.7,0.3,3.1v12.1c0,4.7,1.2,6.2,5.7,6.6
			c1.1,0.1,1.5,0.5,1.5,1c0,0.6-0.5,0.9-1.2,0.9c0,0-15.2,0-15.5,0c-0.6,0-1.2-0.2-1.2-0.9c0-0.3,0.3-0.6,0.9-0.8
			c3.3-1.1,3.3-1.3,3.3-6.2v-12.6c0-6.5-3.6-10.5-9.6-10.5c-5.5,0-9.2,3-9.2,7.7v15.3c0,1.2,0.1,2.3,0.1,3.3
			c0.5,2.6,6.1,2.4,6.1,2.8c0,0.4-0.1,0.7-0.5,0.7C-778.9,785-789.6,786.2-789.6,786.1z"/>
	</g>
	<g id="XMLID_603_">
		<g id="XMLID_729_">
			<path class="st2" d="M-497.8,769.1c5,0.2,9.9,0.5,14.8,0.8l-7.6-14.4L-497.8,769.1z"/>
		</g>
		<g id="XMLID_726_">
			<path class="st3" d="M-490.6,755.4l7.6,14.4c2,0.1,4.1,0.2,6.1,0.4l-10.4-18.7h-6.2l-9.5,17.3c1.7,0.1,3.5,0.2,5.2,0.2
				L-490.6,755.4z"/>
		</g>
		<g id="XMLID_706_">
			<path class="st3" d="M-451.3,751.5h-5.8v20.2c1.9,0.2,3.8,0.3,5.8,0.5V751.5z"/>
		</g>
		<g id="XMLID_703_">
			<path class="st4" d="M-474.6,786h6.4l-8.8-15.8c-2-0.1-4-0.3-6.1-0.4L-474.6,786z"/>
		</g>
		<g id="XMLID_700_">
			<path class="st4" d="M-506.8,786l8.9-17c-1.7-0.1-3.5-0.2-5.2-0.2l-9.4,17.2H-506.8z"/>
		</g>
		<g id="XMLID_697_">
			<path class="st4" d="M-425.1,786v-4.8h-26.2v-9.1c-1.9-0.2-3.8-0.3-5.8-0.5V786H-425.1z"/>
		</g>
		<g id="XMLID_694_">
			<path class="st2" d="M-630.5,768.1c2.6-0.1,5.1-0.2,7.7-0.2c0.4-0.1,0.8-0.3,1-0.5c0.6-0.5,0.8-1.4,0.8-2.8v-5
				c0-1.3-0.3-2.3-0.8-2.8c-0.6-0.5-1.5-0.8-2.9-0.8h-19.8v12.6c3.4-0.1,6.8-0.3,10.2-0.4v-0.1H-630.5z"/>
		</g>
		<g id="XMLID_691_">
			<polygon class="st3" points="-690.9,751.5 -701.4,772.2 -701.4,772.2 			"/>
		</g>
		<g id="XMLID_685_">
			<path class="st3" d="M-720.7,751.5h-6.2l12,21.9c1.9-0.2,3.7-0.4,5.6-0.5L-720.7,751.5z"/>
		</g>
		<g id="XMLID_681_">
			<path class="st3" d="M-668.2,751.5h-5.8v18.7c1.9-0.1,3.8-0.2,5.8-0.3V751.5z"/>
		</g>
		<g id="XMLID_678_">
			<path class="st3" d="M-585.9,756.2h15.9v-4.7h-37.4v4.7h15.8v11.1c1.9,0,3.8,0,5.8,0V756.2z"/>
		</g>
		<g id="XMLID_675_">
			<path class="st3" d="M-523.7,751.5h-5.8v16.4c1.9,0.1,3.8,0.1,5.8,0.2V751.5z"/>
		</g>
		<g id="XMLID_672_">
			<path class="st3" d="M-554.6,751.5h-5.8v15.8c1.9,0,3.8,0,5.8,0.1V751.5z"/>
		</g>
		<g id="XMLID_669_">
			<path class="st3" d="M-634.4,768.1v0.1c1.3,0,2.6-0.1,3.9-0.1H-634.4z"/>
		</g>
		<g id="XMLID_666_">
			<path class="st3" d="M-644.5,756h19.8c1.4,0,2.4,0.3,2.9,0.8c0.6,0.5,0.8,1.4,0.8,2.8v5c0,1.4-0.3,2.3-0.8,2.8
				c-0.2,0.2-0.6,0.4-1,0.5c2.5-0.1,5-0.1,7.5-0.2c0.1-0.5,0.1-1.1,0.1-1.8v-7.7c0-2.4-0.6-4.1-1.7-5.1c-1.2-1.1-3-1.6-5.5-1.6
				h-27.8v17.4c1.9-0.1,3.8-0.2,5.8-0.3V756z"/>
		</g>
		<g id="XMLID_663_">
			<polygon class="st5" points="-695.8,771.7 -685.2,751.5 -695.8,771.7 			"/>
		</g>
		<g id="XMLID_660_">
			<path class="st5" d="M-695.8,771.7l10.6-20.2h-5.7l-10.5,20.7C-699.5,772-697.6,771.9-695.8,771.7z"/>
		</g>
		<g id="XMLID_657_" class="st6">
			
				<radialGradient id="SVGID_1_" cx="-663.4485" cy="767.985" r="2.2395" gradientTransform="matrix(1.2165 0 0 1 180.4119 0)" gradientUnits="userSpaceOnUse">
				<stop  offset="0" style="stop-color:#D8C397"/>
				<stop  offset="1" style="stop-color:#B19260"/>
			</radialGradient>
			<path class="st7" d="M-624.7,768.1c0.8,0,1.4-0.1,1.9-0.2c-2.6,0.1-5.1,0.2-7.7,0.2H-624.7z"/>
		</g>
		<g id="XMLID_654_">
			<path class="st4" d="M-708.1,786l2.6-5.8l4.1-8.1l0,0l-4.1,8.1l-3.9-7.4c-1.9,0.2-3.7,0.3-5.6,0.5L-708.1,786L-708.1,786z"/>
		</g>
		<g id="XMLID_651_">
			<path class="st4" d="M-668.2,786v-16.2c-1.9,0.1-3.8,0.2-5.8,0.3V786H-668.2z"/>
		</g>
		<g id="XMLID_648_">
			<path class="st4" d="M-585.9,786v-18.8c-1.9,0-3.8,0-5.8,0V786H-585.9z"/>
		</g>
		<g id="XMLID_645_">
			<path class="st4" d="M-558.6,784.3c1.1,1.1,3.3,1.7,6.4,1.7h20.5c3.1,0,5.3-0.6,6.4-1.7c1.1-1.1,1.7-3.3,1.7-6.5V768
				c-1.9-0.1-3.8-0.1-5.8-0.2v13.4h-25.2v-13.9c-1.9,0-3.8,0-5.8-0.1v10.6C-560.3,781-559.8,783.2-558.6,784.3z"/>
		</g>
		<g id="XMLID_627_">
			<path class="st4" d="M-644.5,786v-17.4c-1.9,0.1-3.8,0.2-5.8,0.3V786H-644.5z"/>
		</g>
		<g id="XMLID_618_">
			<path class="st4" d="M-624.7,768.1h-5.8c-1.3,0-2.6,0.1-3.9,0.1v4.4l14,13.4h8.6l-15.8-13.5h5.1c2.5,0,4.4-0.5,5.5-1.6
				c0.8-0.8,1.4-1.9,1.6-3.3c-2.5,0.1-5,0.1-7.5,0.2C-623.3,768-624,768.1-624.7,768.1z"/>
		</g>
		<g id="XMLID_615_">
			<path class="st8" d="M-695.8,771.7c-1.9,0.1-3.7,0.3-5.6,0.5l-4.1,8.1l-2.6,5.8h4.8L-695.8,771.7z"/>
		</g>
		<g id="XMLID_604_">
			
				<radialGradient id="SVGID_2_" cx="77.4784" cy="159.5451" r="17.4014" gradientTransform="matrix(-0.7725 0.635 0.635 0.7725 -534.1789 598.179)" gradientUnits="userSpaceOnUse">
				<stop  offset="0" style="stop-color:#D8C397"/>
				<stop  offset="1" style="stop-color:#B19260"/>
			</radialGradient>
			<path class="st9" d="M-514.2,773.5l-1.5,3.5c19.7-0.4,41.5-3.6,46.7-11.8c-9.4,4.8-24.2,7.8-39.2,8.2c-0.5,0-4.1,0.1-4.1,0.1
				L-514.2,773.5z"/>
		</g>
	</g>
</g>
</svg>
