<?xml version="1.0" encoding="utf-8"?>
<!-- Generator: Adobe Illustrator 19.0.0, SVG Export Plug-In . SVG Version: 6.00 Build 0)  -->
<svg version="1.1" id="Capa_1" xmlns="http://www.w3.org/2000/svg" xmlns:xlink="http://www.w3.org/1999/xlink" x="0px" y="0px"
	 width="400.1px" height="83.2px" viewBox="-823 727.8 400.1 83.2" style="enable-background:new -823 727.8 400.1 83.2;"
	 xml:space="preserve">
<style type="text/css">
	.st0{display:none;}
	.st1{fill:#1E174F;}
	.st2{fill-rule:evenodd;clip-rule:evenodd;fill:#B0915F;}
</style>
<g id="Layer_1" class="st0">
</g>
<g id="viajera">
</g>
<g id="graduanda" class="st0">
</g>
<g id="contratado" class="st0">
</g>
<g id="universidad" class="st0">
</g>
<g id="crecer_profesionalmente" class="st0">
</g>
<g id="mejorar_vida" class="st0">
</g>
<g id="estudiar_sin_dejarlos" class="st0">
</g>
<g id="conectarte" class="st0">
</g>
<g id="conectarte2" class="st0">
</g>
<g id="footer_1">
</g>
<g id="footer_2" class="st0">
</g>
<g id="cuerpo">
</g>
<g id="lightbox" class="st0">
</g>
<g id="guías" class="st0">
</g>
<g id="Capa_16">
</g>
<g id="XMLID_174_">
	<g id="XMLID_563_">
		<path id="XMLID_590_" class="st1" d="M-768.5,791.5c-1.9-3.9-2.9-9.2,1.2-15c3.3-4.6,6.7-8.4,4.1-17.2c5.2,6,6.7,13.2,4.7,18.5
			C-760.8,784.4-766.5,785.6-768.5,791.5z"/>
		<path id="XMLID_587_" class="st1" d="M-782.1,793.3c-11.4-1.6-23.2-16.2-11.3-32c11.2-15,18.5-22.2,10.8-33.5
			c11.7,9.9,6.6,22.2-2.9,36.7C-790.3,772.1-792.8,784.3-782.1,793.3z"/>
		<path id="XMLID_575_" class="st1" d="M-815.1,799.6c0,0,4.6-0.7,16.9-4c6.4-1.7,13.6-0.5,16.6,2.5c2.7,2.7,3.6,6.1,3.8,6.6
			c0.3,0.8,0.6,2.6,0.6,2.6s1.1-2.9,1.4-3.4c0.2-0.3,1.6-0.4,2.6-3.1c0.7-2,0-4.8-3.6-7.4c-7.8-5.5-8.8-18.7-2-28.7
			c8.4-12.4,9.6-19,5.8-24.8c13.1,11.9,5.6,24.4,1.2,30.8c-3.8,5.5-5,10.2-3.8,15.5c0.2,1.1,0.4,2.9,1.5,4.7c1,1.5,2.5,5.5,5,4.6
			c3.9-1.4,7.7-0.5,14.3,0.9c11.1,2.4,15.2,3.1,15.2,3.1l8.4,11.4c0,0-20.3-3.9-27.5-5c-8.1-1.2-15.8,0.1-18.5,4.8
			c-2.7-4.7-10.2-6-18-4.9c-7.1,1-27.8,5-27.8,5L-815.1,799.6z"/>
	</g>
	<g id="XMLID_199_">
		<g id="XMLID_487_">
			<path id="XMLID_543_" class="st2" d="M-723.7,810.2v-0.7c1.2-0.1,2-0.4,2.6-1c0.6-0.5,1.1-1.4,1.4-2.6c0.2-0.9,0.5-2.1,0.7-3.8
				c0.3-1.7,0.5-3.7,0.8-6.1c0.2-2,0.4-3.8,0.6-5.3c0.1-1.5,0.2-2.4,0.2-2.8c0-1.1-0.3-2-1-2.6c-0.7-0.6-1.7-0.9-3.1-1.1v-0.7
				c0.5,0,1.1,0,1.7,0.1c0.6,0,1.5,0,2.6,0c1.2,0,2,0,2.6,0c0.6,0,1.1,0,1.5-0.1v0.6c-0.1,0.1-0.2,0.3-0.3,0.4
				c-0.1,0.1-0.1,0.3-0.1,0.4c0,0.8,0.7,2.7,2,5.8c0,0.1,0.1,0.2,0.1,0.3l5.9,13.2l7.3-16.1c0,0,0.1-0.1,0.1-0.2
				c0.5-1,0.7-1.9,0.7-2.6c0-0.3,0-0.5-0.1-0.6c-0.1-0.2-0.2-0.3-0.3-0.5v-0.6c0.5,0,1,0,1.6,0.1c0.6,0,1.4,0,2.6,0
				c1.2,0,2.1,0,2.8,0c0.6,0,1.2,0,1.8-0.1v0.7c-1.4,0-2.4,0.4-3.1,1.1c-0.6,0.7-0.9,1.8-0.9,3.4c0,0.2,0,0.5,0,0.9
				c0,0.4,0,1,0.1,1.6l0.8,12.3c0.2,2.4,0.5,4,1.1,4.6c0.6,0.6,1.7,1,3.3,1.2v0.7c-1.3,0-2.5,0-3.3-0.1c-0.9,0-1.8,0-2.6,0
				c-1.3,0-3.5,0-6.5,0.1h-0.5v-0.7c1.9-0.2,3.2-0.6,3.8-1.2c0.7-0.6,1-1.6,1-3.1c0-0.3,0-0.5,0-0.7c0-0.2,0-0.3,0-0.4l-0.9-15.8
				l-5.9,12.9c-0.5,1.1-1.1,2.4-1.7,3.9c-0.6,1.5-1.4,3.3-2.3,5.5h-0.4c-0.5-1.1-1-2.3-1.5-3.5c-0.5-1.2-0.8-1.9-0.8-1.9l-7.1-15.8
				l-0.5,5.1c-0.2,2.2-0.4,4.3-0.5,6.3c-0.1,1.9-0.2,3.5-0.2,4.6c0,1.5,0.3,2.5,0.9,3.1c0.6,0.6,1.9,1,3.8,1.2v0.7
				c-0.1,0-0.2,0-0.3,0c-2.5-0.1-4.3-0.1-5.5-0.1c-0.7,0-1.4,0-2.1,0C-721.5,810.1-722.5,810.1-723.7,810.2z"/>
			<path id="XMLID_511_" class="st2" d="M-682,798.3c0,3.3,0.8,6,2.4,8.1c1.6,2.1,3.6,3.1,6.1,3.1c2.4,0,4.4-0.9,5.9-2.8
				c1.5-1.9,2.2-4.3,2.2-7.4c0-1.4-0.2-2.7-0.5-4c-0.3-1.3-0.8-2.4-1.5-3.4c-0.9-1.3-1.8-2.3-2.9-2.9c-1.1-0.6-2.3-0.9-3.7-0.9
				c-2.4,0-4.3,0.9-5.8,2.8C-681.3,792.9-682,795.3-682,798.3z M-685.8,798.8c0-3.5,1.1-6.3,3.3-8.4c2.2-2.1,5.2-3.1,8.9-3.1
				c3.6,0,6.6,1.1,8.8,3.2c2.2,2.2,3.3,5,3.3,8.6c0,3.4-1.1,6.2-3.3,8.3c-2.2,2.1-5.2,3.1-8.9,3.1c-3.6,0-6.6-1.1-8.8-3.2
				C-684.7,805.2-685.8,802.4-685.8,798.8z"/>
			<path id="XMLID_509_" class="st2" d="M-660.2,810.2l0-0.6c1.7-0.1,2.8-0.6,3.4-1.6c0.6-1,0.9-3.1,0.9-6.2v-6.2c0-0.3,0-0.7,0-1.1
				c0-0.5,0-0.8,0-1c0-1-0.1-1.8-0.3-2.4c-0.2-0.6-0.6-1.1-1-1.5c-0.4-0.4-0.9-0.7-1.5-0.9c-0.6-0.2-1.2-0.4-1.9-0.4v-0.6
				c0.3,0,0.9,0,1.5,0c0.7,0,1.1,0,1.5,0c0.3,0,0.8,0,1.4,0c0.6,0,1,0,1.3,0l16.1,17.3v-7.4c0-2.8-0.1-4.7-0.2-5.6
				c-0.2-1-0.4-1.7-0.8-2.2c-0.3-0.4-0.8-0.7-1.4-1c-0.6-0.2-1.3-0.4-2.2-0.5v-0.6c0.6,0,1.2,0,1.8,0c0.7,0,1.6,0,2.9,0
				c1.2,0,2.2,0,2.8,0c0.6,0,1.1,0,1.6,0v0.6h-0.3c-1.2,0-2,0.6-2.4,1.7c-0.5,1.2-0.7,3.3-0.7,6.4v6.9c0,1.6,0,3,0,4.3
				c0,1.2,0.1,2.4,0.1,3.4h-0.2c-0.7-0.8-1.4-1.6-2.1-2.4c-0.8-0.9-1.2-1.4-1.3-1.5l-13.6-14.4v6.4c0,3.1,0.1,5.2,0.2,6.3
				c0.1,1.1,0.3,1.9,0.6,2.3c0.3,0.5,0.7,0.8,1.3,1.1c0.6,0.3,1.5,0.5,2.6,0.8v0.6c0,0-0.1,0-0.1,0c-2.2,0-3.9-0.1-5-0.1
				c-0.6,0-1.3,0-2,0C-657.9,810.1-658.9,810.1-660.2,810.2z"/>
			<path id="XMLID_508_" class="st2" d="M-621.3,803.4c0,1.6,0.1,2.8,0.2,3.4c0.1,0.7,0.4,1.1,0.7,1.4c0.3,0.3,0.8,0.6,1.4,0.8
				c0.6,0.2,1.3,0.4,2.2,0.5l0,0.6c-1.6,0-2.8,0-3.6,0c-0.8,0-1.6,0-2.3,0c-1.3,0-3.3,0-5.9,0.1h-0.1v-0.6c0.9-0.1,1.6-0.3,2.2-0.5
				c0.6-0.2,1-0.5,1.3-0.8c0.3-0.3,0.6-0.8,0.7-1.4c0.1-0.7,0.2-1.8,0.2-3.4v-14.6h-2.2c-2,0-3.5,0.3-4.4,0.9
				c-0.9,0.6-1.6,1.7-2,3.3l-0.5-0.1l0.6-6.2h0.4l1,1c1,0,2.5,0,4.5,0c2,0,3.4,0,4.4,0c1,0,2.4,0,4.4,0c1.9,0,3.4,0,4.3,0l1.1-1h0.3
				l0.5,6.3l-0.5,0.1c-0.4-1.5-1-2.6-2-3.3c-0.9-0.7-2.3-1-4.2-1h-2.4V803.4z"/>
			<path id="XMLID_507_" class="st2" d="M-611.7,810.2v-0.6c1.7-0.2,2.9-0.6,3.4-1.1c0.6-0.5,0.8-1.6,0.8-3.3v-12.4
				c0-1.8-0.3-3-0.8-3.6c-0.5-0.6-1.6-0.9-3.1-1v-0.6c1.1,0,2.2,0,3.4,0.1c1.2,0,2.9,0,5.2,0c2.6,0,4.6,0,5.8,0c1.2,0,2.3,0,3.3,0
				c-0.1,0.7-0.2,1.5-0.3,2.3c-0.1,0.8-0.1,1.8-0.2,2.8h-0.5c-0.1-1.6-0.6-2.7-1.3-3.3c-0.8-0.6-2.2-0.9-4.2-0.9h-4.2v9.3h3.2
				c1.8,0,3-0.2,3.7-0.7c0.7-0.5,1.1-1.3,1.3-2.5h0.5c0,0.6,0,1.5-0.1,2.8c0,1.3-0.1,2.2-0.1,2.9v1.9h-0.5c-0.1-1.1-0.5-1.9-1.2-2.4
				c-0.7-0.4-1.9-0.7-3.7-0.7h-3.3v5.7c0,1.8,0.4,2.9,1.1,3.5c0.7,0.6,2.1,0.8,4.2,0.8c1.9,0,3.4-0.5,4.5-1.4
				c1.1-0.9,1.8-2.4,2.2-4.3l0.5,0.1c-0.1,1.2-0.2,2.4-0.4,3.5c-0.2,1.1-0.5,2.2-0.8,3.1c-1.5,0-3.2-0.1-5-0.1c-1.8,0-3.8,0-5.9,0
				c-2,0-3.5,0-4.6,0C-609.7,810.1-610.7,810.1-611.7,810.2z"/>
			<path id="XMLID_503_" class="st2" d="M-591.5,810.2v-0.6c1-0.1,1.7-0.4,2.2-0.8c0.5-0.4,0.9-1.2,1.2-2.2c0.2-0.7,0.4-1.8,0.6-3.2
				c0.2-1.4,0.5-3.1,0.7-5.1c0.2-1.7,0.4-3.2,0.5-4.5c0.1-1.3,0.2-2.1,0.2-2.4c0-1-0.3-1.7-0.8-2.2c-0.6-0.5-1.5-0.8-2.7-0.9v-0.6
				c0.4,0,0.9,0,1.4,0c0.5,0,1.2,0,2.2,0c1,0,1.7,0,2.2,0c0.5,0,0.9,0,1.3,0v0.5c-0.1,0.1-0.2,0.2-0.3,0.4c-0.1,0.1-0.1,0.2-0.1,0.3
				c0,0.7,0.6,2.3,1.7,4.9c0,0.1,0.1,0.2,0.1,0.2l5,11.2l6.2-13.7c0,0,0-0.1,0.1-0.2c0.4-0.9,0.6-1.6,0.6-2.2c0-0.2,0-0.4-0.1-0.5
				c0-0.1-0.1-0.3-0.2-0.4v-0.5c0.4,0,0.8,0,1.3,0c0.5,0,1.2,0,2.2,0c1,0,1.8,0,2.3,0c0.5,0,1,0,1.5,0v0.6c-1.2,0-2.1,0.4-2.6,1
				c-0.5,0.6-0.8,1.6-0.8,2.9c0,0.2,0,0.4,0,0.8c0,0.4,0,0.8,0.1,1.4l0.7,10.4c0.1,2.1,0.5,3.4,0.9,3.9c0.5,0.5,1.4,0.8,2.8,1v0.6
				c-1.1,0-2.1,0-2.8,0c-0.8,0-1.5,0-2.2,0c-1.1,0-3,0-5.5,0.1h-0.4v-0.6c1.6-0.2,2.7-0.5,3.3-1c0.6-0.5,0.8-1.4,0.8-2.7
				c0-0.3,0-0.4,0-0.6c0-0.1,0-0.3,0-0.4l-0.8-13.4l-5,11c-0.4,0.9-0.9,2-1.5,3.3c-0.5,1.3-1.2,2.8-2,4.7h-0.3
				c-0.4-0.9-0.8-1.9-1.3-2.9c-0.4-1-0.7-1.6-0.7-1.7l-6-13.4l-0.4,4.3c-0.2,1.9-0.4,3.7-0.5,5.3c-0.1,1.6-0.2,2.9-0.2,3.9
				c0,1.3,0.3,2.1,0.8,2.6c0.5,0.5,1.6,0.8,3.3,1.1v0.6c-0.1,0-0.2,0-0.3,0c-2.1,0-3.7-0.1-4.7-0.1c-0.6,0-1.2,0-1.8,0
				C-589.6,810.1-590.5,810.1-591.5,810.2z"/>
			<path id="XMLID_499_" class="st2" d="M-555.3,798.3c0,3.3,0.8,6,2.4,8.1c1.6,2.1,3.6,3.1,6.1,3.1c2.4,0,4.4-0.9,5.9-2.8
				c1.5-1.9,2.2-4.3,2.2-7.4c0-1.4-0.2-2.7-0.5-4c-0.3-1.3-0.8-2.4-1.5-3.4c-0.9-1.3-1.8-2.3-2.9-2.9c-1.1-0.6-2.3-0.9-3.7-0.9
				c-2.4,0-4.3,0.9-5.8,2.8C-554.6,792.9-555.3,795.3-555.3,798.3z M-559.2,798.8c0-3.5,1.1-6.3,3.3-8.4c2.2-2.1,5.2-3.1,8.9-3.1
				c3.6,0,6.6,1.1,8.8,3.2c2.2,2.2,3.3,5,3.3,8.6c0,3.4-1.1,6.2-3.3,8.3c-2.2,2.1-5.2,3.1-8.9,3.1c-3.6,0-6.6-1.1-8.8-3.2
				C-558.1,805.2-559.2,802.4-559.2,798.8z"/>
			<path id="XMLID_495_" class="st2" d="M-525.6,798.9c2.2-0.1,4-0.6,5.1-1.6c1.2-0.9,1.8-2.2,1.8-3.7c0-1.6-0.6-2.9-1.8-3.8
				c-1.2-0.9-2.9-1.4-5.1-1.5V798.9z M-532.7,810.2l0-0.6c1.6-0.1,2.7-0.5,3.3-1.1c0.6-0.6,0.8-2.1,0.8-4.4v-10.8
				c0-1.3-0.1-2.3-0.2-2.8c-0.1-0.6-0.3-1-0.6-1.2c-0.3-0.2-0.6-0.4-1.1-0.6c-0.4-0.2-1.1-0.3-1.8-0.4v-0.6c2.4,0,4.9-0.1,7.5-0.1
				c0.7,0,1,0,1.2,0c2.8,0,4.9,0.5,6.3,1.4c1.4,0.9,2,2.3,2,4.2c0,1.2-0.3,2.2-1,3.1c-0.7,0.9-1.7,1.6-3,2.2c2,3.8,3.9,6.6,5.7,8.4
				c1.8,1.8,3.7,2.9,5.7,3.2l-0.1,0.6c-0.2,0-0.4,0-0.7,0c-2.8-0.1-4.8-0.4-5.8-0.8c-0.6-0.3-1.2-0.7-1.8-1.3
				c-0.6-0.6-1.3-1.5-2.1-2.8c-0.6-0.8-1.1-1.8-1.8-3c-0.6-1.1-1-1.8-1.2-2.1c-0.2-0.3-0.5-0.5-0.9-0.6c-0.4-0.1-0.9-0.3-1.7-0.3
				l-1.6-0.2v4.7c0,2.2,0.3,3.7,1,4.3c0.6,0.6,1.9,1,3.7,1.2v0.6c-1.7,0-2.9-0.1-3.8-0.1c-0.8,0-1.6,0-2.3,0c-0.7,0-1.5,0-2.3,0
				C-530,810.1-531.2,810.1-532.7,810.2z"/>
			<path id="XMLID_493_" class="st2" d="M-508.2,810.2v-0.6c1.7-0.2,2.9-0.6,3.4-1.1c0.6-0.5,0.8-1.6,0.8-3.3v-12.4
				c0-1.8-0.3-3-0.8-3.6c-0.6-0.6-1.6-0.9-3.1-1v-0.6c1.1,0,2.2,0,3.4,0.1c1.2,0,2.9,0,5.2,0c2.6,0,4.6,0,5.8,0c1.2,0,2.3,0,3.3,0
				c-0.1,0.7-0.2,1.5-0.2,2.3c-0.1,0.8-0.1,1.8-0.2,2.8h-0.5c-0.1-1.6-0.6-2.7-1.3-3.3c-0.8-0.6-2.2-0.9-4.2-0.9h-4.2v9.3h3.2
				c1.8,0,3-0.2,3.7-0.7c0.7-0.5,1.1-1.3,1.3-2.5h0.5c0,0.6,0,1.5-0.1,2.8c0,1.3-0.1,2.2-0.1,2.9v1.9h-0.5c-0.1-1.1-0.5-1.9-1.2-2.4
				c-0.7-0.4-1.9-0.7-3.7-0.7h-3.3v5.7c0,1.8,0.4,2.9,1.1,3.5c0.7,0.6,2.1,0.8,4.2,0.8c1.9,0,3.4-0.5,4.5-1.4
				c1.1-0.9,1.8-2.4,2.2-4.3l0.5,0.1c-0.1,1.2-0.2,2.4-0.4,3.5c-0.2,1.1-0.5,2.2-0.8,3.1c-1.5,0-3.2-0.1-5-0.1c-1.8,0-3.8,0-5.9,0
				c-2,0-3.5,0-4.6,0C-506.2,810.1-507.2,810.1-508.2,810.2z"/>
			<path id="XMLID_492_" class="st2" d="M-486.7,810.2v-0.6c1.7-0.1,2.8-0.5,3.4-1.1c0.6-0.6,0.8-2.1,0.8-4.3v-10.9
				c0-2-0.3-3.2-0.8-3.8c-0.6-0.6-1.7-1-3.4-1.1v-0.6c0.7,0,1.4,0,2.1,0c0.8,0,1.9,0,3.5,0c1.6,0,2.7,0,3.5,0c0.8,0,1.5,0,2.2,0v0.6
				c-1.7,0.1-2.8,0.5-3.3,1.1c-0.6,0.6-0.8,1.9-0.8,3.8v10.9c0,1.6,0,2.6,0.1,3.2c0.1,0.5,0.2,1,0.3,1.3c0.1,0.3,0.5,0.4,0.9,0.5
				c0.5,0.1,1.5,0.2,2.9,0.2c1.5,0,2.6-0.1,3.3-0.2c0.7-0.1,1.2-0.3,1.7-0.7c0.6-0.4,1.2-0.9,1.8-1.6c0.6-0.7,1.2-1.7,1.8-2.9
				l0.4,0.2l-1.8,6.1c-2,0-3.8-0.1-5.3-0.1c-1.5,0-3,0-4.5,0c-0.8,0-2.2,0-4.2,0C-484.1,810.2-485.6,810.2-486.7,810.2z"/>
			<path id="XMLID_489_" class="st2" d="M-460.9,798.3c0,3.3,0.8,6,2.4,8.1c1.6,2.1,3.6,3.1,6.1,3.1c2.4,0,4.4-0.9,5.9-2.8
				c1.5-1.9,2.2-4.3,2.2-7.4c0-1.4-0.2-2.7-0.5-4c-0.3-1.3-0.8-2.4-1.5-3.4c-0.9-1.3-1.8-2.3-2.9-2.9c-1.1-0.6-2.3-0.9-3.7-0.9
				c-2.4,0-4.4,0.9-5.8,2.8C-460.2,792.9-460.9,795.3-460.9,798.3z M-464.7,798.8c0-3.5,1.1-6.3,3.3-8.4c2.2-2.1,5.2-3.1,8.9-3.1
				c3.6,0,6.6,1.1,8.8,3.2c2.2,2.2,3.3,5,3.3,8.6c0,3.4-1.1,6.2-3.3,8.3c-2.2,2.1-5.2,3.1-8.9,3.1c-3.6,0-6.6-1.1-8.8-3.2
				C-463.7,805.2-464.7,802.4-464.7,798.8z"/>
			<path id="XMLID_488_" class="st2" d="M-437.7,803.4l0.6,0c0.6,2.1,1.4,3.6,2.6,4.7c1.1,1.1,2.5,1.6,4.1,1.6
				c1.2,0,2.3-0.4,3.1-1.1c0.8-0.8,1.2-1.7,1.2-2.8c0-1-0.3-1.9-0.8-2.7c-0.5-0.8-1.4-1.5-2.5-2.2l-2.6-1.5
				c-1.4-0.8-2.4-1.7-3.1-2.6c-0.7-1-1-2-1-3.2c0-1.8,0.7-3.3,2-4.5c1.4-1.2,3.1-1.8,5.2-1.8c0.9,0,1.8,0.1,2.7,0.3
				c0.9,0.2,1.7,0.6,2.5,1.1c-0.1,0.7-0.2,1.4-0.2,2.2c-0.1,0.8-0.1,1.7-0.1,2.8h-0.6c-0.2-1.8-0.8-3.2-1.5-4.1
				c-0.8-0.9-1.8-1.4-3.1-1.4c-1.2,0-2.1,0.4-2.9,1.1c-0.8,0.7-1.1,1.7-1.1,2.8c0,0.8,0.2,1.5,0.7,2.2c0.5,0.7,1.2,1.4,2.1,1.9
				l3.7,2.3c1.3,0.8,2.2,1.6,2.8,2.6c0.6,0.9,0.9,2,0.9,3.2c0,1.8-0.8,3.4-2.3,4.6c-1.5,1.2-3.4,1.9-5.6,1.9c-1.2,0-2.3-0.2-3.3-0.4
				c-1.1-0.3-2-0.7-2.9-1.3c-0.2-0.9-0.3-1.8-0.5-2.7C-437.5,805.3-437.6,804.3-437.7,803.4z"/>
		</g>
		<g id="XMLID_201_">
			<path id="XMLID_486_" class="st2" d="M-719,761.5v-9.8c0-1.7-0.1-2.8-0.2-3.4c-0.1-0.6-0.4-1-0.8-1.3c-0.5-0.4-1-0.6-1.6-0.8
				c-0.6-0.2-1.3-0.3-2.1-0.4v-0.7c0.8,0,1.7,0,2.6,0.1c0.9,0,2.3,0,4.2,0c1.9,0,3.3,0,4.2,0c0.9,0,1.8,0,2.6-0.1l0,0.7
				c-2.1,0.1-3.5,0.5-4.2,1.2c-0.7,0.8-1.1,2.3-1.1,4.6v9.4c0,1.9,0.1,3.3,0.4,4.3c0.3,1,0.7,1.9,1.4,2.5c0.8,0.8,1.7,1.4,2.9,1.9
				c1.2,0.4,2.5,0.6,4,0.6c1.8,0,3.3-0.3,4.5-1c1.2-0.7,2.1-1.7,2.8-3.2c0.3-0.7,0.6-1.8,0.7-3.2c0.1-1.4,0.2-3.6,0.2-6.6
				c0-2.9-0.1-5-0.2-6.1c-0.2-1.2-0.4-2-0.8-2.6c-0.4-0.6-1.1-1.1-1.8-1.4c-0.8-0.3-1.8-0.5-3-0.5v-0.7c0.7,0,1.4,0,2.2,0.1
				c0.8,0,1.9,0,3.5,0c1.6,0,2.7,0,3.5,0c0.8,0,1.5,0,2.1-0.1v0.7h-0.1c-1.5,0-2.5,0.6-3.1,1.7c-0.6,1.1-0.8,4.1-0.8,8.7
				c0,0.4,0,1,0,1.8c-0.1,4.3-0.4,7.2-1.1,8.8c-0.8,1.8-2,3.1-3.8,4.1c-1.8,0.9-4,1.4-6.6,1.4c-2.1,0-3.9-0.3-5.4-0.9
				c-1.5-0.6-2.7-1.4-3.5-2.5c-0.6-0.8-1-1.7-1.2-2.7C-718.9,765.3-719,763.7-719,761.5z"/>
			<path id="XMLID_485_" class="st2" d="M-692.4,771.7l0-0.6c1.7-0.1,2.8-0.6,3.4-1.6c0.6-1,0.9-3.1,0.9-6.2v-6.2c0-0.3,0-0.7,0-1.1
				c0-0.5,0-0.8,0-1c0-1-0.1-1.8-0.3-2.4c-0.2-0.6-0.6-1.1-1-1.5c-0.4-0.4-0.9-0.7-1.5-0.9c-0.6-0.2-1.2-0.4-1.9-0.4v-0.6
				c0.3,0,0.9,0,1.5,0c0.7,0,1.1,0,1.5,0c0.3,0,0.8,0,1.4,0c0.6,0,1,0,1.3,0l16.1,17.3V759c0-2.8-0.1-4.7-0.2-5.6
				c-0.2-1-0.4-1.7-0.8-2.2c-0.3-0.4-0.8-0.7-1.4-1c-0.6-0.2-1.3-0.4-2.2-0.5v-0.6c0.6,0,1.2,0,1.8,0c0.7,0,1.6,0,2.9,0
				c1.2,0,2.2,0,2.8,0c0.6,0,1.1,0,1.6,0v0.6h-0.3c-1.1,0-2,0.6-2.4,1.7c-0.5,1.2-0.7,3.3-0.7,6.4v6.9c0,1.6,0,3,0,4.3
				c0,1.2,0.1,2.4,0.1,3.4h-0.2c-0.7-0.8-1.4-1.6-2.1-2.4c-0.8-0.9-1.2-1.4-1.3-1.4l-13.6-14.4v6.4c0,3.1,0.1,5.2,0.2,6.3
				c0.1,1.1,0.3,1.9,0.6,2.3c0.3,0.5,0.7,0.8,1.3,1.1c0.6,0.3,1.5,0.5,2.6,0.8v0.6c0,0-0.1,0-0.1,0c-2.2,0-3.9-0.1-5-0.1
				c-0.6,0-1.3,0-2,0C-690.1,771.7-691.1,771.7-692.4,771.7z"/>
			<path id="XMLID_484_" class="st2" d="M-665.2,771.7v-0.6c1.6-0.1,2.7-0.4,3.3-1c0.6-0.6,0.9-1.9,0.9-3.9v-11.6
				c0-2-0.3-3.3-0.8-3.9c-0.6-0.6-1.7-0.9-3.3-1v-0.6c0.7,0,1.6,0,2.9,0c1.3,0,2.3,0,2.9,0c0.6,0,1.6,0,2.9,0c1.3,0,2.2,0,2.8,0v0.6
				c-1.7,0.1-2.8,0.4-3.3,1c-0.6,0.6-0.9,1.9-0.9,3.8v11.6c0,2,0.3,3.3,0.9,3.9c0.6,0.6,1.7,0.9,3.3,1l0,0.6c-1.6,0-2.8,0-3.6-0.1
				c-0.8,0-1.5,0-2.2,0c-0.7,0-1.4,0-2.2,0C-662.5,771.6-663.7,771.7-665.2,771.7z"/>
			<path id="XMLID_482_" class="st2" d="M-640.9,772.9l-7.6-18.5c-0.7-1.8-1.4-3-2.1-3.6c-0.7-0.6-1.5-0.9-2.5-1v-0.6
				c0.6,0,1.2,0,1.9,0c0.7,0,1.7,0,3.2,0c1.4,0,2.5,0,3.3,0c0.7,0,1.4,0,2.1,0v0.6c-1.1,0-1.9,0.2-2.5,0.5c-0.5,0.3-0.8,0.7-0.8,1.3
				c0,0.4,0.2,1.1,0.5,2.1c0.3,1,0.8,2.2,1.3,3.6l4.4,10.6l4.3-10.6c0.6-1.4,1-2.6,1.3-3.4c0.3-0.9,0.4-1.6,0.4-2
				c0-0.7-0.3-1.2-0.8-1.5c-0.5-0.3-1.5-0.5-2.8-0.6v-0.6c0.6,0,1.2,0,1.9,0c0.7,0,1.6,0,2.9,0c1.3,0,2.2,0,2.8,0c0.6,0,1.2,0,1.7,0
				v0.6h-0.2c-1.1,0-2,0.5-2.9,1.4c-0.8,0.9-1.9,2.9-3.1,6l-4.1,9.8c-0.1,0.3-0.4,1.1-1,2.6c-0.5,1.3-0.9,2.4-1.3,3.2H-640.9z"/>
			<path id="XMLID_478_" class="st2" d="M-627.7,771.7v-0.6c1.7-0.2,2.9-0.6,3.4-1.1c0.6-0.5,0.8-1.6,0.8-3.3v-12.4
				c0-1.8-0.3-3-0.8-3.6c-0.5-0.6-1.6-0.9-3.1-1v-0.6c1.1,0,2.2,0,3.4,0.1c1.2,0,2.9,0,5.2,0c2.6,0,4.6,0,5.8,0c1.2,0,2.3,0,3.3,0
				c-0.1,0.7-0.2,1.5-0.3,2.3c-0.1,0.8-0.1,1.8-0.2,2.8h-0.5c-0.1-1.6-0.6-2.7-1.3-3.3c-0.8-0.6-2.2-0.9-4.2-0.9h-4.2v9.3h3.2
				c1.8,0,3-0.2,3.7-0.7c0.7-0.5,1.1-1.3,1.3-2.5h0.5c0,0.6,0,1.5-0.1,2.8c0,1.3-0.1,2.2-0.1,2.9v1.9h-0.5c-0.1-1.1-0.5-1.9-1.2-2.4
				c-0.7-0.4-1.9-0.7-3.7-0.7h-3.3v5.7c0,1.8,0.4,2.9,1.1,3.5c0.7,0.6,2.1,0.8,4.2,0.8c1.9,0,3.4-0.5,4.5-1.4
				c1.1-0.9,1.8-2.4,2.2-4.3l0.5,0.1c-0.1,1.2-0.2,2.4-0.4,3.5c-0.2,1.1-0.5,2.1-0.8,3.1c-1.5,0-3.2-0.1-5-0.1c-1.8,0-3.8,0-5.9,0
				c-2,0-3.5,0-4.6,0C-625.8,771.7-626.8,771.7-627.7,771.7z"/>
			<path id="XMLID_466_" class="st2" d="M-598.8,760.4c2.2-0.1,4-0.6,5.1-1.6c1.2-0.9,1.8-2.2,1.8-3.7c0-1.6-0.6-2.9-1.8-3.8
				c-1.2-0.9-2.9-1.4-5.1-1.5V760.4z M-605.9,771.7l0-0.6c1.6-0.1,2.7-0.5,3.3-1.1c0.6-0.6,0.8-2.1,0.8-4.4v-10.8
				c0-1.3-0.1-2.3-0.2-2.8c-0.1-0.6-0.3-1-0.6-1.2c-0.3-0.2-0.6-0.4-1.1-0.6c-0.4-0.2-1.1-0.3-1.8-0.4v-0.6c2.4,0,4.9-0.1,7.5-0.1
				c0.7,0,1,0,1.2,0c2.8,0,4.9,0.5,6.3,1.4c1.4,0.9,2,2.3,2,4.2c0,1.2-0.3,2.2-1,3.1c-0.7,0.9-1.7,1.6-3,2.2c2,3.8,3.9,6.6,5.7,8.4
				c1.8,1.8,3.7,2.9,5.7,3.2l-0.1,0.5c-0.2,0-0.4,0-0.7,0c-2.8-0.1-4.8-0.4-5.8-0.9c-0.6-0.3-1.2-0.7-1.8-1.3
				c-0.6-0.6-1.3-1.5-2.1-2.8c-0.6-0.8-1.1-1.8-1.8-3c-0.6-1.1-1-1.8-1.2-2.1c-0.2-0.3-0.5-0.5-0.9-0.6c-0.4-0.1-0.9-0.3-1.7-0.3
				l-1.6-0.2v4.7c0,2.2,0.3,3.7,1,4.3c0.6,0.7,1.9,1,3.7,1.2v0.6c-1.7,0-2.9,0-3.8-0.1c-0.8,0-1.6,0-2.3,0c-0.7,0-1.5,0-2.3,0
				C-603.2,771.7-604.4,771.7-605.9,771.7z"/>
			<path id="XMLID_465_" class="st2" d="M-580.3,764.9l0.6,0c0.6,2.1,1.4,3.6,2.6,4.7c1.1,1.1,2.5,1.6,4.1,1.6
				c1.2,0,2.3-0.4,3.1-1.1c0.8-0.8,1.2-1.7,1.2-2.8c0-1-0.3-1.9-0.8-2.7c-0.5-0.8-1.4-1.5-2.5-2.2l-2.6-1.5
				c-1.4-0.8-2.4-1.7-3.1-2.6c-0.7-1-1-2-1-3.2c0-1.8,0.7-3.3,2.1-4.5c1.4-1.2,3.1-1.8,5.2-1.8c0.9,0,1.8,0.1,2.7,0.3
				c0.9,0.2,1.7,0.6,2.5,1.1c-0.1,0.7-0.2,1.4-0.2,2.2c-0.1,0.8-0.1,1.7-0.1,2.8h-0.6c-0.2-1.8-0.8-3.2-1.5-4.1
				c-0.8-0.9-1.8-1.4-3.1-1.4c-1.2,0-2.1,0.4-2.9,1.1c-0.8,0.8-1.1,1.7-1.1,2.8c0,0.8,0.2,1.5,0.7,2.2c0.5,0.7,1.2,1.4,2.1,1.9
				l3.7,2.3c1.3,0.8,2.2,1.6,2.8,2.6c0.6,0.9,0.9,2,0.9,3.2c0,1.8-0.8,3.4-2.3,4.6c-1.5,1.2-3.4,1.9-5.6,1.9c-1.2,0-2.3-0.1-3.3-0.4
				c-1.1-0.3-2-0.7-2.9-1.3c-0.2-0.9-0.3-1.8-0.5-2.7C-580.1,766.8-580.2,765.9-580.3,764.9z"/>
			<path id="XMLID_464_" class="st2" d="M-563.5,771.7v-0.6c1.6-0.1,2.7-0.4,3.3-1c0.6-0.6,0.9-1.9,0.9-3.9v-11.6
				c0-2-0.3-3.3-0.9-3.9c-0.6-0.6-1.7-0.9-3.3-1v-0.6c0.7,0,1.6,0,2.9,0c1.3,0,2.3,0,2.9,0c0.6,0,1.6,0,2.9,0c1.3,0,2.2,0,2.8,0v0.6
				c-1.7,0.1-2.8,0.4-3.3,1c-0.6,0.6-0.9,1.9-0.9,3.8v11.6c0,2,0.3,3.3,0.9,3.9c0.6,0.6,1.7,0.9,3.3,1l0,0.6c-1.6,0-2.8,0-3.6-0.1
				c-0.8,0-1.5,0-2.2,0c-0.7,0-1.4,0-2.2,0C-560.7,771.6-561.9,771.7-563.5,771.7z"/>
			<path id="XMLID_451_" class="st2" d="M-543.6,765.8c0,2.1,0.3,3.5,1,4.2c0.7,0.7,1.9,1,3.8,1c2.5,0,4.6-0.9,6.2-2.7
				c1.6-1.8,2.4-4.2,2.4-7.1c0-3.5-1.2-6.3-3.5-8.3c-2.3-2-5.5-3-9.6-3h-0.3V765.8z M-550.9,771.7v-0.6c1.7-0.1,2.8-0.5,3.4-1.1
				c0.6-0.6,0.9-1.7,0.9-3.3V754c0-1.5-0.3-2.5-0.8-3.1c-0.5-0.6-1.6-0.9-3.1-1.1v-0.6c1.8,0,3.7,0,5.8-0.1c2,0,3.2-0.1,3.5-0.1
				c4.7,0,8.4,1,11.1,3.1c2.7,2,4,4.9,4,8.4c0,3.5-1.3,6.2-3.8,8.2c-2.5,2-6.1,3-10.5,3c-0.9,0-2.5,0-4.8,0
				C-547.7,771.7-549.6,771.7-550.9,771.7z"/>
			<path id="XMLID_282_" class="st2" d="M-518,760.9h6.6l-3.4-8.9L-518,760.9z M-525.7,771.7v-0.6c0.7-0.1,1.3-0.3,1.7-0.5
				c0.4-0.2,0.8-0.5,1.1-0.8c0.4-0.5,1.5-3,3.2-7.5c0.4-1,0.7-1.8,0.9-2.3l3.7-9.8l-0.1-0.6c0.4-0.1,0.8-0.3,1.2-0.6
				c0.4-0.3,0.7-0.7,1.1-1.1l7.1,19.2c0.6,1.6,1.2,2.7,1.8,3.2c0.6,0.5,1.4,0.8,2.5,0.8l0,0.6c-1.3,0-2.2,0-2.9,0
				c-0.7,0-1.3,0-1.9,0c-0.6,0-1.2,0-1.8,0c-0.7,0-1.6,0-3,0.1l0-0.6c0.8-0.1,1.4-0.3,1.9-0.6c0.5-0.3,0.7-0.8,0.7-1.3
				c0-0.3,0-0.6-0.1-0.9c-0.1-0.4-0.2-0.8-0.4-1.3l-1.7-4.8h-7.7l-0.6,1.8c-0.4,1.2-0.7,2.3-0.9,3.1c-0.2,0.8-0.3,1.4-0.3,1.9
				c0,0.7,0.3,1.2,0.9,1.5c0.6,0.3,1.5,0.5,2.8,0.5v0.6c0,0-0.1,0-0.1,0c-2.1,0-3.7-0.1-4.7-0.1c-0.6,0-1.1,0-1.8,0
				C-523.9,771.7-524.7,771.7-525.7,771.7z"/>
			<path id="XMLID_221_" class="st2" d="M-494.5,765.8c0,2.1,0.3,3.5,1,4.2c0.7,0.7,1.9,1,3.8,1c2.5,0,4.6-0.9,6.2-2.7
				c1.6-1.8,2.4-4.2,2.4-7.1c0-3.5-1.2-6.3-3.5-8.3c-2.3-2-5.5-3-9.6-3h-0.3V765.8z M-501.9,771.7v-0.6c1.7-0.1,2.8-0.5,3.4-1.1
				c0.6-0.6,0.9-1.7,0.9-3.3V754c0-1.5-0.3-2.5-0.8-3.1c-0.5-0.6-1.6-0.9-3.1-1.1v-0.6c1.8,0,3.7,0,5.8-0.1c2,0,3.2-0.1,3.5-0.1
				c4.7,0,8.4,1,11.1,3.1c2.7,2,4,4.9,4,8.4c0,3.5-1.3,6.2-3.8,8.2c-2.6,2-6.1,3-10.5,3c-0.9,0-2.5,0-4.8,0
				C-498.6,771.7-500.5,771.7-501.9,771.7z"/>
			<path id="XMLID_213_" class="st2" d="M-460.8,765.8c0,2.1,0.3,3.5,1,4.2c0.7,0.7,1.9,1,3.8,1c2.5,0,4.6-0.9,6.2-2.7
				c1.6-1.8,2.4-4.2,2.4-7.1c0-3.5-1.2-6.3-3.5-8.3c-2.3-2-5.5-3-9.6-3h-0.3V765.8z M-468.1,771.7v-0.6c1.7-0.1,2.8-0.5,3.4-1.1
				c0.6-0.6,0.9-1.7,0.9-3.3V754c0-1.5-0.3-2.5-0.8-3.1c-0.5-0.6-1.6-0.9-3.1-1.1v-0.6c1.8,0,3.7,0,5.8-0.1c2,0,3.2-0.1,3.5-0.1
				c4.7,0,8.4,1,11.1,3.1c2.7,2,4,4.9,4,8.4c0,3.5-1.3,6.2-3.8,8.2c-2.5,2-6.1,3-10.5,3c-0.9,0-2.5,0-4.8,0
				C-464.9,771.7-466.7,771.7-468.1,771.7z"/>
			<path id="XMLID_203_" class="st2" d="M-443.4,771.7v-0.6c1.7-0.2,2.9-0.6,3.4-1.1c0.6-0.5,0.8-1.6,0.8-3.3v-12.4
				c0-1.8-0.3-3-0.8-3.6c-0.6-0.6-1.6-0.9-3.1-1v-0.6c1.1,0,2.2,0,3.4,0.1s2.9,0,5.2,0c2.6,0,4.6,0,5.8,0c1.2,0,2.3,0,3.3,0
				c-0.1,0.7-0.2,1.5-0.2,2.3c-0.1,0.8-0.1,1.8-0.2,2.8h-0.5c-0.1-1.6-0.6-2.7-1.3-3.3c-0.8-0.6-2.2-0.9-4.2-0.9h-4.2v9.3h3.2
				c1.8,0,3-0.2,3.7-0.7c0.7-0.5,1.1-1.3,1.3-2.5h0.5c0,0.6,0,1.5-0.1,2.8c0,1.3-0.1,2.2-0.1,2.9v1.9h-0.5c-0.1-1.1-0.5-1.9-1.2-2.4
				c-0.7-0.4-1.9-0.7-3.7-0.7h-3.3v5.7c0,1.8,0.4,2.9,1.1,3.5c0.7,0.6,2.1,0.8,4.2,0.8c1.9,0,3.4-0.5,4.5-1.4
				c1.1-0.9,1.8-2.4,2.2-4.3l0.5,0.1c-0.1,1.2-0.2,2.4-0.4,3.5c-0.2,1.1-0.5,2.1-0.8,3.1c-1.5,0-3.2-0.1-5-0.1c-1.8,0-3.8,0-5.9,0
				c-2,0-3.5,0-4.6,0C-441.4,771.7-442.5,771.7-443.4,771.7z"/>
		</g>
	</g>
</g>
</svg>
