<?xml version="1.0" encoding="utf-8"?>
<!-- Generator: Adobe Illustrator 17.1.0, SVG Export Plug-In . SVG Version: 6.00 Build 0)  -->
<!DOCTYPE svg PUBLIC "-//W3C//DTD SVG 1.1//EN" "http://www.w3.org/Graphics/SVG/1.1/DTD/svg11.dtd">
<svg version="1.1" id="Capa_1" xmlns="http://www.w3.org/2000/svg" xmlns:xlink="http://www.w3.org/1999/xlink" x="0px" y="0px"
	 width="71.9px" height="72px" viewBox="0 0 71.9 72" enable-background="new 0 0 71.9 72" xml:space="preserve">
<g>
	<path fill="#FFFFFF" d="M71.9,13.8c-2.6,1.2-5.5,2-8.5,2.3c3-1.8,5.4-4.7,6.5-8.2c-2.9,1.7-6,2.9-9.4,3.6C57.8,8.7,54,6.9,49.8,6.9
		C41.6,6.9,35,13.5,35,21.6c0,1.2,0.1,2.3,0.4,3.4C23.1,24.4,12.3,18.5,5,9.6c-1.3,2.2-2,4.7-2,7.4c0,5.1,2.6,9.6,6.6,12.3
		c-2.4-0.1-4.7-0.7-6.7-1.8v0.2c0,7.1,5.1,13.1,11.8,14.5c-1.2,0.3-2.5,0.5-3.9,0.5c-0.9,0-1.9-0.1-2.8-0.3
		c1.9,5.9,7.3,10.1,13.8,10.2c-5,3.9-11.4,6.3-18.3,6.3c-1.2,0-2.3-0.1-3.5-0.2c6.5,4.2,14.3,6.6,22.6,6.6
		c27.1,0,41.9-22.5,41.9-41.9l0-1.9C67.4,19.4,69.9,16.8,71.9,13.8L71.9,13.8z M71.9,13.8"/>
</g>
</svg>
