<?xml version="1.0" encoding="utf-8"?>
<!-- Generator: Adobe Illustrator 19.0.0, SVG Export Plug-In . SVG Version: 6.00 Build 0)  -->
<svg version="1.1" id="Capa_1" xmlns="http://www.w3.org/2000/svg" xmlns:xlink="http://www.w3.org/1999/xlink" x="0px" y="0px"
	 width="163px" height="163px" viewBox="-216 339.9 163 163" style="enable-background:new -216 339.9 163 163;"
	 xml:space="preserve">
<style type="text/css">
	.st0{fill:#19BC9D;}
</style>
<g id="Layer_1">
</g>
<g id="Capa_2">
</g>
<g>
	<g>
		<path class="st0" d="M-134.5,502.9c-44.9,0-81.5-36.6-81.5-81.5s36.6-81.5,81.5-81.5S-53,376.4-53,421.4S-89.6,502.9-134.5,502.9z
			 M-134.5,350c-39.4,0-71.4,32-71.4,71.4c0,39.4,32,71.4,71.4,71.4s71.4-32,71.4-71.4C-63.1,382-95.1,350-134.5,350z"/>
	</g>
	<g>
		<g>
			<path class="st0" d="M-164,456.5v-71h38.6v10.8c0,1.1,0.9,2,2,2h10.4l0,20.9c0.3,0.2,0.5,0.4,0.7,0.6c0.1-0.1,0.3-0.2,0.4-0.3
				c0.7-0.6,1.6-0.9,2.6-0.9c0.5,0,1.1,0.1,1.6,0.3v-23.5c0-0.4-0.2-0.8-0.5-1.1l-13.5-13.5c-0.3-0.3-0.7-0.5-1.1-0.5h-41.8
				c-2.6,0-4.8,2.1-4.8,4.8V457c0,2.6,2.1,4.8,4.8,4.8h40.9c-0.7-1.4-1.4-3.2-1.9-5.3H-164z"/>
			<path class="st0" d="M-132.2,393.2h-25.9c-1.4,0-2.5,1.1-2.5,2.5c0,1.4,1.1,2.5,2.5,2.5h25.9c1.4,0,2.5-1.1,2.5-2.5
				C-129.7,394.4-130.8,393.2-132.2,393.2z"/>
			<path class="st0" d="M-158.1,410h17.8c1.4,0,2.5-1.1,2.5-2.5c0-1.4-1.1-2.5-2.5-2.5h-17.8c-1.4,0-2.5,1.1-2.5,2.5
				C-160.7,408.8-159.5,410-158.1,410z"/>
			<path class="st0" d="M-129.7,419.1c0-1.4-1.1-2.5-2.5-2.5h-25.9c-1.4,0-2.5,1.1-2.5,2.5c0,1.4,1.1,2.5,2.5,2.5h25.9
				C-130.8,421.6-129.7,420.5-129.7,419.1z"/>
			<path class="st0" d="M-158.1,428.2c-1.4,0-2.5,1.1-2.5,2.5c0,1.4,1.1,2.5,2.5,2.5h20.1c1.4,0,2.5-1.1,2.5-2.5
				c0-1.4-1.1-2.5-2.5-2.5H-158.1z"/>
		</g>
	</g>
	<g>
		<g>
			<path class="st0" d="M-112.2,431.2c0.7-1.2,1.9-3,3.4-4.7h0c1.2-1.4,3.7-3.3,3.7-3.3c0.4-0.3,0.3-0.7-0.1-0.9l-2.9-1.4
				c-0.4-0.2-1-0.1-1.3,0.3c0,0-2.2,3.1-4.7,9.8c-7.9-3.6-15.5,1.4-15.5,10.2c0,9.1,7,23,16.5,18.8c10,4.3,16.5-9.7,16.5-18.8
				C-96.6,432.5-103.4,427.3-112.2,431.2z"/>
			<path class="st0" d="M-114,428.3c0.5,0,0.9-0.4,0.9-0.9c0,0,0.3-3.6-2.2-6.1c-2.5-2.5-6.1-2.2-6.1-2.2c-0.5,0-0.9,0.4-0.9,0.9
				c0,0-0.3,3.6,2.2,6.1C-117.6,428.6-114,428.3-114,428.3z"/>
		</g>
	</g>
</g>
</svg>
