<?xml version="1.0" encoding="utf-8"?>
<!-- Generator: Adobe Illustrator 19.0.0, SVG Export Plug-In . SVG Version: 6.00 Build 0)  -->
<svg version="1.1" id="Capa_1" xmlns="http://www.w3.org/2000/svg" xmlns:xlink="http://www.w3.org/1999/xlink" x="0px" y="0px"
	 width="163px" height="163px" viewBox="-216 339.9 163 163" style="enable-background:new -216 339.9 163 163;"
	 xml:space="preserve">
<style type="text/css">
	.st0{fill:#19BC9D;}
</style>
<g id="Layer_1">
</g>
<g id="Capa_2">
</g>
<g>
	<g>
		<path class="st0" d="M-134.5,502.9c-44.9,0-81.5-36.6-81.5-81.5c0-44.9,36.6-81.5,81.5-81.5S-53,376.4-53,421.4
			C-53,466.3-89.6,502.9-134.5,502.9z M-134.5,350c-39.4,0-71.4,32-71.4,71.4c0,39.4,32,71.4,71.4,71.4s71.4-32,71.4-71.4
			C-63.1,382-95.1,350-134.5,350z"/>
	</g>
	<path class="st0" d="M-176.8,455.8c-2.8,1.4-3.7,0-3.7,0s-3.7-5.4-5.4-8c-1.5-2.3,0.2-3.7,0.8-4l2.8,4.5l2.6-1.6l-2.7-4.3l3.6-1.9
		l2.8,4.5l2.6-1.7l-2.7-4.3l3.7-2l2.7,4.4l2.6-1.6l-2.6-4.3l0.9-0.5l-2.1-3.3c0,0-13.3,7-17.6,9.5c-4.3,2.6-1.8,7.3-1.8,7.3
		s4.7,6.3,6.7,10.1c2.4,4.5,7.9,1.8,7.9,1.8l13.8-10.1l-2.1-3.3C-164.1,446.9-174,454.3-176.8,455.8z"/>
	<path class="st0" d="M-80.5,440.4c-4.3-2.6-17.6-9.5-17.6-9.5l-2.1,3.3l0.9,0.5l-2.6,4.3l2.6,1.6l2.7-4.4l3.7,1.9l-2.7,4.3l2.6,1.7
		l2.8-4.5l3.6,1.9l-2.7,4.3l2.6,1.7l2.8-4.5c0.5,0.4,2.2,1.7,0.8,4c-1.7,2.7-5.4,8-5.4,8s-0.9,1.4-3.7,0c-2.8-1.4-12.7-8.8-12.7-8.8
		l-2.1,3.3l13.8,10.1c0,0,5.5,2.8,7.9-1.8c2-3.7,6.7-10.1,6.7-10.1S-76.3,442.9-80.5,440.4z"/>
	<path class="st0" d="M-97.1,422.1c0,0,7.4-13.1,0-25.6c-6.7-11.4-23.6-13.3-32.3-2.8c0,0,0,0,0,0c0,0,0,0-0.1,0.1
		c-0.4,0.5-0.8,1-1.1,1.5c-0.4,0.1-0.8-0.4-1.4-2.1c-1.4-4.1,3.5-10.1,5.9-13c2.4-2.9,0.8-3.7,0.8-3.7c-5.9,0.3-9.3,7.2-9.3,7.2
		c-0.7-1.5-3.6-4.3-3.6-4.3c-4.8-19.7-24.9-10.8-24.9-10.8c1,17.8,22.7,16.5,20.4,14.8c-4.6-3.4-5.9-7.6-5.9-7.6
		c13.8,7.5,13.7,15.3,13.3,18.4c-0.2,1.8-1.8,1.7-2.9,1.3c-8.2-12.3-26.5-10.9-33.6,1.1c-7.4,12.5,0,25.6,0,25.6s2.3,3.9,8,12
		c6.1,8.7,1,16.2,7.2,22.3c9.4,9.2,22.2,0.2,22.2,0.2s12.8,9,22.2-0.2c6.2-6.1,1.2-13.6,7.2-22.3C-99.4,426-97.1,422.1-97.1,422.1z
		 M-114.5,392.3c1.3-1.5,4.3-1.1,6.8,0.9c2.5,2,3.5,5,2.2,6.5c-1.3,1.5-4.3,1.1-6.8-0.9C-114.8,396.7-115.8,393.8-114.5,392.3z
		 M-104.8,407.8c-0.7,0.8-2.2,0.5-3.5-0.5c-1.3-1.1-1.8-2.6-1.1-3.3c0.7-0.8,2.2-0.5,3.5,0.5C-104.6,405.5-104.1,407-104.8,407.8z
		 M-134.5,436.2c-10.3,0-10.3-0.3-24.2-1.3c-1.4-2.9-3.9-5.7-5.5-8.2c-2.8-4.6-3.5-8.2-3.5-8.2s2.1,0.4,5.4,0.8v4.1h3.1v-3.7
		c1.7,0.2,3.7,0.5,5.7,0.7v4.7h3.1v-4.4c1.9,0.2,3.8,0.4,5.7,0.5v5.4h3.1v-5.2c1.9,0.1,3.8,0.2,5.7,0.2v5.8h3.1v-5.8
		c1.9,0,3.8-0.1,5.7-0.2v5.2h3.1v-5.4c2-0.1,3.9-0.3,5.7-0.5v4.3h3.1v-4.7c2.1-0.2,4-0.5,5.7-0.7v3.7h3.1v-4.1
		c3.3-0.5,5.4-0.9,5.4-0.9s-0.7,3.6-3.5,8.2c-1.6,2.5-4.2,5.3-5.6,8.2C-110.4,434.9-124.8,436.2-134.5,436.2z"/>
</g>
</svg>
