<?xml version="1.0" encoding="utf-8"?>
<!-- Generator: Adobe Illustrator 19.0.0, SVG Export Plug-In . SVG Version: 6.00 Build 0)  -->
<svg version="1.1" id="Capa_1" xmlns="http://www.w3.org/2000/svg" xmlns:xlink="http://www.w3.org/1999/xlink" x="0px" y="0px"
	 width="163px" height="163px" viewBox="-216 339.9 163 163" style="enable-background:new -216 339.9 163 163;"
	 xml:space="preserve">
<style type="text/css">
	.st0{fill:#19BC9D;}
</style>
<g id="Layer_1">
</g>
<g id="Capa_2">
</g>
<g>
	<g>
		<g>
			<path class="st0" d="M-132.3,395.6c1.7-2.8,4.4-6.9,7.8-10.8h0c2.9-3.3,8.5-7.5,8.5-7.5c0.8-0.6,0.8-1.5-0.2-2l-6.8-3.2
				c-1-0.4-2.3-0.1-2.9,0.7c0,0-5,7.2-10.9,22.5c-18.3-8.3-35.6,3.3-35.6,23.4c0,21,16.2,52.9,38,43.3c23,10,38-22.3,38-43.3
				C-96.5,398.5-112.1,386.6-132.3,395.6z"/>
			<path class="st0" d="M-136.4,388.8c1.1-0.1,2-1,2.1-2.1c0,0,0.7-8.2-5-14c-5.7-5.7-13.9-5.1-13.9-5.1c-1.1,0.1-2,1-2.1,2.1
				c0,0-0.7,8.2,5,14C-144.7,389.5-136.4,388.8-136.4,388.8z"/>
		</g>
	</g>
	<g>
		<path class="st0" d="M-134.5,500.7c-43.7,0-79.3-35.6-79.3-79.3c0-43.7,35.6-79.3,79.3-79.3s79.3,35.6,79.3,79.3
			C-55.2,465.1-90.8,500.7-134.5,500.7z M-134.5,351.9c-38.3,0-69.5,31.2-69.5,69.5c0,38.3,31.2,69.5,69.5,69.5S-65,459.7-65,421.4
			C-65,383.1-96.2,351.9-134.5,351.9z"/>
	</g>
</g>
</svg>
