<?xml version="1.0" encoding="utf-8"?>
<!-- Generator: Adobe Illustrator 19.0.0, SVG Export Plug-In . SVG Version: 6.00 Build 0)  -->
<svg version="1.1" id="Capa_1" xmlns="http://www.w3.org/2000/svg" xmlns:xlink="http://www.w3.org/1999/xlink" x="0px" y="0px"
	 width="294.1px" height="201.9px" viewBox="-150 320 294.1 201.9" style="enable-background:new -150 320 294.1 201.9;"
	 xml:space="preserve">
<style type="text/css">
	.st0{display:none;}
	.st1{fill:#FFFFFF;}
	.st2{fill:#FFFFFF;stroke:#FFFFFF;stroke-width:2;stroke-linecap:round;stroke-linejoin:round;stroke-miterlimit:10;}
</style>
<g id="Layer_1">
</g>
<g id="Capa_2" class="st0">
</g>
<g>
	<path class="st1" d="M-4.6,512.6c-7,0-12.7-2.8-12.7-6.2c0-2.9,4.2-5.4,9.8-6c-4.3,0.8-7.4,2.7-7.4,5c0,3,5.5,5.5,12.4,5.5
		c3.9,0,7.3-0.8,9.6-2C5.2,511,0.7,512.6-4.6,512.6z M54.7,414.4l4.4,0l37.7,80.3l-201,0l45.5-80.4l2.4-4l-4.4-1.9l0,0
		c-2.2,1.5-2.2,1.5-4.3,5.5l-57,99.2c0,4,3.2,7.3,7.3,7.3l223.5,0.3c4,0,7.3-3.2,7.3-7.3l-50.1-99.3c-1.7-3.4-3.2-7.3-7.3-7.3h-1.4
		L54.7,414.4z"/>
	<g>
		<g>
			<path class="st1" d="M8,464.7L-55.3,445l36-115.8l51.8,16.1l29.3,9.9l-10,30l-23,74.1l-1.6-5.3l20.8-66.7l10-29.9l-29.3-10
				l-45.9-14.3L-51.4,443l60.4,18.8L8,464.7z"/>
		</g>
		<g>
			<polygon class="st1" points="14.9,458.2 -42.4,440.4 -41.4,436.9 19.2,455.7 			"/>
		</g>
		<g>
			
				<rect x="-40.6" y="438" transform="matrix(0.9549 0.297 -0.297 0.9549 130.2398 22.4806)" class="st1" width="63.5" height="3.6"/>
		</g>
		<g>
			
				<rect x="-38.2" y="429.7" transform="matrix(0.9549 0.297 -0.297 0.9549 127.8855 21.3876)" class="st1" width="63.5" height="3.6"/>
		</g>
		<g>
			
				<rect x="-35.4" y="421.5" transform="matrix(0.9549 0.297 -0.297 0.9549 125.5721 20.2014)" class="st1" width="63.5" height="3.6"/>
		</g>
		<g>
			
				<rect x="-32.8" y="414.9" transform="matrix(0.9549 0.297 -0.297 0.9549 123.7393 19.1388)" class="st1" width="63.5" height="3.6"/>
		</g>
		<g>
			<g>
				<path class="st1" d="M1.7,355.3c-1-0.2-2,0.6-2.2,1.6l-0.9,6.2l-0.9-3.5c-0.2-1-1.3-1.6-2.3-1.4c-1,0.3-1.6,1.3-1.4,2.3
					l2.5,10.2c-1.4,0.7-2.6,2.1-3.6,3.9c1.8,0.7,3.9,3.1,3.9,3.1c0.4,0.4,0.3,1,0,1.3c-0.3,0.3-0.9,0.3-1.2,0.1c0,0-2-1.7-3.7-2.2
					c-0.4,1.2-0.8,2.5-1,3.9c-0.1,0.3-0.1,0.7-0.1,1.1c2.2,0.8,4.2,2.9,4.9,3.6c0.4,0.4,0.3,1,0,1.3c-0.3,0.3-0.9,0.3-1.2,0.1
					c0,0-1.9-1.7-3.9-2.3c-0.1,1.7-0.1,3.6-0.1,5.5c1.9,0.9,4,3.2,4,3.2c0.4,0.4,0.3,1,0,1.3c-0.3,0.3-0.9,0.3-1.2,0.1
					c0,0-1.7-1.4-2.6-1.8c0.4,6,1.4,11.6,3.5,11.9c3.7,0.6,9.2-15.7,10.2-22.1c0.7-4.6-0.3-8.8-2.2-11l4.8-7c0.6-0.9,0.4-2-0.5-2.6
					c-0.9-0.6-2-0.4-2.6,0.5l-1.4,2.1l1.1-7.1C3.4,356.4,2.7,355.5,1.7,355.3L1.7,355.3z M1.7,355.3"/>
			</g>
		</g>
		<g>
			<g>
				<path class="st1" d="M29.3,363.1c-0.3-0.1-0.6-0.1-0.8,0c-0.3,0.1-0.5,0.3-0.6,0.6c-3.4,7.2-13.5,28.7-13.5,28.7
					c-0.3,0.6,0,1.2,0.5,1.5l6.6,3.1c0.3,0.1,0.6,0.1,0.8,0c0.3-0.1,0.5-0.3,0.6-0.6l7.3-15.4C30.4,380.4,36.8,366.7,29.3,363.1
					L29.3,363.1z M29.3,363.1"/>
			</g>
			<path class="st1" d="M9,402.9l5.5,4.5l1.2-2.5l-5.5-4.5L9,402.9z M9,402.9"/>
			<g>
				<path class="st1" d="M12.9,394.8l-1.7,3.7l5.5,4.5l2.3-5l-5-2.4C13.5,395.5,13.1,395.2,12.9,394.8L12.9,394.8z M12.9,394.8"/>
				<path class="st1" d="M6.7,408c-0.2,0.5,0,1.1,0.5,1.3l4.4,2.1c0.2,0.1,0.5,0.1,0.8,0c0.3-0.1,0.5-0.3,0.6-0.5l0.7-1.6l-5.5-4.5
					L6.7,408z M6.7,408"/>
			</g>
		</g>
		<g>
			
				<rect x="0.1" y="323.5" transform="matrix(0.9607 0.2775 -0.2775 0.9607 93.3238 12.1245)" class="st2" width="7.4" height="24.4"/>
			
				<rect x="18.6" y="328.8" transform="matrix(0.9607 0.2775 -0.2775 0.9607 95.5264 7.2082)" class="st2" width="7.4" height="24.4"/>
			
				<rect x="34.9" y="333.6" transform="matrix(0.9607 0.2775 -0.2775 0.9607 97.4823 2.8625)" class="st2" width="7.4" height="24.4"/>
		</g>
	</g>
</g>
</svg>
