<?xml version="1.0" encoding="utf-8"?>
<!-- Generator: Adobe Illustrator 16.0.0, SVG Export Plug-In . SVG Version: 6.00 Build 0)  -->
<!DOCTYPE svg PUBLIC "-//W3C//DTD SVG 1.1//EN" "http://www.w3.org/Graphics/SVG/1.1/DTD/svg11.dtd">
<svg version="1.1" id="Layer_1" xmlns="http://www.w3.org/2000/svg" xmlns:xlink="http://www.w3.org/1999/xlink" x="0px" y="0px"
	 width="130.756px" height="116.859px" viewBox="0 0 130.756 116.859" enable-background="new 0 0 130.756 116.859"
	 xml:space="preserve">
<g display="none">
	<g display="inline">
		<path fill="#FFFFFF" d="M130.209,93.749c-0.459-1.287-1.181-2.439-2.114-3.394c-0.812-3.975-1.38-7.375-1.689-10.139
			c-0.375-3.15-0.663-6.994-0.86-11.43L125.22,61.5l-15.005,2.42c0.076-1.053,0.115-2.109,0.115-3.174
			c0-8.306-2.381-16.265-6.752-23.054c0.243,0,0.487-0.008,0.746-0.02l0.028-0.002c4.281-0.24,7.938-2.107,10.57-5.398
			c2.418-3.021,3.545-6.625,3.348-10.709l-0.002-0.035c-0.227-3.94-1.772-7.473-4.475-10.211c-2.785-2.875-6.344-4.395-10.291-4.395
			c-0.26,0-0.516,0.006-0.791,0.02l-0.029,0.002c-1.858,0.105-3.598,0.525-5.19,1.255c-0.988-0.47-2.066-0.757-3.207-0.847
			l-0.06-0.004c-0.922-0.063-1.822-0.012-2.674,0.146c-0.809-0.275-1.68-0.447-2.604-0.513c-2.209-0.17-4.342,0.438-6.119,1.74
			c-0.229,0.168-0.449,0.346-0.656,0.533c-2.391-1.5-5-2.26-7.777-2.26c-1.092,0-2.178,0.125-3.246,0.373
			c-0.461-1.742-1.438-3.322-2.848-4.564c-1.885-1.658-4.219-2.467-6.67-2.309C59.236,0.63,57,1.698,55.33,3.503
			c-1.051,1.139-1.789,2.473-2.174,3.896c-0.859,0.31-1.66,0.746-2.381,1.304c-1.512-0.929-3.287-1.384-5.109-1.297
			c-0.291,0.014-0.578,0.038-0.865,0.079c-2.535-3.1-5.869-5.063-9.92-5.844l-0.029-0.006c-1.139-0.209-2.283-0.316-3.404-0.316
			c-4.293,0-8.084,1.447-11.268,4.298c-3.051,2.729-5.018,6.282-5.85,10.563l-0.006,0.027c-0.23,1.244-0.35,2.518-0.35,3.787
			c0,4.17,1.234,7.881,3.678,11.045c2.576,3.307,6.045,5.41,10.301,6.248c1.293,0.26,2.6,0.381,3.877,0.362
			c-4.451,6.869-6.785,14.775-6.785,23.097c0,1.563,0.086,3.133,0.256,4.688c-0.74,0.582-1.434,1.328-2.113,2.263
			c-0.891,1.18-1.551,2.6-1.996,4.319c-0.514-0.016-1.033,0.021-1.539,0.115c-0.109-1.527-0.596-3.014-1.449-4.363
			c-1.508-2.393-3.859-3.922-6.619-4.311c-2.365-0.334-4.77,0.19-6.822,1.485c-2.029,1.281-3.506,3.199-4.271,5.543
			c-0.895,2.746-0.559,5.576,0.951,7.966c0.729,1.153,1.684,2.123,2.805,2.846c1.664,3.701,2.961,6.895,3.869,9.525
			c1.055,2.981,2.18,6.674,3.346,10.963l1.912,7.039l12.393-4.966c1.217,0.996,2.658,1.652,4.482,1.652
			c0.768,0,1.523-0.133,2.246-0.389l0.465-0.188c3.504-1.563,5.158-2.479,6.326-4.115l0.191-0.268l2.17,1.307l2.898-1.032
			c2.203-0.785,3.885-1.826,5.102-3.162c0.572,0.155,1.197,0.248,1.879,0.248c0.492,0,0.982-0.052,1.463-0.156
			c0.48,0.918,1.064,1.793,1.75,2.617c-0.221,0.563-0.377,1.155-0.463,1.772l-0.219,1.574l0.941,2.643l1.045,2.445l0.211,0.355
			c3.994,6.754,8.877,8.172,12.27,8.172h0.004c1.445,0,2.91-0.262,4.354-0.777l0.408-0.145l2.717-1.4l0.597-0.516
			c1.588-1.386,2.799-2.976,3.586-4.697c0.731-0.039,1.488-0.145,2.256-0.314l0.395-0.086l0.84-0.301l0.344-0.133
			c0.129-0.053,0.256-0.109,0.384-0.17c1.44,0.676,3.057,1.022,4.782,1.022c1.748,0,3.576-0.346,5.59-1.063l0.228-0.082
			c1.38-0.492,2.492-1.336,3.275-2.455l0.618,0.293l0.318,0.662l7.861-2.803l1.139-1.527c1.42,0.15,2.859,0.018,4.238-0.4
			c1.074,1.693,2.643,2.98,4.568,3.707c2.244,0.849,4.688,0.863,6.984,0.045c2.262-0.807,4.122-2.354,5.383-4.475
			C130.864,99.243,131.155,96.409,130.209,93.749z"/>
		<g>
			<path fill="none" stroke="#85426B" stroke-width="2" d="M102.34,78.729c2.802-5.383,4.384-11.498,4.384-17.981
				c0-21.564-17.478-39.041-39.035-39.041c-21.559,0-39.039,17.477-39.039,39.041c0,8.588,2.777,16.524,7.477,22.973
				C59.898,79.571,82.812,104.052,102.34,78.729z"/>
			<g>
				<path fill="#85426B" d="M73.049,61.052c3.356,0,6.94-1.621,10.373-4.295c-3.58,2.453-9.123,2.133-13.022,1.766
					c-3.9-0.366-9.566-3.043-9.566-3.043c3.361,4.64,7.947,5.304,7.947,5.304s-0.17,1.028-0.662,3.506
					c-0.49,2.477-0.293,3.557-0.293,5.688c0,2.135-0.787,3.779-1.963,6.109c1.643-1.228,4.512-4.514,5.176-6.133
					c0.516,3.139,2.428,5.985,3.924,6.205c-0.393-0.441-1.717-3.729-1.963-6.597C72.754,66.69,72.804,65.05,73.049,61.052z
					 M72.373,57.493c2.39,0,4.326-1.939,4.326-4.332c0-2.39-1.938-4.326-4.326-4.326c-2.392,0-4.328,1.938-4.328,4.326
					C68.045,55.554,69.981,57.493,72.373,57.493z M71.649,54.917c0.845,0.059,2.146-0.525,2.886-0.615
					c-0.146,0.367-1.562,2.396-3.238,2.396s-1.801-2.703-1.801-2.703C70.047,54.728,70.808,54.856,71.649,54.917z M51.211,48.005
					c2.342,0,4.24-1.9,4.24-4.242c0-2.344-1.898-4.24-4.24-4.24c-2.344,0-4.242,1.896-4.242,4.24
					C46.969,46.104,48.867,48.005,51.211,48.005z M52.129,45.54c0.758-0.058,1.439-0.179,1.936-0.871c0,0-0.277,2.396-1.781,2.396
					c-1.504,0-2.611-1.76-2.742-2.104C50.203,45.044,51.373,45.597,52.129,45.54z M65.799,43.149c0,0-3.258,9.138-14.656,6.15
					s-15.012-9.035-15.012-9.035s2.346,11.117,11.664,13.56c0.182,2.715,0.996,14.747,0.996,14.747l10.402-0.543l-2.262-13.391
					C65.074,54.187,65.799,43.149,65.799,43.149z M90.739,52.487c2.433,0,4.404-1.971,4.404-4.403c0-2.431-1.973-4.4-4.404-4.4
					c-2.43,0-4.399,1.971-4.399,4.4C86.34,50.517,88.312,52.487,90.739,52.487z M89.834,49.956c1.287,0.229,2.047-0.312,2.802-0.732
					c-0.146,0.373-1.253,2.719-2.861,2.267c-1.974-0.554-2.59-3.046-2.59-3.046C87.733,49.192,89.002,49.81,89.834,49.956z
					 M104.938,51.671c-2.254,3.379-8.729,3.756-15.209,1.879c-6.477-1.879-9.668-7.887-9.291-9.764
					c-2.537,4.317-1.313,6.479,0.75,9.104c0.748,0.953,1.916,1.854,3.269,2.633c0.569,5.035-5.312,15.959-7.492,18.867
					c3.66,0.188,12.58,3.004,18.774,7.133c-2.426-6.182-3.092-19.215-3.243-23.379c0.017,0,0.034,0.004,0.053,0.004
					C96.114,58.337,102.687,58.243,104.938,51.671z"/>
			</g>
			<path fill="#FFFFFF" d="M75.354,66.198l-0.451-0.437c-1.479-1.432-3.055-2.156-4.687-2.156c-0.612,0-1.225,0.105-1.813,0.314
				l-1.029,0.367c-0.59,0.213-1.191,0.524-1.824,0.959l-0.557-0.369l-3.514,1.252c-0.934-0.9-2.211-1.4-3.682-1.4
				c-0.373,0-0.768,0.031-1.172,0.092l-0.271,0.044l-0.605,0.213c-0.213,0.075-0.533,0.211-0.893,0.428
				c-1.691-1.555-2.666-2.051-3.783-2.051c-0.357,0-0.707,0.061-1.039,0.18c-3.619,1.289-4.104,6.061-4.238,7.994
				c-0.668-0.627-1.463-1.027-2.445-1.027c-0.371,0-0.736,0.062-1.086,0.187l-0.133,0.049l-0.129,0.059
				c-0.982,0.463-1.742,0.854-2.313,1.187c-0.545-0.174-1.137-0.271-1.766-0.271c-0.373,0-0.768,0.031-1.17,0.095l-0.273,0.04
				l-0.436,0.156l-0.313-0.873l-0.596-0.506c-3.176-2.678-3.93-3.018-4.648-3.203l-0.861-0.225l-0.951,0.34
				c-0.92,0.328-1.721,1.012-2.59,2.213c-1.221,1.598-1.857,4.047-1.979,7.642c-0.855-1.138-1.852-1.867-3.184-1.867
				c-0.365,0-0.727,0.063-1.07,0.186l-0.334,0.121l-0.484,0.32c-1.041,0.44-1.832,0.828-2.412,1.182
				c-0.229-0.639-0.457-1.272-0.676-1.916l-0.234-0.68c0.029-0.086,0.057-0.172,0.084-0.26c0.52-1.701,0.297-3.388-0.643-4.877
				c-0.949-1.503-2.355-2.425-4.072-2.666c-1.541-0.218-3.047,0.114-4.395,0.967c-1.311,0.826-2.268,2.076-2.768,3.61
				c-0.564,1.73-0.367,3.435,0.57,4.92c0.627,0.996,1.494,1.734,2.545,2.187l0.139,0.309c1.881,4.14,3.34,7.699,4.342,10.601
				c1.084,3.069,2.236,6.844,3.424,11.221l0.852,3.129l10.605-4.244l-0.842-1.666c2.043,3.011,3.18,3.845,4.691,3.845
				c0.002,0,0.002,0,0.002,0c0.354,0,0.703-0.062,1.035-0.179l0.207-0.084c3.486-1.555,4.316-2.155,4.859-2.916l0.768-1.073
				l-0.309-1.281c-0.859-3.588-1.521-6.986-1.965-10.092c-0.16-1.144-0.271-2.226-0.344-3.25l1.793,4.709l-0.025,0.055l1.623,4.055
				l1.123,3.152c0.221,0.619,0.721,1.498,1.859,2.184l1.172,0.707l1.289-0.461c2.055-0.729,3.434-1.688,4.211-2.934l0.709-1.135
				l-0.451-1.425c1.096,1.502,2.24,2.371,3.723,2.371c0.383,0,0.756-0.065,1.115-0.192l3.5-1.576l1.783-2.168l-0.322-1.39
				c-0.783-3.36-1.359-6.401-1.719-9.032l-0.008-0.058l0.291,0.767l-0.027,0.055l1.623,4.053l1.123,3.152
				c0.221,0.617,0.721,1.498,1.857,2.184l1.174,0.707l1.291-0.459c1.26-0.448,2.264-0.983,3.032-1.617
				c0.234,0.054,0.476,0.078,0.722,0.078c0.373,0,0.737-0.063,1.088-0.186l0.229-0.08l0.643-0.359l1.82-0.649l0.074-0.154
				c0.444-0.303,0.918-0.752,1.324-1.426l0.674-1.115L72.418,83.6c-0.567-1.803-1.088-3.518-1.558-5.133
				c0.564-0.027,1.136-0.141,1.697-0.342c1.533-0.547,4.162-2.138,4.551-6.642l0.062-0.678L75.354,66.198z M10.268,72.884
				c-0.078,0.258-0.186,0.369-0.344,0.467c-0.189,0.121-0.301,0.111-0.488,0.082c-0.01-0.002-0.02-0.004-0.027-0.006
				c0.002-0.008,0.004-0.018,0.008-0.025c0.109-0.338,0.242-0.442,0.357-0.518c0.193-0.121,0.309-0.137,0.396-0.137
				c0.021,0,0.045,0.002,0.076,0.004c0.006,0.01,0.012,0.02,0.02,0.031c0.008,0.014,0.016,0.024,0.02,0.032
				C10.283,72.829,10.277,72.853,10.268,72.884z M29.332,93.267l0.809-0.291c0.148,0.734,0.305,1.479,0.469,2.229
				C30.279,94.731,29.859,94.103,29.332,93.267z"/>
			<path fill="#FFFFFF" d="M14.07,76.157l-0.311-0.902l-0.639,0.256c0.344-0.438,0.604-0.945,0.777-1.514
				c0.352-1.152,0.209-2.242-0.422-3.242c-0.637-1.008-1.535-1.6-2.67-1.76c-1.074-0.15-2.111,0.08-3.061,0.68
				c-0.926,0.584-1.58,1.443-1.941,2.549c-0.379,1.17-0.258,2.26,0.361,3.244c0.602,0.951,1.502,1.527,2.676,1.715
				c0.033,0.004,0.066,0.008,0.102,0.017L8.59,77.341l0.391,0.861c1.906,4.194,3.389,7.813,4.404,10.762
				c1.102,3.113,2.268,6.936,3.471,11.356l0.268,0.982l6.525-2.615l-0.445-0.881C19.703,90.888,16.631,83.604,14.07,76.157z
				 M73.666,67.323l-0.142-0.136c-1.483-1.438-3.021-1.905-4.455-1.396l-1.03,0.365c-0.709,0.252-1.5,0.756-2.4,1.526l-0.916-0.604
				l-3.516,1.252c-0.16,0.059-0.303,0.131-0.434,0.211c-0.514-1.183-1.561-1.832-2.977-1.832c-0.273,0-0.566,0.022-0.871,0.07
				l-0.086,0.014l-0.426,0.152c-0.492,0.174-1.148,0.545-1.576,1.305c-2.574-2.596-3.252-2.816-3.766-2.816
				c-0.129,0-0.256,0.023-0.373,0.064c-1.732,0.619-2.695,2.754-2.943,6.531v0.053c-0.014,2.488,0.18,4.897,0.58,7.205l-2.174-3.496
				c-1.113-2.313-1.902-3.213-2.813-3.213c-0.145,0-0.285,0.022-0.42,0.073l-0.08,0.033c-1.486,0.699-2.441,1.203-2.973,1.66
				c-0.525-0.363-1.184-0.555-1.953-0.555c-0.271,0-0.566,0.024-0.869,0.069l-0.086,0.013l-0.426,0.151
				c-0.889,0.316-2.324,1.263-1.953,4.037l0.014,0.095l0.031,0.09c0.252,0.709,0.719,1.26,1.398,1.651l-0.189,1.543l0.408,0.613
				l1.955,5.127l0.283,0.555l-0.059,0.123l1.314,3.285l1.137,3.189c0.162,0.455,0.504,0.842,1.014,1.147l0.369,0.224l0.404-0.146
				c1.617-0.576,2.662-1.27,3.193-2.119l0.223-0.354l-4.414-13.896c3.652,5.496,5.746,8.57,6.371,9.347
				c1.705,3.141,2.625,3.782,3.482,3.782c0.154,0,0.305-0.022,0.449-0.073l2.928-1.326l0.867-1.055l-0.102-0.437
				c-0.795-3.422-1.383-6.522-1.75-9.217l-0.008-0.041c-0.568-3.111-0.494-6.266,0.219-9.385c0.104-0.095,0.199-0.187,0.287-0.275
				c0.01,0.15,0.023,0.307,0.045,0.471l0.012,0.095l0.033,0.09c0.252,0.707,0.721,1.26,1.398,1.651l-0.188,1.543l0.406,0.613
				l1.955,5.129l0.283,0.551l-0.059,0.123l1.314,3.285l1.137,3.189c0.162,0.453,0.504,0.842,1.014,1.149l0.367,0.222l0.406-0.144
				c1.617-0.578,2.664-1.271,3.195-2.123l0.045-0.071c0.396,0.358,0.783,0.541,1.18,0.541c0.146,0,0.289-0.025,0.424-0.072
				l0.718-0.387l1.196-0.427l0,0c0.453-0.164,0.836-0.504,1.142-1.01l0.213-0.354l-0.123-0.388
				c-1.039-3.299-1.918-6.297-2.619-8.948c0.799,0.821,1.705,1.239,2.691,1.239c0.422,0,0.856-0.078,1.293-0.233
				c1.928-0.688,3.016-2.351,3.239-4.941l0.019-0.213L73.666,67.323z M40.904,78.54c0.047-0.104,0.088-0.209,0.123-0.32
				c0.186,0.279,0.365,0.549,0.541,0.813L40.904,78.54z M32.877,86.55c-0.5-3.615-0.59-6.713-0.27-9.203l0.006-0.059
				c0.076-1.199,0.564-2.273,1.49-3.285l0.369-0.402l-0.428-1.205l-0.188-0.155c-2.838-2.396-3.486-2.703-3.869-2.804l-0.27-0.067
				l-0.377,0.133c-0.525,0.188-1.039,0.658-1.666,1.529c-1.078,1.397-1.604,3.936-1.605,7.754v0.028v0.027
				c0.125,2.061,0.484,4.619,1.076,7.635c-0.818-1.305-1.816-2.938-2.992-4.896c-1.6-3.322-2.396-3.976-3.23-3.976
				c-0.139,0-0.273,0.023-0.404,0.072l-0.105,0.035l-0.436,0.291c-2.561,1.065-3.783,1.817-3.385,2.938l0.078,0.222l8.535,12.66
				c3.447,5.649,4.293,6.102,5.039,6.102h0.002c0.127,0,0.252-0.023,0.369-0.064l0.064-0.022c3.305-1.478,3.814-1.926,4.055-2.262
				l0.24-0.336l-0.096-0.402C34.006,93.188,33.332,89.728,32.877,86.55z"/>
			<path fill="#85426B" d="M9.807,77.825c1.928,4.243,3.406,7.854,4.436,10.836c1.113,3.151,2.273,6.959,3.488,11.422l4.662-1.867
				c-3.533-6.986-6.594-14.24-9.18-21.764L9.807,77.825z M13.031,73.731c0.271-0.891,0.166-1.723-0.32-2.491
				c-0.49-0.775-1.168-1.226-2.029-1.349c-0.863-0.121-1.68,0.063-2.449,0.549c-0.75,0.472-1.27,1.16-1.564,2.064
				s-0.207,1.729,0.266,2.479c0.457,0.726,1.141,1.16,2.051,1.304c0.908,0.145,1.736-0.021,2.484-0.49
				C12.238,75.308,12.76,74.62,13.031,73.731z M40.303,76.618l-0.164-0.459c-0.416-1.168-1.398-1.636-2.949-1.398l-0.342,0.123
				c-1.125,0.4-1.578,1.42-1.359,3.063c0.34,0.952,1.273,1.522,2.803,1.706C39.764,79.128,40.436,78.118,40.303,76.618z
				 M31.709,77.229c0.088-1.399,0.664-2.68,1.727-3.84l-0.164-0.457c-1.945-1.643-3.115-2.514-3.512-2.619l-0.113,0.043
				c-0.33,0.115-0.744,0.523-1.242,1.218c-0.949,1.219-1.426,3.622-1.428,7.211c0.174,2.899,0.816,6.754,1.928,11.565l-0.229,0.082
				c-0.805-1.053-2.578-3.861-5.322-8.422c-1.197-2.496-2.039-3.654-2.529-3.482l-0.418,0.279c-2.096,0.869-3.084,1.478-2.959,1.828
				l0.041,0.115l8.482,12.578c2.41,3.957,3.857,5.848,4.342,5.674c2.236-0.996,3.467-1.648,3.688-1.957
				c-0.887-3.689-1.559-7.146-2.02-10.371C31.467,82.962,31.375,79.812,31.709,77.229z M60.385,72.298l-3.631,1.035l-0.098,0.809
				l0.277,0.418l1.99,5.222l0.4,0.764l0.041,0.111l-0.074,0.155l1.176,2.935l1.141,3.205c0.09,0.252,0.301,0.479,0.629,0.678
				c1.404-0.5,2.314-1.082,2.73-1.748l-4.232-13.32L60.385,72.298z M60.174,69.536l-0.162-0.459c-0.418-1.168-1.4-1.636-2.951-1.398
				L56.717,67.8c-1.123,0.404-1.576,1.424-1.357,3.064c0.34,0.954,1.273,1.522,2.803,1.709
				C59.635,72.048,60.309,71.036,60.174,69.536z M72.896,67.839c-1.235-1.193-2.408-1.59-3.522-1.193l-1.028,0.365
				c-0.781,0.279-1.74,0.963-2.878,2.059l-0.115,0.041l-0.156-0.073l-0.09-0.615L64.6,68.087l-3.088,1.102
				c-0.535,0.189-0.707,0.552-0.516,1.086l0.285,0.802l5.023,14.459c0.314,0.317,0.572,0.438,0.777,0.366l0.645-0.358l0.914-0.326
				l0.074-0.154l0.154,0.074l0.115-0.041c0.254-0.092,0.479-0.301,0.68-0.631c-1.32-4.187-2.369-7.853-3.146-10.998
				c0.488-1.723,1.467-2.844,2.928-3.367c0.638,0.342,1.043,0.754,1.218,1.246l-0.224,0.465c-0.246,0.088-0.574-0.225-0.979-0.94
				c-1.404,0.887-1.988,1.653-1.76,2.303l0.719,1.291c0.932,1.043,1.988,1.354,3.17,0.934c1.57-0.557,2.451-1.944,2.643-4.166
				L72.896,67.839z M40.512,79.378l-3.629,1.037l-0.096,0.807l0.275,0.418l1.99,5.223l0.4,0.763l0.041,0.115l-0.074,0.153
				l1.176,2.933l1.141,3.205c0.09,0.256,0.301,0.479,0.629,0.678c1.404-0.5,2.314-1.08,2.73-1.746l-4.232-13.32L40.512,79.378z
				 M53.313,70.304c0.662-0.572,0.986-0.988,0.973-1.25l-0.041-0.113c-1.824-1.842-2.904-2.705-3.24-2.584
				c-1.344,0.478-2.123,2.392-2.342,5.734c-0.023,4.076,0.516,7.883,1.617,11.416l-0.229,0.082l-0.154-0.074l-4.531-7.283
				c-0.949-1.981-1.66-2.893-2.131-2.723c-2.061,0.971-3.047,1.58-2.959,1.828l0.082,0.229c5.033,7.611,7.848,11.769,8.439,12.468
				c1.326,2.45,2.283,3.569,2.875,3.36l2.664-1.209l0.449-0.547c-0.805-3.467-1.393-6.565-1.766-9.299
				C52.406,76.993,52.506,73.651,53.313,70.304z"/>
			<path fill="#FFFFFF" d="M126.812,94.964c-0.396-1.111-1.076-2.023-2.004-2.693l-0.07-0.332c-0.928-4.451-1.57-8.246-1.912-11.295
				c-0.385-3.233-0.682-7.172-0.883-11.694l-0.146-3.242l-11.276,1.817l0.771,3.062c0.707,2.797,1.345,5.631,1.91,8.492
				c-1.902-1.773-3.99-2.677-6.234-2.677c-0.975,0-1.965,0.179-2.944,0.529l-0.137,0.047l-1.445,0.687l-0.191,0.133
				c-1.127,0.772-2.039,1.66-2.738,2.641c-1.326-0.965-2.584-1.207-3.504-1.207c-0.645,0-1.291,0.113-1.922,0.338l-0.158,0.063
				c-0.455,0.193-0.896,0.432-1.322,0.711c-0.422-0.188-0.938-0.316-1.565-0.35l-0.771-0.045l-2.297,1.157
				c-0.863,0.336-1.521,0.777-2.008,1.355c-0.318,0.375-0.547,0.799-0.688,1.244c-1.939-2.979-4.234-3.646-5.898-3.646
				c-0.754,0-1.527,0.137-2.293,0.408l-0.18,0.064l-0.17,0.088c-2.234,1.147-3.646,2.278-4.4,3.532
				c-0.361-0.446-0.771-0.842-1.232-1.178c-1.709-1.41-3.682-2.127-5.863-2.127c-1.252,0-2.572,0.244-3.924,0.728l-0.229,0.079
				c-0.818,0.293-1.68,0.767-2.637,1.443l-0.158,0.109l-0.139,0.133c-3.258,3.025-4.152,6.947-2.584,11.346
				c0.713,2.004,2.021,3.783,3.895,5.308c-0.869,0.561-1.457,1.506-1.613,2.651l-0.098,0.701l0.645,1.812l0.869,2.02l0.092,0.156
				c2.514,4.248,5.598,6.399,9.166,6.399h0.002c1.033,0,2.091-0.188,3.146-0.567l0.178-0.063l2.119-1.09l0.264-0.229
				c1.945-1.693,3.076-3.689,3.363-5.839c0.609,0.179,1.266,0.271,1.961,0.271c0.662,0,1.373-0.082,2.107-0.246l0.176-0.037
				l0.627-0.225l0.152-0.06c0.607-0.256,1.197-0.627,1.781-1.119c1.266,1.109,2.895,1.689,4.787,1.689
				c1.33,0,2.762-0.279,4.377-0.854l0.229-0.081c1.205-0.431,1.789-1.287,2.031-2.273c0.719-0.26,1.459-0.549,2.117-0.938
				l2.084,0.988l1.033-0.369v0.002l3.778-1.346l1.888-2.535c0.873,0.328,1.752,0.492,2.641,0.492c0.799,0,1.59-0.139,2.354-0.41
				l0.113-0.041c1.064-0.379,1.977-1.002,2.734-1.86c-0.041,0.76,0.07,1.532,0.342,2.297c0.596,1.676,1.768,2.883,3.389,3.491
				c0.734,0.279,1.496,0.418,2.264,0.418c0.746,0,1.5-0.131,2.236-0.396c1.457-0.521,2.668-1.527,3.494-2.918
				C127.222,98.317,127.401,96.616,126.812,94.964z M73.013,96.245c-0.222-0.177-0.451-0.347-0.687-0.513
				c0.471-0.471,0.909-1.061,1.258-1.791c0.146,0.125,0.295,0.242,0.451,0.354C73.59,94.942,73.25,95.593,73.013,96.245z
				 M121.317,96.931c-0.18,0.307-0.332,0.381-0.463,0.426c-0.112,0.041-0.213,0.063-0.295,0.063c-0.039,0-0.098-0.004-0.192-0.035
				c-0.005-0.01-0.007-0.021-0.013-0.035c-0.006-0.016-0.01-0.026-0.016-0.037c0.008-0.012,0.018-0.035,0.035-0.063
				c0.133-0.236,0.262-0.318,0.436-0.379c0.103-0.037,0.164-0.043,0.201-0.043c0.082,0,0.182,0.024,0.295,0.069
				c0.01,0.004,0.021,0.009,0.025,0.013C121.328,96.915,121.324,96.923,121.317,96.931z"/>
			<path fill="#FFFFFF" d="M71.033,97.251l-0.095-0.066l-0.108-0.039c-1.369-0.502-2.504-0.977-3.44-1.426
				c0.602,0.021,1.184-0.063,1.715-0.252c1.836-0.656,3.86-2.408,3.076-7.051l-0.013-0.078l-0.437-1.221
				c-0.399-1.127-1.02-1.992-1.844-2.572c-2.162-1.813-4.852-2.193-7.908-1.103l-0.229,0.08c-0.645,0.229-1.35,0.619-2.158,1.191
				l-0.092,0.072c-2.67,2.479-3.363,5.586-2.064,9.229c0.754,2.119,2.348,3.963,4.734,5.482l0.078,0.049l0.088,0.033
				c0.5,0.19,0.967,0.373,1.404,0.553l-2.98,1.408c-0.324,0.131-0.824,0.477-0.947,1.371l-0.031,0.221l0.48,1.354l0.75,1.732
				l0.051,0.1c2.129,3.603,4.641,5.427,7.458,5.427h0.002c0.806,0,1.64-0.15,2.479-0.451l1.845-0.938l0.082-0.073
				c2.594-2.261,3.37-4.92,2.307-7.908C74.535,100.411,73.123,98.685,71.033,97.251z M69.692,105.71
				c-0.108,0.029-0.213,0.045-0.313,0.045l0,0c-0.689,0-1.363-0.748-1.826-1.41c-0.51-1.424-0.941-2.41-1.326-3.084
				c2.633,1.33,3.371,2.279,3.558,2.801C70.194,105.218,69.897,105.563,69.692,105.71z M114.16,83.865l-0.931-1.824l-0.057-0.07
				c-1.893-2.377-3.982-3.584-6.207-3.584c-0.746,0-1.516,0.139-2.279,0.412l-1.188,0.559l-0.129,0.07
				c-1.822,1.258-2.943,2.838-3.359,4.678l-0.482-0.942l-0.071-0.082c-1.069-1.238-2.231-1.867-3.451-1.867
				c-0.416,0-0.84,0.076-1.254,0.225l-0.053,0.021c-0.771,0.328-1.505,0.83-2.185,1.498l-0.076-0.215l-0.049-0.078
				c-0.381-0.633-1.195-0.679-1.461-0.691l-0.242-0.014l-1.916,0.967c-0.59,0.217-1.014,0.484-1.293,0.816
				c-0.393,0.465-0.494,1.036-0.289,1.612l0.045,0.123l0.078,0.107c0.127,0.174,0.521,0.854,1.451,3.463l0.285,0.801l0.24,0.479
				l-0.119,0.252l0.498,0.635l2.568,6.688l-0.863,0.455l-0.432,0.041l-0.105,0.037c-0.256,0.09-0.5,0.138-0.729,0.138
				c-1.439,0-2.469-2.039-3.078-3.75l-0.479-1.343l-1.442-5.129l-0.875-2.463l-0.049-0.111c-1.281-2.479-2.9-3.735-4.808-3.735
				c-0.526,0-1.076,0.1-1.627,0.297l-0.108,0.047c-2.041,1.047-3.226,1.998-3.72,2.992c-0.899,1.647-1.14,3.098-0.707,4.309
				l0.205,0.574c0.646,1.809,1.981,2.928,3.886,3.271c-2.367,2.266-3.193,4.457-2.453,6.532l0.364,1.031
				c0.912,2.557,3.009,3.604,6.019,2.937l0.565-0.193l0.048-0.021c0.846-0.354,1.688-1.063,2.563-2.157
				c0.258,0.338,0.461,0.557,0.651,0.692c0.978,1.248,2.361,1.881,4.123,1.881l0,0c1.084,0,2.332-0.248,3.709-0.739l0.23-0.08
				c0.783-0.281,0.975-1.074,0.824-2.34c0.314,0.118,0.629,0.141,0.773,0.146l0.182,0.01l0.17-0.061
				c1.91-0.678,2.729-1.232,2.928-1.976l0.07-0.262l-1.813-5.467l-1.672-4.689c-0.073-0.207-0.254-0.713,0.649-1.457l3.558,12.964
				l1.338,0.633l2.13-0.758l0,0l1.342-0.479l0.963-1.291l-1.459-4.764c2.162,2.479,4.217,3.694,6.256,3.694
				c0.572,0,1.139-0.1,1.686-0.295l0.115-0.041c2.039-0.727,3.35-2.838,3.896-6.274l0.012-0.123
				c0.053-2.652-0.129-4.515-0.547-5.691L114.16,83.865z M80.435,98.657c-0.023-0.033-0.058-0.089-0.095-0.179
				c-0.101-0.328,0.274-1.051,1.578-2.102l0.047,0.121C82.069,96.8,81.729,97.54,80.435,98.657z M109.551,92.12l-0.104,0.01
				c-1.584-0.426-2.777-1.805-3.643-4.215c-0.697-2.699,0.256-3.039,0.616-3.166l0.457-0.164c0.162-0.06,0.317-0.088,0.463-0.088
				c0.882,0,1.644,1.143,2.138,2.123c0.196,0.582,0.35,1.453,0.451,2.596C109.935,91.278,109.662,91.938,109.551,92.12z
				 M124.942,95.628c-0.377-1.062-1.131-1.82-2.233-2.262c-0.033-0.011-0.063-0.023-0.097-0.035l0.375-0.062l-0.192-0.928
				c-0.94-4.508-1.594-8.365-1.94-11.465c-0.39-3.285-0.691-7.269-0.896-11.842l-0.047-1.019l-6.938,1.119l0.24,0.961
				c1.898,7.516,3.303,15.295,4.168,23.123l0.105,0.951l0.678-0.113c-0.432,0.355-0.795,0.791-1.092,1.31
				c-0.594,1.045-0.695,2.143-0.297,3.256c0.399,1.123,1.147,1.897,2.221,2.301c0.508,0.193,1.033,0.289,1.563,0.289
				c0.519,0,1.047-0.094,1.57-0.279c1.033-0.369,1.857-1.063,2.453-2.063C125.213,97.813,125.334,96.722,124.942,95.628z"/>
			<path fill="#85426B" d="M92.556,98.915l-0.156-0.074l-0.76,0.4l-0.5,0.049c-2.059,0.731-3.715-0.654-4.965-4.164l-0.488-1.373
				l-1.453-5.156l-0.854-2.402c-1.428-2.758-3.2-3.762-5.325-3.004c-1.828,0.939-2.939,1.806-3.326,2.605
				c-0.781,1.424-1,2.621-0.656,3.586l0.203,0.572c0.604,1.696,1.879,2.619,3.822,2.764c1.547-0.549,2.434-1.555,2.666-3.014
				c-0.232-0.654-0.859-1.205-1.88-1.65l-0.229,0.082l-0.557,0.971l-0.227,0.082l-0.313-0.146l-0.203-0.574
				c-0.101-0.279,0.211-0.734,0.932-1.365c1.223-0.434,2.293,0.646,3.217,3.24c-0.125,0.674-0.57,1.35-1.342,2.027
				c-3.768,2.69-5.254,5.151-4.457,7.391l0.367,1.029c0.762,2.137,2.416,2.922,4.967,2.356l0.457-0.164
				c0.871-0.366,1.801-1.258,2.789-2.67l0.23-0.08c0.657,0.968,1.039,1.435,1.141,1.398c1.32,1.85,3.631,2.186,6.936,1.008
				l0.229-0.082c0.4-0.143,0.354-1.242-0.145-3.301L92.556,98.915z M80.888,99.462l-0.115,0.041
				c-0.578,0.205-1.006-0.029-1.283-0.703c-0.338-0.947,0.482-2.143,2.461-3.588l0.229-0.078l0.313,0.145l0.325,0.916
				C83.117,97.04,82.476,98.13,80.888,99.462z M70.521,97.997c-4.841-1.765-7.582-3.537-8.216-5.324
				c-0.242-2.064,0.334-3.346,1.725-3.842c1.777-0.322,2.792-0.127,3.047,0.592c-0.046,0.531-0.229,0.854-0.554,0.971
				c-0.352,0.127-0.981-0.078-1.896-0.61l-0.229,0.08c-0.158,0.198-0.393,1.354-0.697,3.471l0.236,0.303
				c1.943,1.115,3.564,1.439,4.861,0.978c2.205-0.785,3.035-2.804,2.49-6.046l-0.41-1.143c-0.342-0.967-0.859-1.688-1.543-2.16
				c-1.93-1.633-4.279-1.955-7.051-0.967l-0.229,0.08c-0.561,0.199-1.207,0.557-1.938,1.076c-2.391,2.219-3,4.975-1.828,8.262
				c0.689,1.932,2.145,3.605,4.367,5.018c4.771,1.808,7.43,3.48,7.98,5.023c0.479,1.342,0.291,2.268-0.557,2.779
				c-1.15,0.41-2.264-0.185-3.342-1.775c-1.006-2.824-1.777-4.141-2.309-3.949l-3.311,1.566c-0.223,0.078-0.359,0.299-0.41,0.66
				l0.408,1.146l0.727,1.676c2.52,4.261,5.472,5.785,8.854,4.582l1.635-0.842c2.295-2,2.979-4.307,2.047-6.92
				C73.744,100.888,72.455,99.327,70.521,97.997z M113.308,84.167l-0.843-1.633c-2.295-2.882-4.784-3.841-7.476-2.884l-1.104,0.523
				c-3.037,2.092-3.885,5.016-2.547,8.773c0.424,1.188,1.037,2.303,1.836,3.342c2.729,3.414,5.252,4.707,7.572,3.881l0.115-0.043
				c1.709-0.607,2.811-2.463,3.305-5.562c0.047-2.52-0.117-4.307-0.496-5.368L113.308,84.167z M109.875,92.999l-0.498,0.049
				c-1.967-0.453-3.444-2.076-4.44-4.865c-0.619-2.358-0.228-3.787,1.18-4.291l0.457-0.16c1.404-0.5,2.652,0.345,3.742,2.535
				c0.233,0.66,0.408,1.629,0.521,2.908C110.845,91.493,110.524,92.769,109.875,92.999z M98.772,83.673
				c-1.192-1.379-2.434-1.842-3.717-1.383c-0.938,0.397-1.811,1.096-2.609,2.09c-0.229,0.082-0.436-0.016-0.62-0.295l-0.132-0.728
				l-0.08-0.229c-0.088-0.148-0.334-0.232-0.733-0.254l-1.75,0.881c-0.914,0.326-1.276,0.756-1.088,1.291
				c0.334,0.453,0.858,1.684,1.574,3.693l0.284,0.801l0.4,0.762l-0.074,0.156l0.238,0.299l3.572,9.303
				c0.088,0.148,0.332,0.232,0.734,0.256c1.469-0.524,2.254-0.977,2.354-1.354l-1.721-5.189l-1.672-4.692
				c-0.361-1.017,0.117-1.961,1.44-2.834l0.775,0.369l0.163,0.457L99.56,99.64l0.621,0.295l1.83-0.651l0.76-0.398l0.041,0.113
				l0.23-0.082l0.521-0.701L99.612,85.31L98.772,83.673z M121.91,92.528c-0.953-4.561-1.604-8.409-1.955-11.545
				c-0.396-3.317-0.697-7.289-0.901-11.905l-4.959,0.801c1.916,7.59,3.313,15.338,4.188,23.244L121.91,92.528z M124.086,95.933
				c-0.285-0.809-0.856-1.383-1.715-1.721c-0.853-0.342-1.695-0.363-2.531-0.066c-0.854,0.308-1.516,0.865-1.978,1.672
				c-0.461,0.81-0.536,1.644-0.231,2.5c0.31,0.865,0.871,1.451,1.687,1.763c0.813,0.305,1.652,0.305,2.51,0
				c0.834-0.295,1.492-0.854,1.977-1.67C124.291,97.591,124.386,96.765,124.086,95.933z"/>
			<path fill="#85426B" d="M114.668,21.74c-0.179-3.104-1.347-5.769-3.451-7.898c-2.122-2.195-4.719-3.311-7.713-3.311
				c-0.194,0-0.396,0.004-0.612,0.016c-2.097,0.121-3.953,0.754-5.554,1.885c-0.896-0.865-2.032-1.379-3.313-1.479l-0.032-0.002
				c-1.087-0.07-1.996,0.082-2.729,0.35c-0.66-0.371-1.504-0.646-2.576-0.719c-1.365-0.105-2.629,0.25-3.721,1.049
				c-1.006,0.74-1.678,1.756-1.98,2.967c-0.547-0.611-1.168-1.176-1.864-1.688c-2.047-1.527-4.31-2.302-6.726-2.302
				c-1.186,0-2.371,0.199-3.526,0.593c-1.427,0.485-2.681,1.221-3.748,2.194c-0.086-0.147-0.179-0.297-0.279-0.438
				c0.709-1.039,1.052-2.246,0.992-3.535c-0.073-1.518-0.733-2.866-1.914-3.905c-1.16-1.022-2.568-1.52-4.072-1.418
				c-1.482,0.08-2.82,0.721-3.869,1.855c-1.063,1.151-1.59,2.551-1.516,4.041l0.002,0.051c0.012,0.147,0.027,0.297,0.049,0.442
				c-0.08-0.004-0.158-0.012-0.238-0.012c-0.096,0-0.189,0.004-0.289,0.008c-1.576,0.074-2.918,0.74-3.879,1.929
				c-0.477,0.588-0.82,1.254-1.023,1.975c-0.283-0.703-0.703-1.332-1.25-1.871c-1.074-1.055-2.473-1.578-3.998-1.506
				c-0.91,0.043-1.736,0.287-2.461,0.709c-0.305-0.521-0.645-1.025-1.021-1.512c-2.029-2.683-4.766-4.371-8.154-5.023
				c-0.924-0.17-1.85-0.254-2.752-0.254c-3.377,0-6.357,1.135-8.863,3.375c-2.449,2.193-4.035,5.068-4.713,8.564
				c-0.191,1.026-0.289,2.077-0.289,3.127c0,3.352,0.98,6.319,2.918,8.83c2.025,2.6,4.773,4.26,8.16,4.926
				c1.664,0.334,3.365,0.393,4.994,0.133c0.621,0.758,0.822,0.967,0.961,1.09c1.455,1.424,2.92,1.726,3.896,1.726
				c1.361,0,2.617-0.468,3.631-1.354c1.105-0.969,1.689-2.254,1.689-3.717c0-0.101-0.008-0.199-0.014-0.297
				c0.199,0.19,0.406,0.379,0.625,0.557c1.809,1.463,4.123,2.205,6.875,2.205c0.262,0,0.529-0.006,0.816-0.02
				c2.727-0.156,4.975-0.947,6.695-2.351c0.166,0.226,0.344,0.441,0.543,0.642c0.984,0.983,2.252,1.504,3.668,1.504
				c0.127,0,0.258-0.004,0.387-0.013c1.559-0.08,2.889-0.733,3.842-1.895c0.168-0.203,0.313-0.42,0.446-0.642
				c0.187,0.162,0.375,0.32,0.57,0.472c1.937,1.475,4.157,2.223,6.604,2.223c1.334,0,2.682-0.231,3.991-0.686
				c1.402-0.48,2.722-1.201,3.938-2.146c0.109,0.176,0.226,0.348,0.355,0.514c0.938,1.181,2.248,1.863,3.795,1.974
				c0.141,0.01,0.281,0.016,0.42,0.016c1.396,0,2.658-0.504,3.648-1.459c1.008-0.975,1.613-2.281,1.748-3.776l0.156-2.316
				c0.563,1.797,1.521,3.391,2.873,4.758c2.098,2.123,4.688,3.197,7.701,3.197c0.201,0,0.405-0.004,0.633-0.014
				c3.272-0.187,5.949-1.548,7.955-4.054C113.959,27.704,114.821,24.927,114.668,21.74z M103.617,23.589
				c-0.007,0.01-0.013,0.016-0.017,0.022c-0.006-0.008-0.014-0.016-0.021-0.024c-0.229-0.297-0.356-0.701-0.39-1.23
				c-0.032-0.567,0.049-1.002,0.246-1.323c0.006-0.009,0.01-0.017,0.015-0.023c0,0.002,0.004,0.004,0.004,0.006
				c0.235,0.314,0.366,0.742,0.399,1.313C103.888,22.868,103.81,23.281,103.617,23.589z M34.121,18.669
				c0,0.158-0.006,0.315-0.014,0.471c-0.051-0.014-0.102-0.022-0.152-0.035c-0.359-0.071-0.717-0.106-1.057-0.106
				c-1.314,0-2.516,0.455-3.471,1.313c-0.238,0.215-0.455,0.447-0.648,0.697c-0.023-0.203-0.035-0.416-0.035-0.643
				c0-0.441,0.047-0.91,0.141-1.396c0.223-1.156,0.623-2.031,1.227-2.674c0.459-0.492,0.924-0.701,1.553-0.701
				c0.178,0,0.359,0.016,0.52,0.047c0.631,0.123,1.064,0.396,1.402,0.873C33.945,17.058,34.121,17.763,34.121,18.669z"/>
			<path fill="#FFFFFF" d="M33.762,7.562c-0.783-0.145-1.555-0.217-2.314-0.217c-2.777,0-5.193,0.92-7.25,2.762
				c-2.059,1.843-3.375,4.242-3.949,7.205c-0.166,0.883-0.246,1.777-0.246,2.685c0,2.817,0.801,5.266,2.404,7.344
				c1.666,2.139,3.91,3.486,6.727,4.041c0.822,0.164,1.645,0.248,2.469,0.248c1.029,0,2.025-0.146,2.992-0.435
				c0.967,1.216,1.523,1.884,1.668,2.007c0.719,0.721,1.469,1.08,2.25,1.08c0.783,0,1.461-0.253,2.037-0.757
				c0.576-0.504,0.865-1.137,0.865-1.896c0-0.598-0.217-1.226-0.65-1.883c-0.432-0.535-0.852-1.07-1.264-1.604
				c1.564-1.729,2.604-3.897,3.115-6.512c0.166-0.865,0.248-1.728,0.248-2.592c0-2.816-0.813-5.275-2.438-7.375
				C38.76,9.464,36.539,8.097,33.762,7.562z M35.551,22.987c-0.781-0.883-1.471-1.389-2.066-1.512
				c-0.207-0.041-0.4-0.061-0.586-0.061c-0.721,0-1.338,0.229-1.852,0.692c-0.516,0.463-0.834,1.045-0.957,1.744
				c-0.123,0.64,0.021,1.265,0.432,1.881c-1.398-0.225-2.459-0.832-3.178-1.819c-0.68-0.927-1.018-2.107-1.018-3.547
				c0-0.597,0.061-1.216,0.186-1.853c0.309-1.604,0.92-2.895,1.836-3.873c0.914-0.977,2.02-1.465,3.316-1.465
				c0.328,0,0.658,0.031,0.986,0.092c1.254,0.248,2.232,0.875,2.932,1.881c0.637,0.949,0.957,2.121,0.957,3.521
				C36.539,20.212,36.209,21.651,35.551,22.987z M59.246,15.983c-0.041-0.944-0.354-1.707-0.941-2.282
				c-0.584-0.574-1.32-0.843-2.205-0.804c-0.885,0.043-1.588,0.388-2.113,1.035c-0.523,0.646-0.756,1.437-0.695,2.359l0.402,7.897
				c0.041,0.66-0.133,1.185-0.525,1.574c-0.391,0.391-0.873,0.607-1.449,0.648c-0.596,0.02-1.105-0.144-1.527-0.494
				s-0.652-0.854-0.693-1.512l-0.402-7.898c-0.041-0.926-0.359-1.682-0.957-2.268c-0.596-0.587-1.326-0.859-2.189-0.818
				c-0.885,0.041-1.59,0.387-2.113,1.033c-0.525,0.647-0.768,1.436-0.727,2.36l0.432,8.021c0.104,2.223,0.912,3.945,2.424,5.168
				c1.512,1.225,3.521,1.772,6.031,1.649c2.51-0.143,4.449-0.897,5.816-2.268c1.369-1.367,1.99-3.172,1.867-5.416L59.246,15.983z
				 M62.332,13.022c0.906-0.041,1.656-0.405,2.254-1.096c0.596-0.689,0.873-1.484,0.832-2.393c-0.041-0.863-0.406-1.599-1.096-2.205
				c-0.689-0.605-1.465-0.879-2.328-0.818c-0.865,0.043-1.609,0.402-2.238,1.08c-0.627,0.68-0.92,1.441-0.881,2.283
				c0.063,0.885,0.434,1.646,1.113,2.283C60.666,12.796,61.449,13.083,62.332,13.022z M65.48,16.231
				c-0.041-0.926-0.355-1.682-0.941-2.268c-0.586-0.588-1.322-0.859-2.207-0.818c-0.883,0.063-1.588,0.412-2.113,1.049
				c-0.525,0.64-0.756,1.421-0.693,2.347l0.617,11.848c0.041,0.926,0.355,1.682,0.941,2.269c0.584,0.586,1.32,0.848,2.205,0.786
				c0.883-0.041,1.59-0.381,2.113-1.02c0.523-0.637,0.768-1.418,0.727-2.344L65.48,16.231z M81.617,22.31
				c-0.029,0-0.06,0.002-0.091,0.004c1.004-0.448,1.509-1.157,1.509-2.133c0-0.371-0.07-0.762-0.214-1.174
				c-0.557-1.646-1.604-3.033-3.147-4.164c-1.625-1.213-3.383-1.82-5.276-1.82c-0.926,0-1.842,0.154-2.746,0.463
				c-1.81,0.617-3.238,1.728-4.289,3.332c-0.965,1.502-1.451,3.199-1.451,5.093c0,1.131,0.188,2.221,0.557,3.27
				c0.68,1.976,1.773,3.539,3.287,4.689c1.512,1.151,3.225,1.729,5.137,1.729c1.07,0,2.139-0.186,3.209-0.557
				c1.502-0.515,2.879-1.357,4.133-2.529c1.4-1.275,2.101-2.479,2.101-3.609c0-0.698-0.272-1.307-0.815-1.819
				C82.97,22.567,82.336,22.31,81.617,22.31z M73.379,18.423c0.33-0.104,0.646-0.156,0.957-0.156c0.822,0,1.513,0.361,2.067,1.08
				l-4.848,1.668C71.58,19.698,72.187,18.833,73.379,18.423z M78.994,24.036c-0.822,0.905-1.584,1.481-2.283,1.729
				c-0.515,0.187-1.008,0.277-1.481,0.277c-0.842,0-1.531-0.269-2.066-0.801l7.191-2.5C79.981,23.017,79.53,23.446,78.994,24.036z
				 M112.254,21.878c-0.146-2.51-1.069-4.629-2.774-6.357c-1.771-1.83-3.918-2.684-6.449-2.561
				c-2.508,0.145-4.555,1.215-6.139,3.209c-0.131,0.162-0.254,0.33-0.371,0.496c0.057-0.953-0.191-1.746-0.742-2.377
				c-0.512-0.558-1.16-0.865-1.941-0.929c-1.256-0.079-2.211,0.238-2.869,0.957c-0.434-0.801-1.256-1.243-2.469-1.325
				c-0.783-0.063-1.482,0.135-2.1,0.586c-0.699,0.514-1.09,1.243-1.172,2.19l-0.834,12.064c-0.062,0.924,0.166,1.711,0.68,2.358
				c0.514,0.648,1.203,1.002,2.068,1.064c0.883,0.063,1.625-0.195,2.221-0.771c0.596-0.575,0.936-1.325,1.018-2.252l0.463-6.789
				c0.063-0.78,0.566-1.377,1.514-1.789l2.652-0.926c0.197-0.094,0.371-0.201,0.531-0.313c-0.576,1.344-0.826,2.807-0.748,4.389
				c0.145,2.551,1.061,4.678,2.746,6.387c1.75,1.769,3.908,2.591,6.48,2.468c2.569-0.144,4.637-1.191,6.201-3.146
				C111.696,26.659,112.379,24.448,112.254,21.878z M105.666,24.87c-0.461,0.739-1.112,1.131-1.959,1.172
				c-0.821,0.043-1.5-0.283-2.035-0.972c-0.536-0.688-0.834-1.549-0.896-2.577c-0.063-1.068,0.14-1.979,0.603-2.73
				c0.463-0.75,1.115-1.146,1.959-1.188c0.845-0.042,1.526,0.289,2.054,0.987c0.522,0.699,0.817,1.574,0.879,2.623
				S106.131,24.13,105.666,24.87z"/>
		</g>
	</g>
	<circle display="inline" fill="#FFFFFF" cx="116.752" cy="10.79" r="3.621"/>
	<g display="inline">
		<path fill="#9E1F63" d="M114.619,10.79c0-1.181,0.885-2.146,2.123-2.146c1.297,0,2.144,0.965,2.144,2.146
			c0,1.155-0.863,2.143-2.144,2.143C115.414,12.933,114.619,11.946,114.619,10.79z M118.362,10.79c0-1.066-0.735-1.732-1.62-1.732
			c-0.888,0-1.601,0.654-1.601,1.732c0,1.063,0.754,1.701,1.601,1.701C117.588,12.491,118.362,11.847,118.362,10.79z M115.888,9.571
			h1.026c0.45,0,0.847,0.253,0.847,0.726c0,0.291-0.152,0.563-0.443,0.686l0.522,0.914h-0.625l-0.463-0.834h-0.282v0.834h-0.582
			V9.571L115.888,9.571z M116.834,10.638c0.211,0,0.342-0.121,0.342-0.301c0-0.221-0.141-0.313-0.342-0.313h-0.364v0.613
			L116.834,10.638L116.834,10.638z"/>
	</g>
</g>
<g>
	<g>
		<path fill="#FFFFFF" d="M130.211,93.272c-0.459-1.287-1.181-2.438-2.114-3.393c-0.812-3.976-1.38-7.375-1.688-10.139
			c-0.375-3.15-0.664-6.994-0.861-11.431l-0.325-7.287l-15.005,2.42c0.076-1.053,0.115-2.108,0.115-3.174
			c0-8.305-2.381-16.264-6.752-23.053c0.244,0,0.487-0.008,0.746-0.021l0.028-0.002c4.281-0.239,7.938-2.106,10.57-5.397
			c2.418-3.021,3.545-6.625,3.348-10.709l-0.002-0.035c-0.227-3.941-1.772-7.473-4.475-10.211
			c-2.785-2.875-6.344-4.396-10.291-4.396c-0.26,0-0.516,0.007-0.791,0.021l-0.029,0.002c-1.858,0.105-3.598,0.525-5.19,1.254
			c-0.988-0.469-2.065-0.756-3.207-0.846l-0.06-0.004c-0.922-0.063-1.822-0.013-2.674,0.145c-0.809-0.274-1.68-0.447-2.604-0.512
			c-2.209-0.17-4.342,0.438-6.119,1.74c-0.229,0.168-0.449,0.346-0.656,0.532c-2.391-1.5-5-2.26-7.777-2.26
			c-1.092,0-2.178,0.125-3.246,0.373c-0.461-1.742-1.438-3.322-2.848-4.563c-1.885-1.658-4.219-2.468-6.67-2.31
			c-2.396,0.133-4.633,1.201-6.303,3.006c-1.051,1.14-1.789,2.474-2.174,3.896c-0.859,0.309-1.66,0.746-2.381,1.303
			c-1.512-0.928-3.287-1.383-5.109-1.297c-0.291,0.014-0.578,0.039-0.865,0.08c-2.535-3.1-5.869-5.063-9.92-5.844l-0.029-0.006
			C33.714,0.948,32.57,0.84,31.449,0.84c-4.293,0-8.084,1.447-11.268,4.297c-3.051,2.73-5.018,6.283-5.85,10.564l-0.006,0.026
			c-0.23,1.244-0.35,2.519-0.35,3.787c0,4.17,1.234,7.881,3.678,11.045c2.576,3.308,6.045,5.41,10.301,6.248
			c1.293,0.26,2.6,0.381,3.877,0.363c-4.451,6.869-6.785,14.775-6.785,23.096c0,1.563,0.086,3.133,0.256,4.689
			c-0.74,0.582-1.434,1.328-2.113,2.262c-0.891,1.18-1.551,2.6-1.996,4.32c-0.514-0.017-1.033,0.02-1.539,0.114
			c-0.109-1.526-0.596-3.014-1.449-4.362c-1.508-2.394-3.859-3.922-6.619-4.312c-2.365-0.334-4.77,0.191-6.822,1.486
			c-2.029,1.281-3.506,3.199-4.271,5.543c-0.895,2.746-0.559,5.576,0.951,7.965c0.729,1.154,1.684,2.123,2.805,2.846
			c1.664,3.701,2.961,6.896,3.869,9.525c1.055,2.982,2.18,6.674,3.346,10.963l1.912,7.039l12.393-4.965
			c1.217,0.996,2.658,1.652,4.482,1.652c0.768,0,1.523-0.134,2.246-0.39l0.465-0.188c3.504-1.563,5.158-2.479,6.326-4.115
			l0.191-0.268l2.17,1.307l2.898-1.033c2.203-0.785,3.885-1.826,5.102-3.162c0.572,0.156,1.197,0.248,1.879,0.248
			c0.492,0,0.982-0.051,1.463-0.156c0.48,0.918,1.064,1.793,1.75,2.617c-0.221,0.563-0.377,1.156-0.463,1.773l-0.219,1.574
			L55,105.889l1.045,2.445l0.211,0.354c3.994,6.754,8.877,8.172,12.271,8.172h0.004c1.445,0,2.91-0.262,4.354-0.776l0.408-0.146
			l2.717-1.399l0.596-0.517c1.588-1.385,2.799-2.975,3.586-4.696c0.732-0.039,1.488-0.146,2.256-0.314l0.396-0.086l0.841-0.301
			l0.344-0.133c0.129-0.054,0.256-0.109,0.383-0.17c1.441,0.676,3.057,1.022,4.783,1.022c1.748,0,3.576-0.346,5.59-1.063
			l0.227-0.082c1.379-0.492,2.492-1.336,3.275-2.455l0.619,0.293l0.318,0.662l7.86-2.804l1.14-1.526
			c1.42,0.149,2.858,0.018,4.237-0.4c1.074,1.693,2.644,2.98,4.567,3.707c2.244,0.848,4.689,0.863,6.984,0.045
			c2.262-0.807,4.123-2.354,5.383-4.475C130.867,98.766,131.158,95.932,130.211,93.272z"/>
		<g>
			<path fill="none" stroke="#2DB097" stroke-width="2" d="M102.342,78.252c2.802-5.383,4.384-11.498,4.384-17.982
				c0-21.563-17.478-39.041-39.035-39.041c-21.559,0-39.039,17.478-39.039,39.041c0,8.588,2.777,16.525,7.477,22.974
				C59.9,79.094,82.813,103.575,102.342,78.252z"/>
			<g>
				<path fill="#2DB097" d="M73.051,60.575c3.357,0,6.941-1.621,10.373-4.295c-3.579,2.452-9.123,2.133-13.022,1.766
					c-3.9-0.367-9.566-3.043-9.566-3.043c3.361,4.639,7.947,5.303,7.947,5.303s-0.17,1.029-0.662,3.506
					c-0.49,2.478-0.293,3.558-0.293,5.689c0,2.135-0.787,3.779-1.963,6.108c1.643-1.227,4.512-4.514,5.176-6.133
					c0.516,3.14,2.428,5.986,3.924,6.205c-0.393-0.44-1.717-3.729-1.963-6.596C72.756,66.213,72.806,64.573,73.051,60.575z
					 M72.375,57.016c2.39,0,4.326-1.938,4.326-4.332c0-2.389-1.938-4.326-4.326-4.326c-2.392,0-4.328,1.938-4.328,4.326
					C68.047,55.077,69.983,57.016,72.375,57.016z M71.651,54.44c0.845,0.06,2.146-0.524,2.886-0.614
					c-0.146,0.366-1.562,2.396-3.238,2.396s-1.801-2.703-1.801-2.703C70.049,54.25,70.81,54.379,71.651,54.44z M51.213,47.528
					c2.342,0,4.24-1.899,4.24-4.241c0-2.345-1.898-4.24-4.24-4.24c-2.344,0-4.242,1.896-4.242,4.24
					C46.971,45.627,48.869,47.528,51.213,47.528z M52.131,45.063c0.758-0.057,1.439-0.178,1.936-0.871c0,0-0.277,2.396-1.781,2.396
					s-2.611-1.76-2.742-2.105C50.205,44.567,51.375,45.12,52.131,45.063z M65.801,42.672c0,0-3.258,9.137-14.656,6.15
					c-11.398-2.987-15.012-9.035-15.012-9.035s2.346,11.116,11.664,13.559c0.182,2.715,0.996,14.748,0.996,14.748l10.402-0.543
					L56.933,54.16C65.076,53.709,65.801,42.672,65.801,42.672z M90.742,52.01c2.432,0,4.403-1.971,4.403-4.404
					c0-2.43-1.973-4.399-4.403-4.399s-4.4,1.971-4.4,4.399C86.342,50.04,88.313,52.01,90.742,52.01z M89.836,49.479
					c1.287,0.229,2.047-0.311,2.802-0.731c-0.146,0.373-1.252,2.719-2.861,2.266c-1.973-0.553-2.59-3.045-2.59-3.045
					C87.735,48.715,89.004,49.333,89.836,49.479z M104.94,51.194c-2.254,3.38-8.729,3.757-15.209,1.88
					c-6.477-1.88-9.668-7.888-9.291-9.765c-2.537,4.318-1.313,6.479,0.75,9.105c0.748,0.953,1.916,1.854,3.269,2.633
					c0.569,5.035-5.312,15.959-7.492,18.867c3.66,0.188,12.58,3.004,18.775,7.133c-2.427-6.182-3.093-19.215-3.244-23.379
					c0.017,0,0.035,0.004,0.053,0.004C96.117,57.86,102.688,57.766,104.94,51.194z"/>
			</g>
			<path fill="#FFFFFF" d="M75.354,65.721l-0.451-0.436c-1.479-1.433-3.055-2.156-4.686-2.156c-0.613,0-1.225,0.104-1.814,0.313
				l-1.028,0.367c-0.59,0.213-1.19,0.525-1.824,0.959L64.994,64.4l-3.514,1.252c-0.934-0.899-2.211-1.399-3.682-1.399
				c-0.373,0-0.768,0.031-1.172,0.092l-0.271,0.043L55.75,64.6c-0.213,0.076-0.533,0.211-0.893,0.428
				c-1.691-1.555-2.666-2.051-3.783-2.051c-0.357,0-0.707,0.062-1.039,0.181c-3.619,1.288-4.104,6.061-4.238,7.993
				c-0.668-0.627-1.463-1.026-2.445-1.026c-0.371,0-0.736,0.061-1.086,0.186l-0.133,0.049l-0.129,0.06
				c-0.982,0.463-1.742,0.854-2.313,1.186c-0.545-0.174-1.137-0.27-1.766-0.27c-0.373,0-0.768,0.031-1.17,0.094l-0.273,0.041
				l-0.436,0.156l-0.313-0.873l-0.596-0.506c-3.176-2.679-3.93-3.019-4.648-3.203l-0.861-0.226l-0.951,0.341
				c-0.92,0.327-1.721,1.012-2.59,2.213c-1.221,1.598-1.857,4.047-1.979,7.641c-0.855-1.137-1.852-1.867-3.184-1.867
				c-0.365,0-0.727,0.063-1.07,0.187l-0.334,0.121l-0.484,0.319c-1.041,0.441-1.832,0.828-2.412,1.183
				c-0.229-0.64-0.457-1.273-0.676-1.916l-0.234-0.681c0.029-0.086,0.057-0.172,0.084-0.26c0.52-1.701,0.297-3.387-0.643-4.877
				c-0.949-1.502-2.355-2.424-4.072-2.666c-1.541-0.217-3.047,0.115-4.395,0.967c-1.311,0.826-2.268,2.076-2.768,3.611
				c-0.564,1.729-0.367,3.434,0.57,4.92c0.627,0.996,1.494,1.734,2.545,2.187l0.139,0.309c1.881,4.139,3.34,7.699,4.342,10.6
				c1.084,3.07,2.236,6.845,3.424,11.222l0.852,3.129l10.605-4.244l-0.842-1.666c2.043,3.01,3.18,3.844,4.691,3.844
				c0.002,0,0.002,0,0.002,0c0.354,0,0.703-0.061,1.035-0.178l0.207-0.084c3.486-1.555,4.316-2.156,4.859-2.916l0.768-1.074
				l-0.309-1.281c-0.859-3.588-1.521-6.985-1.965-10.092c-0.16-1.143-0.271-2.225-0.344-3.25l1.793,4.709l-0.025,0.055l1.623,4.056
				l1.123,3.151c0.221,0.619,0.721,1.498,1.859,2.185l1.172,0.707l1.289-0.461c2.055-0.73,3.434-1.689,4.211-2.935l0.709-1.135
				l-0.451-1.424c1.096,1.502,2.24,2.371,3.723,2.371c0.383,0,0.756-0.066,1.115-0.193l3.5-1.576l1.783-2.168l-0.322-1.389
				c-0.783-3.361-1.359-6.402-1.719-9.033l-0.008-0.057l0.291,0.766l-0.027,0.056l1.623,4.053l1.123,3.151
				c0.221,0.617,0.721,1.498,1.857,2.185l1.174,0.707l1.291-0.459c1.26-0.449,2.264-0.984,3.033-1.617
				c0.234,0.053,0.475,0.078,0.721,0.078c0.373,0,0.738-0.063,1.088-0.187l0.229-0.079l0.644-0.359l1.819-0.65l0.074-0.153
				c0.445-0.304,0.918-0.752,1.324-1.427l0.674-1.114l-0.393-1.246c-0.568-1.804-1.088-3.519-1.557-5.133
				c0.564-0.027,1.135-0.142,1.697-0.343c1.532-0.547,4.162-2.137,4.551-6.641l0.061-0.678L75.354,65.721z M10.27,72.407
				c-0.078,0.258-0.186,0.368-0.344,0.467c-0.189,0.121-0.301,0.11-0.488,0.082c-0.01-0.002-0.02-0.004-0.027-0.006
				c0.002-0.009,0.004-0.019,0.008-0.025c0.109-0.338,0.242-0.443,0.357-0.518c0.193-0.121,0.309-0.138,0.396-0.138
				c0.021,0,0.045,0.002,0.076,0.004c0.006,0.011,0.012,0.021,0.02,0.031c0.008,0.014,0.016,0.025,0.02,0.033
				C10.285,72.352,10.279,72.375,10.27,72.407z M29.334,92.79l0.809-0.291c0.148,0.733,0.305,1.479,0.469,2.229
				C30.281,94.254,29.861,93.625,29.334,92.79z"/>
			<path fill="#FFFFFF" d="M14.072,75.68l-0.311-0.902l-0.639,0.257c0.344-0.438,0.604-0.945,0.777-1.515
				c0.352-1.151,0.209-2.242-0.422-3.242c-0.637-1.008-1.535-1.6-2.67-1.76c-1.074-0.149-2.111,0.08-3.061,0.681
				c-0.926,0.584-1.58,1.442-1.941,2.549c-0.379,1.17-0.258,2.26,0.361,3.244c0.602,0.95,1.502,1.526,2.676,1.715
				c0.033,0.004,0.066,0.008,0.102,0.016L8.59,76.865l0.391,0.86c1.906,4.195,3.389,7.813,4.404,10.762
				c1.102,3.113,2.268,6.937,3.471,11.357l0.268,0.982l6.525-2.615l-0.445-0.881C19.705,90.411,16.633,83.127,14.072,75.68z
				 M73.668,66.846l-0.142-0.135c-1.483-1.438-3.021-1.906-4.455-1.396l-1.03,0.365c-0.709,0.252-1.5,0.756-2.4,1.527l-0.916-0.604
				l-3.516,1.252c-0.16,0.06-0.303,0.131-0.434,0.211c-0.514-1.182-1.561-1.832-2.977-1.832c-0.273,0-0.566,0.023-0.871,0.07
				l-0.086,0.014l-0.426,0.152c-0.492,0.174-1.148,0.545-1.576,1.305c-2.574-2.596-3.252-2.815-3.766-2.815
				c-0.129,0-0.256,0.022-0.373,0.063c-1.732,0.619-2.695,2.754-2.943,6.531v0.053c-0.014,2.488,0.18,4.898,0.58,7.205l-2.174-3.496
				c-1.113-2.313-1.902-3.213-2.813-3.213c-0.145,0-0.285,0.023-0.42,0.074l-0.08,0.033c-1.486,0.699-2.441,1.203-2.973,1.66
				c-0.525-0.363-1.184-0.556-1.953-0.556c-0.271,0-0.566,0.025-0.869,0.07l-0.086,0.012l-0.426,0.152
				c-0.889,0.316-2.324,1.262-1.953,4.037l0.014,0.094l0.031,0.09c0.252,0.709,0.719,1.261,1.398,1.652l-0.189,1.543l0.408,0.613
				l1.955,5.127l0.283,0.555l-0.059,0.123l1.314,3.285l1.137,3.188c0.162,0.455,0.504,0.843,1.014,1.148l0.369,0.223l0.404-0.145
				c1.617-0.576,2.662-1.271,3.193-2.119l0.223-0.355l-4.414-13.895c3.652,5.496,5.746,8.57,6.371,9.346
				c1.705,3.142,2.625,3.783,3.482,3.783c0.154,0,0.305-0.023,0.449-0.074l2.928-1.326l0.867-1.055l-0.102-0.436
				c-0.795-3.422-1.383-6.523-1.75-9.218l-0.008-0.041c-0.568-3.11-0.494-6.266,0.219-9.385c0.104-0.094,0.199-0.186,0.287-0.274
				c0.01,0.149,0.023,0.307,0.045,0.471l0.012,0.094l0.033,0.09c0.252,0.707,0.721,1.261,1.398,1.652l-0.188,1.543l0.406,0.613
				l1.955,5.129l0.283,0.551L58.299,80.3l1.314,3.285l1.137,3.188c0.162,0.453,0.504,0.843,1.014,1.15l0.367,0.221l0.406-0.143
				c1.617-0.578,2.664-1.271,3.195-2.123l0.045-0.072c0.396,0.359,0.783,0.541,1.18,0.541c0.146,0,0.289-0.024,0.424-0.072
				l0.718-0.387l1.196-0.426l0,0c0.453-0.164,0.836-0.504,1.142-1.01l0.213-0.354l-0.123-0.387
				c-1.039-3.299-1.918-6.297-2.619-8.949c0.799,0.822,1.705,1.24,2.691,1.24c0.422,0,0.856-0.078,1.293-0.234
				c1.928-0.688,3.016-2.35,3.239-4.94l0.019-0.213L73.668,66.846z M40.906,78.063c0.047-0.104,0.088-0.209,0.123-0.319
				c0.186,0.278,0.365,0.549,0.541,0.813L40.906,78.063z M32.879,86.073c-0.5-3.615-0.59-6.714-0.27-9.203l0.006-0.06
				c0.076-1.199,0.564-2.272,1.49-3.285l0.369-0.401l-0.428-1.205l-0.188-0.156c-2.838-2.396-3.486-2.703-3.869-2.803l-0.27-0.068
				l-0.377,0.133c-0.525,0.188-1.039,0.658-1.666,1.529c-1.078,1.398-1.604,3.937-1.605,7.754v0.029v0.027
				c0.125,2.061,0.484,4.618,1.076,7.635c-0.818-1.306-1.816-2.939-2.992-4.896c-1.6-3.321-2.396-3.975-3.23-3.975
				c-0.139,0-0.273,0.022-0.404,0.072l-0.105,0.034l-0.436,0.291c-2.561,1.066-3.783,1.818-3.385,2.938l0.078,0.221l8.535,12.66
				c3.447,5.65,4.293,6.103,5.039,6.103h0.002c0.127,0,0.252-0.023,0.369-0.064l0.064-0.023c3.305-1.477,3.814-1.926,4.055-2.262
				l0.24-0.336l-0.096-0.402C34.008,92.711,33.334,89.25,32.879,86.073z"/>
			<path fill="#2DB097" d="M9.809,77.348c1.928,4.244,3.406,7.854,4.436,10.836c1.113,3.152,2.273,6.959,3.488,11.422l4.662-1.866
				c-3.533-6.986-6.594-14.24-9.18-21.765L9.809,77.348z M13.033,73.254c0.271-0.892,0.166-1.723-0.32-2.492
				c-0.49-0.775-1.168-1.225-2.029-1.348c-0.863-0.121-1.68,0.063-2.449,0.549c-0.75,0.471-1.27,1.16-1.564,2.063
				c-0.294,0.904-0.207,1.73,0.266,2.479c0.457,0.725,1.141,1.16,2.051,1.303c0.908,0.146,1.736-0.02,2.484-0.49
				C12.24,74.831,12.762,74.143,13.033,73.254z M40.305,76.141l-0.164-0.459c-0.416-1.168-1.398-1.635-2.949-1.397l-0.342,0.123
				c-1.125,0.399-1.578,1.42-1.359,3.063c0.34,0.953,1.273,1.523,2.803,1.707C39.766,78.651,40.438,77.641,40.305,76.141z
				 M31.711,76.752c0.088-1.4,0.664-2.68,1.727-3.84l-0.164-0.457c-1.945-1.644-3.115-2.515-3.512-2.619l-0.113,0.043
				c-0.33,0.115-0.744,0.522-1.242,1.217c-0.949,1.219-1.426,3.623-1.428,7.211c0.174,2.9,0.816,6.754,1.928,11.566l-0.229,0.082
				c-0.805-1.054-2.578-3.861-5.322-8.422c-1.197-2.496-2.039-3.654-2.529-3.482l-0.418,0.279c-2.096,0.869-3.084,1.477-2.959,1.828
				l0.041,0.114l8.482,12.578c2.41,3.957,3.857,5.849,4.342,5.674c2.236-0.996,3.467-1.647,3.688-1.957
				c-0.887-3.688-1.559-7.146-2.02-10.37C31.469,82.485,31.377,79.334,31.711,76.752z M60.387,71.821l-3.631,1.035l-0.098,0.81
				l0.277,0.418l1.99,5.221l0.4,0.764l0.041,0.111l-0.074,0.156l1.176,2.934l1.141,3.205c0.09,0.252,0.301,0.479,0.629,0.678
				c1.404-0.5,2.314-1.082,2.73-1.748l-4.232-13.319L60.387,71.821z M60.176,69.059L60.014,68.6c-0.418-1.168-1.4-1.635-2.951-1.397
				l-0.344,0.121c-1.123,0.403-1.576,1.424-1.357,3.063c0.34,0.955,1.273,1.523,2.803,1.709
				C59.637,71.571,60.311,70.559,60.176,69.059z M72.897,67.362c-1.235-1.192-2.408-1.59-3.522-1.192l-1.028,0.365
				c-0.781,0.278-1.74,0.963-2.877,2.059l-0.115,0.041l-0.156-0.074l-0.09-0.615l-0.506-0.334l-3.088,1.103
				c-0.535,0.188-0.707,0.551-0.516,1.086l0.285,0.801l5.022,14.459c0.314,0.318,0.572,0.439,0.777,0.367l0.645-0.359l0.914-0.325
				l0.074-0.154l0.154,0.074l0.115-0.041c0.254-0.093,0.479-0.302,0.68-0.631c-1.32-4.187-2.369-7.853-3.146-10.998
				c0.488-1.724,1.467-2.845,2.928-3.367c0.638,0.342,1.044,0.754,1.218,1.246l-0.224,0.465c-0.246,0.088-0.573-0.226-0.979-0.941
				c-1.404,0.888-1.988,1.654-1.76,2.304l0.719,1.29c0.932,1.044,1.988,1.355,3.17,0.935c1.57-0.557,2.451-1.945,2.643-4.166
				L72.897,67.362z M40.514,78.901l-3.629,1.037l-0.096,0.808l0.275,0.418l1.99,5.223l0.4,0.762l0.041,0.115l-0.074,0.154
				l1.176,2.932l1.141,3.205c0.09,0.256,0.301,0.48,0.629,0.678c1.404-0.5,2.314-1.08,2.73-1.746l-4.232-13.319L40.514,78.901z
				 M53.314,69.827c0.662-0.572,0.986-0.988,0.973-1.25l-0.041-0.113c-1.824-1.842-2.904-2.705-3.24-2.584
				c-1.344,0.477-2.123,2.391-2.342,5.734c-0.023,4.075,0.516,7.883,1.617,11.416l-0.229,0.081l-0.154-0.073l-4.531-7.283
				c-0.949-1.982-1.66-2.894-2.131-2.723c-2.061,0.971-3.047,1.579-2.959,1.827l0.082,0.229c5.033,7.611,7.848,11.768,8.439,12.467
				c1.326,2.451,2.283,3.57,2.875,3.361l2.664-1.209l0.449-0.547c-0.805-3.468-1.393-6.566-1.766-9.3
				C52.408,76.516,52.508,73.174,53.314,69.827z"/>
			<path fill="#FFFFFF" d="M126.813,94.487c-0.396-1.11-1.076-2.022-2.004-2.692l-0.07-0.332c-0.928-4.451-1.57-8.246-1.912-11.295
				c-0.385-3.234-0.682-7.172-0.883-11.695l-0.146-3.242l-11.276,1.818l0.771,3.061c0.707,2.798,1.345,5.632,1.91,8.492
				c-1.901-1.772-3.99-2.676-6.233-2.676c-0.976,0-1.966,0.178-2.945,0.529l-0.137,0.047l-1.445,0.686l-0.191,0.133
				c-1.127,0.773-2.039,1.66-2.738,2.642c-1.326-0.965-2.584-1.207-3.504-1.207c-0.645,0-1.291,0.113-1.922,0.338l-0.158,0.063
				c-0.455,0.193-0.896,0.433-1.322,0.712c-0.422-0.188-0.938-0.316-1.565-0.351l-0.771-0.045l-2.297,1.158
				c-0.863,0.336-1.521,0.777-2.008,1.354c-0.318,0.375-0.547,0.8-0.688,1.244c-1.939-2.979-4.234-3.646-5.898-3.646
				c-0.754,0-1.527,0.137-2.293,0.408l-0.18,0.063l-0.17,0.088c-2.234,1.148-3.646,2.279-4.4,3.533
				c-0.361-0.447-0.771-0.842-1.232-1.178c-1.709-1.41-3.682-2.127-5.862-2.127c-1.252,0-2.572,0.244-3.924,0.727l-0.229,0.08
				c-0.818,0.293-1.68,0.766-2.637,1.443l-0.158,0.108l-0.139,0.133c-3.258,3.025-4.152,6.947-2.584,11.347
				c0.713,2.004,2.021,3.783,3.895,5.307c-0.869,0.562-1.457,1.506-1.613,2.652l-0.098,0.701l0.645,1.811l0.869,2.021l0.092,0.155
				c2.514,4.248,5.598,6.4,9.166,6.4h0.002c1.033,0,2.091-0.189,3.146-0.568l0.178-0.063l2.119-1.09l0.264-0.23
				c1.945-1.693,3.076-3.688,3.363-5.838c0.609,0.178,1.266,0.271,1.961,0.271c0.662,0,1.373-0.082,2.107-0.245l0.176-0.037
				l0.627-0.226l0.152-0.059c0.607-0.256,1.197-0.627,1.781-1.119c1.266,1.109,2.895,1.689,4.787,1.689
				c1.33,0,2.762-0.279,4.377-0.854l0.229-0.082c1.205-0.43,1.789-1.287,2.031-2.272c0.719-0.261,1.459-0.55,2.117-0.938
				l2.084,0.988l1.033-0.369v0.002l3.778-1.346l1.888-2.535c0.873,0.328,1.752,0.492,2.641,0.492c0.799,0,1.59-0.14,2.354-0.41
				l0.113-0.041c1.064-0.379,1.977-1.002,2.734-1.861c-0.041,0.76,0.07,1.533,0.342,2.297c0.596,1.676,1.768,2.883,3.389,3.492
				c0.734,0.279,1.496,0.418,2.264,0.418c0.746,0,1.5-0.131,2.236-0.396c1.457-0.521,2.668-1.527,3.494-2.919
				C127.224,97.84,127.403,96.139,126.813,94.487z M73.015,95.768c-0.222-0.176-0.451-0.346-0.687-0.512
				c0.471-0.471,0.909-1.062,1.258-1.791c0.146,0.125,0.295,0.242,0.451,0.354C73.592,94.465,73.252,95.116,73.015,95.768z
				 M121.319,96.454c-0.18,0.307-0.332,0.381-0.463,0.426c-0.112,0.041-0.213,0.063-0.295,0.063c-0.039,0-0.098-0.004-0.192-0.034
				c-0.005-0.011-0.007-0.021-0.013-0.035c-0.006-0.017-0.01-0.027-0.016-0.037c0.008-0.012,0.018-0.035,0.035-0.063
				c0.133-0.235,0.262-0.317,0.436-0.379c0.103-0.037,0.164-0.043,0.201-0.043c0.082,0,0.182,0.025,0.295,0.07
				c0.01,0.004,0.021,0.008,0.025,0.012C121.33,96.438,121.326,96.446,121.319,96.454z"/>
			<path fill="#FFFFFF" d="M71.035,96.774l-0.095-0.065l-0.108-0.039c-1.369-0.502-2.504-0.978-3.44-1.426
				c0.602,0.021,1.184-0.063,1.715-0.252c1.836-0.656,3.86-2.408,3.076-7.052l-0.013-0.078l-0.437-1.221
				c-0.399-1.127-1.02-1.992-1.844-2.572c-2.162-1.813-4.852-2.192-7.908-1.102l-0.229,0.08c-0.645,0.229-1.35,0.619-2.158,1.19
				l-0.092,0.072c-2.67,2.48-3.363,5.586-2.064,9.23c0.754,2.119,2.348,3.963,4.734,5.481l0.078,0.049l0.088,0.033
				c0.5,0.191,0.967,0.373,1.404,0.554l-2.98,1.407c-0.324,0.131-0.824,0.478-0.947,1.371l-0.031,0.222l0.48,1.354l0.75,1.732
				l0.051,0.1c2.129,3.602,4.641,5.426,7.458,5.426h0.002c0.806,0,1.64-0.149,2.479-0.451l1.845-0.938l0.082-0.074
				c2.594-2.26,3.371-4.92,2.307-7.908C74.537,99.934,73.125,98.208,71.035,96.774z M69.694,105.233
				c-0.108,0.029-0.213,0.045-0.313,0.045l0,0c-0.689,0-1.363-0.747-1.826-1.409c-0.51-1.425-0.941-2.41-1.326-3.084
				c2.633,1.33,3.371,2.278,3.558,2.801C70.196,104.741,69.899,105.086,69.694,105.233z M114.162,83.387l-0.931-1.824l-0.057-0.069
				c-1.893-2.377-3.982-3.584-6.207-3.584c-0.746,0-1.516,0.139-2.279,0.411l-1.188,0.56l-0.129,0.07
				c-1.822,1.258-2.943,2.838-3.359,4.678l-0.482-0.943l-0.071-0.082c-1.069-1.237-2.231-1.867-3.451-1.867
				c-0.416,0-0.84,0.076-1.254,0.226l-0.053,0.02c-0.771,0.328-1.505,0.83-2.185,1.498l-0.076-0.215l-0.049-0.078
				c-0.381-0.633-1.195-0.678-1.461-0.69l-0.242-0.015l-1.916,0.968c-0.59,0.217-1.014,0.483-1.293,0.815
				c-0.393,0.465-0.494,1.037-0.289,1.613L87.235,85l0.078,0.106c0.127,0.175,0.521,0.855,1.451,3.463l0.285,0.802l0.24,0.479
				l-0.118,0.25l0.498,0.635l2.567,6.689l-0.862,0.455l-0.433,0.041l-0.104,0.037c-0.256,0.09-0.5,0.137-0.729,0.137
				c-1.438,0-2.469-2.039-3.078-3.75l-0.479-1.342l-1.443-5.129l-0.875-2.463l-0.049-0.111c-1.281-2.48-2.899-3.736-4.807-3.736
				c-0.527,0-1.076,0.101-1.627,0.297l-0.109,0.048c-2.041,1.047-3.225,1.998-3.719,2.991c-0.9,1.648-1.139,3.099-0.707,4.31
				l0.205,0.574c0.645,1.809,1.982,2.928,3.885,3.271c-2.367,2.266-3.193,4.457-2.453,6.533l0.365,1.031
				c0.912,2.557,3.008,3.604,6.018,2.936l0.566-0.193l0.047-0.02c0.846-0.355,1.689-1.064,2.564-2.158
				c0.258,0.338,0.461,0.558,0.652,0.693c0.977,1.248,2.36,1.881,4.123,1.881l0,0c1.084,0,2.332-0.248,3.709-0.74l0.229-0.08
				c0.783-0.281,0.976-1.074,0.824-2.34c0.313,0.119,0.629,0.141,0.772,0.146l0.182,0.01l0.171-0.062
				c1.909-0.678,2.729-1.231,2.928-1.975l0.07-0.262l-1.813-5.468l-1.672-4.688c-0.074-0.207-0.254-0.713,0.65-1.457l3.557,12.963
				l1.338,0.633l2.129-0.758l0,0l1.342-0.479l0.963-1.291l-1.459-4.765c2.162,2.48,4.218,3.695,6.256,3.695
				c0.572,0,1.14-0.1,1.687-0.295l0.115-0.041c2.039-0.728,3.351-2.838,3.896-6.275l0.012-0.123c0.054-2.651-0.129-4.514-0.547-5.69
				L114.162,83.387z M80.437,98.18c-0.023-0.033-0.058-0.088-0.095-0.178c-0.1-0.328,0.275-1.051,1.578-2.103l0.047,0.121
				C82.071,96.323,81.729,97.063,80.437,98.18z M109.554,91.643l-0.105,0.01c-1.584-0.426-2.777-1.805-3.643-4.215
				c-0.697-2.698,0.256-3.039,0.616-3.166l0.457-0.164c0.162-0.059,0.317-0.088,0.463-0.088c0.882,0,1.644,1.144,2.138,2.123
				c0.196,0.582,0.35,1.453,0.451,2.597C109.937,90.801,109.664,91.461,109.554,91.643z M124.944,95.151
				c-0.377-1.061-1.131-1.819-2.233-2.262c-0.032-0.01-0.063-0.022-0.097-0.035l0.375-0.061l-0.192-0.928
				c-0.94-4.509-1.594-8.365-1.94-11.466c-0.39-3.284-0.691-7.268-0.896-11.842l-0.047-1.018l-6.938,1.119l0.24,0.961
				c1.898,7.516,3.303,15.295,4.168,23.123l0.105,0.95l0.678-0.112c-0.432,0.354-0.795,0.791-1.092,1.309
				c-0.594,1.045-0.695,2.144-0.297,3.256c0.4,1.123,1.147,1.898,2.221,2.302c0.508,0.192,1.033,0.288,1.563,0.288
				c0.519,0,1.047-0.094,1.57-0.278c1.033-0.369,1.857-1.063,2.453-2.063C125.215,97.336,125.336,96.245,124.944,95.151z"/>
			<path fill="#2DB097" d="M92.558,98.438l-0.154-0.073l-0.76,0.399l-0.5,0.049c-2.06,0.732-3.715-0.653-4.965-4.164l-0.488-1.373
				l-1.453-5.155l-0.855-2.402c-1.428-2.758-3.201-3.762-5.326-3.004c-1.828,0.938-2.938,1.805-3.326,2.604
				c-0.781,1.425-1,2.621-0.656,3.587l0.203,0.571c0.605,1.697,1.879,2.619,3.822,2.765c1.547-0.55,2.435-1.556,2.666-3.015
				c-0.231-0.653-0.859-1.205-1.879-1.649l-0.229,0.082l-0.557,0.97l-0.228,0.082l-0.313-0.146l-0.203-0.573
				c-0.1-0.279,0.211-0.734,0.933-1.365c1.224-0.435,2.293,0.646,3.217,3.24c-0.125,0.674-0.569,1.35-1.342,2.026
				c-3.769,2.691-5.254,5.152-4.457,7.392l0.366,1.028c0.763,2.138,2.416,2.922,4.968,2.357l0.457-0.164
				c0.871-0.367,1.801-1.258,2.789-2.67l0.229-0.08c0.658,0.967,1.039,1.434,1.142,1.397c1.319,1.851,3.631,2.187,6.937,1.009
				l0.229-0.082c0.4-0.144,0.354-1.242-0.145-3.302L92.558,98.438z M80.89,98.985l-0.115,0.041
				c-0.578,0.205-1.006-0.028-1.283-0.702c-0.338-0.947,0.482-2.144,2.461-3.589l0.229-0.077l0.313,0.145l0.325,0.916
				C83.119,96.563,82.478,97.653,80.89,98.985z M70.522,97.52c-4.841-1.764-7.582-3.537-8.216-5.324
				c-0.242-2.063,0.334-3.346,1.725-3.842c1.777-0.321,2.793-0.127,3.047,0.592c-0.045,0.531-0.229,0.855-0.554,0.972
				c-0.352,0.127-0.981-0.078-1.896-0.611l-0.229,0.08c-0.158,0.199-0.393,1.355-0.697,3.471l0.236,0.304
				c1.943,1.114,3.564,1.438,4.861,0.977c2.205-0.785,3.035-2.803,2.49-6.045l-0.41-1.143c-0.342-0.968-0.859-1.688-1.543-2.16
				c-1.93-1.633-4.279-1.955-7.051-0.967l-0.229,0.079c-0.561,0.199-1.207,0.558-1.938,1.076c-2.391,2.22-3,4.976-1.828,8.263
				c0.689,1.932,2.145,3.604,4.367,5.018c4.771,1.807,7.43,3.479,7.979,5.023c0.479,1.342,0.291,2.268-0.557,2.778
				c-1.15,0.41-2.264-0.184-3.342-1.774c-1.006-2.824-1.777-4.142-2.309-3.949l-3.311,1.565c-0.223,0.078-0.359,0.3-0.41,0.66
				l0.408,1.146l0.727,1.676c2.52,4.26,5.471,5.785,8.854,4.582l1.635-0.842c2.295-2,2.979-4.308,2.047-6.92
				C73.746,100.411,72.457,98.85,70.522,97.52z M113.31,83.69l-0.843-1.633c-2.295-2.881-4.784-3.84-7.475-2.883l-1.104,0.523
				c-3.037,2.092-3.885,5.016-2.547,8.772c0.424,1.189,1.037,2.303,1.836,3.342c2.729,3.414,5.252,4.707,7.572,3.881l0.115-0.043
				c1.709-0.606,2.811-2.463,3.305-5.561c0.047-2.521-0.117-4.307-0.496-5.369L113.31,83.69z M109.877,92.522l-0.498,0.049
				c-1.967-0.452-3.444-2.075-4.44-4.864c-0.619-2.359-0.228-3.787,1.18-4.291l0.457-0.16c1.404-0.5,2.652,0.344,3.742,2.535
				c0.233,0.66,0.408,1.629,0.521,2.908C110.847,91.016,110.526,92.292,109.877,92.522z M98.774,83.196
				c-1.192-1.379-2.434-1.842-3.717-1.383c-0.938,0.398-1.811,1.097-2.608,2.09c-0.229,0.082-0.437-0.016-0.621-0.295l-0.132-0.727
				l-0.079-0.229c-0.089-0.147-0.334-0.231-0.734-0.254l-1.75,0.881c-0.913,0.326-1.276,0.757-1.088,1.291
				c0.334,0.453,0.858,1.685,1.574,3.693l0.284,0.801l0.4,0.763l-0.074,0.155l0.238,0.3l3.572,9.303
				c0.088,0.147,0.332,0.231,0.734,0.256c1.469-0.525,2.254-0.977,2.354-1.355l-1.721-5.188l-1.672-4.693
				c-0.361-1.016,0.117-1.961,1.441-2.834l0.774,0.369l0.164,0.457l3.446,12.568l0.621,0.295l1.83-0.652l0.76-0.397l0.041,0.112
				l0.23-0.082l0.521-0.701l-3.953-12.903L98.774,83.196z M121.912,92.051c-0.953-4.561-1.604-8.41-1.955-11.545
				c-0.396-3.318-0.696-7.289-0.901-11.906l-4.959,0.801c1.916,7.591,3.313,15.339,4.188,23.244L121.912,92.051z M124.088,95.456
				c-0.284-0.81-0.856-1.383-1.715-1.722c-0.853-0.342-1.694-0.362-2.531-0.065c-0.854,0.307-1.516,0.865-1.978,1.672
				c-0.461,0.809-0.536,1.643-0.231,2.5c0.31,0.865,0.871,1.451,1.687,1.762c0.813,0.306,1.652,0.306,2.51,0
				c0.834-0.295,1.492-0.854,1.977-1.67C124.293,97.115,124.388,96.288,124.088,95.456z"/>
			<path fill="#2DB097" d="M114.67,21.262c-0.178-3.104-1.346-5.768-3.45-7.897c-2.123-2.195-4.72-3.312-7.714-3.312
				c-0.194,0-0.396,0.004-0.612,0.016c-2.097,0.121-3.953,0.755-5.554,1.886c-0.896-0.865-2.032-1.379-3.313-1.48l-0.032-0.002
				c-1.086-0.07-1.996,0.082-2.729,0.351c-0.66-0.371-1.504-0.646-2.576-0.72c-1.364-0.104-2.629,0.25-3.721,1.049
				c-1.006,0.74-1.678,1.757-1.98,2.968c-0.547-0.611-1.168-1.177-1.864-1.689c-2.047-1.527-4.31-2.301-6.726-2.301
				c-1.186,0-2.371,0.199-3.526,0.592c-1.427,0.486-2.681,1.221-3.748,2.195c-0.086-0.148-0.179-0.297-0.278-0.438
				c0.709-1.039,1.051-2.246,0.991-3.535c-0.073-1.516-0.733-2.864-1.914-3.903c-1.16-1.023-2.568-1.521-4.072-1.418
				c-1.482,0.08-2.82,0.721-3.869,1.854c-1.063,1.152-1.59,2.551-1.516,4.041l0.002,0.051c0.012,0.148,0.027,0.298,0.049,0.443
				c-0.08-0.004-0.158-0.012-0.238-0.012c-0.096,0-0.189,0.004-0.289,0.008c-1.576,0.074-2.918,0.74-3.879,1.928
				c-0.477,0.588-0.82,1.254-1.023,1.976c-0.283-0.703-0.703-1.332-1.25-1.871c-1.074-1.056-2.473-1.578-3.998-1.506
				c-0.91,0.043-1.736,0.286-2.461,0.709c-0.305-0.521-0.645-1.025-1.021-1.513c-2.029-2.682-4.766-4.371-8.154-5.022
				c-0.924-0.17-1.85-0.254-2.752-0.254c-3.377,0-6.357,1.135-8.863,3.375c-2.449,2.192-4.035,5.067-4.713,8.563
				c-0.191,1.027-0.289,2.078-0.289,3.127c0,3.353,0.98,6.32,2.918,8.83c2.025,2.601,4.773,4.26,8.16,4.926
				c1.664,0.334,3.365,0.394,4.994,0.134c0.621,0.758,0.822,0.967,0.961,1.09c1.455,1.424,2.92,1.725,3.896,1.725
				c1.361,0,2.617-0.467,3.631-1.354c1.105-0.97,1.689-2.254,1.689-3.718c0-0.1-0.008-0.198-0.014-0.297
				c0.199,0.191,0.406,0.379,0.625,0.558c1.809,1.463,4.123,2.205,6.875,2.205c0.262,0,0.529-0.007,0.816-0.021
				c2.727-0.156,4.975-0.947,6.695-2.35c0.166,0.225,0.344,0.44,0.543,0.641c0.984,0.984,2.252,1.504,3.668,1.504
				c0.127,0,0.258-0.004,0.387-0.012c1.559-0.08,2.889-0.734,3.842-1.896c0.168-0.202,0.313-0.42,0.447-0.641
				c0.186,0.162,0.375,0.32,0.569,0.471c1.937,1.476,4.157,2.224,6.604,2.224c1.334,0,2.682-0.232,3.991-0.687
				c1.402-0.479,2.722-1.201,3.938-2.146c0.109,0.176,0.226,0.348,0.355,0.514c0.938,1.18,2.248,1.863,3.795,1.973
				c0.141,0.011,0.281,0.017,0.42,0.017c1.396,0,2.658-0.504,3.648-1.459c1.008-0.976,1.613-2.281,1.748-3.777l0.156-2.315
				c0.563,1.797,1.521,3.391,2.873,4.758c2.098,2.123,4.688,3.196,7.701,3.196c0.201,0,0.405-0.004,0.633-0.014
				c3.272-0.186,5.949-1.547,7.955-4.053C113.961,27.227,114.824,24.45,114.67,21.262z M103.619,23.112
				c-0.007,0.011-0.013,0.017-0.017,0.023c-0.006-0.008-0.014-0.016-0.021-0.025c-0.229-0.297-0.356-0.7-0.39-1.229
				c-0.032-0.568,0.05-1.002,0.246-1.324c0.006-0.008,0.011-0.016,0.015-0.022c0,0.002,0.004,0.004,0.004,0.006
				c0.235,0.313,0.367,0.742,0.399,1.313C103.89,22.391,103.812,22.803,103.619,23.112z M34.123,18.192
				c0,0.158-0.006,0.316-0.014,0.472c-0.051-0.015-0.102-0.023-0.152-0.035c-0.359-0.072-0.717-0.107-1.057-0.107
				c-1.314,0-2.516,0.455-3.471,1.314c-0.238,0.215-0.455,0.447-0.648,0.697c-0.023-0.203-0.035-0.416-0.035-0.644
				c0-0.44,0.047-0.91,0.141-1.396c0.223-1.156,0.623-2.031,1.227-2.675c0.459-0.491,0.924-0.7,1.553-0.7
				c0.178,0,0.359,0.016,0.52,0.047c0.631,0.123,1.064,0.395,1.402,0.873C33.947,16.581,34.123,17.286,34.123,18.192z"/>
			<path fill="#FFFFFF" d="M33.764,7.084c-0.783-0.146-1.555-0.217-2.314-0.217c-2.777,0-5.193,0.92-7.25,2.762
				c-2.059,1.842-3.375,4.242-3.949,7.205c-0.166,0.883-0.246,1.776-0.246,2.684c0,2.818,0.801,5.267,2.404,7.344
				c1.666,2.14,3.91,3.486,6.727,4.041c0.822,0.164,1.645,0.248,2.469,0.248c1.029,0,2.025-0.145,2.992-0.434
				c0.967,1.215,1.523,1.883,1.668,2.006c0.719,0.721,1.469,1.08,2.25,1.08c0.783,0,1.461-0.252,2.037-0.756
				c0.576-0.504,0.865-1.137,0.865-1.896c0-0.598-0.217-1.225-0.65-1.883c-0.432-0.535-0.852-1.069-1.264-1.604
				c1.564-1.729,2.604-3.898,3.115-6.513c0.166-0.864,0.248-1.727,0.248-2.592c0-2.815-0.813-5.274-2.438-7.375
				C38.762,8.987,36.541,7.62,33.764,7.084z M35.553,22.51c-0.781-0.883-1.471-1.389-2.066-1.512
				c-0.207-0.041-0.4-0.062-0.586-0.062c-0.721,0-1.338,0.23-1.852,0.693c-0.516,0.463-0.834,1.045-0.957,1.744
				c-0.123,0.639,0.021,1.264,0.432,1.881c-1.398-0.225-2.459-0.832-3.178-1.82c-0.68-0.926-1.018-2.106-1.018-3.547
				c0-0.596,0.061-1.215,0.186-1.852c0.309-1.605,0.92-2.896,1.836-3.873c0.914-0.978,2.02-1.465,3.316-1.465
				c0.328,0,0.658,0.03,0.986,0.092c1.254,0.248,2.232,0.875,2.932,1.881c0.637,0.949,0.957,2.121,0.957,3.52
				C36.541,19.735,36.211,21.174,35.553,22.51z M59.248,15.506c-0.041-0.945-0.354-1.707-0.941-2.283
				c-0.584-0.574-1.32-0.842-2.205-0.803c-0.885,0.043-1.588,0.387-2.113,1.035c-0.523,0.646-0.756,1.436-0.695,2.358l0.402,7.898
				c0.041,0.66-0.133,1.184-0.525,1.574c-0.391,0.391-0.873,0.606-1.449,0.647c-0.596,0.021-1.105-0.143-1.527-0.494
				c-0.422-0.35-0.652-0.854-0.693-1.512L49.1,16.031c-0.041-0.927-0.359-1.683-0.957-2.269c-0.596-0.586-1.326-0.859-2.189-0.818
				c-0.885,0.041-1.59,0.388-2.113,1.033c-0.525,0.648-0.768,1.437-0.727,2.361l0.432,8.021c0.104,2.224,0.912,3.945,2.424,5.168
				c1.512,1.226,3.521,1.773,6.031,1.65c2.51-0.143,4.449-0.898,5.816-2.268c1.369-1.367,1.99-3.173,1.867-5.416L59.248,15.506z
				 M62.334,12.545c0.906-0.041,1.656-0.406,2.254-1.096c0.596-0.689,0.873-1.484,0.832-2.394c-0.041-0.863-0.406-1.598-1.096-2.205
				c-0.689-0.604-1.465-0.879-2.328-0.817c-0.865,0.043-1.609,0.401-2.238,1.079c-0.627,0.681-0.92,1.441-0.881,2.283
				c0.063,0.886,0.434,1.646,1.113,2.283C60.668,12.319,61.451,12.606,62.334,12.545z M65.482,15.754
				c-0.041-0.926-0.355-1.682-0.941-2.269c-0.586-0.588-1.322-0.858-2.207-0.817c-0.883,0.063-1.588,0.412-2.113,1.049
				c-0.525,0.639-0.756,1.42-0.693,2.346l0.617,11.849c0.041,0.926,0.355,1.682,0.941,2.268c0.584,0.586,1.32,0.848,2.205,0.787
				c0.883-0.041,1.59-0.381,2.113-1.021c0.523-0.637,0.768-1.418,0.727-2.344L65.482,15.754z M81.619,21.833
				c-0.029,0-0.06,0.002-0.091,0.004c1.005-0.449,1.509-1.158,1.509-2.133c0-0.371-0.07-0.763-0.213-1.174
				c-0.558-1.646-1.604-3.033-3.147-4.164c-1.625-1.214-3.384-1.82-5.277-1.82c-0.926,0-1.842,0.154-2.746,0.463
				c-1.809,0.617-3.238,1.727-4.289,3.332c-0.965,1.502-1.451,3.199-1.451,5.092c0,1.131,0.188,2.221,0.557,3.271
				c0.68,1.975,1.773,3.539,3.287,4.688c1.512,1.152,3.225,1.729,5.137,1.729c1.07,0,2.14-0.187,3.209-0.558
				c1.502-0.514,2.879-1.356,4.133-2.528c1.4-1.275,2.101-2.479,2.101-3.609c0-0.699-0.272-1.307-0.815-1.82
				C82.972,22.09,82.338,21.833,81.619,21.833z M73.381,17.946c0.33-0.104,0.646-0.155,0.957-0.155c0.822,0,1.513,0.36,2.067,1.08
				l-4.848,1.668C71.582,19.221,72.188,18.356,73.381,17.946z M78.996,23.559c-0.822,0.906-1.584,1.482-2.283,1.729
				c-0.514,0.186-1.008,0.276-1.481,0.276c-0.842,0-1.531-0.268-2.066-0.801l7.191-2.5C79.983,22.54,79.533,22.969,78.996,23.559z
				 M112.256,21.401c-0.146-2.51-1.069-4.629-2.774-6.356c-1.771-1.83-3.918-2.685-6.449-2.562
				c-2.508,0.146-4.555,1.216-6.139,3.209c-0.131,0.162-0.254,0.33-0.371,0.496c0.057-0.953-0.191-1.746-0.742-2.377
				c-0.512-0.557-1.16-0.865-1.941-0.928c-1.256-0.08-2.211,0.238-2.869,0.957c-0.434-0.801-1.256-1.244-2.469-1.326
				c-0.783-0.063-1.482,0.135-2.1,0.586c-0.699,0.515-1.09,1.244-1.172,2.191l-0.834,12.063c-0.062,0.924,0.166,1.711,0.68,2.359
				c0.514,0.647,1.203,1.002,2.068,1.063c0.883,0.063,1.625-0.194,2.221-0.771s0.936-1.326,1.018-2.252l0.463-6.789
				c0.063-0.781,0.566-1.377,1.514-1.789l2.652-0.926c0.197-0.094,0.371-0.201,0.531-0.314c-0.576,1.345-0.826,2.808-0.748,4.39
				c0.145,2.551,1.061,4.678,2.746,6.387c1.75,1.768,3.908,2.59,6.48,2.467c2.569-0.143,4.637-1.19,6.201-3.146
				C111.699,26.182,112.381,23.971,112.256,21.401z M105.668,24.393c-0.461,0.74-1.112,1.131-1.959,1.172
				c-0.821,0.043-1.5-0.282-2.035-0.971c-0.536-0.688-0.834-1.549-0.896-2.578c-0.063-1.067,0.14-1.979,0.603-2.729
				c0.464-0.75,1.115-1.146,1.959-1.188c0.845-0.042,1.527,0.289,2.054,0.988c0.522,0.699,0.817,1.574,0.879,2.623
				S106.133,23.653,105.668,24.393z"/>
		</g>
	</g>
	<circle fill="#FFFFFF" cx="116.754" cy="10.313" r="3.621"/>
	<g>
		<path fill="#2DB097" d="M114.621,10.313c0-1.18,0.885-2.145,2.123-2.145c1.297,0,2.144,0.965,2.144,2.145
			c0,1.156-0.863,2.144-2.144,2.144C115.416,12.456,114.621,11.469,114.621,10.313z M118.364,10.313c0-1.065-0.735-1.731-1.62-1.731
			c-0.888,0-1.601,0.653-1.601,1.731c0,1.064,0.754,1.701,1.601,1.701C117.59,12.014,118.364,11.37,118.364,10.313z M115.89,9.094
			h1.026c0.451,0,0.847,0.252,0.847,0.725c0,0.291-0.152,0.563-0.443,0.687l0.522,0.914h-0.625l-0.463-0.834h-0.282v0.834h-0.582
			V9.094z M116.836,10.161c0.211,0,0.343-0.121,0.343-0.302c0-0.221-0.142-0.313-0.343-0.313h-0.364v0.613L116.836,10.161
			L116.836,10.161z"/>
	</g>
</g>
</svg>
