<?xml version="1.0" encoding="utf-8"?>
<!-- Generator: Adobe Illustrator 19.0.0, SVG Export Plug-In . SVG Version: 6.00 Build 0)  -->
<svg version="1.1" id="Capa_1" xmlns="http://www.w3.org/2000/svg" xmlns:xlink="http://www.w3.org/1999/xlink" x="0px" y="0px"
	 width="163px" height="163px" viewBox="-216 339.9 163 163" style="enable-background:new -216 339.9 163 163;"
	 xml:space="preserve">
<style type="text/css">
	.st0{fill:#85416A;}
</style>
<g id="Layer_1">
</g>
<g id="Capa_2">
</g>
<g>
	<g>
		<path class="st0" d="M-135.4,501.3c-44.2,0-80.1-35.9-80.1-80.1s35.9-80.1,80.1-80.1c44.2,0,80.1,35.9,80.1,80.1
			S-91.2,501.3-135.4,501.3z M-135.4,354.4c-36.9,0-66.9,30-66.9,66.9s30,66.9,66.9,66.9c36.9,0,66.9-30,66.9-66.9
			S-98.5,354.4-135.4,354.4z"/>
	</g>
	<path class="st0" d="M-104.8,395h-20.7v-22.2c0-2.9-2.4-5.4-5.4-5.4h-9.2c-2.9,0-5.4,2.4-5.4,5.4V395H-166c-2.9,0-5.4,2.4-5.4,5.4
		v9.2c0,2.9,2.4,5.4,5.4,5.4h20.7v54.4c0,2.9,2.4,5.4,5.4,5.4h9.2c2.9,0,5.4-2.4,5.4-5.4v-54.4h20.7c2.9,0,5.4-2.4,5.4-5.4v-9.2
		C-99.4,397.4-101.8,395-104.8,395z"/>
</g>
</svg>
