<?xml version="1.0" encoding="utf-8"?>
<!-- Generator: Adobe Illustrator 19.0.0, SVG Export Plug-In . SVG Version: 6.00 Build 0)  -->
<svg version="1.1" id="Capa_1" xmlns="http://www.w3.org/2000/svg" xmlns:xlink="http://www.w3.org/1999/xlink" x="0px" y="0px"
	 width="163px" height="163px" viewBox="-216 339.9 163 163" style="enable-background:new -216 339.9 163 163;"
	 xml:space="preserve">
<style type="text/css">
	.st0{fill:#85416A;}
</style>
<g id="Layer_1">
</g>
<g id="Capa_2">
</g>
<g>
	<g>
		<g>
			<path class="st0" d="M-134.5,501.5c-44.2,0-80.1-35.9-80.1-80.1s35.9-80.1,80.1-80.1c44.2,0,80.1,35.9,80.1,80.1
				S-90.3,501.5-134.5,501.5z M-134.5,354.5c-36.9,0-66.9,30-66.9,66.9s30,66.9,66.9,66.9c36.9,0,66.9-30,66.9-66.9
				S-97.6,354.5-134.5,354.5z"/>
		</g>
		<path id="XMLID_2_" class="st0" d="M-89.7,427.7c-0.4-0.5-1-0.8-1.7-0.8c-5.3,0.1-10.1-0.3-14.3-1c-4.7-0.8-9.1-2.4-13.2-4.7
			c-11.6,2.9-22.7,4.5-23.3,4.6c-0.2,0-0.4,0-0.6,0c-0.9,0-1.9-0.3-2.6-0.9c-0.9-0.7-1.4-1.8-1.5-3c0-0.1-0.1-2.9,0.8-7.2
			c1.5-7.2,5.9-18.3,18.2-26.6c-2-5-5.5-9.2-7.6-11.4c-0.3-0.3-0.7-0.4-1.2-0.3c-0.4,0.1-0.7,0.4-0.9,0.8c-1.7,6.4-7,11.2-7,11.2
			c-6.8,7.3-9.3,14.4-9.8,20.4c-2.5-3.1-6.3-5.2-10.6-5.2c-5.4,0-10,3.1-12.2,7.7c-0.9,1.9-6.9,8.4-6.7,9c-0.8,0.7-1.6,1.4-2.4,2.1
			l-0.8,0.6c-0.3,0.2-0.4,0.6-0.3,0.9c0.1,0.3,0.4,0.5,0.8,0.5h1.8c0.8,0,1.6,0.1,2.4,0.2c0.6,0,2.4,0.2,2.4,0.2c0,0.1-0.1,0,0,0
			c0.1,0,0.4,0.2,0.4,0c0,0,1.4,0.7,1,0.5c2,0.7,4,1.6,5.8,2.9c2.1,1.5,4.7,2.4,7.5,2.5c2.1,8.5,12.7,17.2,25.4,17.2
			c9.8,0,18.3-3.6,22.7-8.8c0.7-0.8,1.9-1,2.8-0.5c6.7,4.1,12.9,10,16.2,13.5c0.5,0.6,1.3,0.8,2.1,0.6c0.7-0.2,1.3-0.8,1.5-1.5
			l5.3-22C-89.1,428.8-89.3,428.2-89.7,427.7z"/>
	</g>
	<path id="XMLID_1_" class="st0" d="M-141.3,422.1c0,0,18-2.6,29.8-7.1c11.8-4.5,11.3-23.2,9.6-29.6c-0.1-0.4-0.5-0.8-0.9-0.9
		c-0.1,0-0.2,0-0.3,0c-0.3,0-0.7,0.1-0.9,0.4c-4.9,5.1-12.3,6.9-12.3,6.9C-142.4,400.4-141.3,422.1-141.3,422.1z"/>
</g>
</svg>
