<?xml version="1.0" encoding="utf-8"?>
<!-- Generator: Adobe Illustrator 19.0.0, SVG Export Plug-In . SVG Version: 6.00 Build 0)  -->
<svg version="1.1" id="Capa_1" xmlns="http://www.w3.org/2000/svg" xmlns:xlink="http://www.w3.org/1999/xlink" x="0px" y="0px"
	 width="163px" height="163px" viewBox="-216 339.9 163 163" style="enable-background:new -216 339.9 163 163;"
	 xml:space="preserve">
<style type="text/css">
	.st0{fill:#85416A;}
</style>
<g id="Layer_1">
</g>
<g id="Capa_2">
</g>
<g>
	<g>
		<path class="st0" d="M-134.5,501.5c-44.2,0-80.1-35.9-80.1-80.1s35.9-80.1,80.1-80.1c44.2,0,80.1,35.9,80.1,80.1
			S-90.3,501.5-134.5,501.5z M-134.5,354.5c-36.9,0-66.9,30-66.9,66.9s30,66.9,66.9,66.9c36.9,0,66.9-30,66.9-66.9
			S-97.6,354.5-134.5,354.5z"/>
	</g>
	<path class="st0" d="M-116,414.6c-1.1,3.5-4.7,5.5-8.1,4.5c-3.4-0.9-5.4-4.6-4.5-8.1c1.1-3.5,4.7-5.5,8.1-4.5
		C-117,407.7-115,411.3-116,414.6z M-117.2,390c2.2-0.6,3.5-2.9,2.9-5.1c-0.6-2.2-2.9-3.5-5.1-2.9c-2.1,0.6-3.4,3-2.9,5.1
		C-121.7,389.4-119.5,390.6-117.2,390z M-147.4,384.7c-4.5,0.4-7.7,4.4-7.3,8.7c0.5,4.4,4.4,7.6,8.7,7.3c4.5-0.4,7.7-4.4,7.3-8.7
		C-139,387.6-143,384.4-147.4,384.7z M-172.1,432.2c-0.1-1.2-0.3-1.8-0.1-2.9c0.5-2.7,0-3.7-2.7-4.7c-0.9-0.3-1.6-0.5-2.5-1
		c-2.2-1.2-2.7-2.6-1.4-5c2.2-4,4.9-8,7.1-12.1c0.7-1.2,0.5-3.2,0.5-4.9c0-1.7-0.9-3.7-0.5-5.5c1-3.5,2.1-7,3.6-10.2
		c3.5-7.8,10-12.6,17.9-14.7c9.1-2.5,18.7-3.5,27.8-0.9c12.1,3.5,25.3,14.1,25.3,29c0,5-1.1,10.3-3.2,14.8
		c-6.1,13-7.2,18.9-3.9,32.8c0,0,0,1.2,2.1,4.6c0,0,2.1,2.5,5,5.8c-9.9,8.8-22.9,14.1-37.2,14.1c-3.7,0-7.3-0.4-10.8-1.1
		c0.5-1,1-2.2,1.2-3.4c-0.2-1.4-0.4-2.7-0.7-3.9c-1.2-4-2.7-8-4.2-12c-0.7-2.2-2.7-2.2-4.9-2c-3.2,0.2-6.7,0.7-10,0.4
		c-5-0.5-6.1-2.6-6-7.6c0.1-1.4-0.2-3.4-1.1-4.4c-1.7-1.7-1.1-3,0-4.5C-171.9,433.4-172.1,432.2-172.1,432.2z M-128.9,386.5l3.6,1
		c0,0.3,0.1,0.5,0.1,0.6c0.1,0.2,0.1,0.5,0.3,0.6l-2.6,2.9c0.6,1,1.1,1.7,2,2.5l3.2-2c0.4,0.3,0.7,0.5,1.1,0.6l0.1,3.7
		c1,0.2,2,0.4,3.1,0.4l1-3.6c0.3,0,0.5-0.1,0.6-0.1c0.3-0.1,0.5-0.1,0.6-0.2l2.9,2.6c1-0.6,1.7-1.1,2.5-2l-2-3.2
		c0.2-0.4,0.5-0.7,0.6-1.1l3.7-0.1c0.2-1,0.4-2,0.4-3.1l-3.6-0.9c0-0.2-0.1-0.5-0.1-0.6c-0.1-0.2-0.1-0.5-0.3-0.6l2.6-2.9
		c-0.6-1-1.1-1.7-2-2.5l-3.2,2c-0.4-0.3-0.7-0.5-1.1-0.6l-0.1-3.7c-1-0.3-2-0.4-3.1-0.4l-1,3.6c-0.3,0-0.5,0.1-0.6,0.1
		c-0.3,0.1-0.5,0.1-0.6,0.2l-2.7-2.6c-1,0.6-1.7,1.1-2.5,2l2,3.2c-0.3,0.4-0.5,0.7-0.6,1.1h-3.9
		C-128.8,384.4-128.9,385.4-128.9,386.5z M-141,408.7c1.5-0.6,3.1-1.2,4.4-2.4l-1.4-3.7c1.1-1,2-2,2.7-3.2l4,0.7
		c0.7-1.5,1.1-3.1,1.5-4.7l-3.6-1.7c0-0.7,0-1.4,0-2.1c-0.1-0.7-0.3-1.4-0.4-2l3.2-2.4c-0.6-1.5-1.2-3.1-2.4-4.4l-3.7,1.4
		c-1-1.1-2-2-3.2-2.7l0.7-4c-1.5-0.7-3.1-1.1-4.7-1.5l-1.7,3.6c-0.7,0-1.4,0-2.1,0c-0.7,0.1-1.4,0.3-2,0.4l-2.4-3.2
		c-1.5,0.6-3.1,1.2-4.4,2.4l1.4,3.7c-1.1,1-2,2-2.7,3.2l-4-0.7c-0.7,1.5-1.1,3.1-1.5,4.7l3.6,1.7c0,0.7,0,1.4,0,2.1
		c0.1,0.7,0.3,1.4,0.4,2l-3.2,2.4c0.6,1.5,1.2,3.1,2.4,4.4l3.7-1.4c1,1.1,2,2,3.2,2.7l-0.7,3.9c1.4,0.9,3.1,1.4,4.7,1.6l1.7-3.6
		c0.7,0,1.4,0,2.1,0c0.7-0.1,1.4-0.3,2-0.4L-141,408.7z M-107.4,421.5l-4.4-4.5c0.1-0.4,0.2-0.6,0.4-1c0.1-0.4,0.2-0.7,0.2-1.1
		l5.9-1.5c0.1-1.6-0.1-3.2-0.6-5l-6.1-0.1c-0.2-0.6-0.6-1.2-1-1.7l3.1-5.2c-1.1-1.1-2.4-2.2-3.9-3.1l-4.5,4.1
		c-0.4-0.1-0.6-0.3-1-0.4c-0.4-0.1-0.7-0.2-1.1-0.2l-1.5-5.9c-1.6-0.1-3.2,0.1-5,0.6v6.4c-0.6,0.3-1.2,0.6-1.7,1l-5.2-3.1
		c-1.1,1-2.1,2.4-3,3.7l4.1,4.5c-0.1,0.4-0.2,0.6-0.4,1c-0.1,0.4-0.2,0.7-0.2,1.1l-5.9,1.4c-0.1,1.6,0.1,3.2,0.6,5l6.1,0.1
		c0.2,0.6,0.6,1.2,1,1.7l-3.1,5.2c1.1,1.1,2.4,2.2,3.9,3.1l4.5-4.1c0.4,0.1,0.6,0.2,1,0.4c0.4,0.1,0.7,0.2,1.1,0.2l1.5,5.9
		c1.6,0.1,3.2-0.1,5-0.6l0.1-6.1c0.6-0.2,1.2-0.6,1.7-1l5.2,3.1C-109.4,424.2-108.2,423-107.4,421.5z"/>
</g>
</svg>
