<?xml version="1.0" encoding="utf-8"?>
<!-- Generator: Adobe Illustrator 19.0.0, SVG Export Plug-In . SVG Version: 6.00 Build 0)  -->
<svg version="1.1" id="Capa_1" xmlns="http://www.w3.org/2000/svg" xmlns:xlink="http://www.w3.org/1999/xlink" x="0px" y="0px"
	 width="294.1px" height="206.7px" viewBox="-150 317.6 294.1 206.7" style="enable-background:new -150 317.6 294.1 206.7;"
	 xml:space="preserve">
<style type="text/css">
	.st0{display:none;}
	.st1{fill:#FCFAFB;}
</style>
<g id="Layer_1">
</g>
<g id="Capa_2" class="st0">
</g>
<g>
	<path class="st1" d="M-11.5,516.3c-7,0-12.7-2.8-12.7-6.2c0-2.9,4.2-5.4,9.8-6c-4.3,0.8-7.4,2.8-7.4,5c0,3,5.6,5.5,12.4,5.5
		c3.9,0,7.4-0.8,9.7-2C-1.7,514.8-6.2,516.4-11.5,516.3z M62.7,424.9l34.5,73.3l-201.6,0l38.3-66.6l-3.6-6.7l-52.5,91.7
		c0,4,3.3,7.3,7.3,7.3l224.3,0.3c4,0,7.3-3.3,7.3-7.3l-50.3-99.7L62.7,424.9z"/>
	<g>
		<path class="st1" d="M-0.4,390.4c-0.3-3.6-5.3-6.4-11.9-6.8c-6-1.2-15-3-17-3.7c0.2-0.5,0.8-2,0.8-2l8.3-17.4
			c-1-0.9-2.4-1.3-4.1-1.2c-1.2-0.2-2.6,0.2-4.1,0.8c-1.7,0.6-3.4,1.5-4.9,2.7c-3.7,2.5-7.1,5.4-7.9,6.2c-1.4,1-3.3,2.8-10.3,11.9
			c-3,3.7-5.8,7.5-8,10.7c-2.6,3.5-5.5,7.5-8.9,12.2l13.2,21.2l6.1-5.8c0,0,13.2-1.9,26.7-19.2c3.3-0.4,4.2-0.3,7-0.5
			c1.1-0.1,2.2-0.2,3.3-0.4c1.9-0.4,1.1-0.2,1.9-0.4C-4.4,397.3-0.1,393.9-0.4,390.4z M-29.4,380.1L-29.4,380.1L-29.4,380.1
			L-29.4,380.1z"/>
		<polygon class="st1" points="-42.5,454.6 -38.1,445.7 -48.4,440.6 -52.8,449.5 -57,457.3 -47.6,452.1 -46.1,462.6 		"/>
		<g>
			<path class="st1" d="M41.7,460.6l48.9-99.1L4.4,319.1l-15.8,32.7l0,0l0,0v0l0,0.1l0,0l-11,23.1c0,0-0.8,1.9-1.1,2.6
				c2.2,0.7,7.7,1.4,14.4,2.4c7.7,1.8,9.3,3,12.4,7.2c2.6,3.5-1,9.8-6.9,12.6c-0.9,0.3,0,0-2.2,0.7c-1.2,0.3-2.6,1-3.9,1.2
				c-3.1,0.5-7,1.5-10.8,2.2c-1.1,1.3-17,17.5-26.4,19l-9.3,8.1l57.2,29.6H41.7z M12.8,362.3l4.7-9.6l15.8,7.8L39,349l8.4,4.1
				l-5.7,11.5l15.8,7.8l-4.7,9.6L37,374.2l-17.8,36.1l-8.4-4.1l17.8-36.1L12.8,362.3z"/>
			<path class="st1" d="M-20.5,403.9C-20.5,403.9-20.4,403.9-20.5,403.9C-20.3,403.8-20.3,403.8-20.5,403.9z"/>
			<path class="st1" d="M-11.4,351.8L-11.4,351.8C-11.4,351.7-11.4,351.8-11.4,351.8z"/>
		</g>
		
			<rect x="-70.3" y="405.5" transform="matrix(0.8544 -0.5196 0.5196 0.8544 -226.8772 25.933)" class="st1" width="6.2" height="24.6"/>
	</g>
</g>
</svg>
