<?xml version="1.0" encoding="utf-8"?>
<!-- Generator: Adobe Illustrator 19.0.0, SVG Export Plug-In . SVG Version: 6.00 Build 0)  -->
<svg version="1.1" id="Layer_1" xmlns="http://www.w3.org/2000/svg" xmlns:xlink="http://www.w3.org/1999/xlink" x="0px" y="0px"
	 width="349.2px" height="72.6px" viewBox="-122 384.3 349.2 72.6" style="enable-background:new -122 384.3 349.2 72.6;"
	 xml:space="preserve">
<style type="text/css">
	.st0{fill:#85416A;}
</style>
<g>
	<g>
		<path class="st0" d="M-74.5,439.9c-1.7-3.4-2.5-8,1.1-13.1c2.8-4,5.9-7.4,3.6-15c4.5,5.2,5.9,11.5,4.1,16.2
			C-67.8,433.7-72.7,434.7-74.5,439.9z"/>
		<path class="st0" d="M-86.3,441.4c-9.9-1.4-20.2-14.2-9.9-27.9c9.8-13.1,16.2-19.4,9.5-29.2c10.2,8.6,5.7,19.4-2.5,32.1
			C-93.5,422.9-95.7,433.6-86.3,441.4z"/>
		<path class="st0" d="M-115.2,446.9c0,0,4-0.6,14.7-3.5c5.6-1.5,11.9-0.4,14.5,2.2c2.3,2.4,3.1,5.3,3.3,5.7
			c0.3,0.7,0.6,2.3,0.6,2.3s0.9-2.5,1.2-3c0.2-0.3,1.4-0.3,2.3-2.7c0.7-1.7,0-4.2-3.1-6.4c-6.8-4.8-7.7-16.4-1.7-25.1
			c7.4-10.8,8.4-16.6,5.1-21.6c11.5,10.4,4.9,21.3,1.1,26.8c-3.3,4.8-4.4,8.9-3.4,13.5c0.2,1,0.4,2.5,1.3,4.1c0.8,1.3,2.2,4.8,4.3,4
			c3.4-1.3,6.8-0.5,12.5,0.8c9.7,2.1,13.3,2.7,13.3,2.7l7.3,10c0,0-17.7-3.4-24-4.3c-7.1-1-13.8,0.1-16.1,4.2
			c-2.4-4.1-8.9-5.2-15.7-4.3c-6.2,0.9-24.3,4.4-24.3,4.4L-115.2,446.9z"/>
	</g>
	<g>
		<g>
			<path class="st0" d="M-35.4,456.2v-0.6c1-0.1,1.8-0.4,2.3-0.8s0.9-1.2,1.2-2.3c0.2-0.7,0.4-1.8,0.6-3.3s0.5-3.2,0.7-5.3
				c0.2-1.8,0.4-3.3,0.5-4.6c0.1-1.3,0.2-2.1,0.2-2.5c0-1-0.3-1.8-0.9-2.3s-1.5-0.8-2.7-0.9V433c0.5,0,0.9,0,1.5,0
				c0.5,0,1.3,0,2.3,0s1.7,0,2.2,0s0.9,0,1.3,0v0.5c-0.1,0.1-0.2,0.2-0.3,0.4c-0.1,0.1-0.1,0.2-0.1,0.3c0,0.7,0.6,2.4,1.8,5.1
				c0,0.1,0.1,0.2,0.1,0.2l5.2,11.5l6.3-14.1c0,0,0-0.1,0.1-0.2c0.4-0.9,0.6-1.7,0.6-2.3c0-0.2,0-0.4-0.1-0.6c0-0.2-0.1-0.3-0.3-0.4
				v-0.5c0.4,0,0.9,0,1.4,0s1.3,0,2.3,0c1.1,0,1.9,0,2.4,0s1.1,0,1.5,0v0.6c-1.2,0-2.1,0.4-2.7,1s-0.8,1.6-0.8,3c0,0.2,0,0.4,0,0.8
				s0,0.8,0.1,1.4l0.7,10.7c0.1,2.1,0.5,3.4,1,4c0.5,0.5,1.5,0.9,2.9,1v0.6c-1.2,0-2.1,0-2.9,0s-1.5,0-2.3,0c-1.2,0-3,0-5.6,0.1
				h-0.4v-0.6c1.7-0.2,2.8-0.5,3.3-1.1c0.6-0.5,0.9-1.4,0.9-2.7c0-0.3,0-0.5,0-0.6s0-0.3,0-0.4l-0.8-13.8l-5.1,11.3
				c-0.4,0.9-0.9,2.1-1.5,3.4s-1.2,2.9-2,4.8h-0.3c-0.4-1-0.9-2-1.3-3c-0.4-1.1-0.7-1.6-0.7-1.7l-6.2-13.8l-0.5,4.4
				c-0.2,2-0.4,3.8-0.5,5.5s-0.2,3-0.2,4c0,1.3,0.3,2.2,0.8,2.7s1.6,0.9,3.3,1.1v0.6c-0.1,0-0.2,0-0.3,0c-2.2,0-3.8-0.1-4.8-0.1
				c-0.6,0-1.2,0-1.8,0C-33.4,456.1-34.3,456.1-35.4,456.2z"/>
			<path class="st0" d="M1,445.8c0,2.9,0.7,5.3,2.1,7.1c1.4,1.8,3.2,2.7,5.3,2.7s3.8-0.8,5.1-2.4s1.9-3.8,1.9-6.5
				c0-1.2-0.2-2.4-0.5-3.5c-0.3-1.1-0.7-2.1-1.3-2.9c-0.8-1.1-1.6-2-2.5-2.5s-2-0.8-3.2-0.8c-2.1,0-3.8,0.8-5.1,2.4
				C1.7,441.1,1,443.2,1,445.8z M-2.3,446.2c0-3.1,1-5.5,2.9-7.3s4.5-2.7,7.8-2.7c3.2,0,5.7,0.9,7.6,2.8s2.9,4.4,2.9,7.5
				c0,3-1,5.4-2.9,7.3c-2,1.8-4.5,2.7-7.8,2.7c-3.2,0-5.7-0.9-7.6-2.8C-1.4,451.8-2.3,449.3-2.3,446.2z"/>
			<path class="st0" d="M20,456.2v-0.5c1.5-0.1,2.4-0.5,3-1.4c0.5-0.9,0.8-2.7,0.8-5.4v-5.4c0-0.2,0-0.6,0-1s0-0.7,0-0.9
				c0-0.9-0.1-1.6-0.3-2.1c-0.2-0.5-0.5-0.9-0.9-1.3c-0.4-0.3-0.8-0.6-1.3-0.8c-0.5-0.2-1.1-0.3-1.7-0.4v-0.5c0.3,0,0.7,0,1.3,0
				c0.6,0,1,0,1.3,0s0.7,0,1.2,0s0.9,0,1.1,0l14.1,15.1v-6.5c0-2.4-0.1-4.1-0.2-4.9c-0.1-0.9-0.4-1.5-0.7-1.9s-0.7-0.6-1.2-0.9
				c-0.5-0.2-1.2-0.3-1.9-0.4v-0.5c0.5,0,1,0,1.6,0s1.4,0,2.5,0s1.9,0,2.4,0s1,0,1.4,0v0.5h-0.2c-1,0-1.7,0.5-2.1,1.5
				c-0.4,1-0.6,2.9-0.6,5.6v6c0,1.4,0,2.6,0,3.7s0,2.1,0.1,3h-0.2c-0.6-0.7-1.2-1.4-1.8-2.1c-0.7-0.8-1-1.2-1.1-1.3l-11.9-12.6v5.6
				c0,2.7,0.1,4.6,0.2,5.5s0.3,1.6,0.5,2s0.6,0.7,1.2,1c0.5,0.3,1.3,0.5,2.3,0.7v0.5c0,0,0,0-0.1,0c-1.9,0-3.4-0.1-4.3-0.1
				c-0.5,0-1.1,0-1.7,0C22.1,456.1,21.2,456.1,20,456.2z"/>
			<path class="st0" d="M54,450.2c0,1.4,0.1,2.4,0.2,3c0.1,0.6,0.3,1,0.6,1.3s0.7,0.5,1.2,0.7s1.1,0.3,1.9,0.5v0.5
				c-1.4,0-2.4,0-3.2,0c-0.7,0-1.4,0-2,0c-1.1,0-2.9,0-5.1,0.1h-0.1v-0.5c0.8-0.1,1.4-0.3,1.9-0.5s0.9-0.4,1.2-0.7
				c0.3-0.3,0.5-0.7,0.6-1.3c0.1-0.6,0.2-1.6,0.2-3v-12.8h-2c-1.8,0-3,0.3-3.9,0.8c-0.8,0.5-1.4,1.5-1.7,2.8l-0.5-0.1l0.5-5.4h0.3
				l0.9,0.9c0.9,0,2.2,0,3.9,0s3,0,3.9,0c0.8,0,2.1,0,3.8,0s2.9,0,3.8,0l0.9-0.9h0.2l0.5,5.5l-0.5,0.1c-0.3-1.3-0.9-2.3-1.7-2.9
				s-2-0.9-3.7-0.9H54C54,437.4,54,450.2,54,450.2z"/>
			<path class="st0" d="M62.4,456.2v-0.5c1.5-0.2,2.5-0.5,3-1s0.7-1.4,0.7-2.9V441c0-1.6-0.2-2.6-0.7-3.1s-1.4-0.8-2.7-0.8v-0.6
				c0.9,0,1.9,0,2.9,0s2.5,0,4.5,0c2.3,0,4,0,5.1,0s2,0,2.9,0c-0.1,0.6-0.2,1.3-0.2,2c-0.1,0.7-0.1,1.5-0.2,2.5h-0.4
				c-0.1-1.4-0.5-2.3-1.2-2.9c-0.7-0.5-1.9-0.8-3.6-0.8h-3.7v8.1h2.8c1.6,0,2.6-0.2,3.2-0.6s1-1.1,1.1-2.1h0.5c0,0.5,0,1.3-0.1,2.4
				c0,1.1-0.1,2-0.1,2.6v1.6h-0.4c-0.1-1-0.4-1.7-1-2.1s-1.7-0.6-3.2-0.6h-2.9v5c0,1.5,0.3,2.5,0.9,3s1.8,0.7,3.6,0.7
				c1.7,0,3-0.4,3.9-1.2c0.9-0.8,1.6-2.1,1.9-3.8l0.4,0.1c-0.1,1.1-0.2,2.1-0.3,3c-0.2,1-0.4,1.9-0.7,2.7c-1.3,0-2.8-0.1-4.4-0.1
				s-3.3,0-5.2,0c-1.7,0-3.1,0-4,0C64.1,456.1,63.2,456.1,62.4,456.2z"/>
			<path class="st0" d="M80,456.2v-0.5c0.9-0.1,1.5-0.3,2-0.7c0.4-0.4,0.8-1,1-1.9c0.2-0.6,0.3-1.6,0.5-2.8c0.2-1.2,0.4-2.7,0.6-4.5
				c0.2-1.5,0.3-2.8,0.4-3.9s0.2-1.8,0.2-2.1c0-0.8-0.2-1.5-0.7-1.9s-1.3-0.7-2.3-0.8v-0.6c0.4,0,0.8,0,1.2,0c0.4,0,1.1,0,1.9,0
				c0.9,0,1.5,0,1.9,0s0.8,0,1.1,0v0.4c-0.1,0.1-0.2,0.2-0.2,0.3c-0.1,0.1-0.1,0.2-0.1,0.3c0,0.6,0.5,2,1.5,4.3
				c0,0.1,0.1,0.1,0.1,0.2l4.4,9.8l5.4-12c0,0,0-0.1,0.1-0.1c0.4-0.8,0.6-1.4,0.6-1.9c0-0.2,0-0.4-0.1-0.5c0-0.1-0.1-0.3-0.2-0.4
				v-0.4c0.3,0,0.7,0,1.2,0c0.4,0,1.1,0,1.9,0c0.9,0,1.6,0,2,0c0.5,0,0.9,0,1.3,0v0.5c-1,0-1.8,0.3-2.3,0.9
				c-0.5,0.5-0.7,1.4-0.7,2.5c0,0.1,0,0.4,0,0.7c0,0.3,0,0.7,0.1,1.2l0.6,9.1c0.1,1.8,0.4,2.9,0.8,3.4s1.2,0.7,2.4,0.9v0.5
				c-1,0-1.8,0-2.5,0s-1.3,0-1.9,0c-1,0-2.6,0-4.8,0.1h-0.3v-0.5c1.4-0.2,2.4-0.5,2.8-0.9c0.5-0.4,0.7-1.2,0.7-2.3
				c0-0.2,0-0.4,0-0.5s0-0.2,0-0.3l-0.7-11.7l-4.3,9.6c-0.4,0.8-0.8,1.8-1.3,2.9s-1,2.5-1.7,4.1h-0.3c-0.4-0.8-0.7-1.7-1.1-2.6
				s-0.6-1.4-0.6-1.4L85.4,441l-0.4,3.8c-0.2,1.7-0.3,3.2-0.4,4.6s-0.1,2.6-0.1,3.4c0,1.1,0.2,1.9,0.7,2.3s1.4,0.7,2.8,0.9v0.5
				c-0.1,0-0.1,0-0.2,0c-1.9,0-3.2-0.1-4.1-0.1c-0.5,0-1,0-1.6,0C81.6,456.1,80.9,456.1,80,456.2z"/>
			<path class="st0" d="M111.5,445.8c0,2.9,0.7,5.3,2.1,7.1c1.4,1.8,3.2,2.7,5.3,2.7c2.1,0,3.8-0.8,5.1-2.4c1.3-1.6,1.9-3.8,1.9-6.5
				c0-1.2-0.2-2.4-0.5-3.5s-0.7-2.1-1.3-2.9c-0.8-1.1-1.6-2-2.5-2.5s-2-0.8-3.2-0.8c-2.1,0-3.8,0.8-5.1,2.4
				C112.2,441.1,111.5,443.2,111.5,445.8z M108.2,446.2c0-3.1,1-5.5,2.9-7.3s4.5-2.7,7.8-2.7c3.2,0,5.7,0.9,7.6,2.8
				c1.9,1.9,2.9,4.4,2.9,7.5c0,3-1,5.4-2.9,7.3c-1.9,1.8-4.5,2.7-7.8,2.7c-3.2,0-5.7-0.9-7.6-2.8
				C109.1,451.8,108.2,449.3,108.2,446.2z"/>
			<path class="st0" d="M137.5,446.3c2-0.1,3.5-0.6,4.5-1.4s1.6-1.9,1.6-3.3s-0.5-2.5-1.6-3.3s-2.6-1.3-4.5-1.3V446.3z M131.3,456.2
				v-0.5c1.4-0.1,2.4-0.4,2.9-0.9s0.7-1.8,0.7-3.9v-9.4c0-1.2-0.1-2-0.2-2.5c-0.1-0.5-0.3-0.8-0.6-1.1c-0.2-0.2-0.5-0.4-0.9-0.5
				s-0.9-0.3-1.6-0.4v-0.5c2.1,0,4.3,0,6.5-0.1c0.6,0,0.9,0,1,0c2.5,0,4.3,0.4,5.5,1.2c1.2,0.8,1.8,2,1.8,3.7c0,1-0.3,1.9-0.9,2.7
				c-0.6,0.8-1.4,1.4-2.6,1.9c1.7,3.3,3.4,5.8,5,7.4c1.5,1.6,3.2,2.5,4.9,2.8l-0.1,0.5c-0.1,0-0.3,0-0.6,0c-2.5-0.1-4.2-0.4-5-0.7
				c-0.5-0.2-1.1-0.6-1.6-1.1s-1.1-1.3-1.8-2.4c-0.5-0.7-1-1.6-1.6-2.6s-0.9-1.6-1.1-1.8c-0.2-0.2-0.4-0.4-0.7-0.6
				c-0.3-0.1-0.8-0.2-1.5-0.3l-1.4-0.2v4.1c0,1.9,0.3,3.2,0.8,3.8c0.6,0.6,1.6,0.9,3.3,1v0.5c-1.5,0-2.6,0-3.3,0c-0.7,0-1.4,0-2,0
				s-1.3,0-2,0C133.6,456.1,132.6,456.1,131.3,456.2z"/>
			<path class="st0" d="M152.7,456.2v-0.5c1.5-0.2,2.5-0.5,3-1s0.7-1.4,0.7-2.9V441c0-1.6-0.2-2.6-0.7-3.1s-1.4-0.8-2.7-0.8v-0.6
				c0.9,0,1.9,0,2.9,0s2.5,0,4.5,0c2.3,0,4,0,5.1,0s2,0,2.9,0c-0.1,0.6-0.2,1.3-0.2,2c-0.1,0.7-0.1,1.5-0.2,2.5h-0.4
				c-0.1-1.4-0.5-2.3-1.2-2.9c-0.7-0.5-1.9-0.8-3.7-0.8h-3.6v8.1h2.8c1.5,0,2.6-0.2,3.2-0.6c0.6-0.4,1-1.1,1.1-2.1h0.5
				c0,0.5,0,1.3-0.1,2.4c0,1.1-0.1,2-0.1,2.6v1.6h-0.4c-0.1-1-0.4-1.7-1-2.1s-1.7-0.6-3.2-0.6h-2.8v5c0,1.5,0.3,2.5,0.9,3
				c0.6,0.5,1.8,0.7,3.6,0.7c1.7,0,3-0.4,3.9-1.2c0.9-0.8,1.6-2.1,1.9-3.8l0.5,0.1c-0.1,1.1-0.2,2.1-0.3,3c-0.2,1-0.4,1.9-0.7,2.7
				c-1.3,0-2.8-0.1-4.4-0.1s-3.3,0-5.2,0c-1.7,0-3.1,0-4,0C154.4,456.1,153.5,456.1,152.7,456.2z"/>
			<path class="st0" d="M171.5,456.2v-0.5c1.5-0.1,2.4-0.4,2.9-1c0.5-0.5,0.7-1.8,0.7-3.8v-9.5c0-1.7-0.2-2.8-0.7-3.3
				s-1.5-0.8-2.9-1v-0.6c0.6,0,1.2,0,1.9,0c0.7,0,1.7,0,3,0c1.4,0,2.4,0,3.1,0s1.3,0,1.9,0v0.5c-1.4,0.1-2.4,0.4-2.9,1
				c-0.5,0.5-0.7,1.6-0.7,3.3v9.5c0,1.4,0,2.3,0.1,2.8s0.1,0.8,0.3,1.1c0.1,0.2,0.4,0.4,0.8,0.5c0.4,0.1,1.3,0.1,2.5,0.1
				c1.3,0,2.3-0.1,2.9-0.2s1.1-0.3,1.5-0.6c0.6-0.3,1.1-0.8,1.6-1.4s1-1.4,1.6-2.5l0.4,0.2l-1.6,5.4c-1.7,0-3.3,0-4.6-0.1
				c-1.3,0-2.7,0-3.9,0c-0.7,0-2,0-3.7,0C173.7,456.1,172.4,456.2,171.5,456.2z"/>
			<path class="st0" d="M194,445.8c0,2.9,0.7,5.3,2.1,7.1c1.4,1.8,3.2,2.7,5.3,2.7s3.8-0.8,5.1-2.4c1.3-1.6,1.9-3.8,1.9-6.5
				c0-1.2-0.2-2.4-0.5-3.5c-0.3-1.1-0.7-2.1-1.3-2.9c-0.8-1.1-1.6-2-2.5-2.5s-2-0.8-3.2-0.8c-2.1,0-3.8,0.8-5.1,2.4
				C194.6,441.1,194,443.2,194,445.8z M190.6,446.2c0-3.1,1-5.5,2.9-7.3s4.5-2.7,7.8-2.7c3.2,0,5.7,0.9,7.6,2.8
				c1.9,1.9,2.9,4.4,2.9,7.5c0,3-1,5.4-2.9,7.3c-1.9,1.8-4.5,2.7-7.8,2.7c-3.2,0-5.7-0.9-7.6-2.8
				C191.6,451.8,190.6,449.3,190.6,446.2z"/>
			<path class="st0" d="M214.2,450.2h0.5c0.5,1.8,1.3,3.2,2.3,4.1s2.2,1.4,3.6,1.4c1.1,0,2-0.3,2.7-1c0.7-0.7,1.1-1.5,1.1-2.5
				c0-0.8-0.2-1.6-0.7-2.3c-0.5-0.7-1.2-1.3-2.1-1.9l-2.3-1.3c-1.2-0.7-2.1-1.5-2.7-2.3c-0.6-0.8-0.9-1.8-0.9-2.8
				c0-1.6,0.6-2.9,1.8-3.9c1.2-1,2.7-1.6,4.5-1.6c0.8,0,1.6,0.1,2.3,0.3c0.7,0.2,1.5,0.5,2.2,0.9c-0.1,0.6-0.1,1.2-0.2,1.9
				c-0.1,0.7-0.1,1.5-0.1,2.4h-0.5c-0.2-1.6-0.7-2.8-1.3-3.6c-0.7-0.8-1.6-1.2-2.7-1.2c-1,0-1.9,0.3-2.5,1c-0.7,0.7-1,1.5-1,2.5
				c0,0.7,0.2,1.3,0.6,2c0.4,0.6,1,1.2,1.8,1.7l3.3,2c1.1,0.7,1.9,1.4,2.5,2.2c0.5,0.8,0.8,1.7,0.8,2.8c0,1.6-0.7,2.9-2,4
				c-1.3,1.1-2.9,1.6-4.9,1.6c-1,0-2-0.1-2.9-0.4s-1.8-0.6-2.5-1.1c-0.2-0.8-0.3-1.6-0.4-2.4C214.4,451.9,214.3,451.1,214.2,450.2z"
				/>
		</g>
		<g>
			<path class="st0" d="M-31.3,413.7v-8.5c0-1.4-0.1-2.4-0.2-2.9s-0.3-0.9-0.7-1.1c-0.4-0.3-0.9-0.6-1.4-0.7
				c-0.5-0.2-1.1-0.3-1.9-0.3v-0.6c0.7,0,1.5,0,2.3,0.1c0.8,0,2,0,3.6,0s2.9,0,3.7,0c0.8,0,1.6,0,2.3-0.1v0.6
				c-1.8,0.1-3,0.4-3.7,1.1c-0.6,0.7-0.9,2-0.9,4v8.2c0,1.6,0.1,2.9,0.4,3.7c0.2,0.9,0.7,1.6,1.2,2.2c0.7,0.7,1.5,1.2,2.5,1.6
				s2.2,0.6,3.5,0.6c1.6,0,2.9-0.3,3.9-0.9s1.8-1.5,2.4-2.8c0.3-0.6,0.5-1.6,0.6-2.8c0.1-1.2,0.2-3.1,0.2-5.8c0-2.6-0.1-4.4-0.2-5.4
				c-0.1-1-0.4-1.8-0.7-2.2c-0.4-0.6-0.9-1-1.6-1.3c-0.7-0.3-1.6-0.4-2.6-0.4v-0.6c0.6,0,1.2,0,1.9,0.1c0.7,0,1.7,0,3,0
				c1.4,0,2.4,0,3.1,0c0.7,0,1.3,0,1.9-0.1v0.6h-0.1c-1.3,0-2.2,0.5-2.7,1.5s-0.7,3.5-0.7,7.6c0,0.3,0,0.9,0,1.6
				c0,3.8-0.4,6.3-0.9,7.7c-0.7,1.6-1.8,2.7-3.3,3.5s-3.5,1.2-5.8,1.2c-1.8,0-3.4-0.2-4.7-0.7c-1.3-0.5-2.3-1.2-3-2.2
				c-0.5-0.7-0.8-1.4-1-2.3C-31.2,417-31.3,415.6-31.3,413.7z"/>
			<path class="st0" d="M-8.1,422.6v-0.5c1.4-0.1,2.4-0.5,3-1.4c0.5-0.9,0.8-2.7,0.8-5.4v-5.4c0-0.2,0-0.6,0-1s0-0.7,0-0.9
				c0-0.9-0.1-1.6-0.3-2.1s-0.5-0.9-0.9-1.3c-0.4-0.3-0.8-0.6-1.3-0.8c-0.5-0.2-1.1-0.3-1.7-0.4v-0.5c0.3,0,0.7,0,1.3,0s1,0,1.3,0
				s0.7,0,1.2,0s0.9,0,1.1,0L10.5,418v-6.5c0-2.4-0.1-4.1-0.2-4.9c-0.1-0.9-0.4-1.5-0.7-1.9s-0.7-0.6-1.2-0.9
				c-0.5-0.2-1.2-0.3-1.9-0.4v-0.5c0.5,0,1,0,1.6,0s1.4,0,2.5,0s1.9,0,2.4,0s1,0,1.4,0v0.5h-0.2c-1,0-1.7,0.5-2.1,1.5
				s-0.6,2.9-0.6,5.6v6c0,1.4,0,2.6,0,3.7s0,2.1,0.1,3h-0.2c-0.6-0.7-1.2-1.4-1.8-2.1c-0.7-0.8-1-1.2-1.1-1.3l-11.9-12.6v5.6
				c0,2.7,0.1,4.6,0.2,5.5c0.1,0.9,0.3,1.6,0.5,2s0.6,0.7,1.2,1c0.5,0.3,1.3,0.5,2.3,0.7v0.5c0,0,0,0-0.1,0c-1.9,0-3.4-0.1-4.3-0.1
				c-0.5,0-1.1,0-1.7,0C-6.1,422.5-7,422.6-8.1,422.6z"/>
			<path class="st0" d="M15.6,422.6v-0.5c1.4-0.1,2.4-0.4,2.9-0.9s0.8-1.6,0.8-3.4v-10.1c0-1.7-0.2-2.9-0.7-3.4s-1.5-0.8-2.9-0.9
				v-0.5c0.6,0,1.4,0,2.6,0c1.1,0,2,0,2.5,0c0.6,0,1.4,0,2.5,0s1.9,0,2.5,0v0.5c-1.5,0.1-2.4,0.4-2.9,0.9s-0.7,1.6-0.7,3.3v10.1
				c0,1.7,0.3,2.9,0.8,3.4s1.5,0.8,2.9,0.9v0.5c-1.4,0-2.4,0-3.1,0s-1.3,0-1.9,0s-1.2,0-1.9,0C18,422.5,17,422.5,15.6,422.6z"/>
			<path class="st0" d="M36.9,423.6l-6.7-16.1c-0.6-1.6-1.2-2.6-1.8-3.2c-0.6-0.5-1.3-0.8-2.2-0.9v-0.5c0.5,0,1.1,0,1.7,0
				s1.5,0,2.8,0c1.3,0,2.2,0,2.9,0s1.3,0,1.8,0v0.5c-1,0-1.7,0.2-2.1,0.4c-0.5,0.3-0.7,0.6-0.7,1.2c0,0.3,0.1,1,0.4,1.9
				c0.3,0.9,0.7,2,1.2,3.2l3.8,9.2l3.8-9.2c0.5-1.2,0.9-2.2,1.1-3c0.2-0.8,0.4-1.4,0.4-1.8c0-0.6-0.2-1-0.7-1.3s-1.3-0.4-2.4-0.5
				V403c0.5,0,1.1,0,1.6,0c0.6,0,1.4,0,2.6,0c1.1,0,1.9,0,2.4,0s1,0,1.5,0v0.5h-0.1c-1,0-1.8,0.4-2.5,1.2c-0.7,0.8-1.6,2.6-2.7,5.3
				l-3.5,8.6c-0.1,0.2-0.4,1-0.9,2.3c-0.4,1.1-0.8,2.1-1.1,2.8h-0.6V423.6z"/>
			<path class="st0" d="M48.4,422.6v-0.5c1.5-0.2,2.5-0.5,3-1s0.7-1.4,0.7-2.9v-10.8c0-1.6-0.2-2.6-0.7-3.1s-1.4-0.8-2.7-0.8V403
				c0.9,0,1.9,0,2.9,0s2.5,0,4.5,0c2.3,0,4,0,5.1,0s2,0,2.9,0c-0.1,0.6-0.2,1.3-0.2,2c-0.1,0.7-0.1,1.5-0.2,2.5h-0.4
				c-0.1-1.4-0.5-2.3-1.2-2.9c-0.7-0.5-1.9-0.8-3.6-0.8h-3.7v8.1h2.8c1.6,0,2.6-0.2,3.2-0.6c0.6-0.4,1-1.1,1.1-2.1h0.5
				c0,0.5,0,1.3-0.1,2.4c0,1.1-0.1,2-0.1,2.6v1.6h-0.4c-0.1-1-0.4-1.7-1-2.1s-1.7-0.6-3.2-0.6h-2.9v5c0,1.5,0.3,2.5,0.9,3
				c0.6,0.5,1.8,0.7,3.6,0.7c1.7,0,3-0.4,3.9-1.2c0.9-0.8,1.6-2.1,1.9-3.8l0.5,0.1c-0.1,1.1-0.2,2.1-0.3,3c-0.2,1-0.4,1.9-0.7,2.7
				c-1.3,0-2.8-0.1-4.4-0.1c-1.6,0-3.3,0-5.2,0c-1.7,0-3.1,0-4,0C50.1,422.5,49.2,422.6,48.4,422.6z"/>
			<path class="st0" d="M73.6,412.7c2-0.1,3.5-0.6,4.5-1.4s1.6-1.9,1.6-3.3s-0.5-2.5-1.6-3.3s-2.5-1.3-4.5-1.3V412.7z M67.4,422.6
				v-0.5c1.4-0.1,2.4-0.4,2.9-0.9s0.7-1.8,0.7-3.9v-9.4c0-1.2-0.1-2-0.2-2.5s-0.3-0.8-0.6-1.1c-0.2-0.2-0.5-0.4-0.9-0.5
				s-0.9-0.3-1.6-0.4v-0.5c2.1,0,4.3,0,6.5-0.1c0.6,0,0.9,0,1,0c2.5,0,4.3,0.4,5.5,1.2c1.2,0.8,1.8,2,1.8,3.7c0,1-0.3,1.9-0.9,2.7
				c-0.6,0.8-1.4,1.4-2.6,1.9c1.8,3.3,3.4,5.8,4.9,7.4s3.2,2.5,4.9,2.8l-0.1,0.5c-0.1,0-0.3,0-0.6,0c-2.5-0.1-4.2-0.4-5-0.7
				c-0.6-0.2-1.1-0.6-1.6-1.1s-1.1-1.3-1.8-2.4c-0.5-0.7-1-1.6-1.6-2.6s-0.9-1.6-1.1-1.8c-0.2-0.2-0.4-0.4-0.7-0.5
				c-0.3-0.1-0.8-0.2-1.5-0.3l-1.4-0.2v4.1c0,1.9,0.3,3.2,0.8,3.8c0.6,0.6,1.6,0.9,3.3,1v0.5c-1.5,0-2.6,0-3.3,0c-0.7,0-1.4,0-2,0
				s-1.3,0-2,0C69.7,422.5,68.7,422.6,67.4,422.6z"/>
			<path class="st0" d="M89.8,416.7h0.5c0.5,1.8,1.3,3.2,2.3,4.1s2.2,1.4,3.6,1.4c1.1,0,2-0.3,2.7-1s1.1-1.5,1.1-2.5
				c0-0.8-0.2-1.6-0.7-2.3c-0.5-0.7-1.2-1.3-2.2-1.9l-2.3-1.3c-1.2-0.7-2.1-1.5-2.7-2.3s-0.9-1.8-0.9-2.8c0-1.6,0.6-2.9,1.8-3.9
				c1.2-1,2.7-1.6,4.5-1.6c0.8,0,1.6,0.1,2.3,0.3c0.7,0.2,1.5,0.5,2.2,0.9c-0.1,0.6-0.1,1.2-0.2,1.9c-0.1,0.7-0.1,1.5-0.1,2.4h-0.5
				c-0.2-1.6-0.7-2.8-1.3-3.6c-0.7-0.8-1.6-1.2-2.7-1.2c-1,0-1.9,0.3-2.5,1c-0.7,0.7-1,1.5-1,2.5c0,0.7,0.2,1.3,0.6,2
				c0.4,0.6,1,1.2,1.8,1.7l3.3,2c1.1,0.7,1.9,1.4,2.5,2.2c0.5,0.8,0.8,1.7,0.8,2.8c0,1.6-0.7,2.9-2,4s-2.9,1.6-4.9,1.6
				c-1,0-2-0.1-2.9-0.4s-1.8-0.6-2.5-1.1c-0.2-0.8-0.3-1.6-0.4-2.4C89.9,418.3,89.8,417.5,89.8,416.7z"/>
			<path class="st0" d="M104.4,422.6v-0.5c1.4-0.1,2.4-0.4,2.9-0.9s0.8-1.6,0.8-3.4v-10.1c0-1.7-0.2-2.9-0.7-3.4s-1.5-0.8-2.9-0.9
				v-0.5c0.6,0,1.4,0,2.6,0c1.1,0,2,0,2.5,0c0.6,0,1.4,0,2.5,0s1.9,0,2.5,0v0.5c-1.5,0.1-2.4,0.4-2.9,0.9s-0.7,1.6-0.7,3.3v10.1
				c0,1.7,0.3,2.9,0.8,3.4s1.5,0.8,2.9,0.9v0.5c-1.4,0-2.4,0-3.1,0s-1.3,0-1.9,0s-1.2,0-1.9,0C106.8,422.5,105.8,422.5,104.4,422.6z
				"/>
			<path class="st0" d="M121.8,417.4c0,1.8,0.3,3,0.9,3.6s1.7,0.9,3.3,0.9c2.2,0,4-0.8,5.4-2.4c1.4-1.6,2.1-3.7,2.1-6.2
				c0-3.1-1-5.5-3-7.3s-4.8-2.6-8.4-2.6h-0.2v14H121.8z M115.4,422.6v-0.5c1.5-0.1,2.4-0.4,2.9-0.9s0.8-1.5,0.8-2.9v-11.1
				c0-1.3-0.2-2.2-0.7-2.7s-1.4-0.8-2.7-1V403c1.6,0,3.3,0,5-0.1c1.8,0,2.8,0,3,0c4.1,0,7.3,0.9,9.7,2.7c2.3,1.8,3.5,4.2,3.5,7.3
				c0,3-1.1,5.4-3.3,7.2c-2.2,1.7-5.3,2.6-9.2,2.6c-0.8,0-2.1,0-4.2,0C118.2,422.6,116.6,422.6,115.4,422.6z"/>
			<path class="st0" d="M144.1,413.2h5.7l-2.9-7.8L144.1,413.2z M137.4,422.6v-0.5c0.6-0.1,1.1-0.2,1.5-0.4c0.4-0.2,0.7-0.4,0.9-0.7
				c0.4-0.4,1.3-2.6,2.8-6.6c0.3-0.9,0.6-1.6,0.8-2l3.2-8.5l-0.1-0.6c0.4-0.1,0.7-0.3,1-0.5c0.3-0.2,0.6-0.6,1-1l6.2,16.8
				c0.5,1.4,1,2.3,1.6,2.8c0.5,0.5,1.2,0.7,2.2,0.7v0.5c-1.1,0-1.9,0-2.5,0s-1.1,0-1.7,0c-0.5,0-1,0-1.6,0s-1.4,0-2.6,0v-0.5
				c0.7-0.1,1.2-0.2,1.6-0.5c0.4-0.3,0.6-0.7,0.6-1.1c0-0.2,0-0.5-0.1-0.8s-0.2-0.7-0.3-1.1l-1.5-4.2h-6.7l-0.5,1.6
				c-0.4,1.1-0.6,2-0.8,2.7c-0.2,0.7-0.3,1.2-0.3,1.6c0,0.6,0.3,1,0.8,1.3s1.3,0.4,2.4,0.5v0.5c0,0,0,0-0.1,0
				c-1.9,0-3.2-0.1-4.1-0.1c-0.5,0-1,0-1.6,0C139,422.5,138.3,422.6,137.4,422.6z"/>
			<path class="st0" d="M164.6,417.4c0,1.8,0.3,3,0.9,3.6c0.6,0.6,1.7,0.9,3.3,0.9c2.2,0,4-0.8,5.4-2.4s2.1-3.7,2.1-6.2
				c0-3.1-1-5.5-3-7.3s-4.8-2.6-8.4-2.6h-0.2v14H164.6z M158.2,422.6v-0.5c1.5-0.1,2.4-0.4,2.9-0.9s0.7-1.5,0.7-2.9v-11.1
				c0-1.3-0.2-2.2-0.7-2.7s-1.4-0.8-2.7-1V403c1.6,0,3.3,0,5-0.1c1.8,0,2.8,0,3,0c4.1,0,7.3,0.9,9.7,2.7c2.3,1.8,3.5,4.2,3.5,7.3
				c0,3-1.1,5.4-3.3,7.2c-2.2,1.7-5.3,2.6-9.2,2.6c-0.8,0-2.1,0-4.2,0C161,422.6,159.4,422.6,158.2,422.6z"/>
			<path class="st0" d="M194.1,417.4c0,1.8,0.3,3,0.9,3.6c0.6,0.6,1.7,0.9,3.3,0.9c2.2,0,4-0.8,5.4-2.4s2.1-3.7,2.1-6.2
				c0-3.1-1-5.5-3-7.3s-4.8-2.6-8.4-2.6h-0.3V417.4z M187.7,422.6v-0.5c1.5-0.1,2.4-0.4,2.9-0.9s0.8-1.5,0.8-2.9v-11.1
				c0-1.3-0.2-2.2-0.7-2.7s-1.4-0.8-2.7-1V403c1.6,0,3.3,0,5-0.1c1.8,0,2.8,0,3,0c4.1,0,7.3,0.9,9.7,2.7c2.3,1.8,3.5,4.2,3.5,7.3
				c0,3-1.1,5.4-3.3,7.2c-2.2,1.7-5.3,2.6-9.2,2.6c-0.8,0-2.1,0-4.2,0C190.5,422.6,188.9,422.6,187.7,422.6z"/>
			<path class="st0" d="M209.2,422.6v-0.5c1.5-0.2,2.5-0.5,3-1s0.7-1.4,0.7-2.9v-10.8c0-1.6-0.2-2.6-0.7-3.1s-1.4-0.8-2.7-0.8V403
				c0.9,0,1.9,0,2.9,0s2.5,0,4.5,0c2.3,0,4,0,5.1,0s2,0,2.9,0c-0.1,0.6-0.2,1.3-0.2,2c-0.1,0.7-0.1,1.5-0.2,2.5h-0.4
				c-0.1-1.4-0.5-2.3-1.2-2.9c-0.7-0.5-1.9-0.8-3.6-0.8h-3.7v8.1h2.8c1.5,0,2.6-0.2,3.2-0.6c0.6-0.4,1-1.1,1.1-2.1h0.5
				c0,0.5,0,1.3-0.1,2.4c0,1.1-0.1,2-0.1,2.6v1.6h-0.4c-0.1-1-0.4-1.7-1-2.1s-1.7-0.6-3.2-0.6h-2.9v5c0,1.5,0.3,2.5,0.9,3
				s1.8,0.7,3.6,0.7c1.7,0,3-0.4,3.9-1.2c0.9-0.8,1.6-2.1,1.9-3.8l0.5,0.1c-0.1,1.1-0.2,2.1-0.3,3c-0.2,1-0.4,1.9-0.7,2.7
				c-1.3,0-2.8-0.1-4.4-0.1c-1.6,0-3.3,0-5.2,0c-1.7,0-3.1,0-4,0C210.9,422.5,210.1,422.6,209.2,422.6z"/>
		</g>
	</g>
</g>
</svg>
