<?xml version="1.0" encoding="utf-8"?>
<!-- Generator: Adobe Illustrator 17.1.0, SVG Export Plug-In . SVG Version: 6.00 Build 0)  -->
<!DOCTYPE svg PUBLIC "-//W3C//DTD SVG 1.1//EN" "http://www.w3.org/Graphics/SVG/1.1/DTD/svg11.dtd">
<svg version="1.1" id="Capa_1" xmlns="http://www.w3.org/2000/svg" xmlns:xlink="http://www.w3.org/1999/xlink" x="0px" y="0px"
	 viewBox="59.5 678.3 395 75" enable-background="new 59.5 678.3 395 75" xml:space="preserve">
<g id="fondo">
</g>
<g id="imagen_vendedora">
</g>
<g id="titulo">
</g>
<g id="logo">
</g>
<g id="CTA">
</g>
<g id="BENEFICIOS">
</g>
<g id="CONTENIDO_DEL_WEBINAR">
</g>
<g id="EXPERTO">
</g>
<g id="horarios">
</g>
<g id="pie_de_página">
	<g id="Capa_1_1_">
	</g>
</g>
<g id="marca">
</g>
<g id="REDES">
</g>
<g id="Capa_15">
</g>
<g>
	<path fill="#22D4B4" d="M426.5,684.8c14.4,4.3,24.7,16.9,24.7,31.7c0,18.4-15.9,33.3-35.6,33.3c-19.6,0-35.6-14.9-35.6-33.3
		c0-18.4,15.9-33.3,35.6-33.3C419.4,683.2,423.1,683.7,426.5,684.8z"/>
	<g>
		<path fill="#FFFFFF" d="M432.7,717.2l-1.8-1.5c1.3-1.5,2-3.6,2-5.6c0-4.8-3.9-8.6-8.6-8.6c-2.6,0-5,1.1-6.6,3l-0.9,1l-0.9-1
			c-1.6-1.9-4-3-6.6-3c-4.8,0-8.6,3.9-8.6,8.6c0,2,0.7,4.1,2,5.6l-1.8,1.5c-1.7-2-2.6-4.5-2.6-7.1c0-6,4.9-11,11-11
			c2.8,0,5.5,1.1,7.5,2.9c2-1.9,4.7-2.9,7.5-2.9c6,0,11,4.9,11,11C435.3,712.7,434.3,715.2,432.7,717.2"/>
		<polygon fill="#FFFFFF" points="415.8,726.4 412,718.1 410.6,721.1 398.4,721.1 398.4,718.8 409.2,718.8 412,712.6 415.6,720.3 
			420.2,707.2 424.5,718.8 435.3,718.8 435.3,721.1 422.9,721.1 420.3,714 		"/>
		<polygon fill="#FFFFFF" points="418.5,736.1 415.1,736.1 405.6,724.7 407.3,723.2 416.2,733.8 417.4,733.8 426.3,723.2 
			428.1,724.7 		"/>
	</g>
</g>
<g>
	<path fill="#22D4B4" d="M65,730.5v-33.1H72v33.1H65z"/>
	<path fill="#22D4B4" d="M94.8,730.5l-14.2-22.2v22.2h-6.4v-33.1h7.3l13.2,21.3v-21.3h6.5v33.1H94.8z"/>
	<path fill="#22D4B4" d="M124,730.5l-14.2-22.2v22.2h-6.4v-33.1h7.3l13.2,21.3v-21.3h6.5v33.1H124z"/>
	<path fill="#22D4B4" d="M148.2,731.7c-5.1,0-9.1-1.5-11.8-4.5c-2.7-3-4.1-7.3-4.1-12.9c0-2.8,0.3-5.3,1-7.5s1.7-4.1,3.1-5.7
		s3-2.7,5-3.5s4.2-1.2,6.8-1.2c2.5,0,4.8,0.4,6.8,1.2c2,0.8,3.6,2,5,3.6c1.3,1.6,2.3,3.5,3,5.7s1,4.8,1,7.6c0,5.7-1.4,10-4.1,12.9
		C157.2,730.2,153.3,731.7,148.2,731.7z M148.2,725.8c1.2,0,2.4-0.2,3.5-0.7c1.1-0.4,2.1-1.1,2.9-2c0.8-0.9,1.5-2.1,1.9-3.5
		c0.5-1.4,0.7-3.1,0.7-5.1c0-3.9-0.8-6.9-2.3-8.9c-1.5-2-3.8-3-6.7-3c-2.9,0-5.2,1-6.7,3c-1.6,2-2.3,5-2.3,8.9
		c0,3.9,0.8,6.8,2.4,8.6C143,724.9,145.3,725.8,148.2,725.8z"/>
	<path fill="#22D4B4" d="M173.8,730.5l-11.2-33.1h7.4l7.2,23.2l7.2-23.2h7.2l-11.2,33.1H173.8z"/>
	<path fill="#22D4B4" d="M207,730.5l-2.1-6.8h-12.2l-2.3,6.8h-7.3l11.8-33.1h8l11.7,33.1H207z M198.8,704.9L198.8,704.9l-4.3,13.2
		h8.4L198.8,704.9z"/>
	<path fill="#22D4B4" d="M246.9,707.2c-0.2-1.7-0.8-3-1.8-3.8c-1.1-0.8-2.7-1.2-4.8-1.2c-3.9,0-5.9,1.3-5.9,4c0,1,0.4,1.8,1.2,2.4
		c0.8,0.6,2.1,1.2,3.9,1.6c2.1,0.5,4,1,5.5,1.4c1.6,0.4,3,0.9,4.3,1.5c0.7,0.3,1.4,0.7,2.1,1.1c0.6,0.4,1.2,1,1.6,1.7
		c0.4,0.7,0.8,1.5,1.1,2.4c0.3,0.9,0.4,2.1,0.4,3.4c0,1.6-0.3,3-1,4.2c-0.7,1.2-1.6,2.3-2.7,3.1c-1.1,0.8-2.5,1.5-4,1.9
		c-1.5,0.4-3.1,0.7-4.8,0.7c-4.8,0-8.4-0.9-10.9-2.8s-3.7-4.6-3.8-8.3h6.7c0,1.7,0.7,3,2.1,4s3,1.5,5.1,1.5c2.2,0,3.9-0.4,5-1.2
		c1.1-0.8,1.7-1.9,1.7-3.2c0-0.5-0.1-1-0.2-1.5c-0.1-0.4-0.4-0.9-0.8-1.2c-0.4-0.4-0.9-0.7-1.6-1c-0.7-0.3-1.5-0.5-2.6-0.8
		c-2.5-0.5-4.7-1.1-6.6-1.6c-1.8-0.5-3.4-1.2-4.6-2c-1.2-0.8-2.1-1.8-2.6-3s-0.8-2.6-0.8-4.4c0-1.4,0.2-2.6,0.7-3.8
		c0.5-1.2,1.3-2.2,2.3-3.1s2.3-1.6,3.8-2.1c1.5-0.5,3.3-0.8,5.4-0.8c2,0,3.8,0.3,5.4,0.8c1.6,0.5,3,1.2,4.1,2.2
		c1.1,0.9,2,2.1,2.7,3.4c0.6,1.3,1,2.8,1,4.5H246.9z"/>
	<path fill="#22D4B4" d="M277.5,730.5l-2.1-6.8h-12.2l-2.3,6.8h-7.3l11.8-33.1h8l11.7,33.1H277.5z M269.2,704.9L269.2,704.9
		l-4.3,13.2h8.4L269.2,704.9z"/>
	<path fill="#22D4B4" d="M286.3,730.5v-33.1h6.9v27.1h16.4v6H286.3z"/>
	<path fill="#22D4B4" d="M329.7,697.4h7.1v22.1c0,4-1.2,7.1-3.5,9.1c-2.4,2-5.7,3.1-10.1,3.1c-4,0-7.2-1-9.5-2.9
		c-2.3-1.9-3.5-4.9-3.5-8.9v-22.5h7v21.8c0,2.1,0.5,3.7,1.5,4.9c1,1.2,2.5,1.8,4.4,1.8c4.4,0,6.6-2.1,6.6-6.4V697.4z"/>
	<path fill="#22D4B4" d="M339,730.5v-33.1h12.8c2.2,0,4.3,0.4,6.2,1.1c1.9,0.7,3.5,1.8,4.9,3.2c1.3,1.4,2.4,3.1,3.2,5.1
		c0.8,2,1.1,4.3,1.1,6.8c0,2.5-0.3,4.8-1,6.9s-1.7,3.9-2.9,5.3c-1.3,1.5-2.8,2.6-4.5,3.4s-3.7,1.2-5.8,1.2H339z M351.5,724.9
		c3,0,5.2-0.9,6.6-2.8c1.4-1.9,2-4.7,2-8.5c0-1.9-0.2-3.5-0.5-4.8c-0.3-1.3-0.9-2.4-1.6-3.3s-1.7-1.5-2.9-1.8
		c-1.2-0.4-2.6-0.6-4.2-0.6h-5.1v21.7H351.5z"/>
</g>
</svg>
