<?xml version="1.0" encoding="utf-8"?>
<!-- Generator: Adobe Illustrator 17.1.0, SVG Export Plug-In . SVG Version: 6.00 Build 0)  -->
<!DOCTYPE svg PUBLIC "-//W3C//DTD SVG 1.1//EN" "http://www.w3.org/Graphics/SVG/1.1/DTD/svg11.dtd">
<svg version="1.1" xmlns="http://www.w3.org/2000/svg" xmlns:xlink="http://www.w3.org/1999/xlink" x="0px" y="0px" width="70px"
	 height="46.8px" viewBox="0 0 70 46.8" enable-background="new 0 0 70 46.8" xml:space="preserve">
<g id="fondo">
</g>
<g id="imagen_vendedora">
</g>
<g id="titulo">
</g>
<g id="icono_x5F_slogan">
</g>
<g id="logo">
</g>
<g id="CTA">
</g>
<g id="BENEFICIOS">
</g>
<g id="CONTENIDO_DEL_WEBINAR">
</g>
<g id="EXPERTO">
</g>
<g id="horarios">
</g>
<g id="pie_de_página">
	<g id="Capa_1">
		<g>
			<g>
				<path fill="#FFFFFF" d="M33.7,0.1c-3.8,0.6-12.6,4.7-20.8,12.8l-4.5,0L8.3,42.1l4.5,0l5,3c1.8,1.1,3.8,1.6,5.8,1.6l15.1,0
					c1.3,0,2.6-1.5,3-3.6c0.3-1.7,0-3.2-0.8-4c1.3,0,2.6-1.5,3.1-3.6c0.3-1.5,0.1-2.9-0.6-3.8c1.2-0.3,2.4-1.8,2.8-3.8
					c0.3-1.7,0-3.3-0.7-4.2v0h0c0.4,0,21.8-2.2,21.9-2.2c3.8-0.4,3.3-6.5-0.4-6.5L31.7,15c-0.4,0-0.8-0.3-0.8-0.7v0c0,0,0-0.1,0-0.1
					c0-1.2,0.1-3.9,3.9-6.5c0.5-0.3,1-0.7,1.4-0.9C39.7,4.2,37.7-0.6,33.7,0.1L33.7,0.1z M33.7,0.1"/>
			</g>
			<path fill="#FFFFFF" d="M1.7,12.9c-0.9,0-1.6,0.7-1.6,1.6L0,40.5c0,0.9,0.7,1.6,1.6,1.6l4.1,0l0.1-29.3L1.7,12.9z M1.7,12.9"/>
		</g>
	</g>
</g>
<g id="marca">
</g>
<g id="REDES">
</g>
<g id="Capa_15">
</g>
</svg>
