<?xml version="1.0" encoding="utf-8"?>
<!-- Generator: Adobe Illustrator 17.1.0, SVG Export Plug-In . SVG Version: 6.00 Build 0)  -->
<!DOCTYPE svg PUBLIC "-//W3C//DTD SVG 1.1//EN" "http://www.w3.org/Graphics/SVG/1.1/DTD/svg11.dtd">
<svg version="1.1" id="Capa_1" xmlns="http://www.w3.org/2000/svg" xmlns:xlink="http://www.w3.org/1999/xlink" x="0px" y="0px"
	 width="72px" height="72px" viewBox="0 0 72 72" enable-background="new 0 0 72 72" xml:space="preserve">
<g>
	<path fill="#FFFFFF" d="M72,12c0-6.3-5.7-12-12-12H12C5.7,0,0,5.7,0,12v48c0,6.3,5.7,12,12,12h24V44.8h-8.8v-12H36v-4.7
		c0-8.1,6.1-15.3,13.5-15.3h9.7v12h-9.7c-1.1,0-2.3,1.3-2.3,3.2v4.8h12v12h-12V72H60c6.3,0,12-5.7,12-12V12z M72,12"/>
</g>
</svg>
