<?xml version="1.0" encoding="utf-8"?>
<!-- Generator: Adobe Illustrator 17.1.0, SVG Export Plug-In . SVG Version: 6.00 Build 0)  -->
<!DOCTYPE svg PUBLIC "-//W3C//DTD SVG 1.1//EN" "http://www.w3.org/Graphics/SVG/1.1/DTD/svg11.dtd">
<svg version="1.1" id="Capa_1" xmlns="http://www.w3.org/2000/svg" xmlns:xlink="http://www.w3.org/1999/xlink" x="0px" y="0px"
	 width="72px" height="72px" viewBox="0 0 72 72" enable-background="new 0 0 72 72" xml:space="preserve">
<g>
	<path fill="#FFFFFF" d="M58.5,0h-45C6,0,0,6,0,13.5v45C0,65.9,6,72,13.5,72h45c7.5,0,13.5-6,13.5-13.5v-45C72,6,65.9,0,58.5,0
		L58.5,0z M25.9,60.2c-8,0-14.7-3.3-14.7-8.4c0-5.3,6.1-10.3,14.1-10.3l2.5,0c-1.1-1.1-2-2.4-2-4c0-0.9,0.3-1.9,0.7-2.7l-1.3,0
		c-6.5,0-10.9-4.7-10.9-10.4c0-5.6,6.1-10.5,12.5-10.5h14.4L38,16.2h-4.5c3,1.2,4.6,4.7,4.6,8.3c0,3-1.7,5.6-4.1,7.5
		c-2.3,1.8-2.7,2.6-2.7,4.1c0,1.3,2.5,3.5,3.8,4.5c3.8,2.7,5,5.2,5,9.3C40,55,35,60.2,25.9,60.2L25.9,60.2z M63,31.6h-9v9h-4.5v-9
		h-9V27h9v-9H54v9h9V31.6z M63,31.6"/>
	<path fill="#FFFFFF" d="M32.9,24.8c-0.6-4.8-4.2-8.7-7.8-8.9c-3.7-0.1-6.2,3.6-5.5,8.5c0.6,4.9,4.2,8.9,7.8,9
		C31.1,33.5,33.5,29.6,32.9,24.8L32.9,24.8z M32.9,24.8"/>
	<path fill="#FFFFFF" d="M30.4,43.4c-1.1-0.4-2.3-0.6-3.6-0.6c-5.5-0.1-10.4,3.4-10.4,7.5c0,4.2,4,7.7,9.5,7.7
		c7.8,0,10.4-3.3,10.4-7.5c0-0.5,0-1-0.2-1.5C35.6,46.6,33.4,45.4,30.4,43.4L30.4,43.4z M30.4,43.4"/>
</g>
</svg>
