<?xml version="1.0" encoding="utf-8"?>
<!-- Generator: Adobe Illustrator 17.1.0, SVG Export Plug-In . SVG Version: 6.00 Build 0)  -->
<!DOCTYPE svg PUBLIC "-//W3C//DTD SVG 1.1//EN" "http://www.w3.org/Graphics/SVG/1.1/DTD/svg11.dtd">
<svg version="1.1" id="Capa_1" xmlns="http://www.w3.org/2000/svg" xmlns:xlink="http://www.w3.org/1999/xlink" x="0px" y="0px"
	 width="72.2px" height="72.2px" viewBox="0 0 72.2 72.2" enable-background="new 0 0 72.2 72.2" xml:space="preserve">
<g>
	<path fill="#FFFFFF" d="M64.8,0H7.4C3.3,0,0,3.3,0,7.4v57.4c0,4.1,3.3,7.4,7.4,7.4h57.4c4.1,0,7.4-3.3,7.4-7.4V7.4
		C72.2,3.3,68.9,0,64.8,0L64.8,0z M41.6,12.2h3.5v11.1c0,2.1,0.1,2.1,0.2,2.3c0.1,0.3,0.3,1,1.1,1c0.9,0,1.1-0.7,1.2-1
		c0.1-0.3,0.1-0.2,0.1-2.4V12.2h3.5v16.6h-3.6l0-0.8l-1.1-0.4c-0.3,0.5-0.6,1-1,1.2c-0.4,0.3-0.8,0.4-1.4,0.4
		c-0.6,0-1.1-0.1-1.5-0.4c-0.4-0.3-0.6-0.6-0.8-1c-0.2-0.4-0.3-0.9-0.3-1.4c-0.1-0.5-0.1-1.7-0.1-3.3V12.2z M29.4,19.1
		c0-1.7,0.2-3.1,0.4-4c0.3-0.9,0.7-1.6,1.4-2.1c0.7-0.5,1.7-0.8,2.8-0.8c1,0,1.8,0.2,2.5,0.5c0.7,0.3,1.2,0.8,1.5,1.3
		c0.4,0.6,0.6,1.1,0.7,1.7c0.1,0.6,0.2,1.6,0.2,2.9v2.9c0,1.7-0.1,3-0.2,3.8c-0.1,0.7-0.4,1.4-0.8,2c-0.4,0.6-0.9,1.1-1.5,1.4
		c-0.6,0.3-1.4,0.5-2.3,0.5c-1,0-1.8-0.1-2.4-0.4c-0.6-0.3-1.1-0.6-1.4-1.1c-0.3-0.5-0.6-1.1-0.7-1.8c-0.2-0.8-0.3-2-0.3-3.6V19.1z
		 M21.1,6.3l2.9,9.2c0.5-2.4,1.5-5.7,2.2-9.2h2.6l-3.3,13.1l0,0.1v9.3h-3v-9.3l0-0.1L18.6,6.3H21.1z M62.5,57.7
		c-0.4,4.1-4.1,7.5-8.2,7.8C42.1,66,30,66,17.9,65.5c-4.1-0.3-7.8-3.7-8.3-7.8c-0.4-6.6-0.4-13,0-19.5c0.5-4.1,4.1-7.5,8.3-7.8
		c12.1-0.5,24.2-0.5,36.3,0c4.1,0.3,7.8,3.7,8.2,7.8C62.9,44.7,62.9,51.1,62.5,57.7L62.5,57.7z M34.1,27.2c0.5,0,0.9-0.3,1.1-0.8
		c0.1-0.3,0.2-0.7,0.2-2v-7.2c0-1.5-0.1-1.9-0.2-2.2c-0.2-0.5-0.6-0.9-1.1-0.9c-0.5,0-0.9,0.3-1.1,0.8c-0.1,0.2-0.2,0.7-0.2,2.2v7
		c0,1.4,0.1,1.9,0.2,2.1C33.2,26.8,33.6,27.2,34.1,27.2L34.1,27.2z M14.4,39.4h3.4v19.3h3.6V39.4h3.4v-3.7H14.4V39.4z M31.4,52.1
		c0,2.1-0.1,2.6-0.1,2.8c-0.1,0.5-0.6,0.9-1.2,0.9c-0.6,0-1-0.3-1.1-0.8c-0.1-0.2-0.1-0.7-0.1-2.7v-11h-3.4v12c0,1.6,0,2.6,0.1,3.1
		c0,0.5,0.2,0.9,0.4,1.4c0.2,0.4,0.4,0.7,0.8,0.9c0.4,0.2,0.8,0.4,1.4,0.4c0.5,0,0.9-0.1,1.3-0.4c0.4-0.2,0.7-0.7,1-1.2l1.1,0.3l0,1
		h3.5V41.3h-3.4V52.1z M46.5,42.2c-0.2-0.4-0.5-0.6-0.8-0.9c-0.4-0.2-0.8-0.3-1.4-0.3c-0.4,0-0.8,0.1-1.2,0.3
		c-0.4,0.3-0.7,0.6-1.1,1.1l-1,1.6v-8.3h-3.4v23h3.2l0.2-1l0.3-1.4l0.8,1.2c0.3,0.5,0.7,1,1.1,1.2c0.4,0.3,0.8,0.4,1.2,0.4
		c0.6,0,1.1-0.2,1.5-0.6c0.5-0.4,0.7-0.9,0.9-1.6c0.1-0.7,0.2-1.7,0.2-1.7v-9.1c0,0,0.1-0.9-0.1-2.8C46.8,43,46.7,42.6,46.5,42.2
		L46.5,42.2z M43.5,52.3c0,1.6-0.1,2.1-0.2,2.4c-0.2,0.6-0.6,0.9-1.1,0.9c-0.5,0-0.9-0.3-1.1-0.9C41.1,54.5,41,54,41,52.5v-4.6
		c0-1.6,0.1-2,0.1-2.3c0.2-0.5,0.6-0.8,1.1-0.8c0.5,0,1,0.3,1.1,0.9c0.1,0.3,0.2,0.7,0.2,2.2V52.3z M52.8,50.5h5.9v-1.9
		c0-1.7-0.2-3.7-0.5-4.6c-0.3-0.9-0.8-1.6-1.5-2.1c-0.7-0.5-1.7-0.8-2.8-0.8c-0.9,0-1.7,0.2-2.4,0.6c-0.7,0.4-1.2,1-1.5,1.9
		c-0.3,0.9-0.5,2.1-0.5,4.2v5.4c0,0.7,0.1,1.7,0.2,2.4c0.1,0.6,0.4,1.2,0.8,1.8c0.3,0.5,0.8,0.9,1.5,1.2c0.7,0.3,1.4,0.4,2.3,0.4
		c0.9,0,1.6-0.2,2.2-0.4c0.6-0.3,1-0.8,1.4-1.4c0.4-0.6,0.6-1.2,0.8-1.8c0.1-0.6,0.2-1.4,0.2-2.5v-0.8h-3.2v1.9c0,1-0.1,1.6-0.2,2
		c-0.2,0.5-0.6,0.8-1.2,0.8c-0.5,0-0.9-0.3-1.1-0.7c-0.1-0.2-0.2-0.6-0.2-1.8V50.5z M52.8,48.1v-2c0-1.5,0.1-1.2,0.1-1.4
		c0.2-0.5,0.6-0.8,1.1-0.8c0.5,0,0.9,0.3,1.1,0.8c0.1,0.2,0.1,0,0.1,1.4v2.5h-2.5V48.1z M52.8,48.1"/>
</g>
</svg>
