<?xml version="1.0" encoding="utf-8"?>
<!-- Generator: Adobe Illustrator 17.1.0, SVG Export Plug-In . SVG Version: 6.00 Build 0)  -->
<!DOCTYPE svg PUBLIC "-//W3C//DTD SVG 1.1//EN" "http://www.w3.org/Graphics/SVG/1.1/DTD/svg11.dtd">
<svg version="1.1" xmlns="http://www.w3.org/2000/svg" xmlns:xlink="http://www.w3.org/1999/xlink" x="0px" y="0px" width="537px"
	 height="77.7px" viewBox="0 0 537 77.7" enable-background="new 0 0 537 77.7" xml:space="preserve">
<g id="fondo">
</g>
<g id="imagen_vendedora">
</g>
<g id="titulo">
</g>
<g id="icono_x5F_slogan">
</g>
<g id="logo">
</g>
<g id="CTA">
</g>
<g id="BENEFICIOS">
</g>
<g id="CONTENIDO_DEL_WEBINAR">
</g>
<g id="EXPERTO">
</g>
<g id="horarios">
</g>
<g id="pie_de_página">
	<g id="Capa_1">
	</g>
</g>
<g id="marca">
	<g>
		<g>
			<path fill="#FFFFFF" d="M46.2,59.1c-1.7-0.1-1.8-0.4-2.1-8.2c-2.3,2.9-3.5,4.1-5.2,5.4c-3.2,2.3-8.4,4-12.6,4
				c-5,0-10.7-2.2-13.7-5.1C9.4,52,7.6,46.6,7.6,40.4c0-0.6,0-1.5,0.1-2.6v-2V21.3c0-6.8-7.5-6.1-7.7-7c-0.3-1.1,9.1-1.7,14.9-2.8
				c1.3-0.2,1.5,0.4,1.5,4L16.2,37v2.8c0,9.4,5.7,15.9,14,15.9c8,0,14.6-5.7,13.9-12.4V43V21.7c0.1-8.1-7.9-6.5-7.9-7.4
				c0-1.4,11.5-2.5,15.2-3.1c0.7-0.1,1.7,0.1,1.7,2.9v6.9c4.6-5.6,10.3-8.4,16.9-8.4c7.1,0,11.3,2.7,15.3,9.3
				c4.9-6.4,10.6-9.3,17.8-9.3c11.1,0,17.8,7.6,17.8,20.4v14c0,2.8,0.5,5.6,1.3,6.6c1,1.4,4.4,2.9,6.8,3.2c1.2,0.1,1.5,0.5,1.5,1.3
				c0,0.8-0.5,1.1-1.4,1.1c-0.5,0-20.3,0-20.7,0c-0.9,0-1.7-0.4-1.7-1.2c0-0.5,0.4-0.9,1-1.1c4.4-1.7,4.6-2,4.6-8.8V35.1
				c0-6-0.9-9.3-3.3-12.5c-2.6-3.4-6.1-5.2-10-5.2c-6.2,0-12.5,4.2-12.5,8.3c0,0.4,0,0.9,0.1,1.5c0.4,2,0.4,2.3,0.4,4.2v16.3
				c0,6.4,1.7,8.4,7.7,8.9c1.4,0.1,2.1,0.6,2.1,1.4c0,0.8-0.6,1.1-1.7,1.1c0,0-20.4,0-20.8,0c-0.8,0-1.6-0.3-1.6-1.2
				c0-0.4,0.4-0.8,1.2-1c4.4-1.5,4.5-1.8,4.5-8.3V31.6c0-8.8-4.9-14.1-12.9-14.1c-7.3,0-12.4,4.1-12.4,10.3v20.6
				c0,1.6,0.1,3.1,0.1,4.4c0.6,3.6,8.2,3.3,8.2,3.7c0,0.6-0.2,0.9-0.7,1C60.7,57.5,46.3,59.1,46.2,59.1"/>
			<path fill="#FFFFFF" d="M448.8,17.8L459,37.2c2.7,0.2,5.5,0.3,8.2,0.5l-14-25.2h-8.3L432,35.8c2.4,0.1,4.7,0.2,7,0.3L448.8,17.8z
				"/>
			<path fill="#FFFFFF" d="M501.8,12.5H494v27.1c2.6,0.2,5.2,0.4,7.8,0.6V12.5z"/>
			<path fill="#FFFFFF" d="M470.4,59h8.6l-11.8-21.3c-2.7-0.2-5.4-0.3-8.2-0.5L470.4,59z"/>
			<path fill="#FFFFFF" d="M427,59l12-22.8c-2.3-0.1-4.7-0.2-7-0.3L419.4,59H427z"/>
			<path fill="#FFFFFF" d="M537,59v-6.5h-35.2V40.2c-2.6-0.2-5.1-0.4-7.7-0.6V59H537z"/>
			<path fill="#FFFFFF" d="M179.2,12.5l-14.1,27.9L179.2,12.5z"/>
			<path fill="#FFFFFF" d="M139,12.5h-8.4L146.8,42c2.5-0.2,5-0.5,7.5-0.7L139,12.5z"/>
			<path fill="#FFFFFF" d="M209.7,12.5h-7.8v25.1c2.6-0.2,5.2-0.3,7.8-0.5V12.5z"/>
			<path fill="#FFFFFF" d="M320.5,18.8h21.4v-6.3h-50.4v6.3h21.3v14.9c2.6,0,5.2,0,7.7-0.1V18.8z"/>
			<path fill="#FFFFFF" d="M404.3,12.5h-7.7v22c2.6,0.1,5.2,0.1,7.7,0.2V12.5z"/>
			<path fill="#FFFFFF" d="M362.7,12.5h-7.8v21.2c2.6,0,5.2,0,7.8,0.1V12.5z"/>
			<path fill="#FFFFFF" d="M255.2,34.8V35c1.7-0.1,3.5-0.1,5.2-0.2H255.2z"/>
			<path fill="#FFFFFF" d="M241.6,18.5h26.7c1.9,0,3.2,0.3,3.9,1c0.8,0.7,1.1,1.9,1.1,3.7V30c0,1.9-0.4,3.1-1.1,3.8
				c-0.3,0.3-0.8,0.5-1.3,0.7c3.3-0.1,6.7-0.2,10-0.3c0.1-0.7,0.2-1.5,0.2-2.4V21.5c0-3.2-0.8-5.5-2.3-6.9c-1.6-1.4-4-2.1-7.5-2.1
				h-37.4v23.4c2.6-0.1,5.2-0.2,7.8-0.3V18.5z"/>
			<path fill="#FFFFFF" d="M172.6,39.7l14.3-27.2L172.6,39.7z"/>
			<path fill="#FFFFFF" d="M172.6,39.7l14.3-27.2h-7.7l-14.1,27.9C167.6,40.1,170.1,39.9,172.6,39.7"/>
			<g opacity="0.3">
				<g>
					<defs>
						<rect id="SVGID_17_" x="260.4" y="34.5" width="10.4" height="0.3"/>
					</defs>
					<use xlink:href="#SVGID_17_"  overflow="visible" fill="#FFFFFF"/>
					<clipPath id="SVGID_2_">
						<use xlink:href="#SVGID_17_"  overflow="visible"/>
					</clipPath>
					<g clip-path="url(#SVGID_2_)">
						<defs>
							<path id="SVGID_19_" d="M268.2,34.8c1,0,1.9-0.1,2.6-0.3c-3.5,0.1-6.9,0.2-10.4,0.3H268.2z"/>
						</defs>
						<use xlink:href="#SVGID_19_"  overflow="visible" fill="#FFFFFF"/>
						<clipPath id="SVGID_4_">
							<use xlink:href="#SVGID_19_"  overflow="visible"/>
						</clipPath>
						
							<rect x="261.2" y="31.6" transform="matrix(-0.8286 -0.5599 0.5599 -0.8286 466.3313 212.0683)" clip-path="url(#SVGID_4_)" fill="#FFFFFF" width="8.8" height="6.1"/>
					</g>
				</g>
			</g>
			<path fill="#FFFFFF" d="M156,59l3.5-7.7l5.5-10.9l-5.5,10.9l-5.3-10c-2.5,0.2-5,0.5-7.5,0.7L156,59z"/>
			<path fill="#FFFFFF" d="M209.7,59V37.1c-2.6,0.2-5.2,0.3-7.8,0.5V59H209.7z"/>
			<path fill="#FFFFFF" d="M320.5,59V33.6c-2.6,0-5.2,0-7.7,0.1V59H320.5z"/>
			<path fill="#FFFFFF" d="M357.2,56.7c1.5,1.5,4.4,2.3,8.6,2.3h27.6c4.2,0,7.1-0.8,8.6-2.3c1.5-1.5,2.3-4.4,2.3-8.7V34.7
				c-2.6-0.1-5.2-0.2-7.7-0.2v18h-33.9V33.8c-2.6,0-5.2-0.1-7.8-0.1V48C354.9,52.2,355.7,55.1,357.2,56.7"/>
			<path fill="#FFFFFF" d="M241.6,59V35.5c-2.6,0.1-5.2,0.2-7.8,0.3V59H241.6z"/>
			<path fill="#FFFFFF" d="M268.2,34.8h-7.8c-1.7,0.1-3.5,0.1-5.2,0.2v5.9L274.1,59h11.5l-21.3-18.1h6.8c3.4,0,5.9-0.7,7.5-2.1
				c1.1-1,1.8-2.5,2.2-4.5c-3.4,0.1-6.7,0.2-10,0.3C270.1,34.7,269.3,34.8,268.2,34.8"/>
			<path fill="#FFFFFF" d="M172.6,39.7c-2.5,0.2-5,0.4-7.5,0.6l-5.5,10.9L156,59h6.5L172.6,39.7z"/>
		</g>
		<g>
			<defs>
				<path id="SVGID_21_" d="M425.2,41.9c-0.6,0-5.6,0.2-5.6,0.2l-2.5,0l-2.1,4.7c26.5-0.5,55.9-4.8,62.9-15.9
					C465.3,37.3,445.4,41.3,425.2,41.9"/>
			</defs>
			<use xlink:href="#SVGID_21_"  overflow="visible" fill="#FFFFFF"/>
			<clipPath id="SVGID_6_">
				<use xlink:href="#SVGID_21_"  overflow="visible"/>
			</clipPath>
			<polygon clip-path="url(#SVGID_6_)" fill="#FFFFFF" points="452.6,0 407.2,37.3 440.4,77.7 485.8,40.4 			"/>
		</g>
	</g>
</g>
<g id="REDES">
</g>
<g id="Capa_15">
</g>
</svg>
