<?xml version="1.0" encoding="utf-8"?>
<!-- Generator: Adobe Illustrator 17.1.0, SVG Export Plug-In . SVG Version: 6.00 Build 0)  -->
<!DOCTYPE svg PUBLIC "-//W3C//DTD SVG 1.1//EN" "http://www.w3.org/Graphics/SVG/1.1/DTD/svg11.dtd">
<svg version="1.1" id="Capa_1" xmlns="http://www.w3.org/2000/svg" xmlns:xlink="http://www.w3.org/1999/xlink" x="0px" y="0px"
	 width="58.6px" height="80.7px" viewBox="0 0 58.6 80.7" enable-background="new 0 0 58.6 80.7" xml:space="preserve">
<g>
	<path fill="#5A4A77" d="M43.2,0h-38C2.3,0,0,2.3,0,5.1v70.4c0,2.8,2.3,5.1,5.1,5.1h48.3c2.8,0,5.1-2.3,5.1-5.1V15.2L43.2,0z"/>
	<polygon fill="#72628F" points="43.6,14.9 58.6,15.2 43.2,0 	"/>
	<rect x="6.7" y="23.9" fill="#72628F" width="20.9" height="11"/>
	<rect x="31.7" y="23.9" fill="#72628F" width="20.9" height="11"/>
	<rect x="6.7" y="46.7" fill="#72628F" width="20.9" height="11"/>
	<rect x="31.7" y="46.7" fill="#72628F" width="20.9" height="11"/>
	<rect x="6.5" y="38.1" fill="#72628F" width="46" height="3.4"/>
	<rect x="6.5" y="60.7" fill="#72628F" width="46" height="3.4"/>
</g>
</svg>
