<?xml version="1.0" encoding="utf-8"?>
<!-- Generator: Adobe Illustrator 17.1.0, SVG Export Plug-In . SVG Version: 6.00 Build 0)  -->
<!DOCTYPE svg PUBLIC "-//W3C//DTD SVG 1.1//EN" "http://www.w3.org/Graphics/SVG/1.1/DTD/svg11.dtd">
<svg version="1.1" id="Capa_1" xmlns="http://www.w3.org/2000/svg" xmlns:xlink="http://www.w3.org/1999/xlink" x="0px" y="0px"
	 width="425.3px" height="56px" viewBox="0 0 425.3 56" enable-background="new 0 0 425.3 56" xml:space="preserve">
<g>
	<path fill="#858585" d="M12.7,20.4c-0.7,8,11.8,4.3,14.7,5.1l-0.6-11.8C26.8,13.7,13.3,12.4,12.7,20.4z"/>
	<path fill="#858585" d="M48.1,8c-4.8-0.2-16.1,5.2-16.1,5.2l1,11.3c8.3-2.1,11.6,3.8,17.9,3.5c13.3-0.7,20.8-5.7,20.6-10.2
		C71.3,10.6,52.9,8.3,48.1,8z"/>
</g>
<g>
	<path fill="#858585" d="M180.2,20.1c-0.7,8,11.8,4.3,14.7,5.1l-0.6-11.8C194.3,13.4,180.8,12.2,180.2,20.1z"/>
	<path fill="#858585" d="M215.6,7.8c-4.8-0.2-16.1,5.2-16.1,5.2l1,11.3c8.3-2.1,11.6,3.8,17.9,3.5c13.3-0.7,20.8-5.7,20.6-10.2
		C238.8,10.3,220.4,8,215.6,7.8z"/>
</g>
<g>
	<path fill="#858585" d="M362.2,20.4c-0.7,8,11.8,4.3,14.7,5.1l-0.6-11.8C376.3,13.7,362.8,12.4,362.2,20.4z"/>
	<path fill="#858585" d="M397.6,8c-4.8-0.2-16.1,5.2-16.1,5.2l1,11.3c8.3-2.1,11.6,3.8,17.9,3.5c13.3-0.7,20.8-5.7,20.6-10.2
		C420.8,10.6,402.4,8.3,397.6,8z"/>
</g>
<g>
	<path fill="#858585" d="M96.7,38.7c-0.7-8,11.8-4.3,14.7-5.1l-0.6,11.8C110.8,45.4,97.3,46.7,96.7,38.7z"/>
	<path fill="#858585" d="M132.1,51.1c-4.8,0.2-16.1-5.2-16.1-5.2l1-11.3c8.3,2.1,11.6-3.8,17.9-3.5c13.3,0.7,20.8,5.7,20.6,10.2
		C155.3,48.5,136.9,50.8,132.1,51.1z"/>
</g>
<g>
	<path fill="#858585" d="M276.7,38.7c-0.7-8,11.8-4.3,14.7-5.1l-0.6,11.8C290.8,45.4,277.3,46.7,276.7,38.7z"/>
	<path fill="#858585" d="M312.1,51.1c-4.8,0.2-16.1-5.2-16.1-5.2l1-11.3c8.3,2.1,11.6-3.8,17.9-3.5c13.3,0.7,20.8,5.7,20.6,10.2
		C335.3,48.5,316.9,50.8,312.1,51.1z"/>
</g>
</svg>
