<?xml version="1.0" encoding="utf-8"?>
<!-- Generator: Adobe Illustrator 17.1.0, SVG Export Plug-In . SVG Version: 6.00 Build 0)  -->
<!DOCTYPE svg PUBLIC "-//W3C//DTD SVG 1.1//EN" "http://www.w3.org/Graphics/SVG/1.1/DTD/svg11.dtd">
<svg version="1.1" id="Capa_1" xmlns="http://www.w3.org/2000/svg" xmlns:xlink="http://www.w3.org/1999/xlink" x="0px" y="0px"
	 width="58.2px" height="83.4px" viewBox="0 0 58.2 83.4" enable-background="new 0 0 58.2 83.4" xml:space="preserve">
<g>
	<path fill="#333333" d="M58.2,78.3c0,2.8-2.3,5.1-5.1,5.1H5.1c-2.8,0-5.1-2.3-5.1-5.1V8.1C0,5.3,2.3,3,5.1,3h47.9
		c2.8,0,5.1,2.3,5.1,5.1V78.3z"/>
	<path fill="#594A75" d="M36.7,7c0,2.8-2.3,5.1-5.1,5.1h-4.9c-2.8,0-5.1-2.3-5.1-5.1V5.1c0-2.8,2.3-5.1,5.1-5.1h4.9
		c2.8,0,5.1,2.3,5.1,5.1V7z"/>
	<path fill="#FFFFFF" d="M30.9,3.5c0,1-0.8,1.8-1.8,1.8l0,0c-1,0-1.8-0.8-1.8-1.8l0,0c0-1,0.8-1.8,1.8-1.8l0,0
		C30.1,1.7,30.9,2.5,30.9,3.5L30.9,3.5z"/>
	<path fill="#5A4A77" d="M54.3,66.3V14.4c0-2.8-2.3-5.1-5.1-5.1H9c-2.8,0-5.1,2.3-5.1,5.1v58.9c0,2.8,2.3,5.1,5.1,5.1h33.6
		L54.3,66.3z"/>
	<polygon fill="#FFFFFF" points="42.7,66.3 42.6,78.5 54.3,66.3 	"/>
	<rect x="10.4" y="17.7" fill="#72628F" width="25.4" height="3.7"/>
	<rect x="10.4" y="24.9" fill="#72628F" width="37.5" height="3.7"/>
	<rect x="10.4" y="31.8" fill="#72628F" width="37.5" height="3.7"/>
	<rect x="10.4" y="38.7" fill="#72628F" width="37.5" height="3.7"/>
	<rect x="10.4" y="45.5" fill="#72628F" width="37.5" height="3.7"/>
	<rect x="10.4" y="52.4" fill="#72628F" width="37.5" height="3.7"/>
	<rect x="10.3" y="59.3" fill="#72628F" width="25.5" height="3.7"/>
	<polygon fill="#FFFFFF" points="15.6,12.6 42.7,12.6 37.3,6.9 21.2,6.9 	"/>
</g>
</svg>
