<?xml version="1.0" encoding="utf-8"?>
<!-- Generator: Adobe Illustrator 17.1.0, SVG Export Plug-In . SVG Version: 6.00 Build 0)  -->
<!DOCTYPE svg PUBLIC "-//W3C//DTD SVG 1.1//EN" "http://www.w3.org/Graphics/SVG/1.1/DTD/svg11.dtd">
<svg version="1.1" id="Capa_1" xmlns="http://www.w3.org/2000/svg" xmlns:xlink="http://www.w3.org/1999/xlink" x="0px" y="0px"
	 width="69.8px" height="72.3px" viewBox="0 0 69.8 72.3" enable-background="new 0 0 69.8 72.3" xml:space="preserve">
<g>
	<path fill="#5A4A77" d="M69.6,26L0,26.2V34h0v33.2c0,2.8,2.3,5.1,5.1,5.1h59.5c2.8,0,5.1-2.3,5.1-5.1L69.6,26z"/>
	<polygon fill="#594976" points="35.1,0 0,26.2 69.6,26 	"/>
	<rect x="9.6" y="13.2" fill="#DDDDDD" width="51.2" height="42.3"/>
	<polygon fill="#72628F" points="0,26.2 35.1,48.6 69.6,26 69.8,67.1 68.9,69.7 36.9,68.7 0.1,68.2 	"/>
	<rect x="18.5" y="18.7" fill="#72628F" width="13.2" height="3.9"/>
	<rect x="18.5" y="25.5" fill="#72628F" width="33.1" height="4"/>
	<rect x="18.5" y="32.5" fill="#72628F" width="33.1" height="3.9"/>
	<path fill="#5A4A77" d="M69.4,69.1L35.1,41.8l-35,26.5c0.5,2.3,2.6,4,5,4h59.5C66.8,72.3,68.6,71,69.4,69.1z"/>
</g>
</svg>
