<?xml version="1.0" encoding="utf-8"?>
<!-- Generator: Adobe Illustrator 19.0.0, SVG Export Plug-In . SVG Version: 6.00 Build 0)  -->
<svg version="1.1" id="Capa_1" xmlns="http://www.w3.org/2000/svg" xmlns:xlink="http://www.w3.org/1999/xlink" x="0px" y="0px"
	 width="163px" height="163px" viewBox="-216 339.9 163 163" enable-background="new -216 339.9 163 163" xml:space="preserve">
<g id="Layer_1">
</g>
<g id="Capa_2">
</g>
<g>
	<g>
		<g>
			<path fill="#418BBC" d="M-120.2,395.2c6.5-1.2,11.6-8.5,11.6-17.2c0-9.6-6-17.4-13.5-17.4c-7.4,0-13.5,7.8-13.5,17.4
				c0,8.8,5.1,16.1,11.7,17.2c0.3,0.1,0.5,0.3,0.4,0.5l-0.2,0.4l-1.3,2.4c-0.2,0.3,0,0.6,0.3,0.6h0.2c0.4,0,0.5,0.3,0.5,0.6
				c-0.3,1.1-0.4,2.2-0.2,3.5c0.2,1.7,1.2,3.2,2,4.7c1,2.1,1.2,4,0.7,6.2c-0.5,2-1.2,3.9-1.4,5.9c-0.2,2,2.9,2,3.2,0
				c0.2-1.9,0.9-3.7,1.4-5.5c0.5-1.8,0.4-3.7,0-5.5c-0.4-1.8-1.4-3.3-2.2-5c-0.7-1.5-0.6-3-0.1-4.4c0.1-0.3,0.5-0.6,0.9-0.6h0.2
				c0.4,0,0.5-0.3,0.3-0.6l-1.3-2.4c0,0-0.1-0.2-0.2-0.4C-120.8,395.5-120.6,395.3-120.2,395.2z"/>
			<circle fill="#418BBC" cx="-137.2" cy="429.2" r="10.9"/>
			<path fill="#418BBC" d="M-150.1,477.8l0.2-5.2v-13.2l-10.1,11.3c-0.9,1-2.1,1.5-3.4,1.5c-1.1,0-2.3-0.4-3.2-1.2
				c-1.9-1.7-2-4.7-0.2-6.5l16.7-18.5c0.7-0.7,1.6-1.2,2.5-1.4c0.2-0.1,0.5-0.1,0.7-0.1h16.8l9.6-4.4l4.2-16.5
				c0.7-2.5,3.2-4,5.8-3.4c2.5,0.7,4,3.2,3.4,5.8l-4.8,18.6c-0.4,1.4-1.3,2.5-2.6,3.1l-11.8,5.4l0.1,16.5l1,7.3L-150.1,477.8z"/>
		</g>
	</g>
	<g>
		<g>
			<path fill="#418BBC" d="M-134.7,499.5c-43.7,0-79.3-35.6-79.3-79.3c0-43.7,35.6-79.3,79.3-79.3s79.3,35.6,79.3,79.3
				C-55.4,463.9-91,499.5-134.7,499.5z M-134.7,350.7c-38.3,0-69.5,31.2-69.5,69.5c0,38.3,31.2,69.5,69.5,69.5s69.5-31.2,69.5-69.5
				C-65.2,381.9-96.4,350.7-134.7,350.7z"/>
		</g>
	</g>
</g>
</svg>
