<?xml version="1.0" encoding="utf-8"?>
<!-- Generator: Adobe Illustrator 19.0.0, SVG Export Plug-In . SVG Version: 6.00 Build 0)  -->
<svg version="1.1" id="Capa_1" xmlns="http://www.w3.org/2000/svg" xmlns:xlink="http://www.w3.org/1999/xlink" x="0px" y="0px"
	 width="163px" height="163px" viewBox="-216 339.9 163 163" enable-background="new -216 339.9 163 163" xml:space="preserve">
<g id="Layer_1">
</g>
<g id="Capa_2">
</g>
<g>
	<g>
		<g>
			<g>
				<path fill="#418BBC" d="M-103.2,375.8h-57.3c-4.5,0-8.2,3.7-8.2,8.2v75.7c0,3.7,2.5,6.8,5.8,7.8v-23.8c0-1.6,0.5-3,1.3-4.2
					v-54.9c0-1,0.8-1.8,1.8-1.8h55.7c1,0,1.8,0.8,1.8,1.8V451c0,1-0.8,1.8-1.8,1.8h-12.8l-10.1,15.1h23.7c4.5,0,8.2-3.7,8.2-8.2
					v-75.7C-95,379.4-98.7,375.8-103.2,375.8z"/>
				<path fill="#418BBC" d="M-124.5,428.4c0.1,0,0.2,0.1,0.3,0.1c0.6,0,1.2-0.2,1.7-0.7c2.5-2.5,3.9-5.9,3.9-9.4
					c0-3.6-1.4-6.9-3.9-9.4c-2.5-2.5-5.9-3.9-9.4-3.9c-3.6,0-6.9,1.4-9.4,3.9c-2.5,2.5-3.9,5.9-3.9,9.4c0,3.4,1.3,6.6,3.6,9.1
					c0.3,0,0.7-0.1,1-0.1c0.3,0,0.6,0,0.9,0v-5.8c-0.4-1-0.7-2.1-0.7-3.3c0-2.3,0.9-4.4,2.5-6c3.2-3.2,8.8-3.2,12,0
					c1.6,1.6,2.5,3.7,2.5,6c0,1.4-0.4,2.8-1.1,4V428.4L-124.5,428.4z"/>
				<path fill="#418BBC" d="M-118.6,434.1c1,0,2,0.3,2.9,0.7c0,0,0.1,0,0.1-0.1c4.4-4.4,6.8-10.2,6.8-16.4c0-6.2-2.4-12-6.8-16.4
					c-9-9-23.7-9-32.8,0c-4.4,4.4-6.8,10.2-6.8,16.4c0,4.4,1.2,8.6,3.5,12.2c0.7-0.2,1.5-0.4,2.3-0.4c0.9,0,1.7,0.1,2.4,0.4
					c0.2-0.3,0.5-0.6,0.8-0.9c-2.6-3.2-4.1-7.2-4.1-11.4c0-4.9,1.9-9.5,5.4-12.9c7.1-7.1,18.8-7.1,25.9,0c3.5,3.5,5.4,8.1,5.4,12.9
					c0,4.9-1.9,9.5-5.4,12.9c-0.8,0.8-0.9,2-0.4,2.9C-119.1,434.2-118.9,434.1-118.6,434.1z"/>
				<path fill="#418BBC" d="M-116.2,438.1c-0.7-0.5-1.6-0.7-2.4-0.7c-1.4,0-2.8,0.7-3.6,1.9l-4.9,7.3c-0.1,0.1-0.2,0.2-0.3,0.2
					c0,0-0.1,0-0.1,0c-0.2,0-0.3-0.2-0.3-0.4v-28.6c0-2.4-2-4.4-4.4-4.4c-2.4,0-4.4,2-4.4,4.4v15.8c-0.6-1.7-2.2-3-4.1-3
					c-2.4,0-4.4,2-4.4,4.4v2.9c0-2.4-2-4.4-4.4-4.4c-2.4,0-4.4,2-4.4,4.4v1.7c-0.5-0.2-0.9-0.3-1.5-0.3c-2.4,0-4.4,2-4.4,4.4V471
					c0,1,0.8,1.7,1.7,1.7h22.8c0.6,0,1.1-0.3,1.4-0.8l18.6-27.8C-113.6,442.1-114.2,439.4-116.2,438.1z"/>
			</g>
		</g>
	</g>
	<g>
		<g>
			<path fill="#418BBC" d="M-134.5,502.9c-44.9,0-81.5-36.6-81.5-81.5c0-44.9,36.6-81.5,81.5-81.5S-53,376.5-53,421.4
				C-53,466.4-89.5,502.9-134.5,502.9z M-134.5,350c-39.4,0-71.4,32-71.4,71.4c0,39.4,32,71.4,71.4,71.4s71.4-32,71.4-71.4
				C-63,382-95.1,350-134.5,350z"/>
		</g>
	</g>
</g>
</svg>
