<?xml version="1.0" encoding="utf-8"?>
<!-- Generator: Adobe Illustrator 19.0.0, SVG Export Plug-In . SVG Version: 6.00 Build 0)  -->
<svg version="1.1" id="Capa_1" xmlns="http://www.w3.org/2000/svg" xmlns:xlink="http://www.w3.org/1999/xlink" x="0px" y="0px"
	 width="163px" height="163px" viewBox="-218 341.3 163 163" enable-background="new -218 341.3 163 163" xml:space="preserve">
<g id="Layer_1">
</g>
<g id="Capa_2">
</g>
<g>
	<g>
		<g>
			<rect x="-108.4" y="439.2" fill="#418BBC" width="17.9" height="6.7"/>
			<polygon fill="#418BBC" points="-182,386.8 -182,397.2 -177.4,395.8 -177.4,391.3 -85.9,391.3 -85.9,449.7 -158.7,449.7 
				-159,454.2 -81.4,454.2 -81.4,386.8 			"/>
			<circle fill="#418BBC" cx="-174.7" cy="411.8" r="13.5"/>
			<polygon fill="#418BBC" points="-186,458.8 -186.7,458.8 -186.9,453.8 -191.6,453.8 -190.9,429.4 -179.9,427.4 -174.9,433.4 
				-169.8,427.4 -162.1,427.4 -140.8,416.3 -140.2,417.5 -115.2,403.1 -114.1,405.1 -139.1,419.5 -139.7,418.5 -137.7,422.3 
				-161.1,434.4 -162.3,458.8 -163.2,458.8 			"/>
		</g>
	</g>
	<g>
		<g>
			<path fill="#418BBC" d="M-136.5,504.3c-44.9,0-81.5-36.6-81.5-81.5s36.6-81.5,81.5-81.5S-55,377.9-55,422.8
				S-91.5,504.3-136.5,504.3z M-136.5,351.4c-39.4,0-71.4,32-71.4,71.4c0,39.4,32,71.4,71.4,71.4s71.4-32,71.4-71.4
				C-65,383.4-97.1,351.4-136.5,351.4z"/>
		</g>
	</g>
</g>
</svg>
