<?xml version="1.0" encoding="utf-8"?>
<!-- Generator: Adobe Illustrator 19.0.0, SVG Export Plug-In . SVG Version: 6.00 Build 0)  -->
<svg version="1.1" id="Capa_1" xmlns="http://www.w3.org/2000/svg" xmlns:xlink="http://www.w3.org/1999/xlink" x="0px" y="0px"
	 width="294.1px" height="201.9px" viewBox="-150 320 294.1 201.9" style="enable-background:new -150 320 294.1 201.9;"
	 xml:space="preserve">
<style type="text/css">
	.st0{display:none;}
	.st1{fill:#FFFEFE;}
</style>
<g id="Layer_1">
</g>
<g id="Capa_2" class="st0">
</g>
<g>
	<path class="st1" d="M-5.1,512.1c-8.7,0-15.7-3.5-15.7-7.7c0-3.6,5.2-6.6,12.1-7.4c-5.4,1-9.1,3.4-9.1,6.1c0,3.7,6.8,6.7,15.3,6.8
		c4.8,0,9.1-1,11.9-2.5C7.1,510.2,1.5,512.1-5.1,512.1 M48.4,390.8l25.2-0.1l46.6,99.1l-248.2,0l56.2-99.4l66.9,0v-9.4l-65.7-0.1
		c-5,0-6.4,4-9,9L-150,512.6c0,5,4,9,9,9l276.2,0.4c5,0,9-4,9-9L82.2,390.3c-2.1-4.3-4-9-9-9l-24.9,0V390.8z"/>
	<path class="st1" d="M0.7,489.6l-1.8-2c0.3-0.2,26.9-24.7,66-30.6c26.7-4.1,43.4,4.5,51.5,10.8l-43-80.1c-1.5-0.3-6.3-0.8-22.1-0.8
		v-2.7c24.4,0,24.6,1.1,24.8,2.4c0,0.2,0,0.3,0,0.5l46.6,86.6l-2.3,1.5c-0.2-0.2-17.3-21.3-55.1-15.5C27,465.5,0.9,489.4,0.7,489.6"
		/>
	<path class="st1" d="M-2.8,499V381.8l0.2-0.3c0.2-0.4,24.2-41.4,47.8-59.8l2.3-1.8l-0.1,2.9c-0.6,15.8,0,93,0,93.8l0,0.7l-0.5,0.4
		c-0.3,0.2-30.2,24.1-47.1,73.6L-2.8,499z M-0.1,382.6v100.6C16,441.3,40.8,419.3,44.7,416c-0.1-7.1-0.5-70.6-0.1-90.3
		C23.2,343.6,2.1,378.9-0.1,382.6"/>
	<path class="st1" d="M108.4,496.9l-4.6-5.2c-31-35.3-90.5-6.8-102.1-0.7c-0.5,0.3-1.6,0.9-2.3-0.3l-0.6-1.1l1.2-0.7l0.5,0.7
		L0,488.9c0.1,0,0.2-0.1,0.4-0.2c7.8-4.1,23.7-11.5,42.1-15.1c25.1-4.9,44.9-0.8,59.1,12.1c-4.1-12.2-8.1-25.1-8.2-25.3l2.6-0.8
		c0.1,0.2,5.4,17.4,10.1,30.8L108.4,496.9z"/>
</g>
</svg>
