<?xml version="1.0" encoding="utf-8"?>
<!-- Generator: Adobe Illustrator 19.0.0, SVG Export Plug-In . SVG Version: 6.00 Build 0)  -->
<svg version="1.1" id="Layer_1" xmlns="http://www.w3.org/2000/svg" xmlns:xlink="http://www.w3.org/1999/xlink" x="0px" y="0px"
	 width="816.5px" height="107.4px" viewBox="121 367.5 816.5 107.4" style="enable-background:new 121 367.5 816.5 107.4;"
	 xml:space="preserve">
<style type="text/css">
	.st0{fill:#FFFFFF;}
</style>
<g>
	<polygon class="st0" points="137.3,456.8 151,456.8 151,451 137.3,451 137.3,444.7 152.5,444.7 152.5,438.6 130.5,438.6 
		130.5,469.1 153,469.1 153,463.1 137.3,463.1 	"/>
	<polygon class="st0" points="165.9,438.6 159,438.6 159,469.1 178.9,469.1 178.9,463.1 165.9,463.1 	"/>
	<polygon class="st0" points="233.9,456.8 247.6,456.8 247.6,451 233.9,451 233.9,444.7 249.1,444.7 249.1,438.6 227.1,438.6 
		227.1,469.1 249.6,469.1 249.6,463.1 233.9,463.1 	"/>
	<path class="st0" d="M275.5,462c-1.6,0.9-3.5,1.4-5.9,1.4s-4.4-0.9-6.1-2.6s-2.6-4-2.6-6.9s0.9-5.2,2.7-7c1.8-1.8,4-2.6,6.5-2.6
		c1.3,0,2.6,0.2,3.7,0.7s2.4,1.3,3.8,2.5l3.5-5.1c-3.2-2.9-7-4.3-11.4-4.3s-8.1,1.5-11.2,4.5c-3.1,3-4.6,6.8-4.6,11.3
		s1.5,8.3,4.6,11.2c3,3,6.8,4.5,11.3,4.5c5.4,0,9.5-1.7,12.6-5.1v-10.9h-6.9V462z"/>
	<path class="st0" d="M297.2,438.6L284,469.1h7.2l2.8-6.6h12.8l2.8,6.6h7.2l-13-30.5H297.2z M296.8,456.6l3.8-8.9l3.8,8.9H296.8z"/>
	<path class="st0" d="M358.9,437.9c-4.5,0-8.3,1.5-11.4,4.5s-4.6,6.8-4.6,11.2c0,4.5,1.5,8.2,4.6,11.2s6.9,4.5,11.4,4.5
		s8.3-1.5,11.4-4.5s4.6-6.8,4.6-11.2c0-4.5-1.5-8.2-4.6-11.2C367.2,439.4,363.4,437.9,358.9,437.9z M365.2,460.7
		c-1.7,1.9-3.9,2.9-6.4,2.9s-4.7-1-6.4-2.9c-1.7-1.9-2.6-4.2-2.6-6.9c0-2.7,0.9-5,2.6-7c1.7-1.9,3.9-2.9,6.4-2.9s4.7,1,6.4,2.9
		c1.7,1.9,2.6,4.2,2.6,7C368,456.4,367.1,458.7,365.2,460.7z"/>
	<path class="st0" d="M403,438.6h-10.8v30.5h10.4c5.8,0,10.1-1.4,13-4.1c2.8-2.8,4.3-6.5,4.3-11.3c0-4.7-1.5-8.4-4.4-11.1
		C412.6,440,408.4,438.6,403,438.6z M410.5,460.8c-1.7,1.6-4.1,2.4-7.2,2.4H399v-18.6h3.8c3.5,0,6,0.8,7.7,2.4s2.5,3.9,2.5,6.9
		S412.2,459.2,410.5,460.8z"/>
	<polygon class="st0" points="432.6,456.8 446.2,456.8 446.2,451 432.6,451 432.6,444.7 447.8,444.7 447.8,438.6 425.8,438.6 
		425.8,469.1 448.2,469.1 448.2,463.1 432.6,463.1 	"/>
	<path class="st0" d="M476.6,438.6h-10.8v30.5h10.4c5.8,0,10.1-1.4,13-4.1c2.8-2.8,4.3-6.5,4.3-11.3c0-4.7-1.5-8.4-4.4-11.1
		C486.2,440,482.1,438.6,476.6,438.6z M484.1,460.8c-1.7,1.6-4.1,2.4-7.2,2.4h-4.3v-18.6h3.8c3.5,0,6,0.8,7.7,2.4s2.5,3.9,2.5,6.9
		C486.7,456.9,485.8,459.2,484.1,460.8z"/>
	<path class="st0" d="M507.7,438.6l-13.2,30.5h7.2l2.8-6.6h12.8l2.8,6.6h7.2l-13-30.5H507.7z M507.2,456.6l3.8-8.9l3.8,8.9H507.2z"
		/>
	<path class="st0" d="M555.8,448.8c0-3.6-1-6.1-3-7.7s-5.4-2.4-10.1-2.4h-11.6v30.5h6.8v-9.7h4.7l6.8,9.7h8.4l-7.7-10.9
		C553.9,456.8,555.8,453.6,555.8,448.8z M547.5,452.4c-0.8,0.8-2.4,1.1-4.8,1.1h-5v-9h5.1c2.2,0,3.7,0.3,4.6,0.9
		c0.9,0.6,1.3,1.7,1.3,3.4C548.9,450.4,548.4,451.6,547.5,452.4z"/>
	<path class="st0" d="M565.2,461.8c-1.1,0-2,0.4-2.7,1.1s-1.1,1.7-1.1,2.7c0,1.1,0.4,2,1.1,2.7c0.7,0.7,1.7,1.1,2.7,1.1
		c1.1,0,2-0.4,2.7-1.1s1.1-1.7,1.1-2.7c0-1.1-0.4-2-1.1-2.7C567.2,462.2,566.4,461.8,565.2,461.8z"/>
	<path class="st0" d="M577.9,461.8c-1.1,0-2,0.4-2.7,1.1s-1.1,1.7-1.1,2.7c0,1.1,0.4,2,1.1,2.7c0.7,0.7,1.7,1.1,2.7,1.1
		c1.1,0,2-0.4,2.7-1.1s1.1-1.7,1.1-2.7c0-1.1-0.4-2-1.1-2.7C579.9,462.2,579,461.8,577.9,461.8z"/>
	<path class="st0" d="M593.2,462.9c-0.7-0.7-1.7-1.1-2.7-1.1c-1.1,0-2,0.4-2.7,1.1s-1.1,1.7-1.1,2.7c0,1.1,0.4,2,1.1,2.7
		c0.7,0.7,1.7,1.1,2.7,1.1c1.1,0,2-0.4,2.7-1.1s1.1-1.7,1.1-2.7S593.9,463.7,593.2,462.9z"/>
	<path class="st0" d="M330.5,424.1c0-2.6-2.1-4.7-4.7-4.7H295c0,0,0.1,0,0.1-0.1c4.3-2.4,6.9-6.2,7.5-10.8
		c0.7-6.1-2.6-13.3-8.6-18.7c-4.3-3.8-9.6-5.1-14.7-3.3c-3,1-7.6,3.8-11.5,11.1c-0.4-1.2-0.8-2.5-1.2-3.9
		c-4.5-16.9-13.7-20.5-18.8-21.1c-8.5-1.1-17.3,4.5-22.8,14.5c-2.5,4.5-3,9.3-1.6,14.2c1.7,5.8,5.9,10.8,10.2,14.8l-33.5-0.5
		c-1.2,0-2.5,0.5-3.4,1.3s-1.4,2.1-1.4,3.3v49h9v-9.9h2.6l6.8,9.7h8.4l-7.7-10.9c3.9-1.4,5.8-4.6,5.8-9.5c0-3.6-1-6.1-3-7.7
		s-5.4-2.4-10.1-2.4h-2.6V425l44,0.6h0.1c2.1,0,4-1.4,4.5-3.4c0.5-2.1-0.4-4.2-2.3-5.2c-4.3-2.3-15.9-10.2-18.2-18.3
		c-0.7-2.5-0.5-4.8,0.8-7c3.6-6.5,8.9-10.3,13.5-9.8c4.7,0.6,8.7,5.8,10.9,14.3c0,0.1,0,0.1,0.1,0.2c4.2,13.5,4.3,16.1,4.5,18.4
		c0,0.4,0,0.8,0.1,1.3c0.2,2.3,2.1,4.2,4.4,4.3c2.3,0.1,4.4-1.5,4.8-3.8c3.1-17.3,9.1-20.6,10.9-21.2s3.6-0.1,5.4,1.4
		c3.7,3.3,5.9,7.6,5.6,10.7c-0.1,1-0.5,2.4-2.7,3.6c-7.1,3.8-12.5,9.5-12.7,9.7c-1.3,1.4-1.6,3.3-0.9,5.1c0.7,1.7,2.4,2.8,4.3,2.8
		h39.8v9.8l0,0V469l0,0l0,0h9.4l0,0h10v-6.1h-10v-38.8H330.5z M207.3,444.5c2.2,0,3.7,0.3,4.6,0.9c0.9,0.6,1.3,1.7,1.3,3.4
		c0,1.6-0.4,2.8-1.3,3.6c-0.8,0.8-2.4,1.1-4.8,1.1h-2.8v-9H207.3z"/>
</g>
<g>
	<path class="st0" d="M645.3,441.3c2.1,1.7,3.1,4.4,3.1,8.1c0,3.6-1.1,6.3-3.2,8c-2.1,1.7-5.3,2.5-9.7,2.5h-3.9v8.2h-6.6v-29.4h10.4
		C640,438.7,643.2,439.6,645.3,441.3z M640.5,452.9c0.8-0.9,1.2-2.2,1.2-3.9c0-1.7-0.5-2.9-1.5-3.6c-1-0.7-2.6-1.1-4.8-1.1h-3.7v9.9
		h4.4C638.2,454.2,639.7,453.7,640.5,452.9z"/>
	<path class="st0" d="M672.7,468l-2.7-6.3h-12.3l-2.7,6.3h-7l12.7-29.4h6.3l12.7,29.4H672.7z M663.8,447.4l-3.7,8.5h7.3L663.8,447.4
		z"/>
	<path class="st0" d="M706.9,448.4c0,4.7-1.9,7.7-5.6,9.1l7.4,10.5h-8.1l-6.5-9.4h-4.5v9.4h-6.5v-29.4h11.1c4.6,0,7.8,0.8,9.8,2.3
		C705.9,442.5,706.9,445,706.9,448.4z M699,451.9c0.8-0.7,1.2-1.9,1.2-3.5c0-1.6-0.4-2.7-1.3-3.3s-2.3-0.9-4.4-0.9h-4.9v8.7h4.8
		C696.7,453,698.2,452.6,699,451.9z"/>
	<path class="st0" d="M734.5,468l-2.7-6.3h-12.3l-2.7,6.3h-7l12.7-29.4h6.3l12.7,29.4H734.5z M725.7,447.4l-3.7,8.5h7.3L725.7,447.4
		z"/>
	<path class="st0" d="M776.9,468l-2.7-6.3h-12.3l-2.7,6.3h-7l12.7-29.4h6.3l12.7,29.4H776.9z M768,447.4l-3.7,8.5h7.3L768,447.4z"/>
	<path class="st0" d="M797.8,468h-6.6v-11.6l-10.2-17.8h7.1l6.3,10.9l6.3-10.9h7.1l-10.2,17.8V468z"/>
	<path class="st0" d="M818.9,460.5c1.1,1.4,2.6,2,4.4,2s3.3-0.7,4.4-2c1.1-1.4,1.6-3.2,1.6-5.6v-16.2h6.5v16.4
		c0,4.3-1.2,7.5-3.5,9.8c-2.4,2.3-5.4,3.4-9,3.4c-3.7,0-6.7-1.1-9-3.4c-2.4-2.3-3.5-5.6-3.5-9.8v-16.4h6.6v16.2
		C817.3,457.2,817.8,459.1,818.9,460.5z"/>
	<path class="st0" d="M865.1,442.5c2.8,2.6,4.2,6.1,4.2,10.7c0,4.6-1.4,8.2-4.1,10.8c-2.7,2.7-6.9,4-12.5,4h-10v-29.4h10.4
		C858.3,438.7,862.3,440,865.1,442.5z M860.3,460c1.6-1.5,2.4-3.7,2.4-6.6c0-2.9-0.8-5.1-2.4-6.7c-1.6-1.6-4.1-2.3-7.4-2.3h-3.7
		v17.8h4.2C856.4,462.2,858.7,461.5,860.3,460z"/>
	<path class="st0" d="M895,468l-2.7-6.3H880l-2.7,6.3h-7l12.7-29.4h6.3L902,468H895z M886.2,447.4l-3.7,8.5h7.3L886.2,447.4z"/>
	<path class="st0" d="M929.2,448.4c0,4.7-1.9,7.7-5.6,9.1l7.4,10.5H923l-6.5-9.4H912v9.4h-6.6v-29.4h11.1c4.6,0,7.8,0.8,9.8,2.3
		S929.2,445,929.2,448.4z M921.3,451.9c0.8-0.7,1.2-1.9,1.2-3.5c0-1.6-0.4-2.7-1.3-3.3s-2.3-0.9-4.4-0.9H912v8.7h4.8
		C919,453,920.5,452.6,921.3,451.9z"/>
</g>
</svg>
