<?xml version="1.0" encoding="utf-8"?>
<!-- Generator: Adobe Illustrator 19.0.0, SVG Export Plug-In . SVG Version: 6.00 Build 0)  -->
<svg version="1.1" id="Layer_1" xmlns="http://www.w3.org/2000/svg" xmlns:xlink="http://www.w3.org/1999/xlink" x="0px" y="0px"
	 width="334px" height="30.6px" viewBox="-130 405.3 334 30.6" style="enable-background:new -130 405.3 334 30.6;"
	 xml:space="preserve">
<style type="text/css">
	.st0{fill:#418BBC;}
	.st1{opacity:0.3;}
</style>
<g>
	<g>
		<path class="st0" d="M-101,435.1c-1,0-1.1-0.2-1.3-5.1c-1.4,1.8-2.2,2.5-3.2,3.3c-2,1.4-5.2,2.5-7.9,2.5c-3.1,0-6.6-1.3-8.5-3.2
			c-2.1-2-3.2-5.3-3.2-9.2c0-0.4,0-1,0.1-1.6v-1.3v-9c0-4.2-4.7-3.8-4.8-4.4c-0.2-0.7,5.6-1.1,9.3-1.7c0.8-0.1,1,0.2,1,2.5
			l-0.2,13.4v1.7c0,5.9,3.5,9.9,8.7,9.9c5,0,9.1-3.6,8.7-7.7v-0.2v-13.3c0.1-5-4.9-4-4.9-4.6c0-0.9,7.1-1.6,9.4-2
			c0.5-0.1,1,0.1,1,1.8v4.3c2.9-3.5,6.4-5.2,10.5-5.2c4.4,0,7.1,1.7,9.5,5.8c3-4,6.6-5.8,11.1-5.8c6.9,0,11.1,4.8,11.1,12.7v8.7
			c0,1.7,0.3,3.5,0.8,4.1c0.6,0.9,2.7,1.8,4.2,2c0.7,0.1,1,0.3,1,0.8c0,0.5-0.3,0.7-0.9,0.7c-0.3,0-12.7,0-12.9,0
			c-0.6,0-1-0.3-1-0.8c0-0.3,0.2-0.6,0.6-0.7c2.7-1,2.9-1.3,2.9-5.5v-8c0-3.7-0.6-5.8-2.1-7.8c-1.6-2.1-3.8-3.3-6.2-3.3
			c-3.8,0-7.8,2.6-7.8,5.2c0,0.2,0,0.6,0.1,1c0.2,1.3,0.2,1.4,0.2,2.6V428c0,4,1,5.2,4.8,5.6c0.9,0.1,1.3,0.4,1.3,0.9
			c0,0.5-0.4,0.7-1,0.7c0,0-12.7,0-13,0c-0.5,0-1-0.2-1-0.8c0-0.2,0.2-0.5,0.7-0.6c2.7-1,2.8-1.1,2.8-5.2V418c0-5.5-3-8.8-8-8.8
			c-4.6,0-7.7,2.5-7.7,6.4v12.8c0,1,0.1,1.9,0.1,2.7c0.4,2.2,5.1,2,5.1,2.3c0,0.4-0.1,0.6-0.4,0.6C-92,434.1-101,435.1-101,435.1z"
			/>
	</g>
	<g>
		<g>
			<path class="st0" d="M149.4,409.4l6.3,12.1c1.7,0.1,3.4,0.2,5.1,0.3l-8.7-15.7h-5.2l-7.9,14.5c1.5,0.1,2.9,0.1,4.4,0.2
				L149.4,409.4z"/>
		</g>
		<g>
			<path class="st0" d="M182.3,406.1h-4.8V423c1.6,0.1,3.2,0.3,4.8,0.4V406.1z"/>
		</g>
		<g>
			<path class="st0" d="M162.8,435h5.3l-7.4-13.2c-1.7-0.1-3.4-0.2-5.1-0.3L162.8,435z"/>
		</g>
		<g>
			<path class="st0" d="M135.9,435l7.5-14.2c-1.5-0.1-2.9-0.1-4.4-0.2l-7.9,14.4H135.9z"/>
		</g>
		<g>
			<path class="st0" d="M204.3,435v-4h-21.9v-7.6c-1.6-0.1-3.2-0.3-4.8-0.4v12H204.3z"/>
		</g>
		<g>
			<polygon class="st0" points="-18.3,406.1 -27.1,423.4 -27.1,423.4 			"/>
		</g>
		<g>
			<path class="st0" d="M-43.3,406.1h-5.2l10,18.4c1.5-0.2,3.1-0.3,4.7-0.4L-43.3,406.1z"/>
		</g>
		<g>
			<path class="st0" d="M0.6,406.1h-4.8v15.6c1.6-0.1,3.2-0.2,4.8-0.3V406.1z"/>
		</g>
		<g>
			<path class="st0" d="M69.6,410h13.3v-3.9H51.6v3.9h13.2v9.3c1.6,0,3.2,0,4.8,0V410z"/>
		</g>
		<g>
			<path class="st0" d="M121.7,406.1h-4.8v13.7c1.6,0,3.2,0.1,4.8,0.1V406.1z"/>
		</g>
		<g>
			<path class="st0" d="M95.8,406.1H91v13.2c1.6,0,3.2,0,4.8,0.1V406.1z"/>
		</g>
		<g>
			<path class="st0" d="M29,420v0.1c1.1,0,2.2-0.1,3.2-0.1H29z"/>
		</g>
		<g>
			<path class="st0" d="M20.5,409.8h16.6c1.2,0,2,0.2,2.4,0.6c0.5,0.4,0.7,1.2,0.7,2.3v4.2c0,1.2-0.2,1.9-0.7,2.4
				c-0.2,0.2-0.5,0.3-0.8,0.4c2.1-0.1,4.2-0.1,6.2-0.2c0.1-0.5,0.1-1,0.1-1.5v-6.4c0-2-0.5-3.4-1.5-4.3c-1-0.9-2.5-1.3-4.6-1.3H15.7
				v14.6c1.6-0.1,3.2-0.1,4.8-0.2V409.8z"/>
		</g>
		<g>
			<polygon class="st0" points="-22.4,423 -13.5,406.1 -22.4,423 			"/>
		</g>
		<g>
			<path class="st0" d="M-22.4,423l8.9-16.9h-4.8l-8.8,17.3C-25.5,423.3-24,423.1-22.4,423z"/>
		</g>
		<g class="st1">
			<path class="st0" d="M37.1,420c0.6,0,1.2-0.1,1.6-0.2c-2.2,0.1-4.3,0.1-6.4,0.2H37.1z"/>
		</g>
		<g>
			<path class="st0" d="M-32.7,435l2.2-4.8l3.4-6.8l0,0l-3.4,6.8l-3.3-6.2c-1.6,0.1-3.1,0.3-4.7,0.4L-32.7,435L-32.7,435z"/>
		</g>
		<g>
			<path class="st0" d="M0.6,435v-13.6c-1.6,0.1-3.2,0.2-4.8,0.3V435H0.6z"/>
		</g>
		<g>
			<path class="st0" d="M69.6,435v-15.7c-1.6,0-3.2,0-4.8,0V435H69.6z"/>
		</g>
		<g>
			<path class="st0" d="M92.5,433.6c1,1,2.7,1.4,5.4,1.4H115c2.6,0,4.4-0.5,5.3-1.4c0.9-1,1.4-2.8,1.4-5.4v-8.2
				c-1.6-0.1-3.2-0.1-4.8-0.1V431H95.8v-11.6c-1.6,0-3.2,0-4.8-0.1v8.9C91,430.8,91.5,432.6,92.5,433.6z"/>
		</g>
		<g>
			<path class="st0" d="M20.5,435v-14.6c-1.6,0.1-3.2,0.1-4.8,0.2V435H20.5z"/>
		</g>
		<g>
			<path class="st0" d="M37.1,420h-4.8c-1.1,0-2.2,0.1-3.2,0.1v3.7L40.8,435h7.2l-13.2-11.3h4.3c2.1,0,3.7-0.4,4.6-1.3
				c0.7-0.6,1.1-1.6,1.3-2.8c-2.1,0.1-4.2,0.1-6.2,0.2C38.3,419.9,37.7,420,37.1,420z"/>
		</g>
		<g>
			<path class="st0" d="M-22.4,423c-1.6,0.1-3.1,0.3-4.7,0.4l-3.4,6.8l-2.2,4.8h4L-22.4,423z"/>
		</g>
		<g>
			<path class="st0" d="M129.7,424.5l-1.3,2.9c16.5-0.3,34.8-3,39.1-9.9c-7.9,4-20.3,6.5-32.8,6.9c-0.4,0-3.5,0.1-3.5,0.1
				L129.7,424.5z"/>
		</g>
	</g>
</g>
</svg>
