<?xml version="1.0" encoding="utf-8"?>
<!-- Generator: Adobe Illustrator 19.0.0, SVG Export Plug-In . SVG Version: 6.00 Build 0)  -->
<svg version="1.1" id="Layer_1" xmlns="http://www.w3.org/2000/svg" xmlns:xlink="http://www.w3.org/1999/xlink" x="0px" y="0px"
	 width="349.2px" height="72.6px" viewBox="-122 384.3 349.2 72.6" style="enable-background:new -122 384.3 349.2 72.6;"
	 xml:space="preserve">
<style type="text/css">
	.st0{fill:#3E8ABC;}
	.st1{fill-rule:evenodd;clip-rule:evenodd;fill:#3E8ABC;}
</style>
<g>
	<g>
		<path class="st0" d="M-73.6,440.4c-1.7-3.4-2.5-8,1.1-13.1c2.8-4,5.9-7.4,3.6-15c4.5,5.2,5.9,11.5,4.1,16.2
			C-66.9,434.2-71.8,435.2-73.6,440.4z"/>
		<path class="st0" d="M-85.4,441.9c-9.9-1.4-20.2-14.2-9.9-27.9c9.8-13.1,16.2-19.4,9.5-29.2c10.2,8.6,5.7,19.4-2.5,32.1
			C-92.6,423.4-94.8,434.1-85.4,441.9z"/>
		<path class="st0" d="M-114.3,447.4c0,0,4-0.6,14.7-3.5c5.6-1.5,11.9-0.4,14.5,2.2c2.3,2.4,3.1,5.3,3.3,5.7
			c0.3,0.7,0.6,2.3,0.6,2.3s0.9-2.5,1.2-3c0.2-0.3,1.4-0.3,2.3-2.7c0.7-1.7,0-4.2-3.1-6.4c-6.8-4.8-7.7-16.4-1.7-25.1
			c7.4-10.8,8.4-16.6,5.1-21.6c11.5,10.4,4.9,21.3,1.1,26.8c-3.3,4.8-4.4,8.9-3.4,13.5c0.2,1,0.4,2.5,1.3,4.1c0.8,1.3,2.2,4.8,4.3,4
			c3.4-1.3,6.8-0.5,12.5,0.8c9.7,2.1,13.3,2.7,13.3,2.7l7.3,10c0,0-17.7-3.4-24-4.3c-7.1-1-13.8,0.1-16.1,4.2
			c-2.4-4.1-8.9-5.2-15.7-4.3c-6.2,0.9-24.3,4.4-24.3,4.4L-114.3,447.4z"/>
	</g>
	<g>
		<g>
			<path class="st1" d="M-34.5,456.7v-0.6c1-0.1,1.8-0.4,2.3-0.8c0.5-0.4,0.9-1.2,1.2-2.3c0.2-0.7,0.4-1.8,0.6-3.3
				c0.2-1.5,0.5-3.2,0.7-5.3c0.2-1.8,0.4-3.3,0.5-4.6c0.1-1.3,0.2-2.1,0.2-2.5c0-1-0.3-1.8-0.9-2.3c-0.6-0.5-1.5-0.8-2.7-0.9v-0.6
				c0.5,0,0.9,0,1.5,0c0.5,0,1.3,0,2.3,0c1,0,1.7,0,2.2,0c0.5,0,0.9,0,1.3,0v0.5c-0.1,0.1-0.2,0.2-0.3,0.4c-0.1,0.1-0.1,0.2-0.1,0.3
				c0,0.7,0.6,2.4,1.8,5.1c0,0.1,0.1,0.2,0.1,0.2l5.2,11.5l6.3-14.1c0,0,0-0.1,0.1-0.2c0.4-0.9,0.6-1.7,0.6-2.3c0-0.2,0-0.4-0.1-0.6
				c0-0.2-0.1-0.3-0.3-0.4v-0.5c0.4,0,0.9,0,1.4,0c0.5,0,1.3,0,2.3,0c1.1,0,1.9,0,2.4,0c0.5,0,1.1,0,1.5,0v0.6c-1.2,0-2.1,0.4-2.7,1
				c-0.6,0.6-0.8,1.6-0.8,3c0,0.2,0,0.4,0,0.8c0,0.4,0,0.8,0.1,1.4l0.7,10.7c0.1,2.1,0.5,3.4,1,4c0.5,0.5,1.5,0.9,2.9,1v0.6
				c-1.2,0-2.1,0-2.9,0c-0.8,0-1.5,0-2.3,0c-1.2,0-3,0-5.6,0.1h-0.4V456c1.7-0.2,2.8-0.5,3.3-1.1c0.6-0.5,0.9-1.4,0.9-2.7
				c0-0.3,0-0.5,0-0.6c0-0.1,0-0.3,0-0.4l-0.8-13.8l-5.1,11.3c-0.4,0.9-0.9,2.1-1.5,3.4c-0.6,1.3-1.2,2.9-2,4.8h-0.3
				c-0.4-1-0.9-2-1.3-3c-0.4-1.1-0.7-1.6-0.7-1.7l-6.2-13.8l-0.5,4.4c-0.2,2-0.4,3.8-0.5,5.5c-0.1,1.7-0.2,3-0.2,4
				c0,1.3,0.3,2.2,0.8,2.7c0.5,0.5,1.6,0.9,3.3,1.1v0.6c-0.1,0-0.2,0-0.3,0c-2.2,0-3.8-0.1-4.8-0.1c-0.6,0-1.2,0-1.8,0
				C-32.5,456.6-33.4,456.6-34.5,456.7z"/>
			<path class="st1" d="M1.9,446.3c0,2.9,0.7,5.3,2.1,7.1c1.4,1.8,3.2,2.7,5.3,2.7c2.1,0,3.8-0.8,5.1-2.4c1.3-1.6,1.9-3.8,1.9-6.5
				c0-1.2-0.2-2.4-0.5-3.5c-0.3-1.1-0.7-2.1-1.3-2.9c-0.8-1.1-1.6-2-2.5-2.5c-0.9-0.5-2-0.8-3.2-0.8c-2.1,0-3.8,0.8-5.1,2.4
				C2.6,441.6,1.9,443.7,1.9,446.3z M-1.4,446.7c0-3.1,1-5.5,2.9-7.3c1.9-1.8,4.5-2.7,7.8-2.7c3.2,0,5.7,0.9,7.6,2.8
				c1.9,1.9,2.9,4.4,2.9,7.5c0,3-1,5.4-2.9,7.3c-2,1.8-4.5,2.7-7.8,2.7c-3.2,0-5.7-0.9-7.6-2.8C-0.5,452.3-1.4,449.8-1.4,446.7z"/>
			<path class="st1" d="M20.9,456.7l0-0.5c1.5-0.1,2.4-0.5,3-1.4c0.5-0.9,0.8-2.7,0.8-5.4v-5.4c0-0.2,0-0.6,0-1c0-0.4,0-0.7,0-0.9
				c0-0.9-0.1-1.6-0.3-2.1c-0.2-0.5-0.5-0.9-0.9-1.3c-0.4-0.3-0.8-0.6-1.3-0.8c-0.5-0.2-1.1-0.3-1.7-0.4V437c0.3,0,0.7,0,1.3,0
				c0.6,0,1,0,1.3,0c0.3,0,0.7,0,1.2,0c0.5,0,0.9,0,1.1,0l14.1,15.1v-6.5c0-2.4-0.1-4.1-0.2-4.9c-0.1-0.9-0.4-1.5-0.7-1.9
				c-0.3-0.4-0.7-0.6-1.2-0.9c-0.5-0.2-1.2-0.3-1.9-0.4V437c0.5,0,1,0,1.6,0c0.6,0,1.4,0,2.5,0c1.1,0,1.9,0,2.4,0c0.5,0,1,0,1.4,0
				v0.5h-0.2c-1,0-1.7,0.5-2.1,1.5c-0.4,1-0.6,2.9-0.6,5.6v6c0,1.4,0,2.6,0,3.7c0,1.1,0,2.1,0.1,3h-0.2c-0.6-0.7-1.2-1.4-1.8-2.1
				c-0.7-0.8-1-1.2-1.1-1.3l-11.9-12.6v5.6c0,2.7,0.1,4.6,0.2,5.5c0.1,0.9,0.3,1.6,0.5,2c0.2,0.4,0.6,0.7,1.2,1
				c0.5,0.3,1.3,0.5,2.3,0.7v0.5c0,0,0,0-0.1,0c-1.9,0-3.4-0.1-4.3-0.1c-0.5,0-1.1,0-1.7,0C23,456.6,22.1,456.6,20.9,456.7z"/>
			<path class="st1" d="M54.9,450.7c0,1.4,0.1,2.4,0.2,3c0.1,0.6,0.3,1,0.6,1.3c0.3,0.3,0.7,0.5,1.2,0.7c0.5,0.2,1.1,0.3,1.9,0.5
				l0,0.5c-1.4,0-2.4,0-3.2,0c-0.7,0-1.4,0-2,0c-1.1,0-2.9,0-5.1,0.1h-0.1v-0.5c0.8-0.1,1.4-0.3,1.9-0.5c0.5-0.2,0.9-0.4,1.2-0.7
				c0.3-0.3,0.5-0.7,0.6-1.3c0.1-0.6,0.2-1.6,0.2-3V438h-2c-1.8,0-3,0.3-3.9,0.8c-0.8,0.5-1.4,1.5-1.7,2.8l-0.5-0.1l0.5-5.4H45
				l0.9,0.9c0.9,0,2.2,0,3.9,0c1.7,0,3,0,3.9,0c0.8,0,2.1,0,3.8,0c1.7,0,2.9,0,3.8,0l0.9-0.9h0.2l0.5,5.5l-0.5,0.1
				c-0.3-1.3-0.9-2.3-1.7-2.9c-0.8-0.6-2-0.9-3.7-0.9h-2.1V450.7z"/>
			<path class="st1" d="M63.3,456.7v-0.5c1.5-0.2,2.5-0.5,3-1c0.5-0.5,0.7-1.4,0.7-2.9v-10.8c0-1.6-0.2-2.6-0.7-3.1
				c-0.5-0.5-1.4-0.8-2.7-0.8V437c0.9,0,1.9,0,2.9,0c1,0,2.5,0,4.5,0c2.3,0,4,0,5.1,0c1.1,0,2,0,2.9,0c-0.1,0.6-0.2,1.3-0.2,2
				c-0.1,0.7-0.1,1.5-0.2,2.5h-0.4c-0.1-1.4-0.5-2.3-1.2-2.9c-0.7-0.5-1.9-0.8-3.6-0.8h-3.7v8.1h2.8c1.6,0,2.6-0.2,3.2-0.6
				c0.6-0.4,1-1.1,1.1-2.1h0.5c0,0.5,0,1.3-0.1,2.4c0,1.1-0.1,2-0.1,2.6v1.6h-0.4c-0.1-1-0.4-1.7-1-2.1c-0.6-0.4-1.7-0.6-3.2-0.6
				h-2.9v5c0,1.5,0.3,2.5,0.9,3c0.6,0.5,1.8,0.7,3.6,0.7c1.7,0,3-0.4,3.9-1.2c0.9-0.8,1.6-2.1,1.9-3.8l0.4,0.1
				c-0.1,1.1-0.2,2.1-0.3,3c-0.2,1-0.4,1.9-0.7,2.7c-1.3,0-2.8-0.1-4.4-0.1c-1.6,0-3.3,0-5.2,0c-1.7,0-3.1,0-4,0
				C65,456.6,64.1,456.6,63.3,456.7z"/>
			<path class="st1" d="M80.9,456.7v-0.5c0.9-0.1,1.5-0.3,2-0.7c0.4-0.4,0.8-1,1-1.9c0.2-0.6,0.3-1.6,0.5-2.8
				c0.2-1.2,0.4-2.7,0.6-4.5c0.2-1.5,0.3-2.8,0.4-3.9c0.1-1.1,0.2-1.8,0.2-2.1c0-0.8-0.2-1.5-0.7-1.9c-0.5-0.4-1.3-0.7-2.3-0.8V437
				c0.4,0,0.8,0,1.2,0c0.4,0,1.1,0,1.9,0c0.9,0,1.5,0,1.9,0c0.4,0,0.8,0,1.1,0v0.4c-0.1,0.1-0.2,0.2-0.2,0.3
				c-0.1,0.1-0.1,0.2-0.1,0.3c0,0.6,0.5,2,1.5,4.3c0,0.1,0.1,0.1,0.1,0.2l4.4,9.8l5.4-12c0,0,0-0.1,0.1-0.1c0.4-0.8,0.6-1.4,0.6-1.9
				c0-0.2,0-0.4-0.1-0.5c0-0.1-0.1-0.3-0.2-0.4V437c0.3,0,0.7,0,1.2,0c0.4,0,1.1,0,1.9,0c0.9,0,1.6,0,2,0c0.5,0,0.9,0,1.3,0v0.5
				c-1,0-1.8,0.3-2.3,0.9c-0.5,0.5-0.7,1.4-0.7,2.5c0,0.1,0,0.4,0,0.7c0,0.3,0,0.7,0.1,1.2l0.6,9.1c0.1,1.8,0.4,2.9,0.8,3.4
				c0.4,0.5,1.2,0.7,2.4,0.9v0.5c-1,0-1.8,0-2.5,0c-0.7,0-1.3,0-1.9,0c-1,0-2.6,0-4.8,0.1H98v-0.5c1.4-0.2,2.4-0.5,2.8-0.9
				c0.5-0.4,0.7-1.2,0.7-2.3c0-0.2,0-0.4,0-0.5c0-0.1,0-0.2,0-0.3l-0.7-11.7l-4.3,9.6c-0.4,0.8-0.8,1.8-1.3,2.9
				c-0.5,1.1-1,2.5-1.7,4.1h-0.3c-0.4-0.8-0.7-1.7-1.1-2.6c-0.4-0.9-0.6-1.4-0.6-1.4l-5.2-11.7l-0.4,3.8c-0.2,1.7-0.3,3.2-0.4,4.6
				c-0.1,1.4-0.1,2.6-0.1,3.4c0,1.1,0.2,1.9,0.7,2.3c0.5,0.4,1.4,0.7,2.8,0.9v0.5c-0.1,0-0.1,0-0.2,0c-1.9,0-3.2-0.1-4.1-0.1
				c-0.5,0-1,0-1.6,0C82.5,456.6,81.8,456.6,80.9,456.7z"/>
			<path class="st1" d="M112.4,446.3c0,2.9,0.7,5.3,2.1,7.1c1.4,1.8,3.2,2.7,5.3,2.7c2.1,0,3.8-0.8,5.1-2.4c1.3-1.6,1.9-3.8,1.9-6.5
				c0-1.2-0.2-2.4-0.5-3.5c-0.3-1.1-0.7-2.1-1.3-2.9c-0.8-1.1-1.6-2-2.5-2.5c-0.9-0.5-2-0.8-3.2-0.8c-2.1,0-3.8,0.8-5.1,2.4
				C113.1,441.6,112.4,443.7,112.4,446.3z M109.1,446.7c0-3.1,1-5.5,2.9-7.3c1.9-1.8,4.5-2.7,7.8-2.7c3.2,0,5.7,0.9,7.6,2.8
				c1.9,1.9,2.9,4.4,2.9,7.5c0,3-1,5.4-2.9,7.3c-1.9,1.8-4.5,2.7-7.8,2.7c-3.2,0-5.7-0.9-7.6-2.8C110,452.3,109.1,449.8,109.1,446.7
				z"/>
			<path class="st1" d="M138.4,446.8c2-0.1,3.5-0.6,4.5-1.4c1-0.8,1.6-1.9,1.6-3.3c0-1.4-0.5-2.5-1.6-3.3c-1.1-0.8-2.6-1.3-4.5-1.3
				V446.8z M132.2,456.7l0-0.5c1.4-0.1,2.4-0.4,2.9-0.9c0.5-0.5,0.7-1.8,0.7-3.9v-9.4c0-1.2-0.1-2-0.2-2.5c-0.1-0.5-0.3-0.8-0.6-1.1
				c-0.2-0.2-0.5-0.4-0.9-0.5c-0.4-0.1-0.9-0.3-1.6-0.4V437c2.1,0,4.3,0,6.5-0.1c0.6,0,0.9,0,1,0c2.5,0,4.3,0.4,5.5,1.2
				c1.2,0.8,1.8,2,1.8,3.7c0,1-0.3,1.9-0.9,2.7c-0.6,0.8-1.4,1.4-2.6,1.9c1.7,3.3,3.4,5.8,5,7.4c1.5,1.6,3.2,2.5,4.9,2.8l-0.1,0.5
				c-0.1,0-0.3,0-0.6,0c-2.5-0.1-4.2-0.4-5-0.7c-0.5-0.2-1.1-0.6-1.6-1.1c-0.5-0.5-1.1-1.3-1.8-2.4c-0.5-0.7-1-1.6-1.6-2.6
				c-0.6-1-0.9-1.6-1.1-1.8c-0.2-0.2-0.4-0.4-0.7-0.6c-0.3-0.1-0.8-0.2-1.5-0.3l-1.4-0.2v4.1c0,1.9,0.3,3.2,0.8,3.8
				c0.6,0.6,1.6,0.9,3.3,1v0.5c-1.5,0-2.6,0-3.3,0c-0.7,0-1.4,0-2,0c-0.6,0-1.3,0-2,0C134.5,456.6,133.5,456.6,132.2,456.7z"/>
			<path class="st1" d="M153.6,456.7v-0.5c1.5-0.2,2.5-0.5,3-1c0.5-0.5,0.7-1.4,0.7-2.9v-10.8c0-1.6-0.2-2.6-0.7-3.1
				c-0.5-0.5-1.4-0.8-2.7-0.8V437c0.9,0,1.9,0,2.9,0c1,0,2.5,0,4.5,0c2.3,0,4,0,5.1,0c1.1,0,2,0,2.9,0c-0.1,0.6-0.2,1.3-0.2,2
				c-0.1,0.7-0.1,1.5-0.2,2.5h-0.4c-0.1-1.4-0.5-2.3-1.2-2.9c-0.7-0.5-1.9-0.8-3.7-0.8H160v8.1h2.8c1.5,0,2.6-0.2,3.2-0.6
				c0.6-0.4,1-1.1,1.1-2.1h0.5c0,0.5,0,1.3-0.1,2.4c0,1.1-0.1,2-0.1,2.6v1.6h-0.4c-0.1-1-0.4-1.7-1-2.1c-0.6-0.4-1.7-0.6-3.2-0.6
				H160v5c0,1.5,0.3,2.5,0.9,3c0.6,0.5,1.8,0.7,3.6,0.7c1.7,0,3-0.4,3.9-1.2c0.9-0.8,1.6-2.1,1.9-3.8l0.5,0.1
				c-0.1,1.1-0.2,2.1-0.3,3c-0.2,1-0.4,1.9-0.7,2.7c-1.3,0-2.8-0.1-4.4-0.1c-1.6,0-3.3,0-5.2,0c-1.7,0-3.1,0-4,0
				C155.3,456.6,154.4,456.6,153.6,456.7z"/>
			<path class="st1" d="M172.4,456.7v-0.5c1.5-0.1,2.4-0.4,2.9-1c0.5-0.5,0.7-1.8,0.7-3.8v-9.5c0-1.7-0.2-2.8-0.7-3.3
				c-0.5-0.5-1.5-0.8-2.9-1V437c0.6,0,1.2,0,1.9,0c0.7,0,1.7,0,3,0c1.4,0,2.4,0,3.1,0c0.7,0,1.3,0,1.9,0v0.5c-1.4,0.1-2.4,0.4-2.9,1
				c-0.5,0.5-0.7,1.6-0.7,3.3v9.5c0,1.4,0,2.3,0.1,2.8c0.1,0.5,0.1,0.8,0.3,1.1c0.1,0.2,0.4,0.4,0.8,0.5c0.4,0.1,1.3,0.1,2.5,0.1
				c1.3,0,2.3-0.1,2.9-0.2c0.6-0.1,1.1-0.3,1.5-0.6c0.6-0.3,1.1-0.8,1.6-1.4c0.5-0.6,1-1.4,1.6-2.5l0.4,0.2l-1.6,5.4
				c-1.7,0-3.3,0-4.6-0.1c-1.3,0-2.7,0-3.9,0c-0.7,0-2,0-3.7,0C174.6,456.6,173.3,456.7,172.4,456.7z"/>
			<path class="st1" d="M194.9,446.3c0,2.9,0.7,5.3,2.1,7.1c1.4,1.8,3.2,2.7,5.3,2.7c2.1,0,3.8-0.8,5.1-2.4c1.3-1.6,1.9-3.8,1.9-6.5
				c0-1.2-0.2-2.4-0.5-3.5c-0.3-1.1-0.7-2.1-1.3-2.9c-0.8-1.1-1.6-2-2.5-2.5c-0.9-0.5-2-0.8-3.2-0.8c-2.1,0-3.8,0.8-5.1,2.4
				C195.5,441.6,194.9,443.7,194.9,446.3z M191.5,446.7c0-3.1,1-5.5,2.9-7.3c1.9-1.8,4.5-2.7,7.8-2.7c3.2,0,5.7,0.9,7.6,2.8
				c1.9,1.9,2.9,4.4,2.9,7.5c0,3-1,5.4-2.9,7.3c-1.9,1.8-4.5,2.7-7.8,2.7c-3.2,0-5.7-0.9-7.6-2.8
				C192.5,452.3,191.5,449.8,191.5,446.7z"/>
			<path class="st1" d="M215.1,450.7l0.5,0c0.5,1.8,1.3,3.2,2.3,4.1c1,0.9,2.2,1.4,3.6,1.4c1.1,0,2-0.3,2.7-1
				c0.7-0.7,1.1-1.5,1.1-2.5c0-0.8-0.2-1.6-0.7-2.3c-0.5-0.7-1.2-1.3-2.1-1.9l-2.3-1.3c-1.2-0.7-2.1-1.5-2.7-2.3
				c-0.6-0.8-0.9-1.8-0.9-2.8c0-1.6,0.6-2.9,1.8-3.9c1.2-1,2.7-1.6,4.5-1.6c0.8,0,1.6,0.1,2.3,0.3c0.7,0.2,1.5,0.5,2.2,0.9
				c-0.1,0.6-0.1,1.2-0.2,1.9c-0.1,0.7-0.1,1.5-0.1,2.4h-0.5c-0.2-1.6-0.7-2.8-1.3-3.6c-0.7-0.8-1.6-1.2-2.7-1.2c-1,0-1.9,0.3-2.5,1
				c-0.7,0.7-1,1.5-1,2.5c0,0.7,0.2,1.3,0.6,2c0.4,0.6,1,1.2,1.8,1.7l3.3,2c1.1,0.7,1.9,1.4,2.5,2.2c0.5,0.8,0.8,1.7,0.8,2.8
				c0,1.6-0.7,2.9-2,4c-1.3,1.1-2.9,1.6-4.9,1.6c-1,0-2-0.1-2.9-0.4c-0.9-0.3-1.8-0.6-2.5-1.1c-0.2-0.8-0.3-1.6-0.4-2.4
				C215.3,452.4,215.2,451.6,215.1,450.7z"/>
		</g>
		<g>
			<path class="st1" d="M-30.4,414.2v-8.5c0-1.4-0.1-2.4-0.2-2.9c-0.1-0.5-0.3-0.9-0.7-1.1c-0.4-0.3-0.9-0.6-1.4-0.7
				c-0.5-0.2-1.1-0.3-1.9-0.3v-0.6c0.7,0,1.5,0,2.3,0.1c0.8,0,2,0,3.6,0c1.6,0,2.9,0,3.7,0c0.8,0,1.6,0,2.3-0.1l0,0.6
				c-1.8,0.1-3,0.4-3.7,1.1c-0.6,0.7-0.9,2-0.9,4v8.2c0,1.6,0.1,2.9,0.4,3.7c0.2,0.9,0.7,1.6,1.2,2.2c0.7,0.7,1.5,1.2,2.5,1.6
				c1,0.4,2.2,0.6,3.5,0.6c1.6,0,2.9-0.3,3.9-0.9c1-0.6,1.8-1.5,2.4-2.8c0.3-0.6,0.5-1.6,0.6-2.8c0.1-1.2,0.2-3.1,0.2-5.8
				c0-2.6-0.1-4.4-0.2-5.4c-0.1-1-0.4-1.8-0.7-2.2c-0.4-0.6-0.9-1-1.6-1.3c-0.7-0.3-1.6-0.4-2.6-0.4v-0.6c0.6,0,1.2,0,1.9,0.1
				c0.7,0,1.7,0,3,0c1.4,0,2.4,0,3.1,0c0.7,0,1.3,0,1.9-0.1v0.6h-0.1c-1.3,0-2.2,0.5-2.7,1.5c-0.5,1-0.7,3.5-0.7,7.6
				c0,0.3,0,0.9,0,1.6c0,3.8-0.4,6.3-0.9,7.7c-0.7,1.6-1.8,2.7-3.3,3.5c-1.5,0.8-3.5,1.2-5.8,1.2c-1.8,0-3.4-0.2-4.7-0.7
				c-1.3-0.5-2.3-1.2-3-2.2c-0.5-0.7-0.8-1.4-1-2.3C-30.3,417.5-30.4,416.1-30.4,414.2z"/>
			<path class="st1" d="M-7.2,423.1l0-0.5c1.4-0.1,2.4-0.5,3-1.4c0.5-0.9,0.8-2.7,0.8-5.4v-5.4c0-0.2,0-0.6,0-1c0-0.4,0-0.7,0-0.9
				c0-0.9-0.1-1.6-0.3-2.1c-0.2-0.5-0.5-0.9-0.9-1.3c-0.4-0.3-0.8-0.6-1.3-0.8c-0.5-0.2-1.1-0.3-1.7-0.4v-0.5c0.3,0,0.7,0,1.3,0
				c0.6,0,1,0,1.3,0c0.3,0,0.7,0,1.2,0c0.5,0,0.9,0,1.1,0l14.1,15.1V412c0-2.4-0.1-4.1-0.2-4.9c-0.1-0.9-0.4-1.5-0.7-1.9
				c-0.3-0.4-0.7-0.6-1.2-0.9c-0.5-0.2-1.2-0.3-1.9-0.4v-0.5c0.5,0,1,0,1.6,0c0.6,0,1.4,0,2.5,0c1.1,0,1.9,0,2.4,0c0.5,0,1,0,1.4,0
				v0.5h-0.2c-1,0-1.7,0.5-2.1,1.5c-0.4,1-0.6,2.9-0.6,5.6v6c0,1.4,0,2.6,0,3.7c0,1.1,0,2.1,0.1,3h-0.2c-0.6-0.7-1.2-1.4-1.8-2.1
				c-0.7-0.8-1-1.2-1.1-1.3l-11.9-12.6v5.6c0,2.7,0.1,4.6,0.2,5.5c0.1,0.9,0.3,1.6,0.5,2c0.2,0.4,0.6,0.7,1.2,1
				c0.5,0.3,1.3,0.5,2.3,0.7v0.5c0,0,0,0-0.1,0c-1.9,0-3.4-0.1-4.3-0.1c-0.5,0-1.1,0-1.7,0C-5.2,423-6.1,423.1-7.2,423.1z"/>
			<path class="st1" d="M16.5,423.1v-0.5c1.4-0.1,2.4-0.4,2.9-0.9c0.5-0.5,0.8-1.6,0.8-3.4v-10.1c0-1.7-0.2-2.9-0.7-3.4
				c-0.5-0.5-1.5-0.8-2.9-0.9v-0.5c0.6,0,1.4,0,2.6,0c1.1,0,2,0,2.5,0c0.6,0,1.4,0,2.5,0c1.1,0,1.9,0,2.5,0v0.5
				c-1.5,0.1-2.4,0.4-2.9,0.9c-0.5,0.5-0.7,1.6-0.7,3.3v10.1c0,1.7,0.3,2.9,0.8,3.4c0.5,0.5,1.5,0.8,2.9,0.9l0,0.5
				c-1.4,0-2.4,0-3.1,0c-0.7,0-1.3,0-1.9,0c-0.6,0-1.2,0-1.9,0C18.9,423,17.9,423,16.5,423.1z"/>
			<path class="st1" d="M37.8,424.1L31.1,408c-0.6-1.6-1.2-2.6-1.8-3.2c-0.6-0.5-1.3-0.8-2.2-0.9v-0.5c0.5,0,1.1,0,1.7,0
				c0.6,0,1.5,0,2.8,0c1.3,0,2.2,0,2.9,0c0.7,0,1.3,0,1.8,0v0.5c-1,0-1.7,0.2-2.1,0.4c-0.5,0.3-0.7,0.6-0.7,1.2c0,0.3,0.1,1,0.4,1.9
				c0.3,0.9,0.7,2,1.2,3.2l3.8,9.2l3.8-9.2c0.5-1.2,0.9-2.2,1.1-3c0.2-0.8,0.4-1.4,0.4-1.8c0-0.6-0.2-1-0.7-1.3
				c-0.5-0.3-1.3-0.4-2.4-0.5v-0.5c0.5,0,1.1,0,1.6,0c0.6,0,1.4,0,2.6,0c1.1,0,1.9,0,2.4,0c0.5,0,1,0,1.5,0v0.5h-0.1
				c-1,0-1.8,0.4-2.5,1.2c-0.7,0.8-1.6,2.6-2.7,5.3l-3.5,8.6c-0.1,0.2-0.4,1-0.9,2.3c-0.4,1.1-0.8,2.1-1.1,2.8H37.8z"/>
			<path class="st1" d="M49.3,423.1v-0.5c1.5-0.2,2.5-0.5,3-1c0.5-0.5,0.7-1.4,0.7-2.9v-10.8c0-1.6-0.2-2.6-0.7-3.1
				c-0.5-0.5-1.4-0.8-2.7-0.8v-0.5c0.9,0,1.9,0,2.9,0c1,0,2.5,0,4.5,0c2.3,0,4,0,5.1,0c1.1,0,2,0,2.9,0c-0.1,0.6-0.2,1.3-0.2,2
				c-0.1,0.7-0.1,1.5-0.2,2.5h-0.4c-0.1-1.4-0.5-2.3-1.2-2.9c-0.7-0.5-1.9-0.8-3.6-0.8h-3.7v8.1h2.8c1.6,0,2.6-0.2,3.2-0.6
				c0.6-0.4,1-1.1,1.1-2.1h0.5c0,0.5,0,1.3-0.1,2.4c0,1.1-0.1,2-0.1,2.6v1.6h-0.4c-0.1-1-0.4-1.7-1-2.1c-0.6-0.4-1.7-0.6-3.2-0.6
				h-2.9v5c0,1.5,0.3,2.5,0.9,3c0.6,0.5,1.8,0.7,3.6,0.7c1.7,0,3-0.4,3.9-1.2c0.9-0.8,1.6-2.1,1.9-3.8l0.5,0.1
				c-0.1,1.1-0.2,2.1-0.3,3c-0.2,1-0.4,1.9-0.7,2.7c-1.3,0-2.8-0.1-4.4-0.1c-1.6,0-3.3,0-5.2,0c-1.7,0-3.1,0-4,0
				C51,423,50.1,423.1,49.3,423.1z"/>
			<path class="st1" d="M74.5,413.2c2-0.1,3.5-0.6,4.5-1.4c1-0.8,1.6-1.9,1.6-3.3c0-1.4-0.5-2.5-1.6-3.3c-1.1-0.8-2.5-1.3-4.5-1.3
				V413.2z M68.3,423.1l0-0.5c1.4-0.1,2.4-0.4,2.9-0.9c0.5-0.5,0.7-1.8,0.7-3.9v-9.4c0-1.2-0.1-2-0.2-2.5c-0.1-0.5-0.3-0.8-0.6-1.1
				c-0.2-0.2-0.5-0.4-0.9-0.5c-0.4-0.1-0.9-0.3-1.6-0.4v-0.5c2.1,0,4.3,0,6.5-0.1c0.6,0,0.9,0,1,0c2.5,0,4.3,0.4,5.5,1.2
				c1.2,0.8,1.8,2,1.8,3.7c0,1-0.3,1.9-0.9,2.7c-0.6,0.8-1.4,1.4-2.6,1.9c1.8,3.3,3.4,5.8,4.9,7.4c1.5,1.6,3.2,2.5,4.9,2.8l-0.1,0.5
				c-0.1,0-0.3,0-0.6,0c-2.5-0.1-4.2-0.4-5-0.7c-0.6-0.2-1.1-0.6-1.6-1.1c-0.5-0.5-1.1-1.3-1.8-2.4c-0.5-0.7-1-1.6-1.6-2.6
				c-0.6-1-0.9-1.6-1.1-1.8c-0.2-0.2-0.4-0.4-0.7-0.5c-0.3-0.1-0.8-0.2-1.5-0.3l-1.4-0.2v4.1c0,1.9,0.3,3.2,0.8,3.8
				c0.6,0.6,1.6,0.9,3.3,1v0.5c-1.5,0-2.6,0-3.3,0c-0.7,0-1.4,0-2,0c-0.6,0-1.3,0-2,0C70.6,423,69.6,423.1,68.3,423.1z"/>
			<path class="st1" d="M90.7,417.2l0.5,0c0.5,1.8,1.3,3.2,2.3,4.1c1,0.9,2.2,1.4,3.6,1.4c1.1,0,2-0.3,2.7-1
				c0.7-0.7,1.1-1.5,1.1-2.5c0-0.8-0.2-1.6-0.7-2.3c-0.5-0.7-1.2-1.3-2.2-1.9l-2.3-1.3c-1.2-0.7-2.1-1.5-2.7-2.3
				c-0.6-0.8-0.9-1.8-0.9-2.8c0-1.6,0.6-2.9,1.8-3.9c1.2-1,2.7-1.6,4.5-1.6c0.8,0,1.6,0.1,2.3,0.3c0.7,0.2,1.5,0.5,2.2,0.9
				c-0.1,0.6-0.1,1.2-0.2,1.9c-0.1,0.7-0.1,1.5-0.1,2.4h-0.5c-0.2-1.6-0.7-2.8-1.3-3.6c-0.7-0.8-1.6-1.2-2.7-1.2c-1,0-1.9,0.3-2.5,1
				c-0.7,0.7-1,1.5-1,2.5c0,0.7,0.2,1.3,0.6,2c0.4,0.6,1,1.2,1.8,1.7l3.3,2c1.1,0.7,1.9,1.4,2.5,2.2c0.5,0.8,0.8,1.7,0.8,2.8
				c0,1.6-0.7,2.9-2,4c-1.3,1.1-2.9,1.6-4.9,1.6c-1,0-2-0.1-2.9-0.4c-0.9-0.3-1.8-0.6-2.5-1.1c-0.2-0.8-0.3-1.6-0.4-2.4
				C90.8,418.8,90.7,418,90.7,417.2z"/>
			<path class="st1" d="M105.3,423.1v-0.5c1.4-0.1,2.4-0.4,2.9-0.9c0.5-0.5,0.8-1.6,0.8-3.4v-10.1c0-1.7-0.2-2.9-0.7-3.4
				c-0.5-0.5-1.5-0.8-2.9-0.9v-0.5c0.6,0,1.4,0,2.6,0c1.1,0,2,0,2.5,0c0.6,0,1.4,0,2.5,0c1.1,0,1.9,0,2.5,0v0.5
				c-1.5,0.1-2.4,0.4-2.9,0.9c-0.5,0.5-0.7,1.6-0.7,3.3v10.1c0,1.7,0.3,2.9,0.8,3.4c0.5,0.5,1.5,0.8,2.9,0.9l0,0.5
				c-1.4,0-2.4,0-3.1,0c-0.7,0-1.3,0-1.9,0c-0.6,0-1.2,0-1.9,0C107.7,423,106.7,423,105.3,423.1z"/>
			<path class="st1" d="M122.7,417.9c0,1.8,0.3,3,0.9,3.6c0.6,0.6,1.7,0.9,3.3,0.9c2.2,0,4-0.8,5.4-2.4c1.4-1.6,2.1-3.7,2.1-6.2
				c0-3.1-1-5.5-3-7.3c-2-1.8-4.8-2.6-8.4-2.6h-0.2V417.9z M116.3,423.1v-0.5c1.5-0.1,2.4-0.4,2.9-0.9c0.5-0.5,0.8-1.5,0.8-2.9
				v-11.1c0-1.3-0.2-2.2-0.7-2.7c-0.5-0.5-1.4-0.8-2.7-1v-0.5c1.6,0,3.3,0,5-0.1c1.8,0,2.8,0,3,0c4.1,0,7.3,0.9,9.7,2.7
				c2.3,1.8,3.5,4.2,3.5,7.3c0,3-1.1,5.4-3.3,7.2c-2.2,1.7-5.3,2.6-9.2,2.6c-0.8,0-2.1,0-4.2,0C119.1,423.1,117.5,423.1,116.3,423.1
				z"/>
			<path class="st1" d="M145,413.7h5.7l-2.9-7.8L145,413.7z M138.3,423.1v-0.5c0.6-0.1,1.1-0.2,1.5-0.4c0.4-0.2,0.7-0.4,0.9-0.7
				c0.4-0.4,1.3-2.6,2.8-6.6c0.3-0.9,0.6-1.6,0.8-2l3.2-8.5l-0.1-0.6c0.4-0.1,0.7-0.3,1-0.5c0.3-0.2,0.6-0.6,1-1l6.2,16.8
				c0.5,1.4,1,2.3,1.6,2.8c0.5,0.5,1.2,0.7,2.2,0.7l0,0.5c-1.1,0-1.9,0-2.5,0c-0.6,0-1.1,0-1.7,0c-0.5,0-1,0-1.6,0
				c-0.6,0-1.4,0-2.6,0l0-0.5c0.7-0.1,1.2-0.2,1.6-0.5c0.4-0.3,0.6-0.7,0.6-1.1c0-0.2,0-0.5-0.1-0.8c-0.1-0.3-0.2-0.7-0.3-1.1
				l-1.5-4.2h-6.7l-0.5,1.6c-0.4,1.1-0.6,2-0.8,2.7c-0.2,0.7-0.3,1.2-0.3,1.6c0,0.6,0.3,1,0.8,1.3c0.5,0.3,1.3,0.4,2.4,0.5v0.5
				c0,0,0,0-0.1,0c-1.9,0-3.2-0.1-4.1-0.1c-0.5,0-1,0-1.6,0C139.9,423,139.2,423.1,138.3,423.1z"/>
			<path class="st1" d="M165.5,417.9c0,1.8,0.3,3,0.9,3.6c0.6,0.6,1.7,0.9,3.3,0.9c2.2,0,4-0.8,5.4-2.4c1.4-1.6,2.1-3.7,2.1-6.2
				c0-3.1-1-5.5-3-7.3c-2-1.8-4.8-2.6-8.4-2.6h-0.2V417.9z M159.1,423.1v-0.5c1.5-0.1,2.4-0.4,2.9-0.9c0.5-0.5,0.7-1.5,0.7-2.9
				v-11.1c0-1.3-0.2-2.2-0.7-2.7c-0.5-0.5-1.4-0.8-2.7-1v-0.5c1.6,0,3.3,0,5-0.1c1.8,0,2.8,0,3,0c4.1,0,7.3,0.9,9.7,2.7
				c2.3,1.8,3.5,4.2,3.5,7.3c0,3-1.1,5.4-3.3,7.2c-2.2,1.7-5.3,2.6-9.2,2.6c-0.8,0-2.1,0-4.2,0C161.9,423.1,160.3,423.1,159.1,423.1
				z"/>
			<path class="st1" d="M195,417.9c0,1.8,0.3,3,0.9,3.6c0.6,0.6,1.7,0.9,3.3,0.9c2.2,0,4-0.8,5.4-2.4c1.4-1.6,2.1-3.7,2.1-6.2
				c0-3.1-1-5.5-3-7.3c-2-1.8-4.8-2.6-8.4-2.6H195V417.9z M188.6,423.1v-0.5c1.5-0.1,2.4-0.4,2.9-0.9c0.5-0.5,0.8-1.5,0.8-2.9v-11.1
				c0-1.3-0.2-2.2-0.7-2.7c-0.5-0.5-1.4-0.8-2.7-1v-0.5c1.6,0,3.3,0,5-0.1c1.8,0,2.8,0,3,0c4.1,0,7.3,0.9,9.7,2.7
				c2.3,1.8,3.5,4.2,3.5,7.3c0,3-1.1,5.4-3.3,7.2c-2.2,1.7-5.3,2.6-9.2,2.6c-0.8,0-2.1,0-4.2,0C191.4,423.1,189.8,423.1,188.6,423.1
				z"/>
			<path class="st1" d="M210.1,423.1v-0.5c1.5-0.2,2.5-0.5,3-1c0.5-0.5,0.7-1.4,0.7-2.9v-10.8c0-1.6-0.2-2.6-0.7-3.1
				c-0.5-0.5-1.4-0.8-2.7-0.8v-0.5c0.9,0,1.9,0,2.9,0c1,0,2.5,0,4.5,0c2.3,0,4,0,5.1,0c1.1,0,2,0,2.9,0c-0.1,0.6-0.2,1.3-0.2,2
				c-0.1,0.7-0.1,1.5-0.2,2.5H225c-0.1-1.4-0.5-2.3-1.2-2.9c-0.7-0.5-1.9-0.8-3.6-0.8h-3.7v8.1h2.8c1.5,0,2.6-0.2,3.2-0.6
				c0.6-0.4,1-1.1,1.1-2.1h0.5c0,0.5,0,1.3-0.1,2.4c0,1.1-0.1,2-0.1,2.6v1.6h-0.4c-0.1-1-0.4-1.7-1-2.1c-0.6-0.4-1.7-0.6-3.2-0.6
				h-2.9v5c0,1.5,0.3,2.5,0.9,3c0.6,0.5,1.8,0.7,3.6,0.7c1.7,0,3-0.4,3.9-1.2c0.9-0.8,1.6-2.1,1.9-3.8l0.5,0.1
				c-0.1,1.1-0.2,2.1-0.3,3c-0.2,1-0.4,1.9-0.7,2.7c-1.3,0-2.8-0.1-4.4-0.1c-1.6,0-3.3,0-5.2,0c-1.7,0-3.1,0-4,0
				C211.8,423,211,423.1,210.1,423.1z"/>
		</g>
	</g>
</g>
</svg>
