<?xml version="1.0" encoding="utf-8"?>
<!-- Generator: Adobe Illustrator 17.1.0, SVG Export Plug-In . SVG Version: 6.00 Build 0)  -->
<!DOCTYPE svg PUBLIC "-//W3C//DTD SVG 1.1//EN" "http://www.w3.org/Graphics/SVG/1.1/DTD/svg11.dtd">
<svg version="1.1" xmlns="http://www.w3.org/2000/svg" xmlns:xlink="http://www.w3.org/1999/xlink" x="0px" y="0px"
	 viewBox="0 0 503.6 102.9" enable-background="new 0 0 503.6 102.9" xml:space="preserve">
<g id="fondo">
</g>
<g id="imagen_vendedora">
</g>
<g id="titulo">
</g>
<g id="icono_x5F_slogan">
	<g>
		<g>
			<path fill="#009DAF" d="M48.1,72.9V46.6h5.4v26.3H48.1z"/>
			<path fill="#009DAF" d="M71.5,72.9L60.3,55.3v17.6h-5.1V46.6h5.8l10.4,16.9V46.6h5.1v26.3H71.5z"/>
			<path fill="#009DAF" d="M94.4,72.9L83.3,55.3v17.6h-5.1V46.6H84l10.3,16.9V46.6h5.1v26.3H94.4z"/>
			<path fill="#009DAF" d="M113.4,73.8c-4,0-7.1-1.2-9.3-3.6c-2.2-2.4-3.2-5.8-3.2-10.2c0-2.2,0.3-4.2,0.8-6
				c0.5-1.8,1.4-3.3,2.4-4.5c1.1-1.2,2.4-2.2,3.9-2.8c1.5-0.6,3.3-1,5.3-1c2,0,3.8,0.3,5.3,1c1.6,0.6,2.9,1.6,3.9,2.8
				c1,1.2,1.8,2.7,2.4,4.5c0.5,1.8,0.8,3.8,0.8,6c0,4.5-1.1,7.9-3.2,10.2C120.5,72.7,117.4,73.8,113.4,73.8z M113.4,69.1
				c1,0,1.9-0.2,2.7-0.5c0.9-0.4,1.6-0.9,2.2-1.6c0.6-0.7,1.1-1.7,1.5-2.8c0.4-1.1,0.5-2.5,0.5-4c0-3.1-0.6-5.5-1.8-7.1
				c-1.2-1.6-2.9-2.4-5.2-2.4c-2.3,0-4.1,0.8-5.3,2.4c-1.2,1.6-1.8,4-1.8,7.1c0,3.1,0.6,5.4,1.9,6.8
				C109.4,68.4,111.1,69.1,113.4,69.1z"/>
			<path fill="#009DAF" d="M133.5,72.9l-8.8-26.3h5.8l5.7,18.4l5.6-18.4h5.6l-8.8,26.3H133.5z"/>
			<path fill="#009DAF" d="M159.7,72.9l-1.6-5.4h-9.6l-1.8,5.4h-5.8l9.3-26.3h6.3l9.2,26.3H159.7z M153.2,52.5L153.2,52.5L149.8,63
				h6.6L153.2,52.5z"/>
			<path fill="#009DAF" d="M176.3,72.9V46.6h19.1v4.6h-13.8v5.6h12.7v4.6h-12.7v6.8H196v4.7H176.3z"/>
			<path fill="#009DAF" d="M196.9,72.9V46.6H207c1.7,0,3.4,0.3,4.9,0.9c1.5,0.6,2.8,1.4,3.8,2.6c1.1,1.1,1.9,2.5,2.5,4
				c0.6,1.6,0.9,3.4,0.9,5.4c0,2-0.3,3.8-0.8,5.5c-0.5,1.6-1.3,3.1-2.3,4.2c-1,1.2-2.2,2.1-3.6,2.7c-1.4,0.6-2.9,1-4.6,1H196.9z
				 M206.7,68.4c2.4,0,4.1-0.7,5.2-2.2c1.1-1.5,1.6-3.7,1.6-6.7c0-1.5-0.1-2.7-0.4-3.8c-0.3-1.1-0.7-1.9-1.3-2.6
				c-0.6-0.7-1.3-1.2-2.3-1.5c-0.9-0.3-2-0.5-3.3-0.5h-4v17.2H206.7z"/>
			<path fill="#009DAF" d="M235.9,46.6h5.6v17.5c0,3.2-0.9,5.6-2.8,7.2c-1.9,1.6-4.5,2.4-7.9,2.4c-3.2,0-5.7-0.8-7.5-2.3
				c-1.8-1.5-2.8-3.9-2.8-7V46.6h5.5V64c0,1.6,0.4,2.9,1.2,3.9c0.8,1,2,1.4,3.5,1.4c3.5,0,5.2-1.7,5.2-5.1V46.6z"/>
			<path fill="#009DAF" d="M266.2,63.9c-0.3,1.5-0.7,2.9-1.4,4.1c-0.6,1.2-1.4,2.3-2.4,3.1c-0.9,0.9-2.1,1.5-3.3,2
				c-1.2,0.5-2.6,0.7-4.1,0.7c-1.7,0-3.3-0.3-4.8-0.9c-1.5-0.6-2.7-1.4-3.8-2.6c-1.1-1.2-1.9-2.6-2.5-4.3c-0.6-1.7-0.9-3.7-0.9-5.9
				c0-2.2,0.3-4.2,0.8-6c0.6-1.8,1.4-3.3,2.4-4.5c1-1.2,2.3-2.2,3.8-2.8c1.5-0.7,3.2-1,5-1c1.6,0,3.1,0.2,4.4,0.7
				c1.3,0.5,2.4,1.2,3.4,2c1,0.9,1.7,1.9,2.3,3c0.6,1.2,0.9,2.4,1,3.7h-5.4c-0.4-1.5-1.1-2.7-2.1-3.5c-1-0.8-2.2-1.2-3.5-1.2
				c-2.3,0-3.9,0.8-5,2.5c-1.1,1.6-1.6,3.9-1.6,6.8c0,2.9,0.5,5.2,1.6,6.8c1.1,1.6,2.6,2.4,4.8,2.4c1.6,0,2.9-0.4,3.9-1.3
				c1-0.9,1.7-2.2,2-3.8H266.2z"/>
			<path fill="#009DAF" d="M283.5,72.9l-1.6-5.4h-9.6l-1.8,5.4h-5.8l9.3-26.3h6.3l9.2,26.3H283.5z M277,52.5L277,52.5L273.6,63h6.6
				L277,52.5z"/>
			<path fill="#009DAF" d="M310.6,63.9c-0.3,1.5-0.7,2.9-1.4,4.1c-0.6,1.2-1.4,2.3-2.4,3.1c-1,0.9-2.1,1.5-3.3,2
				c-1.3,0.5-2.6,0.7-4.1,0.7c-1.7,0-3.3-0.3-4.8-0.9c-1.5-0.6-2.7-1.4-3.8-2.6c-1.1-1.2-1.9-2.6-2.5-4.3c-0.6-1.7-0.9-3.7-0.9-5.9
				c0-2.2,0.3-4.2,0.8-6c0.6-1.8,1.4-3.3,2.4-4.5c1-1.2,2.3-2.2,3.8-2.8c1.5-0.7,3.2-1,5-1c1.6,0,3.1,0.2,4.4,0.7
				c1.3,0.5,2.5,1.2,3.4,2c1,0.9,1.7,1.9,2.3,3c0.6,1.2,0.9,2.4,1,3.7h-5.5c-0.4-1.5-1.1-2.7-2.1-3.5c-1-0.8-2.2-1.2-3.5-1.2
				c-2.3,0-3.9,0.8-5,2.5c-1.1,1.6-1.6,3.9-1.6,6.8c0,2.9,0.5,5.2,1.6,6.8c1.1,1.6,2.6,2.4,4.8,2.4c1.6,0,2.9-0.4,3.9-1.3
				c1-0.9,1.7-2.2,2-3.8H310.6z"/>
			<path fill="#009DAF" d="M311.5,72.9V46.6h5.4v26.3H311.5z"/>
			<path fill="#009DAF" d="M330.9,73.8c-4,0-7.1-1.2-9.3-3.6c-2.2-2.4-3.2-5.8-3.2-10.2c0-2.2,0.3-4.2,0.8-6
				c0.5-1.8,1.4-3.3,2.4-4.5c1.1-1.2,2.4-2.2,3.9-2.8c1.5-0.6,3.3-1,5.3-1c2,0,3.8,0.3,5.3,1c1.6,0.6,2.8,1.6,3.9,2.8
				c1,1.2,1.8,2.7,2.4,4.5c0.5,1.8,0.8,3.8,0.8,6c0,4.5-1.1,7.9-3.2,10.2C338,72.7,334.9,73.8,330.9,73.8z M330.9,69.1
				c1,0,1.9-0.2,2.7-0.5c0.9-0.4,1.6-0.9,2.3-1.6c0.6-0.7,1.1-1.7,1.5-2.8c0.4-1.1,0.5-2.5,0.5-4c0-3.1-0.6-5.5-1.8-7.1
				c-1.2-1.6-3-2.4-5.3-2.4c-2.3,0-4.1,0.8-5.3,2.4c-1.2,1.6-1.8,4-1.8,7.1c0,3.1,0.6,5.4,1.9,6.8C326.9,68.4,328.6,69.1,330.9,69.1
				z M328.3,44.2l-1.2-2.2l8.1-4.8l1.8,3.2L328.3,44.2z"/>
			<path fill="#009DAF" d="M361,72.9l-11.1-17.6v17.6h-5.1V46.6h5.8l10.3,16.9V46.6h5.1v26.3H361z"/>
		</g>
		<path fill="#009DAF" d="M455.5,51.4c0,20.2-17.3,36.6-38.7,36.6c-21.4,0-38.7-16.4-38.7-36.6c0-20.2,17.3-36.6,38.7-36.6
			C438.2,14.9,455.5,31.3,455.5,51.4z"/>
		<g>
			<rect x="415.3" y="38.9" fill="#EFEFEF" width="3.3" height="25.7"/>
			<path fill="#EFEFEF" d="M418.6,73.5h-3.3c0-2.1-2.2-3.9-5-3.9h-18.3v-2.6h18.3C414.9,67.1,418.6,70,418.6,73.5"/>
			<path fill="#EFEFEF" d="M418.6,73.5h-3.3c0-3.5,3.7-6.4,8.3-6.4h18.3v2.6h-18.3C420.9,69.7,418.6,71.4,418.6,73.5"/>
			<path fill="#EFEFEF" d="M412,64.6h-20V32.5h18.3c4.6,0,8.3,2.9,8.3,6.4h-3.3c0-2.1-2.2-3.8-5-3.8h-15V62H412V64.6z"/>
			<path fill="#EFEFEF" d="M441.9,64.6h-20V62h16.7V35.1h-15c-2.8,0-5,1.7-5,3.8h-3.3c0-3.5,3.7-6.4,8.3-6.4h18.3V64.6z"/>
		</g>
	</g>
</g>
<g id="logo">
</g>
<g id="CTA">
</g>
<g id="BENEFICIOS">
</g>
<g id="CONTENIDO_DEL_WEBINAR">
</g>
<g id="EXPERTO">
</g>
<g id="horarios">
</g>
<g id="pie_de_página">
	<g id="Capa_1">
	</g>
</g>
<g id="marca">
</g>
<g id="REDES">
</g>
<g id="Capa_15">
</g>
</svg>
