<?xml version="1.0" encoding="utf-8"?>
<!-- Generator: Adobe Illustrator 17.1.0, SVG Export Plug-In . SVG Version: 6.00 Build 0)  -->
<!DOCTYPE svg PUBLIC "-//W3C//DTD SVG 1.1//EN" "http://www.w3.org/Graphics/SVG/1.1/DTD/svg11.dtd">
<svg version="1.1" xmlns="http://www.w3.org/2000/svg" xmlns:xlink="http://www.w3.org/1999/xlink" x="0px" y="0px" width="74.6px"
	 height="74.6px" viewBox="0 0 74.6 74.6" enable-background="new 0 0 74.6 74.6" xml:space="preserve">
<g id="fondo">
</g>
<g id="imagen_vendedora">
</g>
<g id="titulo">
</g>
<g id="icono_x5F_slogan">
</g>
<g id="logo">
</g>
<g id="CTA">
</g>
<g id="BENEFICIOS">
</g>
<g id="CONTENIDO_DEL_WEBINAR">
</g>
<g id="EXPERTO">
</g>
<g id="horarios">
</g>
<g id="pie_de_página">
	<g id="Capa_1">
	</g>
</g>
<g id="marca">
</g>
<g id="REDES">
	<g>
		<path fill="#009DAF" d="M37.3,0C16.7,0,0,16.7,0,37.3c0,20.6,16.7,37.3,37.3,37.3c20.6,0,37.3-16.7,37.3-37.3
			C74.6,16.7,57.9,0,37.3,0L37.3,0z M55.9,28.9l0,1.2c0,12.1-9.2,26.1-26.1,26.1c-5.2,0-10-1.5-14.1-4.1c0.7,0.1,1.4,0.1,2.2,0.1
			c4.3,0,8.3-1.5,11.4-3.9c-4-0.1-7.4-2.7-8.6-6.4c0.6,0.1,1.1,0.2,1.7,0.2c0.8,0,1.7-0.1,2.4-0.3c-4.2-0.8-7.4-4.6-7.4-9v-0.1
			c1.2,0.7,2.6,1.1,4.1,1.1c-2.5-1.6-4.1-4.5-4.1-7.6c0-1.7,0.5-3.3,1.3-4.6c4.5,5.6,11.3,9.2,18.9,9.6c-0.2-0.7-0.2-1.4-0.2-2.1
			c0-5.1,4.1-9.2,9.2-9.2c2.6,0,5,1.1,6.7,2.9c2.1-0.4,4.1-1.2,5.8-2.2c-0.7,2.1-2.1,3.9-4.1,5.1c1.9-0.2,3.6-0.7,5.3-1.5
			C59.2,26,57.7,27.6,55.9,28.9L55.9,28.9z M55.9,28.9"/>
	</g>
</g>
<g id="Capa_15">
</g>
</svg>
