<?xml version="1.0" encoding="utf-8"?>
<!-- Generator: Adobe Illustrator 17.0.0, SVG Export Plug-In . SVG Version: 6.00 Build 0)  -->
<!DOCTYPE svg PUBLIC "-//W3C//DTD SVG 1.1//EN" "http://www.w3.org/Graphics/SVG/1.1/DTD/svg11.dtd">
<svg version="1.1" id="landing" xmlns="http://www.w3.org/2000/svg" xmlns:xlink="http://www.w3.org/1999/xlink" x="0px" y="0px"
	 width="127.081px" height="127.081px" viewBox="0 0 127.081 127.081" enable-background="new 0 0 127.081 127.081"
	 xml:space="preserve">
<g>
	<g>
		<g>
			<path fill="#1D253B" d="M63.54,0C28.45,0,0,28.45,0,63.541c0,35.089,28.45,63.541,63.541,63.541
				c35.089,0,63.541-28.452,63.541-63.541C127.081,28.45,98.629,0,63.54,0L63.54,0z M63.54,119.138
				c-30.654,0-55.597-24.944-55.597-55.597S32.887,7.943,63.54,7.943s55.597,24.944,55.597,55.597S94.194,119.138,63.54,119.138
				L63.54,119.138z M83.288,65.984c1.512,2.56,2.272,5.546,2.272,8.966c0,5.251-1.566,9.627-4.691,13.124
				c-3.127,3.506-7.64,5.569-13.543,6.189v8.99h-7.524V94.31c-9.843-1.008-15.932-6.734-18.282-17.157l11.635-3.034
				c1.079,6.554,4.647,9.828,10.704,9.828c2.831,0,4.925-0.698,6.26-2.101c1.334-1.405,2.001-3.095,2.001-5.08
				c0-2.055-0.666-3.615-2.001-4.67c-1.334-1.063-4.305-2.404-8.904-4.033c-4.134-1.435-7.369-2.847-9.695-4.259
				c-2.327-1.396-4.22-3.358-5.671-5.879c-1.45-2.529-2.179-5.477-2.179-8.826c0-4.398,1.303-8.362,3.894-11.883
				c2.591-3.513,6.67-5.662,12.239-6.446v-6.941h7.524v6.942c8.409,1.008,13.854,5.763,16.327,14.272l-10.362,4.25
				c-2.025-5.833-5.142-8.749-9.378-8.749c-2.125,0-3.831,0.651-5.111,1.955c-1.288,1.303-1.932,2.884-1.932,4.739
				c0,1.893,0.621,3.344,1.862,4.359c1.234,1.008,3.894,2.256,7.959,3.754c4.467,1.629,7.973,3.172,10.51,4.622
				C79.743,61.423,81.768,63.431,83.288,65.984L83.288,65.984z M83.288,65.984"/>
		</g>
	</g>
</g>
</svg>
