<?xml version="1.0" encoding="utf-8"?>
<!-- Generator: Adobe Illustrator 17.0.0, SVG Export Plug-In . SVG Version: 6.00 Build 0)  -->
<!DOCTYPE svg PUBLIC "-//W3C//DTD SVG 1.1//EN" "http://www.w3.org/Graphics/SVG/1.1/DTD/svg11.dtd">
<svg version="1.1" id="landing" xmlns="http://www.w3.org/2000/svg" xmlns:xlink="http://www.w3.org/1999/xlink" x="0px" y="0px"
	 width="146.3px" height="146.3px" viewBox="0 0 146.3 146.3" enable-background="new 0 0 146.3 146.3" xml:space="preserve">
<g>
	<g>
		<g>
			<circle fill="#1D253B" cx="73.15" cy="73.15" r="73.15"/>
			<g>
				<g>
					<g>
						<path fill="#FFFFFF" d="M73.684,65.491c1.703-0.385,2.771-2.076,2.388-3.78c-0.385-1.703-2.076-2.771-3.781-2.387
							c-2.132,0.481-4.482,0.878-5.65,0.969c-0.419-0.525-1.019-1.417-1.489-2.116c-1.852-2.757-4.157-6.188-7.48-7.782
							c-0.005-0.003-4.14-1.919-4.14-1.919l-1.805-1.521l-2.722,2.708l2.719,18.177c0.009,0.062-0.006,0.126-0.044,0.176
							l-2.826,3.869c-0.045,0.063-0.118,0.098-0.193,0.098c-0.077,0-0.148-0.036-0.193-0.098l-2.826-3.869
							c-0.038-0.05-0.053-0.114-0.044-0.176l2.718-18.177l-2.722-2.708l-1.805,1.521c0,0-4.146,1.92-4.311,2.019
							c-4.984,2.488-6.741,7.538-7.831,14.345c-0.707,4.411,1.118,7.226,3.048,10.206c0.407,0.629,0.829,1.279,1.255,1.984
							c0.594,0.982,1.638,1.524,2.708,1.524c0.106,0,0.213-0.006,0.319-0.017c0.271,0.884,0.706,1.701,1.262,2.432l0.002,34.244
							c0,2.102,1.706,3.807,3.808,3.807c2.103,0,3.808-1.705,3.808-3.808l-0.002-30.188c0.271,0.024,0.54,0.036,0.807,0.036
							c0.267,0,0.536-0.012,0.807-0.036v30.188c-0.001,2.103,1.705,3.808,3.807,3.808c2.103,0,3.808-1.705,3.808-3.808l0.001-34.243
							c0.974-1.279,1.578-2.812,1.578-4.531l0.004-16.536c0.444,0.621,0.861,1.241,1.239,1.804c1.373,2.044,2.458,3.659,3.95,4.444
							c0.392,0.206,0.915,0.481,2.326,0.481C67.575,66.629,69.834,66.361,73.684,65.491L73.684,65.491z M37.889,65.84
							c0.238-1.492,0.494-2.752,0.767-3.819l0.002,7.418C37.903,68.078,37.677,67.162,37.889,65.84L37.889,65.84z M37.889,65.84"/>
					</g>
					<path fill="#FFFFFF" d="M48.661,46.829c4.624,0,8.075-4.309,8.153-11.534c0.05-5.014-2.336-8.014-8.153-8.014
						c-5.817,0-8.205,3-8.154,8.014C40.585,42.52,44.037,46.829,48.661,46.829L48.661,46.829z M48.661,46.829"/>
					<path fill="#FFFFFF" d="M94.757,83.852h-7.674c-0.752,0-1.361,0.609-1.361,1.361v32.049c0,0.753,0.609,1.361,1.361,1.361h7.674
						c0.752,0,1.361-0.608,1.361-1.361V85.213C96.118,84.461,95.508,83.852,94.757,83.852L94.757,83.852z M94.757,83.852"/>
					<path fill="#FFFFFF" d="M78.794,93.242H71.12c-0.753,0-1.362,0.609-1.362,1.36v22.66c0,0.752,0.609,1.361,1.362,1.361h7.673
						c0.751,0,1.36-0.609,1.36-1.361V94.604C80.154,93.852,79.544,93.242,78.794,93.242L78.794,93.242z M78.794,93.242"/>
					<path fill="#FFFFFF" d="M110.72,77.593h-7.673c-0.752,0-1.361,0.608-1.361,1.36v38.31c0,0.753,0.609,1.361,1.361,1.361h7.673
						c0.752,0,1.361-0.608,1.361-1.361v-38.31C112.082,78.201,111.472,77.593,110.72,77.593L110.72,77.593z M110.72,77.593"/>
					<path fill="#FFFFFF" d="M114.483,53.841c-0.384-0.487-1.023-0.693-1.618-0.524l-20.995,6.009
						c-0.627,0.179-1.07,0.737-1.102,1.39c-0.033,0.652,0.354,1.251,0.959,1.491l3.613,1.436
						c-13.406,7.177-28.127,10.745-28.284,10.783c-1.907,0.454-3.09,2.375-2.636,4.282c0.395,1.661,1.917,2.808,3.621,2.729
						c0.221-0.01,0.443-0.041,0.66-0.092c0.714-0.171,16.942-4.083,31.594-12.307l0.699,4.95c0.092,0.646,0.584,1.163,1.224,1.284
						c0.64,0.122,1.288-0.178,1.61-0.745l10.781-18.992C114.916,54.996,114.866,54.327,114.483,53.841L114.483,53.841z
						 M114.483,53.841"/>
				</g>
			</g>
		</g>
	</g>
</g>
</svg>
