<?xml version="1.0" encoding="utf-8"?>
<!-- Generator: Adobe Illustrator 17.0.0, SVG Export Plug-In . SVG Version: 6.00 Build 0)  -->
<!DOCTYPE svg PUBLIC "-//W3C//DTD SVG 1.1//EN" "http://www.w3.org/Graphics/SVG/1.1/DTD/svg11.dtd">
<svg version="1.1" id="landing" xmlns="http://www.w3.org/2000/svg" xmlns:xlink="http://www.w3.org/1999/xlink" x="0px" y="0px"
	 width="146.3px" height="146.3px" viewBox="0 0 146.3 146.3" enable-background="new 0 0 146.3 146.3" xml:space="preserve">
<g>
	<g>
		<g>
			<circle fill="#1D253B" cx="73.15" cy="73.15" r="73.15"/>
			<g>
				<g>
					<path fill="#FFFFFF" d="M71.766,39.298c4.633,0,8.403-3.77,8.403-8.405c0-4.634-3.77-8.405-8.403-8.405
						c-4.634,0-8.405,3.771-8.405,8.405C63.362,35.527,67.132,39.298,71.766,39.298L71.766,39.298z M71.766,39.298"/>
					<path fill="#FFFFFF" d="M56.335,62.268c0.432,0.225,0.895,0.357,1.377,0.392c0.085,0.006,0.171,0.009,0.256,0.009
						c1.323,0,2.525-0.728,3.136-1.9l2.295-4.4v6.787c0,0.962,0.782,1.744,1.743,1.744h13.737c0.962,0,1.744-0.782,1.744-1.744
						v-7.194l2.507,4.806c0.611,1.173,1.813,1.901,3.136,1.901c0.085,0,0.172-0.003,0.256-0.009
						c0.482-0.035,0.945-0.167,1.377-0.392c0.837-0.437,1.454-1.173,1.737-2.074c0.283-0.901,0.199-1.858-0.238-2.696l-7.94-15.22
						c-0.611-1.172-1.709-1.9-3.487-1.9H65.829c-1.416,0-2.461,0.766-3.053,1.9l-7.94,15.221
						C53.935,59.226,54.607,61.366,56.335,62.268L56.335,62.268z M56.335,62.268"/>
					<g>
						<path fill="#FFFFFF" d="M41.01,95.362c3.521,0,6.385-2.865,6.385-6.386c0-3.522-2.864-6.387-6.385-6.387
							c-3.521,0-6.386,2.865-6.386,6.387C34.624,92.497,37.488,95.362,41.01,95.362L41.01,95.362z M41.01,95.362"/>
						<path fill="#FFFFFF" d="M48.375,97.626c-0.465-0.891-1.339-1.444-2.65-1.444h-9.159c-1.192,0-1.946,0.598-2.387,1.444
							l-6.034,11.566c-0.332,0.636-0.396,1.364-0.181,2.048c0.216,0.684,0.684,1.244,1.32,1.576c0.329,0.172,0.68,0.272,1.046,0.298
							c0.066,0.005,0.13,0.007,0.195,0.007c1.005,0,1.918-0.553,2.383-1.444l1.744-3.343v4.552c0,0.73,0.594,1.325,1.325,1.325
							h10.439c0.73,0,1.325-0.594,1.325-1.325v-4.86l1.905,3.652c0.464,0.891,1.377,1.444,2.383,1.445
							c0.065,0,0.129-0.003,0.194-0.008c0.366-0.026,0.718-0.126,1.046-0.298c0.636-0.332,1.105-0.892,1.32-1.576
							c0.216-0.684,0.151-1.412-0.18-2.048L48.375,97.626z M48.375,97.626"/>
					</g>
					<path fill="#FFFFFF" d="M65.582,88.976c0,3.521,2.865,6.386,6.386,6.386s6.385-2.865,6.385-6.386
						c0-3.522-2.864-6.387-6.385-6.387S65.582,85.454,65.582,88.976L65.582,88.976z M65.582,88.976"/>
					<path fill="#FFFFFF" d="M79.333,97.626c-0.464-0.891-1.321-1.444-2.65-1.444l-9.162-0.001c-1.019,0-1.944,0.599-2.384,1.445
						l-6.034,11.566c-0.332,0.636-0.396,1.363-0.181,2.048c0.216,0.684,0.684,1.244,1.32,1.576c0.329,0.171,0.681,0.271,1.047,0.298
						c0.065,0.005,0.129,0.007,0.194,0.007c1.005,0,1.918-0.553,2.383-1.444l1.744-3.343v4.552c0,0.73,0.594,1.325,1.325,1.325
						h10.439c0.73,0,1.325-0.594,1.325-1.325v-4.86l1.905,3.652c0.464,0.891,1.377,1.444,2.383,1.444
						c0.065,0,0.129-0.002,0.194-0.007c0.366-0.026,0.718-0.126,1.046-0.298c0.637-0.332,1.105-0.892,1.32-1.576
						c0.216-0.684,0.151-1.412-0.18-2.048L79.333,97.626z M79.333,97.626"/>
					<g>
						<path fill="#FFFFFF" d="M97.173,88.976c0,3.521,2.865,6.386,6.386,6.386c3.52,0,6.385-2.865,6.385-6.386
							c0-3.522-2.865-6.387-6.385-6.387C100.037,82.589,97.173,85.454,97.173,88.976L97.173,88.976z M97.173,88.976"/>
						<path fill="#FFFFFF" d="M116.956,109.192l-6.034-11.566c-0.464-0.891-1.194-1.444-2.65-1.444h-9.159
							c-1.229,0-1.945,0.598-2.386,1.444l-6.034,11.566c-0.332,0.636-0.397,1.364-0.181,2.048c0.215,0.684,0.683,1.244,1.32,1.576
							c0.328,0.172,0.681,0.272,1.046,0.298c0.065,0.005,0.129,0.007,0.194,0.007c1.006,0,1.919-0.553,2.383-1.444l1.744-3.343
							v4.552c0,0.73,0.594,1.325,1.325,1.325h10.439c0.73,0,1.325-0.594,1.325-1.325v-4.86l1.905,3.652
							c0.465,0.891,1.378,1.444,2.383,1.445c0.065,0,0.129-0.003,0.195-0.008c0.366-0.026,0.717-0.126,1.046-0.298
							c0.636-0.332,1.104-0.892,1.32-1.576C117.353,110.556,117.288,109.829,116.956,109.192L116.956,109.192z M116.956,109.192"/>
					</g>
					<path fill="#FFFFFF" d="M40.644,80.114c0.789,0,1.427-0.638,1.427-1.427v-4.87h28.737v4.87c0,0.788,0.638,1.427,1.427,1.427
						c0.788,0,1.427-0.638,1.427-1.427v-4.87h28.736v4.87c0,0.788,0.639,1.427,1.427,1.427c0.789,0,1.427-0.638,1.427-1.427v-5.663
						c0-1.136-0.924-2.061-2.061-2.061H73.662v-3.03c0-0.789-0.639-1.427-1.428-1.427c-0.787,0-1.427,0.638-1.427,1.427v3.03H41.279
						c-1.136,0-2.062,0.924-2.062,2.061v5.663C39.217,79.475,39.856,80.114,40.644,80.114L40.644,80.114z M40.644,80.114"/>
				</g>
			</g>
		</g>
	</g>
</g>
</svg>
