<?xml version="1.0" encoding="utf-8"?>
<!-- Generator: Adobe Illustrator 17.0.0, SVG Export Plug-In . SVG Version: 6.00 Build 0)  -->
<!DOCTYPE svg PUBLIC "-//W3C//DTD SVG 1.1//EN" "http://www.w3.org/Graphics/SVG/1.1/DTD/svg11.dtd">
<svg version="1.1" id="landing" xmlns="http://www.w3.org/2000/svg" xmlns:xlink="http://www.w3.org/1999/xlink" x="0px" y="0px"
	 width="146.3px" height="146.3px" viewBox="0 0 146.3 146.3" enable-background="new 0 0 146.3 146.3" xml:space="preserve">
<g>
	<g>
		<g>
			<circle fill="#1D253B" cx="73.15" cy="73.15" r="73.15"/>
			<g>
				<g>
					<path fill="#FFFFFF" d="M82.574,37.041c0,5.203-4.218,9.422-9.422,9.422c-5.203,0-9.422-4.219-9.422-9.422
						c0-5.204,4.219-9.422,9.422-9.422C78.356,27.619,82.574,31.837,82.574,37.041L82.574,37.041z M82.574,37.041"/>
					<g>
						<path fill="#FFFFFF" d="M108.427,42.563c0,4.399-3.566,7.964-7.968,7.964c-4.398,0-7.964-3.565-7.964-7.964
							c0-4.398,3.566-7.964,7.964-7.964C104.861,34.599,108.427,38.164,108.427,42.563L108.427,42.563z M108.427,42.563"/>
						<path fill="#FFFFFF" d="M105.759,52.466c-0.132-0.083-0.277-0.14-0.416-0.201c-0.887-0.592-1.882-1.027-2.897-1.275
							l-1.986,1.996l-1.92-2.018c-0.007,0.004-0.015,0.004-0.022,0.004c-1.038,0.247-2.053,0.693-2.955,1.3
							c-0.136,0.057-0.276,0.115-0.409,0.198c-1.462,0.897-4.046,2.481-6.248,4.951c-2.829-4.574-7.253-7.296-9.482-8.663
							c-0.158-0.097-0.327-0.165-0.492-0.237c-1.049-0.7-2.226-1.213-3.43-1.508l-2.349,2.363l-2.276-2.388
							c-0.007,0-0.015,0-0.026,0.004c-1.224,0.29-2.427,0.818-3.497,1.537c-0.162,0.068-0.324,0.136-0.482,0.23
							c-2.233,1.368-6.661,4.093-9.49,8.675c-2.204-2.477-4.794-4.065-6.258-4.962c-0.133-0.083-0.273-0.141-0.414-0.201
							c-0.887-0.593-1.884-1.027-2.901-1.279l-1.982,2l-1.925-2.021c-0.007,0.004-0.015,0.004-0.017,0.004
							c-1.038,0.247-2.054,0.693-2.959,1.3c-0.137,0.061-0.277,0.115-0.406,0.198c-3.91,2.398-15.809,9.698-7.084,25.73
							c0.561,1.03,1.62,1.616,2.718,1.616c0.499,0,1.006-0.122,1.476-0.377c0.162-0.09,0.313-0.194,0.452-0.305l0.004,28.786
							c0,2.018,1.633,3.652,3.656,3.652c2.018,0,3.651-1.634,3.651-3.652V82.506c0.143,0.006,0.288,0.017,0.435,0.017
							c0.028,0,0.057-0.004,0.086-0.004v25.397c0,2.018,1.633,3.656,3.651,3.656c2.019,0,3.656-1.638,3.656-3.656V78.818
							c0.226,0.241,0.488,0.452,0.797,0.621c0.471,0.255,0.976,0.377,1.475,0.377c1.02,0,2.004-0.51,2.589-1.415
							c0.136,0.269,0.262,0.531,0.409,0.801c0.665,1.217,1.917,1.91,3.217,1.91c0.589,0,1.188-0.143,1.746-0.445
							c0.194-0.108,0.369-0.23,0.535-0.363l0.004,34.054c0,2.388,1.935,4.323,4.323,4.323c2.387,0,4.323-1.935,4.323-4.323V84.294
							c0.168,0.011,0.341,0.021,0.513,0.021c0.033,0,0.069-0.004,0.101-0.004v30.047c0,2.388,1.935,4.323,4.323,4.323
							c2.388,0,4.323-1.935,4.323-4.323v-34.43c0.266,0.29,0.578,0.542,0.94,0.74c0.557,0.302,1.156,0.445,1.746,0.445
							c1.3,0,2.553-0.693,3.217-1.91c0.143-0.266,0.266-0.525,0.402-0.787c0.586,0.894,1.566,1.401,2.582,1.401
							c0.499,0,1.006-0.122,1.475-0.377c0.165-0.09,0.313-0.194,0.457-0.305v28.786c0,2.018,1.637,3.652,3.655,3.652
							c2.018,0,3.656-1.634,3.656-3.652l-0.004-25.414c0.147,0.006,0.29,0.017,0.438,0.017c0.026,0,0.054-0.004,0.083-0.004v25.397
							c0,2.018,1.637,3.656,3.656,3.656c2.018,0,3.655-1.638,3.655-3.656V78.818c0.222,0.241,0.489,0.452,0.794,0.621
							c0.47,0.255,0.976,0.377,1.475,0.377c1.095,0,2.158-0.586,2.718-1.616C121.568,62.165,109.669,54.864,105.759,52.466
							L105.759,52.466z M37.678,72.742c-1.691-4.146-1.358-7.17,0-9.526V72.742z M45.846,70.75H45.81l-2.921-4.629l2.921-12.837
							h0.036l2.921,12.837L45.846,70.75z M53.979,72.721v-9.49c0.373,0.65,0.665,1.35,0.859,2.111
							c-0.075,1.21-0.033,2.492,0.151,3.852C54.826,70.272,54.499,71.442,53.979,72.721L53.979,72.721z M63.508,72.742
							c-1.997-4.904-1.601-8.484,0-11.267V72.742z M73.174,70.021h-0.043l-3.273-5.11l3.273-15.189h0.043l3.272,15.189
							L73.174,70.021z M82.797,72.717V61.493C84.388,64.269,84.779,67.838,82.797,72.717L82.797,72.717z M92.308,72.742
							c-0.517-1.267-0.84-2.43-1.008-3.5c0.193-1.394,0.236-2.707,0.154-3.942c0.197-0.751,0.484-1.444,0.854-2.083V72.742z
							 M100.481,70.75h-0.04l-2.921-4.629l2.921-12.837l0,0l2.961,12.837L100.481,70.75z M108.614,72.721v-9.49
							C109.956,65.579,110.291,68.595,108.614,72.721L108.614,72.721z M108.614,72.721"/>
					</g>
					<path fill="#FFFFFF" d="M53.792,42.563c0,4.399-3.566,7.964-7.964,7.964s-7.964-3.565-7.964-7.964
						c0-4.398,3.566-7.964,7.964-7.964S53.792,38.164,53.792,42.563L53.792,42.563z M53.792,42.563"/>
				</g>
			</g>
		</g>
	</g>
</g>
</svg>
