<?xml version="1.0" encoding="utf-8"?>
<!-- Generator: Adobe Illustrator 17.0.0, SVG Export Plug-In . SVG Version: 6.00 Build 0)  -->
<!DOCTYPE svg PUBLIC "-//W3C//DTD SVG 1.1//EN" "http://www.w3.org/Graphics/SVG/1.1/DTD/svg11.dtd">
<svg version="1.1" id="landing" xmlns="http://www.w3.org/2000/svg" xmlns:xlink="http://www.w3.org/1999/xlink" x="0px" y="0px"
	 width="136.083px" height="127.635px" viewBox="0 0 136.083 127.635" enable-background="new 0 0 136.083 127.635"
	 xml:space="preserve">
<g>
	<g>
		<g>
			<g>
				<path fill="#1D253B" d="M44.823,84.383c0-12.77,16.559-14.813,16.559-21.848c0-3.091-2.392-4.939-5.386-4.939
					c-4.139,0-6.385,4.192-6.385,4.192l-4.789-3.193c0,0,3.241-7.084,11.722-7.084c6.234,0,11.523,3.79,11.523,10.475
					c0,11.373-15.861,13.318-16.011,20.004h16.56v5.537H45.124C44.973,86.382,44.823,85.382,44.823,84.383L44.823,84.383z
					 M72.223,74.456l15.264-22.347h7.631v20.951h4.59V78.4h-4.59v9.127h-6.336V78.4h-16.56V74.456z M88.783,73.059v-10.97
					c0-1.747,0.252-3.693,0.252-3.693h-0.102c0,0-0.796,1.893-1.746,3.242l-8.18,11.323v0.098H88.783z M120.023,71.182l-1.233,4.415
					c-7.006,25.096-32.57,40.932-57.858,34.655c-24.289-6.028-39.384-29.564-35.754-53.542l7.318,2.042
					c1.696,0.474,3.269-1.067,2.831-2.772l-7.959-30.992c-0.438-1.706-2.558-2.298-3.816-1.066L0.688,46.309
					c-1.258,1.233-0.711,3.365,0.986,3.839l7.966,2.223c-5.945,32.436,14.065,64.74,46.719,73.243
					c33.907,8.83,68.491-12.158,77.912-45.905l1.179-4.221c0.34-1.217-0.372-2.479-1.589-2.819l-11.019-3.077
					C121.625,69.253,120.363,69.964,120.023,71.182L120.023,71.182z M133.044,51.87l-11.556,1.501
					c-1.253,0.163-2.137,1.311-1.974,2.564l0.455,3.505c0.163,1.253,1.311,2.137,2.564,1.974l11.556-1.502
					c1.253-0.163,2.137-1.311,1.974-2.564l-0.455-3.504C135.445,52.591,134.297,51.707,133.044,51.87L133.044,51.87z
					 M124.148,30.033l-10.151,5.721c-1.101,0.62-1.491,2.016-0.871,3.117l1.735,3.079c0.62,1.101,2.016,1.49,3.117,0.87
					l10.152-5.721c1.101-0.62,1.491-2.015,0.87-3.116l-1.735-3.079C126.644,29.803,125.249,29.414,124.148,30.033L124.148,30.033z
					 M107.72,13.12l-7.269,9.107c-0.788,0.987-0.627,2.427,0.36,3.215l2.762,2.205c0.988,0.788,2.428,0.626,3.216-0.361l7.269-9.107
					c0.788-0.988,0.627-2.427-0.36-3.215l-2.763-2.205C109.948,11.971,108.509,12.132,107.72,13.12L107.72,13.12z M86.152,3.592
					l-3.328,11.167c-0.361,1.211,0.328,2.486,1.539,2.846l3.387,1.01c1.211,0.361,2.485-0.328,2.846-1.539l3.329-11.168
					c0.361-1.211-0.328-2.485-1.539-2.846l-3.387-1.009C87.787,1.692,86.513,2.381,86.152,3.592L86.152,3.592z M62.585,2.837
					l1.097,11.602c0.119,1.257,1.235,2.181,2.493,2.062l3.518-0.333c1.258-0.119,2.182-1.235,2.063-2.493L70.66,2.073
					c-0.119-1.258-1.235-2.182-2.493-2.063l-3.518,0.333C63.39,0.462,62.466,1.578,62.585,2.837L62.585,2.837z M40.452,10.965
					l5.363,10.346c0.581,1.122,1.963,1.56,3.085,0.979l3.138-1.626c1.121-0.582,1.56-1.963,0.978-3.085L47.652,7.232
					c-0.581-1.121-1.962-1.56-3.084-0.978L41.43,7.881C40.308,8.462,39.87,9.843,40.452,10.965L40.452,10.965z M40.452,10.965"/>
			</g>
		</g>
	</g>
</g>
</svg>
