<?xml version="1.0" encoding="utf-8"?>
<!-- Generator: Adobe Illustrator 17.0.0, SVG Export Plug-In . SVG Version: 6.00 Build 0)  -->
<!DOCTYPE svg PUBLIC "-//W3C//DTD SVG 1.1//EN" "http://www.w3.org/Graphics/SVG/1.1/DTD/svg11.dtd">
<svg version="1.1" id="landing" xmlns="http://www.w3.org/2000/svg" xmlns:xlink="http://www.w3.org/1999/xlink" x="0px" y="0px"
	 width="146.3px" height="146.3px" viewBox="0 0 146.3 146.3" enable-background="new 0 0 146.3 146.3" xml:space="preserve">
<g>
	<g>
		<g>
			<circle fill="#1D253B" cx="73.15" cy="73.15" r="73.15"/>
			<g>
				<g>
					<path fill="#FFFFFF" d="M53.705,104.197V74.404c1.953,0.542,3.275,1.023,3.306,1.023c0.015,0.015,0.031,0.015,0.058,0.015
						c0.015,0,0.015,0.015,0.031,0.015l5.647,1.891v20.693c0,3.394,2.764,6.154,6.143,6.154h11.202h17.253h7.869h4.774h11.187
						c3.394,0,6.158-2.76,6.158-6.154V61.146c0-3.394-2.764-6.158-6.143-6.158l0,0H97.344v-4.609c0-1.276-1.023-2.31-2.299-2.31
						c-1.276,0-2.31,1.034-2.31,2.31v4.609h-23.83c-3.395,0-6.158,2.764-6.158,6.158v8.096l-3.198-1.069
						c-0.827-0.3-8.288-2.898-15.165-3.244l-0.919,1.834h-0.027l2.595,20.167l-3.075,5.378l-3.079-5.378l2.599-20.167h-0.031
						l-0.919-1.834c-7.131,0.346-14.908,3.141-15.254,3.275c-0.135,0.046-0.212,0.135-0.331,0.196
						c-0.258,0.119-0.481,0.254-0.707,0.434c-0.181,0.135-0.346,0.284-0.496,0.465c-0.165,0.196-0.315,0.392-0.434,0.6
						c-0.134,0.227-0.227,0.454-0.315,0.707c-0.046,0.135-0.134,0.238-0.165,0.377l-6.158,27.674
						c-0.45,2.072,0.842,4.129,2.914,4.594c0.284,0.061,0.573,0.092,0.842,0.092c1.772,0,3.348-1.219,3.756-3.021l5.674-25.525
						c0.408-0.134,0.842-0.258,1.338-0.392v29.792H53.705z M84.866,104.197h7.869 M124.253,98.042c0,1.695-1.365,3.075-3.064,3.075
						H68.905c-1.699,0-3.079-1.38-3.079-3.075V78.371l9.745,3.241c0.404,0.134,0.811,0.196,1.215,0.196
						c1.607,0,3.11-1.023,3.652-2.629c0.088-0.269,0.073-0.538,0.088-0.807l23.111-10.695c0.388-0.181,0.553-0.646,0.373-1.019
						c-0.177-0.392-0.63-0.557-1.019-0.377L80.36,76.749c-0.361-1.099-1.173-2.03-2.356-2.433L65.825,70.26v-9.115
						c0-1.695,1.38-3.079,3.079-3.079h52.285c1.699,0,3.079,1.384,3.079,3.079v36.896H124.253z M124.253,98.042"/>
				</g>
				<path fill="#FFFFFF" d="M42.956,64.106c5.359,0,9.714-6.22,9.714-11.594c0-5.363-4.355-9.714-9.714-9.714
					c-5.378,0-9.733,4.352-9.733,9.714C33.223,57.886,37.579,64.106,42.956,64.106L42.956,64.106z M42.956,64.106"/>
				<path fill="#FFFFFF" d="M99.612,82.35l1.591-1.007l-1.545-2.491l-1.591,0.988c-0.738-0.78-1.595-1.38-2.526-1.799l0.423-1.834
					l-2.868-0.661l-0.423,1.834c-1.034-0.046-2.072,0.135-3.064,0.511l-1.003-1.595l-2.495,1.565l1.007,1.591
					c-0.78,0.719-1.395,1.591-1.818,2.522l-1.815-0.419l-0.661,2.868l1.814,0.419c-0.027,1.038,0.135,2.072,0.527,3.064
					l-1.591,0.992l1.545,2.506l1.607-1.007c0.723,0.796,1.576,1.399,2.526,1.818l-0.423,1.818l2.868,0.661l0.423-1.818
					c1.019,0.031,2.072-0.135,3.064-0.527l0.988,1.591l2.495-1.545l-0.992-1.591c0.78-0.723,1.395-1.591,1.803-2.522l1.83,0.419
					l0.661-2.868l-1.83-0.434C100.165,84.376,100,83.326,99.612,82.35L99.612,82.35z M95.183,89.6
					c-2.479,1.549-5.724,0.796-7.285-1.68c-1.53-2.464-0.796-5.736,1.68-7.285c2.479-1.53,5.739-0.78,7.3,1.684
					C98.409,84.795,97.659,88.07,95.183,89.6L95.183,89.6z M95.183,89.6"/>
				<path fill="#FFFFFF" d="M115.542,77.664l-1.411,0.481c-0.419-0.734-0.977-1.368-1.622-1.861l0.661-1.338l-2.103-1.038
					l-0.661,1.338c-0.796-0.211-1.634-0.284-2.476-0.165l-0.481-1.411l-2.222,0.75l0.481,1.411
					c-0.738,0.423-1.369,0.976-1.864,1.638l-1.334-0.661l-1.038,2.103l1.338,0.661c-0.211,0.796-0.269,1.622-0.165,2.479
					l-1.411,0.481l0.75,2.206l1.426-0.465c0.408,0.734,0.977,1.365,1.622,1.86l-0.661,1.338l2.103,1.034l0.661-1.334
					c0.796,0.208,1.622,0.269,2.476,0.165l0.481,1.411l2.21-0.753l-0.48-1.411c0.75-0.419,1.38-0.992,1.876-1.638l1.338,0.661
					l1.034-2.103l-1.338-0.657c0.211-0.796,0.273-1.638,0.165-2.48l1.415-0.465L115.542,77.664z M110.122,85.187
					c-2.207,0.75-4.594-0.434-5.344-2.629c-0.738-2.207,0.435-4.594,2.641-5.343c2.191-0.753,4.594,0.434,5.347,2.641
					C113.501,82.05,112.317,84.453,110.122,85.187L110.122,85.187z M110.122,85.187"/>
			</g>
		</g>
	</g>
</g>
</svg>
