<?xml version="1.0" encoding="utf-8"?>
<!-- Generator: Adobe Illustrator 17.0.0, SVG Export Plug-In . SVG Version: 6.00 Build 0)  -->
<!DOCTYPE svg PUBLIC "-//W3C//DTD SVG 1.1//EN" "http://www.w3.org/Graphics/SVG/1.1/DTD/svg11.dtd">
<svg version="1.1" id="landing" xmlns="http://www.w3.org/2000/svg" xmlns:xlink="http://www.w3.org/1999/xlink" x="0px" y="0px"
	 width="601.6px" height="57.529px" viewBox="0 0 601.6 57.529" enable-background="new 0 0 601.6 57.529" xml:space="preserve">
<g>
	<g>
		<path fill-rule="evenodd" clip-rule="evenodd" fill="#B0915F" d="M97.818,34.65v0.49c4.581,0.425,4.907,2.324,4.907,6.477v3.436
			c0,3.99,0.687,10.729-6.379,10.729c-8.964,0-7.918-8.439-7.918-9.062v-6.705c0-3.599,0.066-4.253,4.352-4.875v-0.49H81.494v0.49
			c3.925,0.524,3.958,1.505,4.056,4.875v7.328c0,2.619-1.047,9.945,9.095,9.945c7.262,0,9.062-4.286,9.16-8.506l0.197-7.165
			c0.131-4.317,0.327-6.151,3.304-6.477v-0.49H97.818z"/>
		<path fill-rule="evenodd" clip-rule="evenodd" fill="#B0915F" d="M112.983,38.166h-4.546v0.412c3.498,0.773,3.939,1.847,3.939,4.6
			v4.132c0,6.251,0.138,8.786-3.581,9.172v0.414h8.236v-0.414c-3.994-0.8-3.829-2.204-3.829-9.034v-5.069
			c4.656,5.014,9.558,9.834,13.966,15.038l0.358-0.083c-0.138-6.004-0.275-12.641,0.109-15.671c0.221-1.79,0.579-2.837,2.479-3.086
			v-0.412h-7.519v0.412c3.112,0.552,3.829,1.323,3.855,3.94l0.138,10.052L112.983,38.166z"/>
		<path fill-rule="evenodd" clip-rule="evenodd" fill="#B0915F" d="M137.306,42.682c0.083-2.835,0.11-3.663,3.416-4.103v-0.412
			h-9.255v0.412c3.305,0.44,3.333,1.268,3.415,4.103v9.697c-0.083,2.837-0.11,3.663-3.415,4.104v0.414h9.255v-0.414
			c-3.306-0.442-3.333-1.268-3.416-4.104V42.682z"/>
		<path fill-rule="evenodd" clip-rule="evenodd" fill="#B0915F" d="M153.969,38.166v0.412c4.187,0.607,3.746,1.516,1.377,7.162
			l-3.25,7.796l-4.407-10.633c-0.716-1.736-1.984-3.94,1.901-4.326v-0.412h-8.732v0.412c2.451,0.277,3.086,2.039,3.912,4.049
			l6.225,14.901h0.386l5.261-12.56c1.706-3.993,2.506-6.167,5.095-6.39v-0.412H153.969z"/>
		<path fill-rule="evenodd" clip-rule="evenodd" fill="#B0915F" d="M161.744,56.897h15.314c0.551-1.653,0.909-3.359,0.937-5.455
			h-0.414c-0.689,3.473-2.396,4.793-5.866,4.793c-4.518,0-4.133-2.259-4.133-3.884v-4.518h2.865c2.066,0,3.581,0.028,3.939,2.452
			h0.413v-6.143h-0.413c-0.303,2.372-1.874,2.536-3.939,2.536h-2.865v-7.849h2.672c2.782,0,5.343,0.027,5.536,3.579h0.414
			l0.33-4.241h-14.792v0.412c3.306,0.44,3.333,1.268,3.416,4.103v9.697c-0.083,2.837-0.11,3.663-3.416,4.104V56.897z"/>
		<path fill-rule="evenodd" clip-rule="evenodd" fill="#B0915F" d="M185.737,38.69c2.892-0.027,5.73,1.267,5.73,4.489
			c0,3.058-3.086,4.271-5.73,4.298V38.69z M183.313,52.379c-0.083,2.837-0.109,3.663-3.415,4.104v0.414h9.667v-0.414
			c-3.773-0.524-3.828-1.077-3.828-4.104v-4.435c1.929,0.332,2.92-0.329,4.021,1.958c0.579,1.183,2.011,3.608,3.83,5.504
			c1.596,1.656,3.744,1.573,6.664,1.711l0.083-0.412c-4.546-0.937-7.189-5.676-9.311-9.393l-0.137-0.191
			c1.984-0.884,3.415-2.205,3.415-4.518c0-1.324-0.549-4.713-7.492-4.492l-6.721,0.222v0.385c3.084,0.275,3.223,0.909,3.223,5.123
			V52.379z"/>
		<path fill-rule="evenodd" clip-rule="evenodd" fill="#B0915F" d="M210.45,38.884c-1.211-0.663-2.617-1.076-4.021-1.076
			c-2.947,0-6.144,2.039-6.144,5.261c0,5.508,8.429,5.069,8.429,9.972c0,2.15-1.596,3.359-3.635,3.359
			c-3.031,0-4.875-2.615-5.564-5.261h-0.496l0.798,4.682c1.405,0.912,3.168,1.406,4.848,1.406c3.167,0,6.694-1.845,6.694-5.398
			c0-5.566-8.676-5.4-8.676-10.164c0-1.818,1.46-3.03,3.221-3.03c2.728,0,3.444,2.149,3.884,4.38h0.441L210.45,38.884z"/>
		<path fill-rule="evenodd" clip-rule="evenodd" fill="#B0915F" d="M219.402,42.682c0.084-2.835,0.111-3.663,3.416-4.103v-0.412
			h-9.255v0.412c3.306,0.44,3.333,1.268,3.416,4.103v9.697c-0.083,2.837-0.11,3.663-3.416,4.104v0.414h9.255v-0.414
			c-3.305-0.442-3.332-1.268-3.416-4.104V42.682z"/>
		<path fill-rule="evenodd" clip-rule="evenodd" fill="#B0915F" d="M224.718,38.717c3.14,0.441,3.168,1.268,3.25,4.103v9.559
			c-0.083,2.837-0.111,3.663-3.416,4.104v0.414l8.208,0.054c9.476,0.085,12.01-5.425,12.01-9.365c0-2.865-1.268-9.859-13.386-9.475
			l-6.666,0.222V38.717z M230.393,38.663c5.976-0.028,11.182,2.725,11.182,9.336c0,6.28-4.269,8.265-7.437,8.265
			c-3.415,0-3.745-1.765-3.745-3.609V38.663z"/>
		<path fill-rule="evenodd" clip-rule="evenodd" fill="#B0915F" d="M257.966,49.047c0.717,1.926,1.764,4.515,1.764,5.673
			c0,1.24-1.157,1.544-2.121,1.763v0.414h8.098v-0.414c-2.203-0.414-2.671-1.213-3.415-3.222L256.23,37.12
			c-0.578,0.688-1.266,1.185-2.01,1.487c0.303,0.524-0.055,1.183-0.304,1.902l-1.653,4.489l-3.112,8.126
			c-0.855,2.148-1.101,2.698-3.553,3.36v0.414h7.547v-0.414c-1.24-0.192-3.14-0.192-3.14-1.874c0-1.322,1.211-4.186,1.681-5.563
			H257.966z M257.608,47.779h-5.453l2.588-7.161L257.608,47.779z"/>
		<path fill-rule="evenodd" clip-rule="evenodd" fill="#B0915F" d="M266.043,38.717c3.141,0.441,3.168,1.268,3.251,4.103v9.559
			c-0.083,2.837-0.11,3.663-3.416,4.104v0.414l8.21,0.054c9.475,0.085,12.008-5.425,12.008-9.365c0-2.865-1.267-9.859-13.386-9.475
			l-6.667,0.222V38.717z M271.718,38.663c5.977-0.028,11.182,2.725,11.182,9.336c0,6.28-4.269,8.265-7.436,8.265
			c-3.416,0-3.747-1.765-3.747-3.609V38.663z"/>
		<path fill-rule="evenodd" clip-rule="evenodd" fill="#B0915F" d="M297.788,38.717c3.14,0.441,3.168,1.268,3.25,4.103v9.559
			c-0.082,2.837-0.11,3.663-3.415,4.104v0.414l8.207,0.054c9.474,0.085,12.01-5.425,12.01-9.365c0-2.865-1.268-9.859-13.386-9.475
			l-6.666,0.222V38.717z M303.461,38.663c5.975-0.028,11.184,2.725,11.184,9.336c0,6.28-4.271,8.265-7.437,8.265
			c-3.417,0-3.747-1.765-3.747-3.609V38.663z"/>
		<path fill-rule="evenodd" clip-rule="evenodd" fill="#B0915F" d="M320.211,56.897h15.314c0.551-1.653,0.909-3.359,0.935-5.455
			h-0.412c-0.686,3.473-2.395,4.793-5.866,4.793c-4.517,0-4.13-2.259-4.13-3.884v-4.518h2.863c2.067,0,3.581,0.028,3.938,2.452
			h0.414v-6.143h-0.414c-0.301,2.372-1.871,2.536-3.938,2.536h-2.863v-7.849h2.671c2.781,0,5.343,0.027,5.536,3.579h0.414
			l0.33-4.241h-14.791v0.412c3.304,0.44,3.332,1.268,3.414,4.103v9.697c-0.082,2.837-0.11,3.663-3.414,4.104V56.897z"/>
		<path fill-rule="evenodd" clip-rule="evenodd" fill="#B0915F" d="M356.344,38.248c-0.23-0.524-1.113-2.486-0.394-3.237
			l-0.031-0.361h-7.068v0.49c1.931,0.164,3.796,0.916,3.598,3.075l-0.425,4.449l-1.209,9.195c-0.458,2.648-0.753,4.057-3.665,4.546
			v0.492h9.128v-0.492c-3.96-0.653-3.99-2.126-3.926-3.403c0.228-5.071,0.489-8.702,1.014-13.709h0.067l7.752,17.603h0.36
			l8.342-18.354h0.067l0.884,14.297c0.164,2.879-1.439,3.173-3.958,3.565v0.492h10.762v-0.492c-3.5-0.588-3.5-1.306-3.86-5.855
			l-0.721-11.909c-0.129-2.291,1.146-3.076,3.24-3.501v-0.49h-7.197l-0.066,0.522c0.721,0.492,0.264,2.128-0.556,3.926
			l-5.922,13.021L356.344,38.248z"/>
		<path fill-rule="evenodd" clip-rule="evenodd" fill="#B0915F" d="M389.644,37.835c-5.756,0-10.053,3.802-10.053,9.667
			c0,5.952,4.272,9.725,10.082,9.725c5.785,0,10.082-3.773,10.082-9.697C399.756,42.628,396.695,37.835,389.644,37.835z
			 M389.424,38.497c4.215,0,7.054,4.628,7.136,9.502c0,3.939-2.012,8.567-6.554,8.567c-4.959,0-7.22-5.455-7.22-9.723
			C382.785,43.125,384.688,38.497,389.424,38.497z"/>
		<path fill-rule="evenodd" clip-rule="evenodd" fill="#B0915F" d="M406.235,38.166h-4.545v0.412c3.5,0.773,3.939,1.847,3.939,4.6
			v4.132c0,6.251,0.138,8.786-3.581,9.172v0.414h8.236v-0.414c-3.994-0.8-3.828-2.204-3.828-9.034v-5.069
			c4.654,5.014,9.557,9.834,13.964,15.038l0.359-0.083c-0.138-6.004-0.277-12.641,0.11-15.671c0.22-1.79,0.576-2.837,2.479-3.086
			v-0.412h-7.521v0.412c3.113,0.552,3.83,1.323,3.859,3.94l0.138,10.052L406.235,38.166z"/>
		<path fill-rule="evenodd" clip-rule="evenodd" fill="#B0915F" d="M441.219,37.561c-0.69,0.633-0.8,0.606-1.707,0.606h-12.614
			c-0.912,0-1.019,0.027-1.708-0.606l-0.277-0.247h-0.22l-0.387,5.151l0.387,0.082c0.964-3.415,2.479-3.554,5.646-3.554h1.653
			v12.726c0,3.414-0.164,4.323-3.856,4.765v0.414h10.136v-0.414c-3.691-0.442-3.857-1.351-3.857-4.765V38.992h1.653
			c3.167,0,4.683,0.138,5.646,3.554l0.387-0.082l-0.387-5.151h-0.219L441.219,37.561z"/>
		<path fill-rule="evenodd" clip-rule="evenodd" fill="#B0915F" d="M443.429,56.897h15.315c0.551-1.653,0.909-3.359,0.936-5.455
			h-0.412c-0.69,3.473-2.397,4.793-5.867,4.793c-4.518,0-4.131-2.259-4.131-3.884v-4.518h2.863c2.064,0,3.581,0.028,3.939,2.452
			h0.412v-6.143h-0.412c-0.302,2.372-1.875,2.536-3.939,2.536h-2.863v-7.849h2.669c2.784,0,5.345,0.027,5.537,3.579h0.415
			l0.33-4.241h-14.792v0.412c3.305,0.44,3.333,1.268,3.415,4.103v9.697c-0.082,2.837-0.11,3.663-3.415,4.104V56.897z"/>
		<path fill-rule="evenodd" clip-rule="evenodd" fill="#B0915F" d="M468.881,41.196c-0.192-0.441-0.935-2.094-0.328-2.726
			l-0.028-0.304h-5.95v0.412c1.624,0.138,3.194,0.773,3.029,2.589l-0.357,3.747l-1.019,7.74c-0.387,2.231-0.633,3.414-3.085,3.828
			v0.414h7.685v-0.414c-3.335-0.551-3.362-1.789-3.307-2.865c0.192-4.27,0.415-7.325,0.856-11.54h0.056l6.527,14.818h0.301
			l7.025-15.453h0.054l0.743,12.037c0.138,2.423-1.21,2.673-3.331,3.003v0.414h9.06v-0.414c-2.948-0.496-2.948-1.101-3.249-4.929
			l-0.606-10.027c-0.111-1.929,0.964-2.589,2.726-2.948v-0.412h-6.061l-0.054,0.44c0.606,0.412,0.22,1.792-0.469,3.307
			l-4.984,10.962L468.881,41.196z"/>
		<path fill-rule="evenodd" clip-rule="evenodd" fill="#B0915F" d="M498.751,37.835c-5.758,0-10.053,3.802-10.053,9.667
			c0,5.952,4.268,9.725,10.08,9.725c5.783,0,10.081-3.773,10.081-9.697C508.858,42.628,505.802,37.835,498.751,37.835z
			 M498.53,38.497c4.213,0,7.051,4.628,7.133,9.502c0,3.939-2.011,8.567-6.554,8.567c-4.958,0-7.218-5.455-7.218-9.723
			C491.892,43.125,493.795,38.497,498.53,38.497z"/>
		<path fill-rule="evenodd" clip-rule="evenodd" fill="#B0915F" d="M517.02,38.69c2.893-0.027,5.731,1.267,5.731,4.489
			c0,3.058-3.088,4.271-5.731,4.298V38.69z M514.594,52.379c-0.079,2.837-0.108,3.663-3.414,4.104v0.414h9.669v-0.414
			c-3.773-0.524-3.829-1.077-3.829-4.104v-4.435c1.929,0.332,2.919-0.329,4.021,1.958c0.578,1.183,2.011,3.608,3.828,5.504
			c1.599,1.656,3.747,1.573,6.666,1.711l0.084-0.412c-4.545-0.937-7.189-5.676-9.31-9.393l-0.138-0.191
			c1.984-0.884,3.415-2.205,3.415-4.518c0-1.324-0.552-4.713-7.492-4.492l-6.719,0.222v0.385c3.084,0.275,3.219,0.909,3.219,5.123
			V52.379z"/>
		<path fill-rule="evenodd" clip-rule="evenodd" fill="#B0915F" d="M530.496,56.897h15.315c0.551-1.653,0.909-3.359,0.936-5.455
			h-0.414c-0.689,3.473-2.397,4.793-5.868,4.793c-4.515,0-4.131-2.259-4.131-3.884v-4.518h2.866c2.064,0,3.579,0.028,3.938,2.452
			h0.414v-6.143h-0.414c-0.301,2.372-1.874,2.536-3.938,2.536h-2.866v-7.849h2.674c2.78,0,5.343,0.027,5.535,3.579h0.414
			l0.332-4.241h-14.792v0.412c3.305,0.44,3.333,1.268,3.415,4.103v9.697c-0.082,2.837-0.11,3.663-3.415,4.104V56.897z"/>
		<path fill-rule="evenodd" clip-rule="evenodd" fill="#B0915F" d="M548.677,56.897h15.396l1.573-5.122l-0.359-0.167
			c-2.121,3.524-2.81,4.82-6.997,4.518l-3.36-0.248c-0.412-1.322-0.412-2.783-0.412-4.159v-9.036c0-2.835,0.11-3.663,3.414-4.103
			v-0.412h-9.254v0.412c3.307,0.44,3.333,1.268,3.415,4.103v9.697c-0.082,2.837-0.109,3.663-3.415,4.104V56.897z"/>
		<path fill-rule="evenodd" clip-rule="evenodd" fill="#B0915F" d="M576.994,37.835c-5.755,0-10.053,3.802-10.053,9.667
			c0,5.952,4.27,9.725,10.082,9.725c5.782,0,10.08-3.773,10.08-9.697C587.103,42.628,584.045,37.835,576.994,37.835z
			 M576.774,38.497c4.216,0,7.051,4.628,7.136,9.502c0,3.939-2.012,8.567-6.554,8.567c-4.959,0-7.218-5.455-7.218-9.723
			C570.138,43.125,572.038,38.497,576.774,38.497z"/>
		<path fill-rule="evenodd" clip-rule="evenodd" fill="#B0915F" d="M600.69,38.884c-1.211-0.663-2.618-1.076-4.021-1.076
			c-2.947,0-6.145,2.039-6.145,5.261c0,5.508,8.43,5.069,8.43,9.972c0,2.15-1.597,3.359-3.636,3.359
			c-3.03,0-4.874-2.615-5.563-5.261h-0.497l0.799,4.682c1.405,0.912,3.168,1.406,4.848,1.406c3.166,0,6.693-1.845,6.693-5.398
			c0-5.566-8.677-5.4-8.677-10.164c0-1.818,1.462-3.03,3.223-3.03c2.726,0,3.444,2.149,3.884,4.38h0.44L600.69,38.884z"/>
	</g>
	<g>
		<path fill="#1E174F" d="M37.725,44.071c-1.332-2.687-1.991-6.349,0.862-10.374c2.252-3.173,4.648-5.836,2.828-11.883
			c3.579,4.139,4.636,9.104,3.262,12.816C43.011,39.14,39.078,39.954,37.725,44.071z"/>
		<path fill="#1E174F" d="M28.307,45.269c-7.858-1.122-16.034-11.214-7.828-22.136C28.256,12.781,33.299,7.791,27.976,0
			c8.108,6.832,4.55,15.329-1.989,25.396C22.608,30.6,20.9,39.099,28.307,45.269z"/>
		<path fill="#1E174F" d="M5.459,49.633c0,0,3.179-0.514,11.652-2.743c4.419-1.165,9.423-0.354,11.481,1.754
			c1.84,1.885,2.491,4.195,2.627,4.554c0.207,0.551,0.437,1.793,0.437,1.793s0.738-1.982,0.989-2.346
			c0.167-0.241,1.098-0.275,1.797-2.136c0.52-1.383,0.02-3.324-2.486-5.084c-5.408-3.796-6.064-12.961-1.373-19.86
			c5.835-8.581,6.64-13.14,4.02-17.144c9.075,8.237,3.844,16.879,0.844,21.266c-2.601,3.803-3.472,7.029-2.656,10.732
			c0.165,0.795,0.307,2.002,1.012,3.28c0.661,1.024,1.724,3.826,3.43,3.195c2.703-0.998,5.35-0.369,9.877,0.598
			c7.666,1.632,10.531,2.141,10.531,2.141l5.794,7.896c0,0-14.028-2.724-18.981-3.435c-5.63-0.807-10.904,0.086-12.79,3.35
			c-1.863-3.222-7.024-4.149-12.431-3.381C14.346,54.761,0,57.529,0,57.529L5.459,49.633z"/>
	</g>
</g>
</svg>
