<?xml version="1.0" encoding="utf-8"?>
<!-- Generator: Adobe Illustrator 17.0.0, SVG Export Plug-In . SVG Version: 6.00 Build 0)  -->
<!DOCTYPE svg PUBLIC "-//W3C//DTD SVG 1.1//EN" "http://www.w3.org/Graphics/SVG/1.1/DTD/svg11.dtd">
<svg version="1.1" id="landing" xmlns="http://www.w3.org/2000/svg" xmlns:xlink="http://www.w3.org/1999/xlink" x="0px" y="0px"
	 width="307.358px" height="28.126px" viewBox="0 0 307.358 28.126" enable-background="new 0 0 307.358 28.126"
	 xml:space="preserve">
<g>
	<g>
		<path fill="#B1936E" d="M26.473,27.469c-0.958-0.044-1.033-0.219-1.179-4.67c-1.328,1.678-1.991,2.335-2.949,3.065
			c-1.844,1.312-4.793,2.262-7.227,2.262c-2.875,0-6.119-1.24-7.814-2.919c-1.917-1.823-2.949-4.888-2.949-8.462
			c0-0.365,0-0.877,0.073-1.461v-1.167V5.827c0-3.878-4.312-3.52-4.424-4.011C-0.143,1.175,5.198,0.824,8.556,0.21
			c0.725-0.132,0.884,0.218,0.884,2.262L9.293,14.846v1.606c0,5.398,3.246,9.121,8.037,9.121c4.572,0,8.331-3.285,7.964-7.078
			v-0.219V6.047c0.057-4.642-4.499-3.722-4.499-4.232c0-0.803,6.556-1.431,8.692-1.8c0.423-0.073,0.947,0.059,0.947,1.664v3.929
			c2.654-3.21,5.898-4.815,9.659-4.815c4.055,0,6.487,1.532,8.773,5.325c2.802-3.648,6.047-5.325,10.175-5.325
			c6.341,0,10.175,4.378,10.175,11.673v7.998c0,1.606,0.296,3.211,0.738,3.794c0.589,0.801,2.507,1.678,3.907,1.823
			c0.664,0.073,0.884,0.292,0.884,0.73c0,0.437-0.294,0.657-0.81,0.657c-0.295,0-11.644-0.018-11.865-0.018
			c-0.516,0-0.964-0.256-0.965-0.711c-0.001-0.292,0.221-0.512,0.59-0.657c2.507-0.948,2.654-1.168,2.654-5.035v-7.34
			c0-3.429-0.516-5.326-1.917-7.15c-1.475-1.97-3.465-2.992-5.751-2.992c-3.54,0-7.152,2.408-7.152,4.744
			c0,0.218,0,0.51,0.075,0.875c0.221,1.168,0.221,1.314,0.221,2.408v9.31c0,3.648,0.958,4.814,4.422,5.107
			c0.812,0.073,1.18,0.365,1.18,0.803c0,0.437-0.369,0.657-0.957,0.657c0,0-11.697-0.023-11.919-0.023
			c-0.442,0-0.916-0.156-0.911-0.707c0.002-0.219,0.221-0.439,0.663-0.583c2.507-0.877,2.58-1.022,2.58-4.742v-9.677
			c0-5.033-2.801-8.097-7.373-8.097c-4.202,0-7.077,2.334-7.077,5.909V21.34c0,0.888,0.056,1.749,0.05,2.527
			c0.354,2.039,4.679,1.871,4.689,2.143c0.013,0.331-0.114,0.533-0.402,0.57C34.769,26.577,26.506,27.471,26.473,27.469z"/>
	</g>
	<g>
		<g>
			<path fill="none" d="M251.323,14.313c3.837,0.188,7.629,0.394,11.374,0.617l-5.836-11.116L251.323,14.313z"/>
		</g>
		<g>
			<path fill="#2E194A" d="M256.861,3.814l5.836,11.116c1.567,0.093,3.124,0.186,4.672,0.289l-8.035-14.447h-4.745l-7.296,13.354
				c1.347,0.061,2.692,0.123,4.03,0.186L256.861,3.814z"/>
		</g>
		<g>
			<path fill="#2E194A" d="M287.192,0.772h-4.436v15.539c1.489,0.123,2.966,0.242,4.436,0.365V0.772z"/>
		</g>
		<g>
			<path fill="#635285" d="M269.24,27.387h4.899l-6.77-12.168c-1.549-0.103-3.106-0.196-4.672-0.289L269.24,27.387z"/>
		</g>
		<g>
			<path fill="#635285" d="M244.429,27.387l6.894-13.074c-1.337-0.063-2.683-0.125-4.03-0.186l-7.248,13.26H244.429z"/>
		</g>
		<g>
			<path fill="#635285" d="M307.358,27.387v-3.712h-20.167v-6.997c-1.47-0.124-2.947-0.243-4.436-0.365v11.075H307.358z"/>
		</g>
		<g>
			<path fill="none" d="M149.076,13.566c1.969-0.065,3.949-0.127,5.933-0.185c0.317-0.092,0.581-0.216,0.772-0.384
				c0.43-0.378,0.645-1.101,0.645-2.167V6.96c0-1.029-0.214-1.745-0.645-2.14c-0.43-0.395-1.178-0.593-2.244-0.593H138.27v9.745
				c2.593-0.111,5.203-0.212,7.829-0.304v-0.103H149.076z"/>
		</g>
		<g>
			<polygon fill="#2E194A" points="102.574,0.772 94.494,16.714 94.494,16.714 			"/>
		</g>
		<g>
			<path fill="#2E194A" d="M79.569,0.772h-4.796l9.229,16.889c1.426-0.138,2.861-0.274,4.307-0.405L79.569,0.772z"/>
		</g>
		<g>
			<path fill="#2E194A" d="M120.011,0.772h-4.437v14.392c1.472-0.093,2.951-0.182,4.437-0.268V0.772z"/>
		</g>
		<g>
			<path fill="#2E194A" d="M183.458,4.381h12.226V0.772h-28.837v3.609h12.175v8.55c1.474-0.014,2.954-0.021,4.436-0.033V4.381z"/>
		</g>
		<g>
			<path fill="#2E194A" d="M231.427,0.772h-4.434v12.606c1.483,0.043,2.961,0.085,4.434,0.134V0.772z"/>
		</g>
		<g>
			<path fill="#2E194A" d="M207.599,0.772h-4.437v12.16c1.482,0.012,2.962,0.028,4.437,0.048V0.772z"/>
		</g>
		<g>
			<path fill="#2E194A" d="M146.1,13.566v0.103c0.99-0.036,1.981-0.073,2.977-0.103H146.1z"/>
		</g>
		<g>
			<path fill="#2E194A" d="M138.27,4.228h15.268c1.067,0,1.814,0.197,2.244,0.593c0.43,0.395,0.645,1.111,0.645,2.14v3.87
				c0,1.066-0.214,1.788-0.645,2.167c-0.192,0.168-0.455,0.292-0.772,0.384c1.908-0.052,3.823-0.101,5.746-0.148
				c0.068-0.421,0.108-0.876,0.108-1.369V5.931c0-1.825-0.447-3.14-1.339-3.948c-0.892-0.81-2.316-1.211-4.274-1.211h-21.417v13.399
				c1.474-0.071,2.952-0.135,4.436-0.199V4.228z"/>
		</g>
		<g>
			<polygon fill="#AF8F5D" points="98.804,16.36 106.96,0.772 98.804,16.36 			"/>
		</g>
		<g>
			<path fill="#AF8F5D" d="M98.804,16.36l8.156-15.587h-4.386l-8.08,15.942C95.922,16.593,97.356,16.477,98.804,16.36z"/>
		</g>
		<g opacity="0.3">
			
				<radialGradient id="SVGID_2_" cx="185.1014" cy="13.4736" r="1.7257" gradientTransform="matrix(1.2165 0 0 1 -73.1327 0)" gradientUnits="userSpaceOnUse">
				<stop  offset="0" style="stop-color:#D8C396"/>
				<stop  offset="1" style="stop-color:#B1915F"/>
			</radialGradient>
			<path fill="url(#SVGID_2_)" d="M153.538,13.566c0.592,0,1.076-0.065,1.472-0.185c-1.985,0.058-3.964,0.12-5.933,0.185H153.538z"
				/>
		</g>
		<g>
			<path fill="#635285" d="M89.318,27.387l2.012-4.431l3.164-6.242l0,0l-3.164,6.24l-3.022-5.699
				c-1.446,0.132-2.881,0.267-4.307,0.405L89.318,27.387L89.318,27.387z"/>
		</g>
		<g>
			<path fill="#635285" d="M120.011,27.387V14.896c-1.486,0.086-2.965,0.175-4.437,0.268v12.223H120.011z"/>
		</g>
		<g>
			<path fill="#635285" d="M183.458,27.387V12.899c-1.482,0.012-2.961,0.018-4.436,0.033v14.455H183.458z"/>
		</g>
		<g>
			<path fill="#635285" d="M204.479,26.074c0.878,0.876,2.524,1.312,4.935,1.312h15.814c2.412,0,4.048-0.436,4.908-1.312
				c0.859-0.878,1.291-2.54,1.291-4.977v-7.584c-1.472-0.049-2.95-0.092-4.434-0.134v10.296h-19.395V12.981
				c-1.475-0.02-2.955-0.036-4.437-0.048v8.164C203.162,23.535,203.601,25.196,204.479,26.074z"/>
		</g>
		<g>
			<path fill="#635285" d="M138.27,27.387V13.973c-1.485,0.063-2.962,0.128-4.436,0.199v13.215H138.27z"/>
		</g>
		<g>
			<path fill="#635285" d="M153.538,13.566h-4.461c-0.996,0.03-1.986,0.068-2.977,0.103v3.361l10.811,10.357h6.602l-12.175-10.368
				h3.914c1.956,0,3.379-0.402,4.272-1.211c0.65-0.587,1.055-1.453,1.231-2.575c-1.923,0.047-3.838,0.096-5.746,0.148
				C154.614,13.501,154.13,13.566,153.538,13.566z"/>
		</g>
		<g>
			<path fill="#C7A880" d="M98.804,16.358c-1.448,0.114-2.882,0.234-4.31,0.354l-3.164,6.242l-2.012,4.432h3.714L98.804,16.358z"/>
		</g>
		<g>
			
				<radialGradient id="SVGID_3_" cx="1171.8914" cy="-719.6896" r="13.4088" gradientTransform="matrix(-0.7725 0.635 0.635 0.7725 1617.551 -172.6819)" gradientUnits="userSpaceOnUse">
				<stop  offset="0" style="stop-color:#D8C396"/>
				<stop  offset="1" style="stop-color:#B1915F"/>
			</radialGradient>
			<path fill="url(#SVGID_3_)" d="M238.733,17.73l-1.177,2.707c15.187-0.28,32.015-2.737,36.011-9.128
				c-7.227,3.684-18.654,5.978-30.202,6.305c-0.359,0.012-3.181,0.092-3.181,0.092L238.733,17.73z"/>
		</g>
	</g>
</g>
</svg>
