<?xml version="1.0" encoding="utf-8"?>
<!-- Generator: Adobe Illustrator 17.0.0, SVG Export Plug-In . SVG Version: 6.00 Build 0)  -->
<!DOCTYPE svg PUBLIC "-//W3C//DTD SVG 1.1//EN" "http://www.w3.org/Graphics/SVG/1.1/DTD/svg11.dtd">
<svg version="1.1" id="landing" xmlns="http://www.w3.org/2000/svg" xmlns:xlink="http://www.w3.org/1999/xlink" x="0px" y="0px"
	 width="146.3px" height="146.3px" viewBox="0 0 146.3 146.3" enable-background="new 0 0 146.3 146.3" xml:space="preserve">
<g>
	<g>
		<g>
			<circle fill="#1D253B" cx="73.15" cy="73.15" r="73.15"/>
			<g>
				<path fill="#FFFFFF" d="M125.759,105.78V38.635h-104.8v67.145h42.776v4.316H41.378v3.569h62.609v-3.569H82.105v-4.316H125.759z
					 M28.63,95.884V46.306h89.46v49.578H28.63z M28.63,95.884"/>
				<path fill="#FFFFFF" d="M45.325,66.45h55.916V52.75H45.325V66.45z M46.433,53.855h53.691v11.479H46.433V53.855z M46.433,53.855"
					/>
				<path fill="#FFFFFF" d="M45.272,81.001h17.195V68.633H45.272V81.001z M46.377,69.75H61.35v10.132H46.377V69.75z M46.377,69.75"
					/>
				<path fill="#FFFFFF" d="M64.616,81.001h17.183V68.633H64.616V81.001z M65.721,69.75h14.973v10.132H65.721V69.75z M65.721,69.75"
					/>
				<path fill="#FFFFFF" d="M101.285,68.633H84.088v12.367h17.197V68.633z M100.177,79.881h-14.97V69.75h14.97V79.881z
					 M100.177,79.881"/>
				<rect x="45.272" y="83.809" fill="#FFFFFF" width="15.492" height="1.075"/>
				<rect x="45.272" y="85.783" fill="#FFFFFF" width="17.194" height="1.075"/>
				<rect x="45.272" y="87.836" fill="#FFFFFF" width="14.006" height="1.075"/>
				<rect x="45.272" y="90.058" fill="#FFFFFF" width="15.667" height="1.075"/>
				<rect x="44.264" y="92.141" fill="#FFFFFF" width="10.046" height="1.075"/>
				<rect x="64.616" y="83.809" fill="#FFFFFF" width="15.492" height="1.075"/>
				<rect x="64.616" y="85.783" fill="#FFFFFF" width="17.194" height="1.075"/>
				<rect x="64.616" y="87.836" fill="#FFFFFF" width="14.006" height="1.075"/>
				<rect x="64.616" y="90.058" fill="#FFFFFF" width="15.667" height="1.075"/>
				<rect x="63.605" y="92.141" fill="#FFFFFF" width="10.046" height="1.075"/>
				<rect x="84.263" y="83.723" fill="#FFFFFF" width="15.492" height="1.075"/>
				<rect x="84.263" y="85.697" fill="#FFFFFF" width="17.194" height="1.075"/>
				<rect x="84.263" y="87.747" fill="#FFFFFF" width="14.006" height="1.075"/>
				<rect x="84.263" y="89.972" fill="#FFFFFF" width="15.667" height="1.075"/>
				<rect x="83.255" y="92.055" fill="#FFFFFF" width="10.046" height="1.075"/>
				<path fill="#FFFFFF" d="M70.951,48.259h-25.69v3.124h25.69V48.259z M69.846,50.275H46.377v-0.911h23.468V50.275z M69.846,50.275
					"/>
			</g>
		</g>
	</g>
</g>
</svg>
