<?xml version="1.0" encoding="utf-8"?>
<!-- Generator: Adobe Illustrator 17.0.0, SVG Export Plug-In . SVG Version: 6.00 Build 0)  -->
<!DOCTYPE svg PUBLIC "-//W3C//DTD SVG 1.1//EN" "http://www.w3.org/Graphics/SVG/1.1/DTD/svg11.dtd">
<svg version="1.1" id="landing" xmlns="http://www.w3.org/2000/svg" xmlns:xlink="http://www.w3.org/1999/xlink" x="0px" y="0px"
	 width="113.831px" height="154.401px" viewBox="0 0 113.831 154.401" enable-background="new 0 0 113.831 154.401"
	 xml:space="preserve">
<g>
	<g>
		<g>
			<path fill="#1D253B" d="M92.177,134.182c1.167,0.184,2.334-0.085,3.27-0.775c0.96-0.691,1.589-1.712,1.765-2.879l1.052-6.901
				c0.207-1.374,1.052-2.579,2.311-3.208l6.233-3.117c1.083-0.537,1.858-1.436,2.219-2.549c0.361-1.136,0.238-2.341-0.269-3.385
				l-3.239-6.21c-0.629-1.228-0.629-2.694,0-3.93l3.239-6.202c0.506-1.052,0.629-2.249,0.269-3.393
				c-0.361-1.105-1.136-2.004-2.219-2.549l-6.233-3.117c-1.259-0.629-2.103-1.827-2.311-3.208l-1.052-6.893
				c-0.177-1.174-0.806-2.188-1.765-2.879c-0.936-0.691-2.103-0.99-3.27-0.783l-6.901,1.144c-1.374,0.238-2.756-0.215-3.746-1.205
				l-4.92-5.005c-0.806-0.806-1.919-1.29-3.117-1.29c-1.136,0-2.28,0.484-3.117,1.29l-4.89,5.005
				c-0.99,0.99-2.364,1.443-3.746,1.205l-6.893-1.144c-1.175-0.177-2.341,0.123-3.301,0.814c-0.929,0.66-1.589,1.704-1.742,2.879
				l-1.044,6.893c-0.215,1.382-1.082,2.548-2.311,3.178l-6.272,3.117c-1.013,0.545-1.827,1.474-2.188,2.579
				c-0.361,1.113-0.269,2.311,0.269,3.362l3.208,6.233c0.66,1.205,0.66,2.702,0,3.9l-3.208,6.241
				c-0.538,1.044-0.629,2.249-0.269,3.354c0.361,1.113,1.144,2.042,2.188,2.579l6.272,3.116c1.228,0.629,2.095,1.804,2.311,3.178
				l1.044,6.901c0.154,1.167,0.814,2.218,1.742,2.879c0.96,0.722,2.126,0.99,3.301,0.806l6.893-1.136
				c1.382-0.238,2.756,0.207,3.746,1.197l4.89,4.982c0.837,0.867,1.95,1.313,3.117,1.313c1.174,0,2.311-0.445,3.117-1.313
				l4.92-4.982c0.99-0.99,2.372-1.435,3.746-1.197L92.177,134.182z M73.493,129.146c-14.662,0-26.598-11.936-26.598-26.598
				c0-14.662,11.937-26.598,26.598-26.598c14.692,0,26.598,11.937,26.598,26.598C100.091,117.21,88.186,129.146,73.493,129.146
				L73.493,129.146z M73.493,129.146"/>
			<path fill="#1D253B" d="M73.493,79.788c-12.536,0-22.73,10.202-22.73,22.73c0,12.535,10.194,22.73,22.73,22.73
				c12.566,0,22.76-10.194,22.76-22.73C96.253,89.989,86.059,79.788,73.493,79.788L73.493,79.788z M73.493,79.788"/>
			<path fill="#1D253B" d="M113.133,139.164l-12.382-12.359l-0.629,4.168c-0.299,1.919-1.351,3.692-2.94,4.828
				c-1.558,1.144-3.508,1.62-5.488,1.32l-6.893-1.136c-0.568-0.031-0.929,0.115-1.167,0.391l-1.175,1.167l16.166,16.159
				c0.629,0.629,1.528,0.845,2.364,0.599c0.814-0.268,1.443-0.959,1.62-1.827l1.443-7.853l7.853-1.474
				c0.867-0.146,1.558-0.775,1.827-1.62C113.978,140.692,113.763,139.793,113.133,139.164L113.133,139.164z M113.133,139.164"/>
			<path fill="#1D253B" d="M62.431,135.955l-7.139,1.167c-1.98,0.299-3.93-0.177-5.489-1.351c-1.558-1.105-2.633-2.879-2.94-4.82
				l-0.629-4.145l-12.351,12.359c-0.629,0.629-0.837,1.528-0.599,2.364c0.269,0.845,0.96,1.443,1.827,1.62l7.86,1.474l1.466,7.853
				c0.153,0.867,0.783,1.558,1.62,1.827c0.806,0.246,1.742,0.031,2.341-0.599l16.159-16.159l-1.167-1.198
				C63.122,136.101,62.792,135.955,62.431,135.955L62.431,135.955z M62.431,135.955"/>
			<path fill="#1D253B" d="M80.54,25.908H22.607c-2.096,0-3.777,1.681-3.777,3.777c0,2.103,1.681,3.777,3.777,3.777H80.54
				c2.103,0,3.777-1.673,3.777-3.777C84.317,27.589,82.643,25.908,80.54,25.908L80.54,25.908z M80.54,25.908"/>
			<path fill="#1D253B" d="M80.54,45.275H22.607c-2.096,0-3.777,1.681-3.777,3.754c0,2.096,1.681,3.777,3.777,3.777H80.54
				c2.103,0,3.777-1.681,3.777-3.777C84.317,46.956,82.643,45.275,80.54,45.275L80.54,45.275z M80.54,45.275"/>
			<path fill="#1D253B" d="M40.331,124.141l-2.848-1.412c-0.722-0.391-1.382-0.837-2.011-1.374h-24.38
				c-1.674,0-3.025-1.351-3.025-3.032V11.061c0-1.65,1.351-3.024,3.025-3.024h81.177c1.643,0,3.024,1.374,3.024,3.024v55.323
				c1.351,0.33,2.641,0.906,3.746,1.743c2.218,1.589,3.754,4.107,4.168,6.863l0.123-63.898C103.331,4.974,98.349,0,92.269,0H11.092
				C4.974,0,0,4.974,0,11.092v107.261c0,6.118,4.974,11.092,11.092,11.092H35.05L40.331,124.141z M40.331,124.141"/>
		</g>
	</g>
	<g>
	</g>
</g>
</svg>
